#N canvas 44 65 1846 1042 12;
#X obj 280 72 ./GUI/oscillator_1;
#X obj 115 247 ./GUI/oscillator_2;
#X obj 1589 1 cnv 19 256 512 empty empty Global\ parameters 36 12 0 18 #c6ffc7 #9c00ff 0;
#N canvas 1237 406 450 300 bit_resolution 0;
#X msg 147 112 7;
#X msg 209 112 16;
#X msg 178 112 14;
#X msg 240 112 32;
#X floatatom 147 166 14 0 0 0 - - - 0;
#X obj 147 141 expr (pow(2 \, $i1)) - 1;
#X obj 147 86 loadbang;
#X obj 147 189 s bit;
#X connect 0 0 5 0;
#X connect 1 0 5 0;
#X connect 2 0 5 0;
#X connect 3 0 5 0;
#X connect 4 0 7 0;
#X connect 5 0 4 0;
#X connect 6 0 0 0;
#X restore 1646 59 pd bit_resolution;
#X obj 698 72 ./GUI/mixer;
#N canvas 1237 270 564 505 init 0;
#X obj 44 59 loadbang;
#X obj 449 29 loadbang;
#X msg 449 91 12;
#X obj 469 55 inlet;
#X obj 449 115 s pb_range;
#X obj 185 63 loadbang;
#X msg 44 83 \; o1_sync_I 0 \; o1_shape_I 94 \; o2_lf_I 0 \; o2_keyb_I 1 \; o1_lvl_I 127 \; o2_lvl_I 63 \; so_lvl_I 42 \; n_lvl_I 19 \; hpf_cut_I 0 \; hpf_res_I 0 \; hpf_env_I 64 \; hpf_vel_I 0 \; lpf_cut_I 64 \; lpf_res_I 42 \; lpf_env_I 76 \; lpf_vel_I 0 \; amp_env_I 100 \; amp_vel_I 0 \; amp_A_I 5 \; amp_S_I 127 \; amp_R_I 20 \; master_vol 0.8 \; pd_out set 0.6 \; pb_init 12 \;;
#X msg 185 87 \; slide_mod_dest_I 2 \; slide_mod_depth_I 1 \; glide_mod_dest_I 3 \; glide_mod_depth_I 0.25 \; press_mod_dest_I 11 \; press_mod_depth_I 0.2 \; strike_mod_dest_I 12 \; strike_mod_depth_I 0.3 \; lift_mod_dest_I 20 \; lift_mod_depth_I 0.12 \; area_mod_dest_I 7 \; area_mod_depth_I 0.2 \; 2dist_mod_dest_I 0 \; 2dist_mod_depth_I 0.5 \; glidevib_mod_dest_I 1 \;;
#X connect 0 0 6 0;
#X connect 1 0 2 0;
#X connect 2 0 4 0;
#X connect 3 0 2 0;
#X connect 5 0 7 0;
#X restore 1718 157 pd init;
#X obj 960 248 ./GUI/low-pass_filter;
#X obj 179 423 ./GUI/amplifier_envelope;
#X obj 959 424 ./GUI/filter_envelope;
#X obj 115 71 ./GUI/master_vol;
#X obj 115 203 s~ master;
#X obj 1696 422 r~ master;
#X obj 115 49 r master_vol;
#X obj 1626 420 r pd_out;
#X floatatom 1718 119 5 1 48 0 PitchBend\ range pb_init - 0;
#X obj 1696 445 out~;
#X obj 280 203 s o1_freq_O;
#X obj 625 203 s o1_pw_O;
#X obj 280 49 r o1_freq_I;
#X obj 415 49 r o1_sync_I;
#X obj 525 49 r o1_shape_I;
#X obj 625 49 r o1_pw_I;
#X obj 415 203 s o1_sync_O;
#X obj 517 203 s o1_shape_O;
#X obj 115 225 r o2_freq_I;
#X obj 228 225 r o2_fine_I;
#X obj 342 225 r o2 shape_I;
#X obj 456 225 r o2_pw_I;
#X obj 534 224 r o2_lf_I;
#X obj 611 224 r o2_keyb_I;
#X obj 115 378 s o2_freq_O;
#X obj 228 378 s o2_fine_O;
#X obj 342 378 s o2_shape_O;
#X obj 533 378 s o2_lf_O;
#X obj 456 378 s o2_pw_O;
#X obj 610 378 s o2_keyb_O;
#X obj 698 49 r o1_lvl_I;
#X obj 781 49 r o2_lvl_I;
#X obj 857 28 r so_lvl_I;
#X obj 887 49 r n_lvl_I;
#X obj 698 378 s o1_lvl_O;
#X obj 781 378 s o2_lvl_O;
#X obj 855 400 s so_lvl_O;
#X obj 887 378 s n_lvl_O;
#X obj 960 225 r lpf_cut_I;
#X obj 1086 225 r lpf_res_I;
#X obj 1212 225 r lpf_env_I;
#X obj 1301 225 r lpf_vel_I;
#X obj 1391 225 r lpf_key_I;
#X obj 960 379 s lpf_cut_O;
#X obj 1086 379 s lpf_res_O;
#X obj 1212 379 s lpf_env_O;
#X obj 1302 379 s lpf_vel_O;
#X obj 1391 379 s lpf_key_O;
#X obj 959 555 s filter_A_O;
#X obj 959 401 r filter_A_I;
#X obj 1127 401 r filter_D_I;
#X obj 1289 401 r filter_S_I;
#X obj 1126 555 s filter_D_O;
#X obj 1289 555 s filter_S_O;
#X obj 1383 555 s filter_R_O;
#X obj 1383 401 r filter_R_I;
#X obj 280 401 r amp_vel_I;
#X obj 381 400 r amp_A_I;
#X obj 482 400 r amp_D_I;
#X obj 553 400 r amp_S_I;
#X obj 624 400 r amp_R_I;
#X obj 179 401 r amp_env_I;
#X obj 179 555 s amp_env_O;
#X obj 280 554 s amp_vel_O;
#X obj 381 554 s amp_A_O;
#X obj 482 554 s amp_D_O;
#X obj 553 554 s amp_S_O;
#X obj 624 554 s amp_R_O;
#X obj 698 443 cnv 19 255 96 empty empty Engine 96 16 0 16 #e3c6ff #606060 0;
#N canvas 266 317 864 584 synth_engine 0;
#X obj 108 85 mpe;
#X obj 108 109 route 1;
#X obj 108 133 route 1 2 3 4 5 6, f 93;
#X obj 108 158 logic/mpe_voice;
#X obj 216 158 logic/mpe_voice;
#X obj 324 158 logic/mpe_voice;
#X obj 432 158 logic/mpe_voice;
#X obj 540 158 logic/mpe_voice;
#X obj 648 158 logic/mpe_voice;
#X obj 108 355 throw~ voices;
#X obj 216 379 throw~ voices;
#X obj 324 403 throw~ voices;
#X obj 432 427 throw~ voices;
#X obj 540 451 throw~ voices;
#X obj 648 475 throw~ voices;
#X obj 108 331 logic/p6_voicecard;
#X obj 216 355 logic/p6_voicecard;
#X obj 324 379 logic/p6_voicecard;
#X obj 432 403 logic/p6_voicecard;
#X obj 540 427 logic/p6_voicecard;
#X obj 648 451 logic/p6_voicecard;
#X obj 555 261 loadbang;
#X msg 231 307 2;
#X msg 339 331 3;
#X msg 447 355 4;
#X msg 555 379 5;
#X msg 663 403 6;
#X msg 771 427 7;
#X text 426 261 Assign Voice ID:;
#X connect 0 0 1 0;
#X connect 1 0 2 0;
#X connect 2 0 15 0;
#X connect 2 0 3 0;
#X connect 2 1 4 0;
#X connect 2 1 16 0;
#X connect 2 2 5 0;
#X connect 2 2 17 0;
#X connect 2 3 6 0;
#X connect 2 3 18 0;
#X connect 2 4 7 0;
#X connect 2 4 19 0;
#X connect 2 5 8 0;
#X connect 2 5 20 0;
#X connect 15 0 9 0;
#X connect 16 0 10 0;
#X connect 17 0 11 0;
#X connect 18 0 12 0;
#X connect 19 0 13 0;
#X connect 20 0 14 0;
#X connect 21 0 22 0;
#X connect 21 0 23 0;
#X connect 21 0 24 0;
#X connect 21 0 25 0;
#X connect 21 0 26 0;
#X connect 21 0 27 0;
#X connect 22 0 15 1;
#X connect 23 0 16 1;
#X connect 24 0 17 1;
#X connect 25 0 18 1;
#X connect 26 0 19 1;
#X connect 27 0 20 1;
#X restore 772 505 pd synth_engine;
#X obj 178 599 cnv 19 1194 412 empty empty Modulation\ Matrix 486 16 0 16 #c7c6ff #606060 0;
#X obj 286 661 hradio 32 1 0 21 slide_mod_dest slide_mod_dest_I Slide -52 16 0 14 #e3c6ff #0400ff #131255 0;
#N canvas 544 119 1120 965 modulation_display 0;
#X obj 44 120 r slide_mod_dest;
#X msg 44 144 \$1;
#X obj 44 229 s slide_mod_module;
#X obj 179 229 route 2;
#X msg 179 253 symbol N/A;
#X obj 179 277 s slide_mod_module;
#X obj 45 40 text define -k mod_dest;
#A set Off Off \; Oscillator_1 Shape \; Oscillator_1 Pulse_Width \; Oscillator_2 Shape \; Oscillator_2 Pulse_Width \; Mixer Osc_1_level \; Mixer Osc_2_level \; Mixer Sub_oct_level \; Mixer Noise_level \; High-Pass_Filter Cutoff \; High-Pass_Filter Resonance \; Low-Pass_Filter Cutoff \; Low-Pass_Filter Resonance \; Filter_Envelope Attack \; Filter_Envelope Decay \; Filter_Envelope Sustain \; Filter_Envelope Release \; Amplifier_Envelope Attack \; Amplifier_Envelope Decay \; Amplifier_Envelope Sustain \; Amplifier_Envelope Release \;;
#X obj 44 205 text get mod_dest;
#X obj 273 229 s slide_mod_parameter;
#X obj 313 277 s slide_mod_parameter;
#X msg 71 746 \$1;
#X obj 206 831 route 2;
#X msg 206 855 symbol N/A;
#X obj 71 807 text get mod_dest;
#X obj 71 722 r press_mod_dest;
#X obj 71 831 s press_mod_module;
#X obj 300 831 s press_mod_parameter;
#X obj 206 879 s press_mod_module;
#X obj 340 879 s press_mod_parameter;
#X obj 300 807 text get mod_dest 1 1;
#X obj 273 205 text get mod_dest 1 1;
#X msg 550 135 \$1;
#X obj 726 220 route 2;
#X msg 726 244 symbol N/A;
#X msg 52 538 \$1;
#X obj 192 623 route 2;
#X msg 192 647 symbol N/A;
#X obj 52 599 text get mod_dest;
#X obj 281 599 text get mod_dest 1 1;
#X obj 52 514 r strike_mod_dest;
#X obj 52 623 s strike_mod_module;
#X obj 281 623 s strike_mod_parameter;
#X obj 192 671 s strike_mod_module;
#X obj 332 672 s strike_mod_parameter;
#X msg 548 355 \$1;
#X obj 688 440 route 2;
#X msg 688 464 symbol N/A;
#X obj 548 416 text get mod_dest;
#X obj 777 416 text get mod_dest 1 1;
#X obj 548 331 r lift_mod_dest;
#X obj 548 440 s lift_mod_module;
#X obj 688 488 s lift_mod_module;
#X obj 828 489 s lift_mod_parameter;
#X obj 777 440 s lift_mod_parameter;
#X obj 549 65 text define -k glidevib_dest;
#A set Off \; On \;;
#X obj 550 111 r glidevib_mod_dest;
#X obj 550 196 text get glidevib_dest;
#X obj 550 220 s glidevib_mod_parameter;
#X obj 726 268 s glidevib_mod_parameter;
#X msg 48 337 \$1;
#X obj 183 422 route 2;
#X msg 183 446 symbol N/A;
#X obj 48 398 text get mod_dest;
#X obj 277 398 text get mod_dest 1 1;
#X obj 48 313 r glide_mod_dest;
#X obj 48 422 s glide_mod_module;
#X obj 277 422 s glide_mod_parameter;
#X obj 183 470 s glide_mod_module;
#X obj 317 470 s glide_mod_parameter;
#X msg 550 552 \$1;
#X obj 690 637 route 2;
#X msg 690 661 symbol N/A;
#X obj 550 613 text get mod_dest;
#X obj 779 613 text get mod_dest 1 1;
#X obj 550 528 r area_mod_dest;
#X obj 550 637 s area_mod_module;
#X obj 779 637 s area_mod_parameter;
#X obj 690 685 s area_mod_module;
#X obj 830 686 s area_mod_parameter;
#X msg 551 751 \$1;
#X obj 691 836 route 2;
#X msg 691 860 symbol N/A;
#X obj 551 812 text get mod_dest;
#X obj 780 812 text get mod_dest 1 1;
#X obj 551 727 r 2dist_mod_dest;
#X obj 551 836 s 2dist_mod_module;
#X obj 780 836 s 2dist_mod_parameter;
#X obj 691 884 s 2dist_mod_module;
#X obj 831 885 s 2dist_mod_parameter;
#X connect 0 0 1 0;
#X connect 1 0 7 0;
#X connect 1 0 20 0;
#X connect 3 0 4 0;
#X connect 4 0 5 0;
#X connect 4 0 9 0;
#X connect 7 0 2 0;
#X connect 7 1 3 0;
#X connect 10 0 13 0;
#X connect 10 0 19 0;
#X connect 11 0 12 0;
#X connect 12 0 17 0;
#X connect 12 0 18 0;
#X connect 13 0 15 0;
#X connect 13 1 11 0;
#X connect 14 0 10 0;
#X connect 19 0 16 0;
#X connect 20 0 8 0;
#X connect 21 0 46 0;
#X connect 22 0 23 0;
#X connect 23 0 48 0;
#X connect 24 0 27 0;
#X connect 24 0 28 0;
#X connect 25 0 26 0;
#X connect 26 0 32 0;
#X connect 26 0 33 0;
#X connect 27 0 30 0;
#X connect 27 1 25 0;
#X connect 28 0 31 0;
#X connect 29 0 24 0;
#X connect 34 0 37 0;
#X connect 34 0 38 0;
#X connect 35 0 36 0;
#X connect 36 0 41 0;
#X connect 36 0 42 0;
#X connect 37 0 40 0;
#X connect 37 1 35 0;
#X connect 38 0 43 0;
#X connect 39 0 34 0;
#X connect 45 0 21 0;
#X connect 46 0 47 0;
#X connect 46 1 22 0;
#X connect 49 0 52 0;
#X connect 49 0 53 0;
#X connect 50 0 51 0;
#X connect 51 0 57 0;
#X connect 51 0 58 0;
#X connect 52 0 55 0;
#X connect 52 1 50 0;
#X connect 53 0 56 0;
#X connect 54 0 49 0;
#X connect 59 0 62 0;
#X connect 59 0 63 0;
#X connect 60 0 61 0;
#X connect 61 0 67 0;
#X connect 61 0 68 0;
#X connect 62 0 65 0;
#X connect 62 1 60 0;
#X connect 63 0 66 0;
#X connect 64 0 59 0;
#X connect 69 0 72 0;
#X connect 69 0 73 0;
#X connect 70 0 71 0;
#X connect 71 0 77 0;
#X connect 71 0 78 0;
#X connect 72 0 75 0;
#X connect 72 1 70 0;
#X connect 73 0 76 0;
#X connect 74 0 69 0;
#X restore 188 610 pd modulation_display;
#X symbolatom 1117 670 16 0 0 2 Parameter slide_mod_parameter - 0;
#X symbolatom 975 670 19 0 0 2 Module slide_mod_module - 0;
#X obj 1246 667 else/knob 26 0 1 0 0 slide_mod_depth slide_mod_depth_I #e3c6ff #9c00ff #131255 0 0 0 0 1 320 0 0 0;
#X obj 286 778 hradio 32 1 0 21 press_mod_dest press_mod_dest_I Press -52 16 0 14 #e3c6ff #0400ff #131255 0;
#X symbolatom 1117 785 16 0 0 2 - press_mod_parameter - 0;
#X symbolatom 975 785 19 0 0 2 - press_mod_module - 0;
#X obj 1246 784 else/knob 26 0 1 0 0 press_mod_depth press_mod_depth_I #e3c6ff #9c00ff #131255 0 0 0 0 1 320 0 0 0;
#X obj 960 72 ./GUI/high-pass_filter;
#X obj 960 49 r hpf_cut_I;
#X obj 1086 49 r hpf_res_I;
#X obj 1212 49 r hpf_env_I;
#X obj 1301 49 r hpf_vel_I;
#X obj 1391 49 r hpf_key_I;
#X obj 960 203 s hpf_cut_O;
#X obj 1086 203 s hpf_res_O;
#X obj 1212 203 s hpf_env_O;
#X obj 1302 203 s hpf_vel_O;
#X obj 1391 203 s hpf_key_O;
#X obj 893 949 hradio 32 1 0 2 glidevib_mod_dest glidevib_mod_dest_I Pitch\ Glide/Vibrato -164 16 0 14 #e3c6ff #0400ff #131255 0;
#X symbolatom 968 961 11 0 0 2 State glidevib_mod_parameter - 0;
#X obj 286 739 hradio 32 1 0 21 strike_mod_dest strike_mod_dest_I Strike -58 16 0 14 #e3c6ff #0400ff #131255 0;
#X symbolatom 1117 744 16 0 0 2 - strike_mod_parameter - 0;
#X symbolatom 975 744 19 0 0 2 - strike_mod_module - 0;
#X obj 1246 745 else/knob 26 0 1 0 0 strike_mod_depth strike_mod_depth_I #e3c6ff #9c00ff #131255 0 0 0 0 1 320 0 0 0;
#X text 1240 649 Depth;
#X obj 286 817 hradio 32 1 0 21 lift_mod_dest lift_mod_dest_I Lift -44 16 0 14 #e3c6ff #0400ff #131255 0;
#X symbolatom 1117 822 16 0 0 2 - lift_mod_parameter - 0;
#X symbolatom 975 822 19 0 0 2 - lift_mod_module - 0;
#X obj 1246 823 else/knob 26 0 1 0 0 lift_mod_depth lift_mod_depth_I #e3c6ff #9c00ff #131255 0 0 0 0 1 320 0 0 0;
#X obj 286 700 hradio 32 1 0 21 glide_mod_dest glide_mod_dest_I Glide -52 16 0 14 #e3c6ff #0400ff #131255 0;
#X symbolatom 1117 705 16 0 0 2 - glide_mod_parameter - 0;
#X symbolatom 975 705 19 0 0 2 - glide_mod_module - 0;
#X obj 1246 706 else/knob 26 0 1 0 0 glide_mod_depth glide_mod_depth_I #e3c6ff #9c00ff #131255 0 0 0 0 1 320 0 0 0;
#X obj 286 856 hradio 32 1 0 21 area_mod_dest area_mod_dest_I Area -44 16 0 14 #e3c6ff #0400ff #131255 0;
#X symbolatom 1117 861 16 0 0 2 - area_mod_parameter - 0;
#X symbolatom 975 861 19 0 0 2 - area_mod_module - 0;
#X obj 1246 862 else/knob 26 0 1 0 0 area_mod_depth area_mod_depth_I #e3c6ff #9c00ff #131255 0 0 0 0 1 320 0 0 0;
#X obj 286 895 hradio 32 1 0 21 2dist_mod_dest 2dist_mod_dest_I Distance -74 16 0 14 #e3c6ff #0400ff #131255 0;
#X symbolatom 1117 900 16 0 0 2 - 2dist_mod_parameter - 0;
#X symbolatom 975 900 19 0 0 2 - 2dist_mod_module - 0;
#X obj 1246 901 else/knob 26 0 1 0 0 2dist_mod_depth 2dist_mod_depth_I #e3c6ff #9c00ff #131255 0 0 0 0 1 320 0 0 0;
#X floatatom 1286 670 5 0 0 0 - slide_mod_depth - 0;
#X floatatom 1285 710 5 0 0 0 - glide_mod_depth - 0;
#X floatatom 1285 748 5 0 0 0 - strike_mod_depth - 0;
#X floatatom 1285 788 5 0 0 0 - press_mod_depth - 0;
#X floatatom 1285 827 5 0 0 0 - lift_mod_depth - 0;
#X floatatom 1286 866 5 0 0 0 - area_mod_depth - 0;
#X floatatom 1286 904 5 0 0 0 - 2dist_mod_depth - 0;
#X connect 0 0 16 0;
#X connect 0 1 22 0;
#X connect 0 2 23 0;
#X connect 0 3 17 0;
#X connect 1 0 30 0;
#X connect 1 1 31 0;
#X connect 1 2 32 0;
#X connect 1 3 34 0;
#X connect 1 4 33 0;
#X connect 1 5 35 0;
#X connect 4 0 40 0;
#X connect 4 1 41 0;
#X connect 4 2 42 0;
#X connect 4 3 43 0;
#X connect 6 0 49 0;
#X connect 6 1 50 0;
#X connect 6 2 51 0;
#X connect 6 3 52 0;
#X connect 6 4 53 0;
#X connect 7 0 68 0;
#X connect 7 1 69 0;
#X connect 7 2 70 0;
#X connect 7 3 71 0;
#X connect 7 4 72 0;
#X connect 7 5 73 0;
#X connect 8 0 54 0;
#X connect 8 1 58 0;
#X connect 8 2 59 0;
#X connect 8 3 60 0;
#X connect 9 0 10 0;
#X connect 11 0 15 0;
#X connect 11 0 15 1;
#X connect 12 0 9 0;
#X connect 13 0 15 0;
#X connect 14 0 5 0;
#X connect 18 0 0 0;
#X connect 19 0 0 1;
#X connect 20 0 0 2;
#X connect 21 0 0 3;
#X connect 24 0 1 0;
#X connect 25 0 1 1;
#X connect 26 0 1 2;
#X connect 27 0 1 3;
#X connect 28 0 1 4;
#X connect 29 0 1 5;
#X connect 36 0 4 0;
#X connect 37 0 4 1;
#X connect 38 0 4 2;
#X connect 39 0 4 3;
#X connect 44 0 6 0;
#X connect 45 0 6 1;
#X connect 46 0 6 2;
#X connect 47 0 6 3;
#X connect 48 0 6 4;
#X connect 55 0 8 0;
#X connect 56 0 8 1;
#X connect 57 0 8 2;
#X connect 61 0 8 3;
#X connect 62 0 7 1;
#X connect 63 0 7 2;
#X connect 64 0 7 3;
#X connect 65 0 7 4;
#X connect 66 0 7 5;
#X connect 67 0 7 0;
#X connect 86 0 92 0;
#X connect 86 1 93 0;
#X connect 86 2 94 0;
#X connect 86 3 95 0;
#X connect 86 4 96 0;
#X connect 87 0 86 0;
#X connect 88 0 86 1;
#X connect 89 0 86 2;
#X connect 90 0 86 3;
#X connect 91 0 86 4;
