#N canvas 58 65 1846 1033 12;
#X obj 267 104 ./GUI/oscillator_1;
#X obj 102 279 ./GUI/oscillator_2;
#X obj 1589 1 cnv 19 256 512 empty empty Global\ parameters 36 12 0 18 #c6ffc7 #9c00ff 0;
#N canvas 1237 406 450 300 bit_resolution 0;
#X msg 147 112 7;
#X msg 209 112 16;
#X msg 178 112 14;
#X msg 240 112 32;
#X floatatom 147 166 14 0 0 0 - - - 0;
#X obj 147 141 expr (pow(2 \, $i1)) - 1;
#X obj 147 86 loadbang;
#X obj 147 189 s bit;
#X connect 0 0 5 0;
#X connect 1 0 5 0;
#X connect 2 0 5 0;
#X connect 3 0 5 0;
#X connect 4 0 7 0;
#X connect 5 0 4 0;
#X connect 6 0 0 0;
#X restore 1646 59 pd bit_resolution;
#X obj 685 104 ./GUI/mixer;
#N canvas 1250 418 564 505 init 0;
#X obj 44 59 loadbang;
#X obj 449 29 loadbang;
#X msg 449 91 12;
#X obj 469 55 inlet;
#X obj 449 115 s pb_range;
#X obj 185 63 loadbang;
#X msg 44 83 \; o1_sync_I 0 \; o1_shape_I 94 \; o2_lf_I 0 \; o2_keyb_I 1 \; o1_lvl_I 127 \; o2_lvl_I 63 \; so_lvl_I 63 \; n_lvl_I 19 \; hpf_cut_I 0 \; hpf_res_I 0 \; hpf_env_I 64 \; hpf_vel_I 0 \; lpf_cut_I 64 \; lpf_res_I 42 \; lpf_env_I 76 \; lpf_vel_I 0 \; amp_env_I 100 \; amp_vel_I 0 \; amp_A_I 5 \; amp_S_I 127 \; amp_R_I 20 \; master_vol 0.8 \; pd_out set 0.6 \; pb_init 12 \;;
#X msg 185 87 \; slide_mod_dest_I 2 \; slide_mod_depth_I 1 \; press_mod_dest_I 11 \; press_mod_depth_I 0.2 \; strike_mod_dest_I 12 \; strike_mod_depth_I 0.3 \; glide_mod_dest_I 1 \;;
#X connect 0 0 6 0;
#X connect 1 0 2 0;
#X connect 2 0 4 0;
#X connect 3 0 2 0;
#X connect 5 0 7 0;
#X restore 1718 157 pd init;
#X obj 947 280 ./GUI/low-pass_filter;
#X obj 166 455 ./GUI/amplifier_envelope;
#X obj 946 456 ./GUI/filter_envelope;
#X obj 102 103 ./GUI/master_vol;
#X obj 102 235 s~ master;
#X obj 1696 422 r~ master;
#X obj 102 81 r master_vol;
#X obj 1626 420 r pd_out;
#X floatatom 1718 119 5 1 48 0 PitchBend\ range pb_init - 0;
#X obj 1696 445 out~;
#X obj 267 235 s o1_freq_O;
#X obj 612 235 s o1_pw_O;
#X obj 267 81 r o1_freq_I;
#X obj 402 81 r o1_sync_I;
#X obj 512 81 r o1_shape_I;
#X obj 612 81 r o1_pw_I;
#X obj 402 235 s o1_sync_O;
#X obj 504 235 s o1_shape_O;
#X obj 102 257 r o2_freq_I;
#X obj 215 257 r o2_fine_I;
#X obj 329 257 r o2 shape_I;
#X obj 443 257 r o2_pw_I;
#X obj 521 256 r o2_lf_I;
#X obj 598 256 r o2_keyb_I;
#X obj 102 410 s o2_freq_O;
#X obj 215 410 s o2_fine_O;
#X obj 329 410 s o2_shape_O;
#X obj 520 410 s o2_lf_O;
#X obj 443 410 s o2_pw_O;
#X obj 597 410 s o2_keyb_O;
#X obj 685 81 r o1_lvl_I;
#X obj 768 81 r o2_lvl_I;
#X obj 844 60 r so_lvl_I;
#X obj 874 81 r n_lvl_I;
#X obj 685 410 s o1_lvl_O;
#X obj 768 410 s o2_lvl_O;
#X obj 842 432 s so_lvl_O;
#X obj 874 410 s n_lvl_O;
#X obj 947 257 r lpf_cut_I;
#X obj 1073 257 r lpf_res_I;
#X obj 1199 257 r lpf_env_I;
#X obj 1288 257 r lpf_vel_I;
#X obj 1378 257 r lpf_key_I;
#X obj 947 411 s lpf_cut_O;
#X obj 1073 411 s lpf_res_O;
#X obj 1199 411 s lpf_env_O;
#X obj 1289 411 s lpf_vel_O;
#X obj 1378 411 s lpf_key_O;
#X obj 946 587 s filter_A_O;
#X obj 946 433 r filter_A_I;
#X obj 1114 433 r filter_D_I;
#X obj 1276 433 r filter_S_I;
#X obj 1113 587 s filter_D_O;
#X obj 1276 587 s filter_S_O;
#X obj 1370 587 s filter_R_O;
#X obj 1370 433 r filter_R_I;
#X obj 267 433 r amp_vel_I;
#X obj 368 432 r amp_A_I;
#X obj 469 432 r amp_D_I;
#X obj 540 432 r amp_S_I;
#X obj 611 432 r amp_R_I;
#X obj 166 433 r amp_env_I;
#X obj 166 587 s amp_env_O;
#X obj 267 586 s amp_vel_O;
#X obj 368 586 s amp_A_O;
#X obj 469 586 s amp_D_O;
#X obj 540 586 s amp_S_O;
#X obj 611 586 s amp_R_O;
#X obj 685 475 cnv 19 255 96 empty empty Engine 96 16 0 16 #e3c6ff #606060 0;
#N canvas 266 317 878 439 synth_engine 0;
#X obj 108 85 mpe;
#X obj 108 109 route 1;
#X obj 108 133 route 1 2 3 4 5 6, f 93;
#X obj 108 158 logic/mpe_voice;
#X obj 216 158 logic/mpe_voice;
#X obj 324 158 logic/mpe_voice;
#X obj 432 158 logic/mpe_voice;
#X obj 540 158 logic/mpe_voice;
#X obj 648 158 logic/mpe_voice;
#X obj 108 291 throw~ voices;
#X obj 216 315 throw~ voices;
#X obj 324 339 throw~ voices;
#X obj 432 291 throw~ voices;
#X obj 540 315 throw~ voices;
#X obj 648 339 throw~ voices;
#X obj 108 267 logic/p6_voicecard;
#X obj 216 291 logic/p6_voicecard;
#X obj 324 315 logic/p6_voicecard;
#X obj 432 267 logic/p6_voicecard;
#X obj 540 291 logic/p6_voicecard;
#X obj 648 315 logic/p6_voicecard;
#X connect 0 0 1 0;
#X connect 1 0 2 0;
#X connect 2 0 3 0;
#X connect 2 0 15 0;
#X connect 2 1 4 0;
#X connect 2 1 16 0;
#X connect 2 2 5 0;
#X connect 2 2 17 0;
#X connect 2 3 6 0;
#X connect 2 3 18 0;
#X connect 2 4 7 0;
#X connect 2 4 19 0;
#X connect 2 5 8 0;
#X connect 2 5 20 0;
#X connect 15 0 9 0;
#X connect 16 0 10 0;
#X connect 17 0 11 0;
#X connect 18 0 12 0;
#X connect 19 0 13 0;
#X connect 20 0 14 0;
#X restore 759 537 pd synth_engine;
#X obj 165 650 cnv 19 1152 320 empty empty Modulation\ Matrix 486 16 0 16 #c7c6ff #606060 0;
#X obj 249 712 hradio 32 1 0 21 slide_mod_dest slide_mod_dest_I Slide -52 16 0 14 #e3c6ff #0400ff #131255 0;
#N canvas 692 119 971 855 modulation_display 0;
#X obj 44 120 r slide_mod_dest;
#X msg 44 144 \$1;
#X obj 44 229 s slide_mod_module;
#X obj 179 229 route 2;
#X msg 179 253 symbol N/A;
#X obj 179 277 s slide_mod_module;
#X obj 38 36 text define -k mod_dest;
#A set Off Off \; Oscillator_1 Shape \; Oscillator_1 Pulse_Width \; Oscillator_2 Shape \; Oscillator_2 Pulse_Width \; Mixer Osc_1_level \; Mixer Osc_2_level \; Mixer Sub_oct_level \; Mixer Noise_level \; High-Pass_Filter Cutoff \; High-Pass_Filter Resonance \; Low-Pass_Filter Cutoff \; Low-Pass_Filter Resonance \; Filter_Envelope Attack \; Filter_Envelope Decay \; Filter_Envelope Sustain \; Filter_Envelope Release \; Amplifier_Envelope Attack \; Amplifier_Envelope Decay \; Amplifier_Envelope Sustain \; Amplifier_Envelope Release \;;
#X obj 44 205 text get mod_dest;
#X obj 273 229 s slide_mod_parameter;
#X obj 313 277 s slide_mod_parameter;
#X msg 50 384 \$1;
#X obj 185 469 route 2;
#X msg 185 493 symbol N/A;
#X obj 50 445 text get mod_dest;
#X obj 50 360 r press_mod_dest;
#X obj 50 469 s press_mod_module;
#X obj 279 469 s press_mod_parameter;
#X obj 185 517 s press_mod_module;
#X obj 319 517 s press_mod_parameter;
#X obj 279 445 text get mod_dest 1 1;
#X obj 273 205 text get mod_dest 1 1;
#X obj 518 44 text define -k glide_dest;
#A set Off \; Pitch-Bend \;;
#X msg 520 161 \$1;
#X obj 674 246 route 2;
#X msg 674 270 symbol N/A;
#X obj 520 137 r glide_mod_dest;
#X obj 520 222 text get glide_dest;
#X obj 520 246 s glide_mod_parameter;
#X obj 674 294 s glide_mod_parameter;
#X msg 52 604 \$1;
#X obj 192 689 route 2;
#X msg 192 713 symbol N/A;
#X obj 52 665 text get mod_dest;
#X obj 281 665 text get mod_dest 1 1;
#X obj 52 580 r strike_mod_dest;
#X obj 52 689 s strike_mod_module;
#X obj 281 689 s strike_mod_parameter;
#X obj 192 737 s strike_mod_module;
#X obj 332 738 s strike_mod_parameter;
#X connect 0 0 1 0;
#X connect 1 0 7 0;
#X connect 1 0 20 0;
#X connect 3 0 4 0;
#X connect 4 0 5 0;
#X connect 4 0 9 0;
#X connect 7 0 2 0;
#X connect 7 1 3 0;
#X connect 10 0 13 0;
#X connect 10 0 19 0;
#X connect 11 0 12 0;
#X connect 12 0 17 0;
#X connect 12 0 18 0;
#X connect 13 0 15 0;
#X connect 13 1 11 0;
#X connect 14 0 10 0;
#X connect 19 0 16 0;
#X connect 20 0 8 0;
#X connect 22 0 26 0;
#X connect 23 0 24 0;
#X connect 24 0 28 0;
#X connect 25 0 22 0;
#X connect 26 0 27 0;
#X connect 26 1 23 0;
#X connect 29 0 32 0;
#X connect 29 0 33 0;
#X connect 30 0 31 0;
#X connect 31 0 37 0;
#X connect 31 0 38 0;
#X connect 32 0 35 0;
#X connect 32 1 30 0;
#X connect 33 0 36 0;
#X connect 34 0 29 0;
#X restore 175 661 pd modulation_display;
#X symbolatom 1080 721 16 0 0 2 Parameter slide_mod_parameter - 0;
#X symbolatom 938 721 19 0 0 2 Module slide_mod_module - 0;
#X obj 1209 718 else/knob 26 0 1 0 0 slide_mod_depth slide_mod_depth_I #e3c6ff #9c00ff #131255 0 0 0 0 1 320 0 0 0;
#X obj 249 751 hradio 32 1 0 21 press_mod_dest press_mod_dest_I Press -52 16 0 14 #e3c6ff #0400ff #131255 0;
#X symbolatom 1080 758 16 0 0 2 - press_mod_parameter - 0;
#X symbolatom 938 758 19 0 0 2 - press_mod_module - 0;
#X obj 1209 757 else/knob 26 0 1 0 0 press_mod_depth press_mod_depth_I #e3c6ff #9c00ff #131255 0 0 0 0 1 320 0 0 0;
#X obj 947 104 ./GUI/high-pass_filter;
#X obj 947 81 r hpf_cut_I;
#X obj 1073 81 r hpf_res_I;
#X obj 1199 81 r hpf_env_I;
#X obj 1288 81 r hpf_vel_I;
#X obj 1378 81 r hpf_key_I;
#X obj 947 235 s hpf_cut_O;
#X obj 1073 235 s hpf_res_O;
#X obj 1199 235 s hpf_env_O;
#X obj 1289 235 s hpf_vel_O;
#X obj 1378 235 s hpf_key_O;
#X obj 248 829 hradio 32 1 0 2 glide_mod_dest glide_mod_dest_I Glide -52 16 0 14 #e3c6ff #0400ff #131255 0;
#X symbolatom 323 843 11 0 0 2 Parameter glide_mod_parameter - 0;
#X obj 248 790 hradio 32 1 0 21 strike_mod_dest strike_mod_dest_I Strike -57 16 0 14 #e3c6ff #0400ff #131255 0;
#X symbolatom 1079 795 16 0 0 2 - strike_mod_parameter - 0;
#X symbolatom 937 795 19 0 0 2 - strike_mod_module - 0;
#X obj 1208 796 else/knob 26 0 1 0 0 strike_mod_depth strike_mod_depth_I #e3c6ff #9c00ff #131255 0 0 0 0 1 320 0 0 0;
#X text 1203 700 Depth;
#X connect 0 0 16 0;
#X connect 0 1 22 0;
#X connect 0 2 23 0;
#X connect 0 3 17 0;
#X connect 1 0 30 0;
#X connect 1 1 31 0;
#X connect 1 2 32 0;
#X connect 1 3 34 0;
#X connect 1 4 33 0;
#X connect 1 5 35 0;
#X connect 4 0 40 0;
#X connect 4 1 41 0;
#X connect 4 2 42 0;
#X connect 4 3 43 0;
#X connect 6 0 49 0;
#X connect 6 1 50 0;
#X connect 6 2 51 0;
#X connect 6 3 52 0;
#X connect 6 4 53 0;
#X connect 7 0 68 0;
#X connect 7 1 69 0;
#X connect 7 2 70 0;
#X connect 7 3 71 0;
#X connect 7 4 72 0;
#X connect 7 5 73 0;
#X connect 8 0 54 0;
#X connect 8 1 58 0;
#X connect 8 2 59 0;
#X connect 8 3 60 0;
#X connect 9 0 10 0;
#X connect 11 0 15 0;
#X connect 11 0 15 1;
#X connect 12 0 9 0;
#X connect 13 0 15 0;
#X connect 14 0 5 0;
#X connect 18 0 0 0;
#X connect 19 0 0 1;
#X connect 20 0 0 2;
#X connect 21 0 0 3;
#X connect 24 0 1 0;
#X connect 25 0 1 1;
#X connect 26 0 1 2;
#X connect 27 0 1 3;
#X connect 28 0 1 4;
#X connect 29 0 1 5;
#X connect 36 0 4 0;
#X connect 37 0 4 1;
#X connect 38 0 4 2;
#X connect 39 0 4 3;
#X connect 44 0 6 0;
#X connect 45 0 6 1;
#X connect 46 0 6 2;
#X connect 47 0 6 3;
#X connect 48 0 6 4;
#X connect 55 0 8 0;
#X connect 56 0 8 1;
#X connect 57 0 8 2;
#X connect 61 0 8 3;
#X connect 62 0 7 1;
#X connect 63 0 7 2;
#X connect 64 0 7 3;
#X connect 65 0 7 4;
#X connect 66 0 7 5;
#X connect 67 0 7 0;
#X connect 86 0 92 0;
#X connect 86 1 93 0;
#X connect 86 2 94 0;
#X connect 86 3 95 0;
#X connect 86 4 96 0;
#X connect 87 0 86 0;
#X connect 88 0 86 1;
#X connect 89 0 86 2;
#X connect 90 0 86 3;
#X connect 91 0 86 4;
