#N canvas 192 313 1232 816 12;
#X obj 248 389 r o1_freq_O;
#X obj 300 412 r o1_sync_O;
#X obj 353 435 r o1_shape_O;
#X obj 311 640 r o2_shape_O;
#X obj 279 617 r o2_fine_O;
#X obj 248 594 r o2_freq_O;
#X obj 374 686 r o2_lf_O;
#X obj 406 709 r o2_keyb_O;
#X obj 342 663 r o2_pw_O;
#X obj 406 458 r o1_pw_O;
#X obj 562 545 r o1_lvl_O;
#X obj 598 568 r o2_lvl_O;
#X obj 634 591 r so_lvl_O;
#X obj 671 614 r n_lvl_O;
#X obj 764 78 r lpf_cut_O;
#X obj 808 101 r lpf_res_O;
#X obj 853 124 r lpf_env_O;
#X obj 898 147 r lpf_vel_O;
#X obj 943 170 r lpf_key_O;
#X obj 764 342 r filter_A_O;
#X obj 823 365 r filter_D_O;
#X obj 883 388 r filter_S_O;
#X obj 943 411 r filter_R_O;
#X obj 766 546 r amp_env_O;
#X obj 806 569 r amp_vel_O;
#X obj 846 592 r amp_A_O;
#X obj 886 615 r amp_D_O;
#X obj 926 638 r amp_S_O;
#X obj 966 661 r amp_R_O;
#X obj 1 2 cnv 19 342 356 empty empty Voice\ Variables 96 12 0 16 #e3c6ff #606060 0;
#N canvas 452 275 640 360 voice_common 0;
#X obj 103 67 cnv 19 64 24 empty empty empty 20 12 0 12 #c6ffc7 #404040 0;
#X obj 256 66 cnv 19 64 24 empty empty empty 20 12 0 12 #c6ffc7 #404040 0;
#X obj 388 66 cnv 19 64 24 empty empty empty 20 12 0 12 #c6ffc7 #404040 0;
#X obj 254 272 cnv 19 64 24 empty empty empty 20 12 0 12 #c6feff #404040 0;
#N canvas 406 485 874 522 glide2pitchbend 0;
#X obj 463 182 - 8192;
#X text 419 87 PitchWheel Range:;
#X obj 528 252 *;
#X obj 443 318 / 8192;
#X obj 359 371 t b f;
#X obj 275 436 +;
#X obj 145 84 inlet;
#X obj 545 87 inlet;
#X text 82 85 Note nr:;
#X obj 341 87 inlet;
#X text 254 87 Note glide:;
#X obj 275 479 outlet;
#X text 109 479 Note Nr + Pitch Wheel:;
#X obj 463 206 + 64;
#X text 369 206 ROLI offset:;
#X obj 676 86 inlet;
#X text 621 58 glide2pitchbend On/Off;
#X obj 463 158 spigot;
#X obj 673 281 select 0;
#X msg 673 312 0;
#X text 558 281 Reset when Off:;
#X connect 0 0 13 0;
#X connect 2 0 3 0;
#X connect 3 0 4 0;
#X connect 4 0 5 0;
#X connect 4 1 5 1;
#X connect 5 0 11 0;
#X connect 6 0 5 0;
#X connect 7 0 2 1;
#X connect 9 0 17 0;
#X connect 13 0 2 0;
#X connect 15 0 17 1;
#X connect 15 0 18 0;
#X connect 17 0 0 0;
#X connect 18 0 19 0;
#X connect 19 0 4 0;
#X restore 245 185 pd glide2pitchbend;
#X obj 506 102 tgl 19 0 empty empty empty 0 -10 0 12 #fcfcfc #000000 #000000 0 1;
#X obj 518 63 cnv 19 64 24 empty empty empty 20 12 0 12 #c6ffc7 #404040 0;
#X obj 506 66 r glide2pb;
#X obj 376 68 r pb_range;
#X obj 80 69 r \$0-note_nr_raw;
#X obj 236 68 r \$0-note_glide;
#X obj 245 274 s \$0-note_nr;
#X connect 4 0 11 0;
#X connect 5 0 4 3;
#X connect 7 0 5 0;
#X connect 8 0 4 2;
#X connect 9 0 4 0;
#X connect 10 0 4 1;
#X restore 203 58 pd voice_common;
#X obj 17 58 inlet;
#X obj 17 89 logic/mpe_voice;
#X obj 112 183 s \$0-note_glide;
#X obj 96 206 s \$0-note_slide;
#X obj 80 229 s \$0-note_press;
#X obj 64 252 s \$0-note_vel_off;
#X obj 48 275 s \$0-note_vel;
#X obj 32 298 s \$0-note_nr_raw;
#X obj 17 322 s \$0-note_gate;
#X obj 248 757 s~ \$0-osc2;
#X obj 562 662 s~ \$0-mix;
#X obj 248 506 s~ \$0-osc1;
#X obj 406 506 s~ \$0-subosc;
#X obj 764 219 s~ \$0-lpf;
#X obj 764 459 s~ \$0-filter_env;
#X obj 766 709 s~ \$0-amp_env;
#N canvas 63 88 868 841 oscillator_1 0;
#N canvas 63 88 450 300 reference 0;
#X text 275 189 signal~ [-1 \, 1];
#X text 31 189 Outlet 1: Oscillator 1 output;
#X text 40 43 Inlet 1: Frequency control;
#X text 40 64 Inlet 2: Sync On/Off;
#X text 40 85 Inlet 3: Shape control;
#X text 40 104 Inlet 4: Pulse Width control;
#X text 30 209 Outlet 2: Sub-Octave output;
#X text 276 207 signal~ [-1 \, 1];
#X restore 742 32 pd reference;
#X obj 581 350 line;
#X msg 581 325 \$1 100;
#X text 503 325 Smoothing:;
#X obj 189 119 cnv 19 64 24 empty empty empty 20 12 0 12 #feffc6 #404040 0;
#X obj 283 740 cnv 19 96 32 empty empty empty 20 12 0 12 #e3c6ff #404040 0;
#X obj 304 746 outlet~;
#X text 183 747 Osc 1 signal~;
#X obj 626 744 cnv 19 96 32 empty empty empty 20 12 0 12 #e3c6ff #404040 0;
#X obj 645 747 outlet~;
#X obj 201 122 inlet;
#X obj 309 117 cnv 19 64 24 empty empty empty 20 12 0 12 #feffc6 #404040 0;
#X obj 324 121 inlet;
#X obj 423 119 cnv 19 64 24 empty empty empty 20 12 0 12 #feffc6 #404040 0;
#X obj 436 121 inlet;
#X obj 569 121 cnv 19 64 24 empty empty empty 20 12 0 12 #feffc6 #404040 0;
#X obj 582 124 inlet;
#X obj 142 335 cnv 19 64 24 empty empty empty 20 12 0 12 #c6ffc7 #404040 0;
#X obj 255 496 cnv 19 64 24 empty empty empty 20 12 0 12 #c6ffc7 #404040 0;
#N canvas 353 378 450 468 midi2freq 0;
#X obj 87 48 inlet;
#X obj 300 52 inlet;
#X obj 137 390 outlet;
#X text 23 390 Note frequency:;
#X text 74 15 MIDI Note Nr;
#X text 237 23 Frequency Control offset;
#X floatatom 248 136 5 0 0 0 - - - 0;
#X floatatom 196 172 5 21 108 0 - - - 0;
#X obj 196 203 +;
#X floatatom 137 275 5 0 0 0 - - - 0;
#X obj 137 298 mtof;
#X text 66 203 Frequency offset:;
#X text 74 172 MID Note Number:;
#X obj 246 170 t b f;
#X obj 333 391 outlet;
#X text 235 391 Sub-Oct Note:;
#X connect 0 0 7 0;
#X connect 1 0 6 0;
#X connect 6 0 13 0;
#X connect 7 0 8 0;
#X connect 8 0 9 0;
#X connect 8 0 14 0;
#X connect 9 0 10 0;
#X connect 10 0 2 0;
#X connect 13 0 8 0;
#X connect 13 1 8 1;
#X restore 120 372 pd midi2freq;
#N canvas 382 407 450 459 sub_oct 0;
#X obj 198 32 inlet;
#X obj 198 359 outlet~;
#X obj 198 109 - 12;
#X obj 198 133 mtof;
#X text 101 109 Octave shift;
#X obj 198 265 else/bl.tri~;
#X text 36 264 Sub-Octave Oscillator:;
#X text 85 288 (Triangle);
#X connect 0 0 2 0;
#X connect 2 0 3 0;
#X connect 3 0 5 0;
#X connect 5 0 1 0;
#X restore 645 609 pd sub_oct;
#X text 530 610 Sub-Oscillator:;
#N canvas 94 141 984 920 oscillator 0;
#X obj 112 83 inlet;
#X obj 298 89 inlet~;
#X obj 609 92 inlet;
#X obj 472 859 outlet~;
#X text 588 38 Shape control;
#X text 562 64 (Tri - Saw – Square);
#X obj 819 101 inlet;
#X text 771 62 Pulse Width modulation;
#X text 87 57 Note frequency;
#X obj 442 93 inlet;
#X text 424 57 Sync On/Off;
#X text 259 57 Oscillator 2 (Sync);
#X obj 331 503 bl.vsaw~;
#X floatatom 535 202 7 0 0 0 - - - 0;
#X floatatom 669 201 5 0 0 0 - - - 0;
#X floatatom 358 424 8 0 0 0 - - - 0;
#X floatatom 450 649 9 0 0 0 - - - 0;
#X text 219 396 Rescale: 0.5 to 1;
#X obj 612 481 bl.square~;
#X text 335 621 Rescale: 0 to 1;
#X obj 333 742 *~ 1;
#X obj 612 744 *~ 0;
#X obj 358 715 expr $f1 * -1 + 1;
#X text 521 481 OSC: Square;
#X obj 535 173 min 0.5;
#X obj 669 169 max 0.5;
#X obj 348 397 + 0.5;
#X obj 450 622 expr $f1 * 2 - 1;
#X obj 544 316 *~ 0;
#X text 445 304 (hard) sync;
#X text 448 322 with Osc 2;
#X text 227 502 OSC: Tri/Saw;
#X floatatom 371 742 5 0 0 0 - - - 0;
#X text 346 598 For~[bl.vsaw~] <-> [bl.square~] crossfade;
#X text 218 715 Rescale: 1 to 0;
#X text 214 375 Triangle <-> Sawtooth waveshape crossfade;
#X text 318 857 Oscillator 1 Output:;
#X connect 0 0 12 0;
#X connect 0 0 18 0;
#X connect 1 0 28 0;
#X connect 2 0 24 0;
#X connect 2 0 25 0;
#X connect 6 0 18 1;
#X connect 9 0 28 1;
#X connect 12 0 20 0;
#X connect 13 0 26 0;
#X connect 14 0 27 0;
#X connect 16 0 22 0;
#X connect 16 0 21 1;
#X connect 18 0 21 0;
#X connect 20 0 3 0;
#X connect 21 0 3 0;
#X connect 22 0 20 1;
#X connect 22 0 32 0;
#X connect 24 0 13 0;
#X connect 25 0 14 0;
#X connect 26 0 12 1;
#X connect 26 0 15 0;
#X connect 27 0 16 0;
#X connect 28 0 12 2;
#X connect 28 0 18 2;
#X restore 304 607 pd oscillator;
#X text 515 751 Sub-Oct signal~;
#X text 316 12 ___ OSCILLATOR 1 ___;
#X text 325 92 SYNC;
#X text 188 92 FREQUENCY;
#X text 436 94 SHAPE;
#X text 562 94 PULSE WIDTH;
#X obj 259 498 r~ \$0-osc2;
#X obj 120 336 r \$0-note_nr;
#N canvas 150 175 450 300 rescale_pw 0;
#X obj 128 67 inlet;
#X obj 128 207 outlet;
#X floatatom 128 150 9 0 0 0 - - - 0;
#X obj 349 99 r bit;
#X obj 128 126 expr (($f1 * 0.96) / $f2) + 0.02;
#X text 69 106 Rescale: 0.02 to 0.98;
#X connect 0 0 4 0;
#X connect 2 0 1 0;
#X connect 3 0 4 1;
#X connect 4 0 2 0;
#X restore 690 178 pd rescale_pw;
#X obj 711 151 cnv 19 64 24 empty empty empty 20 12 0 12 #c6ffc7 #404040 0;
#X obj 690 153 r \$0-o1_pw_mod;
#N canvas 970 679 450 300 pw_mod 0;
#X obj 148 163 +;
#X obj 148 94 inlet;
#X obj 218 95 inlet;
#X obj 218 119 t b f;
#X obj 148 232 outlet;
#X obj 148 187 clip 0.02 0.98;
#X connect 0 0 5 0;
#X connect 1 0 0 0;
#X connect 2 0 3 0;
#X connect 3 0 0 0;
#X connect 3 1 0 1;
#X connect 5 0 4 0;
#X restore 587 233 pd pw_mod;
#X connect 1 0 22 4;
#X connect 2 0 1 0;
#X connect 10 0 19 1;
#X connect 12 0 22 2;
#X connect 14 0 22 3;
#X connect 16 0 34 0;
#X connect 19 0 22 0;
#X connect 19 1 20 0;
#X connect 20 0 9 0;
#X connect 22 0 6 0;
#X connect 29 0 22 1;
#X connect 30 0 19 0;
#X connect 31 0 34 1;
#X connect 33 0 31 0;
#X connect 34 0 2 0;
#X restore 248 481 pd oscillator_1;
#X f 23;
#N canvas 92 117 1032 812 oscillator_2 0;
#N canvas 1 83 450 300 reference 0;
#X text 275 189 signal~ [-1 \, 1];
#X text 39 189 Outlet 1: Oscillator 2 output;
#X text 40 45 Inlet 1: (Coarse) Frequency control;
#X text 39 64 Inlet 2: Fine (Frequency) control;
#X text 39 83 Inlet 3: Shape control;
#X text 38 102 Inlet 4: Pulse Width control;
#X text 37 121 Inlet 5: Low Freq On/Off;
#X text 38 141 Inlet 6: Keyboard On/Off;
#X restore 893 35 pd reference;
#X floatatom 305 275 7 0 0 0 - - - 0;
#X floatatom 213 275 4 0 0 0 - - - 0;
#X obj 523 400 line;
#X msg 523 375 \$1 100;
#X text 442 380 Smoothing:;
#X floatatom 644 515 10 0 0 0 - - - 0;
#X obj 335 704 cnv 19 96 32 empty empty empty 20 12 0 12 #e3c6ff #404040 0;
#X obj 355 711 outlet~;
#X obj 274 112 cnv 19 64 24 empty empty empty 20 12 0 12 #feffc6 #404040 0;
#X obj 285 115 inlet;
#X obj 626 115 cnv 19 64 24 empty empty empty 20 12 0 12 #feffc6 #404040 0;
#X obj 732 118 cnv 19 64 24 empty empty empty 20 12 0 12 #feffc6 #404040 0;
#X obj 636 120 inlet;
#X obj 744 120 inlet;
#X obj 157 114 cnv 19 64 24 empty empty empty 20 12 0 12 #feffc6 #404040 0;
#X obj 169 117 inlet;
#N canvas 160 371 510 549 keyboard_control 0;
#X obj 203 101 inlet;
#X obj 211 449 outlet;
#X obj 203 150 select 0 1;
#X msg 251 225 1;
#X obj 250 262 tgl 19 0 empty empty empty 0 -10 0 12 #fcfcfc #000000 #000000 0 1;
#X msg 196 224 0;
#X obj 357 181 loadbang;
#X msg 283 225 0;
#X msg 165 224 1;
#X obj 184 260 tgl 19 0 empty empty empty 0 -10 0 12 #fcfcfc #000000 #000000 0 1;
#X obj 153 377 spigot;
#X msg 153 351 60;
#X obj 263 378 spigot;
#X obj 263 349 f;
#X obj 250 308 bng 19 250 50 0 empty empty empty 0 -10 0 12 #fcfcfc #000000 #000000;
#X text 347 160 (Default On);
#X obj 357 104 inlet;
#X text 165 77 Keyboard On/Off;
#X text 31 339 Keyboard Off \; default Note Nr:;
#X text 83 449 Post MIDI Note Nr;
#X text 332 75 (Pre) MIDI Note Nr;
#X connect 0 0 2 0;
#X connect 2 0 5 0;
#X connect 2 0 8 0;
#X connect 2 1 3 0;
#X connect 2 1 7 0;
#X connect 3 0 4 0;
#X connect 4 0 12 1;
#X connect 4 0 14 0;
#X connect 5 0 4 0;
#X connect 6 0 3 0;
#X connect 7 0 9 0;
#X connect 8 0 9 0;
#X connect 9 0 10 1;
#X connect 9 0 11 0;
#X connect 10 0 1 0;
#X connect 11 0 10 0;
#X connect 12 0 1 0;
#X connect 13 0 12 0;
#X connect 14 0 13 0;
#X connect 16 0 13 0;
#X restore 744 190 pd keyboard_control;
#N canvas 70 362 701 649 lfo_mode 0;
#X obj 250 108 inlet;
#X obj 509 104 inlet;
#X obj 170 574 outlet;
#X obj 550 581 outlet;
#X text 483 78 Pre Freqency:;
#X obj 250 170 select 0 1;
#X floatatom 366 458 9 0 0 0 - - - 0;
#X msg 296 229 1;
#X msg 328 230 0;
#X obj 296 263 tgl 19 0 empty empty empty 0 -10 0 12 #fcfcfc #000000 #000000 0 1;
#X obj 171 415 spigot;
#X msg 210 229 1;
#X msg 241 229 0;
#X obj 210 263 tgl 19 0 empty empty empty 0 -10 0 12 #fcfcfc #000000 #000000 0 1;
#X obj 366 392 spigot;
#X obj 366 417 expr (((50 - 0.1) / (17234.7 - 6.67928)) * ($f1 - 6.67928)) + 0.1, f 40;
#X floatatom 171 439 9 0 0 0 - - - 0;
#X obj 170 516 f;
#X obj 279 512 bng 19 250 50 0 empty empty empty 0 -10 0 12 #fcfcfc #000000 #000000;
#X text 86 423 No Change:;
#X text 296 425 Low Freq:;
#X text 455 580 Update Freq:;
#X obj 143 179 loadbang;
#X text 213 62 Low Freq On/Off:;
#X text 234 81 (LFO Mode);
#X text 123 157 (Default Off);
#X text 48 575 Post Frequency:;
#X text 519 395 (Needs rescaling!);
#X connect 0 0 5 0;
#X connect 1 0 10 0;
#X connect 1 0 14 0;
#X connect 5 0 11 0;
#X connect 5 0 12 0;
#X connect 5 1 7 0;
#X connect 5 1 8 0;
#X connect 6 0 17 0;
#X connect 7 0 9 0;
#X connect 8 0 13 0;
#X connect 9 0 14 1;
#X connect 9 0 18 0;
#X connect 10 0 16 0;
#X connect 11 0 13 0;
#X connect 12 0 9 0;
#X connect 13 0 10 1;
#X connect 13 0 18 0;
#X connect 14 0 15 0;
#X connect 15 0 6 0;
#X connect 16 0 17 0;
#X connect 17 0 2 0;
#X connect 18 0 3 0;
#X connect 22 0 11 0;
#X restore 636 466 pd lfo_mode;
#N canvas 929 172 927 588 midi2freq 0;
#X obj 327 73 inlet;
#X obj 526 77 inlet;
#X obj 132 80 inlet;
#X obj 762 85 inlet;
#X obj 532 520 outlet;
#X text 255 45 Frequency Control offset;
#X text 481 47 Fine Control offset;
#X text 740 49 Low Update;
#X obj 238 250 +;
#X floatatom 532 449 5 0 0 0 - - - 0;
#X obj 378 332 +;
#X obj 487 186 t b f;
#X obj 532 472 mtof;
#X obj 532 411 f;
#X text 436 409 Update Freq:;
#X obj 327 163 t b f;
#X text 80 47 Post MIDI Note Nr;
#X text 46 250 (Coarse) Frequency offset:;
#X text 197 329 Fine (Frequency)offset:;
#X text 423 520 Pre Frequency:;
#X connect 0 0 15 0;
#X connect 1 0 11 0;
#X connect 2 0 8 0;
#X connect 3 0 13 0;
#X connect 8 0 10 0;
#X connect 9 0 12 0;
#X connect 10 0 13 0;
#X connect 11 0 10 0;
#X connect 11 1 10 1;
#X connect 12 0 4 0;
#X connect 13 0 9 0;
#X connect 15 0 8 0;
#X connect 15 1 8 1;
#X restore 179 428 pd midi2freq;
#X f 15;
#X obj 895 161 cnv 19 64 24 empty empty empty 20 12 0 12 #c6ffc7 #404040 0;
#X obj 511 117 cnv 19 64 24 empty empty empty 20 12 0 12 #feffc6 #404040 0;
#X obj 524 120 inlet;
#N canvas 63 123 886 832 oscillator2 0;
#X text 136 72 Note Frequency (post);
#X obj 192 108 inlet;
#X obj 410 112 inlet;
#X text 389 58 Shape control;
#X text 363 84 (Tri - Saw – Square);
#X obj 610 107 inlet;
#X text 562 68 Pulse Width modulation;
#X obj 426 764 outlet~;
#X text 271 765 Oscillator 2 Output:;
#X obj 274 419 bl.vsaw~;
#X floatatom 370 217 7 0 0 0 - - - 0;
#X floatatom 470 218 5 0 0 0 - - - 0;
#X floatatom 301 383 8 0 0 0 - - - 0;
#X floatatom 414 547 9 0 0 0 - - - 0;
#X text 150 354 Rescale: 0.5 to 1;
#X obj 589 416 bl.square~;
#X text 298 524 Rescale: 0 to 1;
#X obj 274 656 *~ 1;
#X obj 590 653 *~ 0;
#X floatatom 312 656 5 0 0 0 - - - 0;
#X obj 298 629 expr $f1 * -1 + 1;
#X text 174 420 OSC: Tri/Saw;
#X text 505 417 OSC: Square;
#X text 183 628 Rescale: 1 to 0;
#X obj 370 180 min 0.5;
#X obj 470 181 max 0.5;
#X obj 290 355 + 0.5;
#X obj 414 523 expr $f1 * 2 - 1;
#X text 284 501 For~[bl.vsaw~] <-> [bl.square~] crossfade;
#X text 152 334 Triangle <-> Sawtooth waveshape crossfade;
#X connect 1 0 9 0;
#X connect 1 0 15 0;
#X connect 2 0 24 0;
#X connect 2 0 25 0;
#X connect 5 0 15 1;
#X connect 9 0 17 0;
#X connect 10 0 26 0;
#X connect 11 0 27 0;
#X connect 13 0 20 0;
#X connect 13 0 18 1;
#X connect 15 0 18 0;
#X connect 17 0 7 0;
#X connect 18 0 7 0;
#X connect 20 0 17 1;
#X connect 20 0 19 0;
#X connect 24 0 10 0;
#X connect 25 0 11 0;
#X connect 26 0 12 0;
#X connect 26 0 9 1;
#X connect 27 0 13 0;
#X restore 354 576 pd oscillator2;
#X obj 388 118 cnv 19 64 24 empty empty empty 20 12 0 12 #feffc6 #404040 0;
#X obj 401 120 inlet;
#X text 408 16 ___ Oscillator 2 ___;
#X text 154 89 FREQUENCY;
#X text 286 87 FINE;
#X text 398 88 SHAPE;
#X text 499 88 PULSE WIDTH;
#X text 626 89 LOW FREQ;
#X text 735 87 KEYBOARD;
#X obj 874 163 r \$0-note_nr;
#X obj 772 214 cnv 19 64 24 empty empty empty 20 12 0 12 #dfdfdf #404040 0;
#X obj 744 216 s \$0-post_note_nr;
#X obj 736 490 cnv 19 64 24 empty empty empty 20 12 0 12 #dfdfdf #404040 0;
#X obj 660 538 cnv 19 64 24 empty empty empty 20 12 0 12 #dfdfdf #404040 0;
#X obj 187 451 cnv 19 64 24 empty empty empty 20 12 0 12 #dfdfdf #404040 0;
#X obj 725 440 cnv 19 64 24 empty empty empty 20 12 0 12 #c6feff #404040 0;
#X obj 322 536 cnv 19 64 24 empty empty empty 20 12 0 12 #c6feff #404040 0;
#X obj 108 375 cnv 19 64 24 empty empty empty 20 12 0 12 #c6feff #404040 0;
#X obj 710 491 s \$0-low_update;
#X obj 636 538 s \$0-post_freq;
#X obj 179 452 s \$0-pre_freq;
#X obj 79 378 r \$0-post_note_nr;
#X obj 299 539 r \$0-post_freq;
#X obj 710 441 r \$0-pre_freq;
#X obj 312 393 cnv 19 64 24 empty empty empty 20 12 0 12 #c6feff #404040 0;
#X obj 281 397 r \$0-low_update;
#X connect 1 0 19 2;
#X connect 2 0 19 1;
#X connect 3 0 23 2;
#X connect 4 0 3 0;
#X connect 10 0 19 2;
#X connect 13 0 18 0;
#X connect 14 0 17 0;
#X connect 16 0 19 1;
#X connect 17 0 35 0;
#X connect 18 0 6 0;
#X connect 18 0 43 0;
#X connect 18 1 42 0;
#X connect 19 0 44 0;
#X connect 22 0 4 0;
#X connect 23 0 8 0;
#X connect 25 0 23 1;
#X connect 33 0 17 1;
#X connect 45 0 19 0;
#X connect 46 0 23 0;
#X connect 47 0 18 1;
#X connect 49 0 19 3;
#X restore 248 732 pd oscillator_2;
#X f 23;
#N canvas 295 320 720 747 mixer 0;
#X obj 401 446 else/white~;
#N canvas 1322 477 450 300 reference 0;
#X text 275 189 signal~ [-1 \, 1];
#X text 36 189 Outlet 1: (summed) Mixer output;
#X text 46 51 Inlet 1: Osc 1 level control;
#X text 44 71 Inlet 2: Osc 2 level control;
#X text 43 91 Inlet 3: Sub-Octave level control;
#X text 41 112 Inlet 4: (white) Noise level control;
#X restore 577 37 pd reference;
#X obj 148 223 *~;
#X obj 256 310 *~;
#X text 93 223 Osc 1:;
#X text 203 311 Osc 2:;
#X obj 360 400 *~;
#X text 298 402 Sub-Oct:;
#X obj 467 510 *~;
#X text 411 511 Noise:;
#X text 400 426 White noise;
#X obj 153 116 cnv 19 64 24 empty empty empty 20 12 0 12 #feffc6 #404040 0;
#X obj 262 113 cnv 19 64 24 empty empty empty 20 12 0 12 #feffc6 #404040 0;
#X obj 367 112 cnv 19 64 24 empty empty empty 20 12 0 12 #feffc6 #404040 0;
#X obj 475 113 cnv 19 64 24 empty empty empty 20 12 0 12 #feffc6 #404040 0;
#X obj 166 120 inlet;
#X obj 274 117 inlet;
#X obj 378 117 inlet;
#X obj 485 119 inlet;
#X obj 101 164 cnv 19 64 24 empty empty empty 20 12 0 12 #c6ffc7 #404040 0;
#X obj 216 254 cnv 19 64 24 empty empty empty 20 12 0 12 #c6ffc7 #404040 0;
#X obj 339 341 cnv 19 64 24 empty empty empty 20 12 0 12 #c6ffc7 #404040 0;
#X obj 247 669 cnv 19 64 24 empty empty empty 20 12 0 12 #e3c6ff #404040 0;
#X obj 257 670 outlet~;
#X text 164 89 OSC 1;
#X text 273 87 OSC 2;
#X text 359 85 SUB OCTAVE;
#X text 483 85 NOISE;
#X text 286 28 ___ Mixer ___;
#X obj 91 165 r~ \$0-osc1;
#X obj 202 255 r~ \$0-osc2;
#X obj 315 344 r~ \$0-subosc;
#X connect 0 0 8 0;
#X connect 2 0 23 0;
#X connect 3 0 23 0;
#X connect 6 0 23 0;
#X connect 8 0 23 0;
#X connect 15 0 2 1;
#X connect 16 0 3 1;
#X connect 17 0 6 1;
#X connect 18 0 8 1;
#X connect 29 0 2 0;
#X connect 30 0 3 0;
#X connect 31 0 6 0;
#X restore 562 637 pd mixer;
#X f 16;
#N canvas 920 164 1000 925 low-pass_filter 0;
#X text 471 747 Four-pole resonant Low-Pass Filter;
#N canvas 1335 171 450 300 reference 0;
#X text 275 189 signal~ [-1 \, 1];
#X text 31 189 Outlet 1: Low-Pass Filter output;
#X text 40 43 Inlet 1: Cutoff control;
#X text 39 61 Inlet 2: Resonance control;
#X text 39 121 Inlet 5: Keyboard Tracking (Off/Half/Full);
#X text 39 82 Inlet 3: Envelope Amount control;
#X text 37 101 Inlet 4: Velocity modolation On/Off;
#X restore 830 62 pd reference;
#X obj 97 584 cnv 19 64 24 empty empty empty 20 12 0 12 #c6ffc7 #404040 0;
#X text 70 560 Mixer signal~;
#X obj 331 794 cnv 19 64 24 empty empty empty 20 12 0 12 #e3c6ff #404040 0;
#X obj 338 795 outlet~;
#X obj 186 182 cnv 19 64 24 empty empty empty 20 12 0 12 #feffc6 #404040 0;
#X obj 630 184 cnv 19 64 24 empty empty empty 20 12 0 12 #feffc6 #404040 0;
#X obj 492 182 cnv 19 64 24 empty empty empty 20 12 0 12 #feffc6 #404040 0;
#X obj 763 182 cnv 19 64 24 empty empty empty 20 12 0 12 #feffc6 #404040 0;
#X obj 193 184 inlet;
#X obj 504 185 inlet;
#X obj 641 186 inlet;
#X obj 775 185 inlet;
#X obj 343 184 cnv 19 64 24 empty empty empty 20 12 0 12 #feffc6 #404040 0;
#X obj 349 186 inlet;
#X text 146 796 Low-Pass filtered output:;
#X obj 258 720 else/svfilter~;
#X obj 338 757 else/svfilter~;
#X text 468 764 (2x else/svfilter~ (two-pole each) in series);
#X obj 607 479 cnv 19 64 24 empty empty empty 20 12 0 12 #c6ffc7 #404040 0;
#X text 545 456 Filter Envelope signal~;
#N canvas 365 362 1115 662 cutoff_freq 0;
#X obj 131 110 inlet;
#X obj 284 113 inlet;
#X obj 430 114 inlet;
#X obj 966 118 inlet~;
#X text 112 81 MIDI Note Nr;
#X text 262 83 Cutoff value;
#X text 402 84 Keyboard Track;
#X text 936 85 Filter Envelope;
#X text 568 83 Envelope Amount;
#X obj 598 118 inlet;
#X obj 430 171 select 0 1 2;
#X msg 430 199 0;
#X msg 460 199 0.5;
#X msg 490 199 1;
#X text 412 149 0% / 50& / 100%;
#X obj 460 242 t b f;
#X obj 131 216 mtof;
#X msg 631 204 8;
#X obj 599 245 * 8;
#X obj 631 181 loadbang;
#X text 629 158 Env depth;
#X obj 811 356 *~;
#X obj 486 451 *~;
#X obj 283 193 t b f;
#X obj 131 367 *;
#X obj 131 450 +;
#X obj 130 525 +~;
#X obj 130 580 outlet~;
#X obj 761 119 inlet;
#X text 723 83 Velocity modulation;
#N canvas 1217 319 611 523 velocity_mod 0;
#X obj 325 231 spigot;
#X msg 246 265 1;
#N canvas 991 97 450 300 rescale_vel 0;
#X obj 177 62 inlet;
#X obj 177 121 expr $f1 / $f2;
#X obj 272 97 r bit;
#X obj 177 187 outlet;
#X connect 0 0 1 0;
#X connect 1 0 3 0;
#X connect 2 0 1 1;
#X restore 325 136 pd rescale_vel;
#X text 323 87 Note velocity;
#X obj 245 114 inlet;
#X text 171 114 VELOCITY;
#X obj 347 110 cnv 19 64 24 empty empty empty 20 12 0 12 #c6ffc7 #404040 0;
#X obj 277 410 outlet;
#X obj 246 231 select 0;
#X obj 325 112 r \$0-note_vel;
#X connect 0 0 7 0;
#X connect 1 0 7 0;
#X connect 2 0 0 0;
#X connect 4 0 0 1;
#X connect 4 0 8 0;
#X connect 8 0 1 0;
#X connect 9 0 2 0;
#X restore 761 192 pd velocity_mod;
#X text 769 170 Velocity mod:;
#X obj 678 295 *;
#X obj 731 246 t b f;
#X connect 0 0 16 0;
#X connect 1 0 23 0;
#X connect 2 0 10 0;
#X connect 3 0 21 1;
#X connect 9 0 18 0;
#X connect 10 0 11 0;
#X connect 10 1 12 0;
#X connect 10 2 13 0;
#X connect 11 0 15 0;
#X connect 12 0 15 0;
#X connect 13 0 15 0;
#X connect 15 0 24 0;
#X connect 15 1 24 1;
#X connect 16 0 22 0;
#X connect 16 0 24 0;
#X connect 17 0 18 1;
#X connect 18 0 32 0;
#X connect 19 0 17 0;
#X connect 21 0 22 1;
#X connect 22 0 26 1;
#X connect 23 0 25 0;
#X connect 23 1 25 1;
#X connect 24 0 25 0;
#X connect 25 0 26 0;
#X connect 26 0 27 0;
#X connect 28 0 30 0;
#X connect 30 0 33 0;
#X connect 32 0 21 0;
#X connect 33 0 32 0;
#X connect 33 1 32 1;
#X restore 385 544 pd cutoff_freq;
#X obj 227 471 cnv 19 64 24 empty empty empty 20 12 0 12 #c6ffc7 #404040 0;
#X text 208 449 MIDI Note nr;
#N canvas 1076 632 450 300 clip 0;
#X obj 134 62 inlet~;
#X obj 134 200 outlet~;
#X obj 134 141 clip~ 20 22050;
#X obj 229 62 loadbang;
#X obj 229 86 samplerate~;
#X obj 229 110 / 2;
#X connect 0 0 2 0;
#X connect 2 0 1 0;
#X connect 3 0 4 0;
#X connect 4 0 5 0;
#X connect 5 0 2 2;
#X restore 385 638 pd clip;
#X text 386 58 ___ Low-Pass Filter ___;
#X text 189 151 CUTOFF;
#X text 336 150 RESONANCE;
#X text 490 148 ENV AMOUNT;
#X text 630 151 VELOCITY;
#X text 767 148 KEYBOARD;
#X obj 89 586 r~ \$0-mix;
#X obj 564 482 r~ \$0-filter_env;
#X obj 209 474 r \$0-note_nr;
#N canvas 970 679 450 300 cutoff_mod 0;
#X obj 148 163 +;
#X obj 148 94 inlet;
#X obj 218 95 inlet;
#X obj 218 119 t b f;
#X obj 148 232 outlet;
#X obj 148 187 clip 50 20000;
#X connect 0 0 5 0;
#X connect 1 0 0 0;
#X connect 2 0 3 0;
#X connect 3 0 0 0;
#X connect 3 1 0 1;
#X connect 5 0 4 0;
#X restore 193 263 pd cutoff_mod;
#X obj 245 206 cnv 19 64 24 empty empty empty 20 12 0 12 #c6ffc7 #404040 0;
#X obj 226 210 r \$0-cutoff_mod;
#N canvas 181 747 450 300 lin2log_C 0;
#X obj 124 33 inlet;
#X obj 171 247 outlet;
#X obj 366 169 r bit;
#X text 54 193 Rescale:;
#X obj 124 193 expr ($f1 * 19950) / $f2 + 50;
#X connect 0 0 4 0;
#X connect 2 0 4 1;
#X connect 4 0 1 0;
#X restore 226 237 pd lin2log_C;
#X floatatom 159 355 5 0 0 0 - - - 0;
#X floatatom 242 373 27 0 0 0 - - - 0;
#X connect 10 0 35 0;
#X connect 11 0 22 3;
#X connect 12 0 22 4;
#X connect 13 0 22 2;
#X connect 15 0 17 2;
#X connect 17 0 18 0;
#X connect 18 0 5 0;
#X connect 22 0 25 0;
#X connect 25 0 17 1;
#X connect 25 0 18 1;
#X connect 32 0 17 0;
#X connect 33 0 22 5;
#X connect 34 0 22 0;
#X connect 35 0 22 1;
#X connect 37 0 38 0;
#X connect 37 0 39 0;
#X connect 38 0 40 0;
#X connect 38 0 35 1;
#X restore 764 193 pd low-pass_filter;
#X f 26;
#N canvas 526 327 824 677 filter_envelope 0;
#X obj 278 457 else/adsr~, f 21;
#X obj 180 225 cnv 19 64 24 empty empty empty 20 12 0 12 #feffc6 #404040 0;
#X obj 305 225 cnv 19 64 24 empty empty empty 20 12 0 12 #feffc6 #404040 0;
#X obj 428 227 cnv 19 64 24 empty empty empty 20 12 0 12 #feffc6 #404040 0;
#X obj 544 229 cnv 19 64 24 empty empty empty 20 12 0 12 #feffc6 #404040 0;
#X obj 191 226 inlet;
#X obj 315 228 inlet;
#X obj 553 231 inlet;
#X obj 438 229 inlet;
#X obj 274 519 cnv 19 64 24 empty empty empty 20 12 0 12 #e3c6ff #404040 0;
#X obj 278 521 outlet~;
#X obj 422 507 tgl 40 0 empty empty empty 17 7 0 10 #dcdcdc #000000 #000000 0 1;
#X obj 422 559 switch~;
#N canvas 1193 517 450 300 reference 0;
#X text 275 189 signal~ [0 \, 1];
#X text 39 61 Inlet 1: Attack (1-20 \, 0 ms);
#X text 39 81 Inlet 2: Decay (1-20 \, 0 ms);
#X text 40 102 Inlet 3: Sustain (0-1);
#X text 40 121 Inlet 4: Release (1-20 \, 0 ms);
#X text 31 189 Outlet 1: Filter Envelope output;
#X restore 660 59 pd reference;
#X obj 143 347 cnv 19 64 24 empty empty empty 20 12 0 12 #c6ffc7 #404040 0;
#X text 354 584 Turn off DSP when inactive;
#X obj 108 375 * 127;
#X text 306 74 ___ Filter Envelope ___;
#X text 187 193 ATTACK;
#X text 315 192 DECAY;
#X text 431 194 SUSTAIN;
#X text 547 192 RELEASE;
#X obj 108 351 r \$0-note_gate;
#X connect 0 0 10 0;
#X connect 0 1 11 0;
#X connect 5 0 0 2;
#X connect 6 0 0 3;
#X connect 7 0 0 5;
#X connect 8 0 0 4;
#X connect 11 0 12 0;
#X connect 16 0 0 0;
#X connect 22 0 16 0;
#X restore 764 434 pd filter_envelope;
#X f 26;
#N canvas 495 138 914 785 amplifier_envelope 0;
#X obj 336 556 else/adsr~, f 21;
#X obj 161 225 cnv 19 64 24 empty empty empty 20 12 0 12 #feffc6 #404040 0;
#X obj 281 224 cnv 19 64 24 empty empty empty 20 12 0 12 #feffc6 #404040 0;
#X obj 382 225 cnv 19 64 24 empty empty empty 20 12 0 12 #feffc6 #404040 0;
#X obj 479 223 cnv 19 64 24 empty empty empty 20 12 0 12 #feffc6 #404040 0;
#X obj 589 222 cnv 19 64 24 empty empty empty 20 12 0 12 #feffc6 #404040 0;
#X obj 696 220 cnv 19 64 24 empty empty empty 20 12 0 12 #feffc6 #404040 0;
#X obj 172 228 inlet;
#X obj 290 226 inlet;
#X obj 393 226 inlet;
#X obj 489 226 inlet;
#X obj 705 222 inlet;
#X obj 599 224 inlet;
#X floatatom 316 452 5 0 0 0 - - - 0;
#X obj 313 679 cnv 19 64 24 empty empty empty 20 12 0 12 #e3c6ff #404040 0;
#X obj 317 681 outlet~;
#X obj 480 608 tgl 40 0 empty empty empty 17 7 0 10 #dcdcdc #000000 #000000 0 1;
#X obj 480 660 switch~;
#X obj 317 635 *~;
#N canvas 1193 517 450 300 reference 0;
#X text 41 25 Inlet 1: Envelope Amount control;
#X text 40 43 Inlet 2: Velocity modulation On/Off;
#X text 39 61 Inlet 3: Attack (1-20 \, 0 ms);
#X text 39 81 Inlet 4: Decay (1-20 \, 0 ms);
#X text 40 102 Inlet 5: Sustain (0-1);
#X text 40 121 Inlet 6: Release (1-20 \, 0 ms);
#X text 275 189 signal~ [0 \, 1];
#X text 31 189 Outlet 1: Amp Envelope output;
#X restore 769 49 pd reference;
#X obj 146 354 cnv 19 64 24 empty empty empty 20 12 0 12 #c6ffc7 #404040 0;
#X text 227 636 Env Amount:;
#X text 412 683 Turn off DSP when inactive;
#X obj 262 356 cnv 19 64 24 empty empty empty 20 12 0 12 #c6ffc7 #404040 0;
#X text 168 428 Gate w/Velocity mod:;
#N canvas 881 408 661 550 gate 0;
#X obj 408 258 spigot;
#X obj 192 164 select 0;
#X msg 192 191 1;
#X msg 245 191 0;
#X obj 184 264 spigot;
#X obj 463 68 inlet;
#X obj 312 457 outlet;
#X obj 266 71 inlet;
#X text 417 43 Velocity Mod On/Off;
#X text 372 259 On:;
#X text 143 263 Off:;
#X obj 78 65 inlet;
#X text 251 48 Velocity;
#X obj 78 89 * 127;
#X text 77 41 Gate;
#X obj 78 346 select 0;
#X msg 78 370 0;
#X text 9 346 Note off:;
#X connect 0 0 6 0;
#X connect 1 0 2 0;
#X connect 1 1 3 0;
#X connect 2 0 4 1;
#X connect 3 0 4 1;
#X connect 4 0 6 0;
#X connect 5 0 1 0;
#X connect 5 0 0 1;
#X connect 7 0 0 0;
#X connect 11 0 13 0;
#X connect 13 0 15 0;
#X connect 13 0 4 0;
#X connect 15 0 16 0;
#X connect 16 0 6 0;
#X restore 316 428 pd gate;
#X text 357 60 ___ Amplifier Envelope ___;
#X text 155 194 ENV AMOUNT;
#X text 280 193 VELOCITY;
#X text 391 193 ATTACK;
#X text 492 192 DECAY;
#X text 596 192 SUSTAIN;
#X text 699 192 RELEASE;
#X obj 112 356 r \$0-note_gate;
#X obj 235 357 r \$0-note_vel;
#X connect 0 0 18 0;
#X connect 0 1 16 0;
#X connect 7 0 18 1;
#X connect 8 0 25 2;
#X connect 9 0 0 2;
#X connect 10 0 0 3;
#X connect 11 0 0 5;
#X connect 12 0 0 4;
#X connect 13 0 0 0;
#X connect 16 0 17 0;
#X connect 18 0 15 0;
#X connect 25 0 13 0;
#X connect 33 0 25 0;
#X connect 34 0 25 1;
#X restore 766 684 pd amplifier_envelope;
#X f 29;
#X obj 448 98 *~;
#X obj 466 54 r~ \$0-amp_env;
#X obj 383 54 r~ \$0-lpf;
#X obj 448 142 outlet~;
#N canvas 92 117 922 521 modulation 0;
#X obj 358 225 r \$0-note_press;
#X obj 484 225 r \$0-note_slide;
#X obj 358 273 s \$0-cutoff_mod;
#X obj 358 249 * 0.2;
#X obj 484 273 s \$0-o1_pw_mod;
#X text 358 188 Press 2 Cutoff;
#X text 495 189 Slide 2 PW;
#X text 397 46 --- Modulation ---;
#X connect 0 0 3 0;
#X connect 1 0 4 0;
#X connect 3 0 2 0;
#X restore 204 100 pd modulation;
#X connect 0 0 47 0;
#X connect 1 0 47 1;
#X connect 2 0 47 2;
#X connect 3 0 48 2;
#X connect 4 0 48 1;
#X connect 5 0 48 0;
#X connect 6 0 48 4;
#X connect 7 0 48 5;
#X connect 8 0 48 3;
#X connect 9 0 47 3;
#X connect 10 0 49 0;
#X connect 11 0 49 1;
#X connect 12 0 49 2;
#X connect 13 0 49 3;
#X connect 14 0 50 0;
#X connect 15 0 50 1;
#X connect 16 0 50 2;
#X connect 17 0 50 3;
#X connect 18 0 50 4;
#X connect 19 0 51 0;
#X connect 20 0 51 1;
#X connect 21 0 51 2;
#X connect 22 0 51 3;
#X connect 23 0 52 0;
#X connect 24 0 52 1;
#X connect 25 0 52 2;
#X connect 26 0 52 3;
#X connect 27 0 52 4;
#X connect 28 0 52 5;
#X connect 31 0 32 0;
#X connect 32 0 39 0;
#X connect 32 1 38 0;
#X connect 32 2 37 0;
#X connect 32 3 36 0;
#X connect 32 4 35 0;
#X connect 32 5 34 0;
#X connect 32 6 33 0;
#X connect 47 0 42 0;
#X connect 47 1 43 0;
#X connect 48 0 40 0;
#X connect 49 0 41 0;
#X connect 50 0 44 0;
#X connect 51 0 45 0;
#X connect 52 0 46 0;
#X connect 53 0 56 0;
#X connect 54 0 53 1;
#X connect 55 0 53 0;
