#N canvas 716 188 1008 891 12;
#X obj 130 100 cnv 19 412 128 empty empty Oscillator\ 1 136 16 0 18 #ffe3c6 #553512 0;
#X obj 166 139 knob 50 -24 24 0 0 empty empty #dfdfdf #7c7c7c black 0 0 49 1 0 320 0 0 0;
#X obj 154 193 note 74 12 Menlo empty 0 85 53 18 0 255 255 255 0 0 FREQUENCY;
#X obj 340 138 knob 50 0 127 0 64 empty empty #dfdfdf #7c7c7c black 0 0 0 0 0 320 0 0 0;
#X obj 347 197 note 44 12 Menlo empty 0 85 53 18 0 255 255 255 0 0 SHAPE;
#X floatatom 187 268 5 0 0 0 - - - 0;
#X obj 210 563 bl.vsaw~;
#X obj 301 378 tgl 19 0 empty empty empty 0 -10 0 12 #fcfcfc #000000 #000000 0 1;
#X obj 401 378 tgl 19 0 empty empty empty 0 -10 0 12 #fcfcfc #000000 #000000 0 1;
#X msg 339 345 0;
#X msg 439 344 0;
#X msg 401 344 1;
#X msg 301 346 1;
#X floatatom 325 378 7 0 0 0 - - - 0;
#X floatatom 424 379 5 0 0 0 - - - 0;
#X floatatom 216 467 8 0 0 0 - - - 0;
#X floatatom 430 463 9 0 0 0 - - - 0;
#X obj 401 271 max 63.5;
#X obj 301 270 min 63.5;
#X obj 301 321 select 63.5;
#X obj 401 320 select 63.5;
#X text 210 485 Rescale: 0.5 to 1;
#X obj 440 559 bl.square~;
#X text 429 490 Rescale: 0 to 1;
#X obj 217 652 *~ 1;
#X obj 428 645 *~ 0;
#X floatatom 279 622 5 0 0 0 - - - 0;
#X obj 279 595 expr $f1 * -1 + 1;
#X text 210 503 For Tri <-> Saw crossfade;
#X text 430 508 For Saw <-> Square crossfade;
#X text 110 564 OSC: Tri/Saw;
#X text 354 557 OSC: Square;
#X text 275 641 Rescale: 1 to 0;
#X obj 444 139 knob 50 0 127 0 64 empty empty #dfdfdf #7c7c7c black 0 0 0 0 1 320 0 0 64;
#X obj 426 197 note 0 12 Menlo empty 0 0 0 0 0 255 255 255 0 0 PULSE WIDTH;
#X floatatom 518 303 9 0 0 0 - - - 0;
#X obj 266 194 note 0 12 Menlo empty 0 0 0 0 0 255 255 255 0 0 SYNC;
#N canvas 63 88 450 300 reference 0;
#X text 275 189 signal~ [-1 \, 1];
#X text 31 189 Outlet 1: Oscillator 1 output;
#X text 40 43 Inlet 1: Frequency control;
#X text 40 64 Inlet 2: Sync On/Off;
#X text 40 85 Inlet 3: Shape control;
#X text 40 104 Inlet 4: Pulse Width control;
#X text 30 209 Outlet 2: Sub-Octave output;
#X text 276 207 signal~ [-1 \, 1];
#X restore 826 42 pd reference;
#X obj 130 224 cnv 4 16 4 empty empty empty 20 12 0 12 #000000 #404040 0;
#X obj 131 100 cnv 4 16 4 empty empty empty 20 12 0 12 #000000 #404040 0;
#X obj 525 100 cnv 4 16 4 empty empty empty 20 12 0 12 #000000 #404040 0;
#X obj 236 372 *~ 0;
#X obj 396 100 cnv 4 16 4 empty empty empty 20 12 0 12 #000000 #404040 0;
#X floatatom 135 304 5 21 108 0 - - - 0;
#X obj 135 335 +;
#X floatatom 135 390 5 0 0 0 - - - 0;
#X obj 135 413 mtof;
#X text 5 335 Frequency offset:;
#X text 13 304 MID Note Number:;
#X text 545 577 Volume normalization;
#X obj 430 439 expr ($f1 - $f2) / 63.5 + 1;
#X obj 216 439 expr $f1 / $f2 + 0.5;
#X obj 616 404 r bit;
#X obj 353 411 r bit;
#X obj 740 251 r bit;
#X obj 568 386 line;
#X msg 568 361 \$1 100;
#X text 490 361 Smoothing:;
#X obj 185 302 t b f;
#X obj 327 20 r bit;
#X obj 134 42 expr (($f1 / $f2) * 49) - 24;
#X obj 264 100 cnv 4 16 4 empty empty empty 20 12 0 12 #000000 #404040 0;
#X obj 265 150 tgl 36 0 empty empty empty 0 -10 0 12 #bbbbbb #c10100 #000000 0 1;
#X obj 773 755 else/bl.tri~;
#X obj 88 655 - 12;
#X obj 88 679 mtof;
#X text 681 755 Sub-Octave:;
#X text 45 633 Octave shift;
#X obj 526 224 cnv 4 16 4 empty empty empty 20 12 0 12 #000000 #404040 0;
#X obj 556 598 * 1;
#X obj 518 279 expr (($f1 * 0.96) / $f2) + 0.02;
#X text 514 322 Rescale: 0.02 to 0.98;
#X obj 122 16 cnv 19 64 24 empty empty empty 20 12 0 12 #feffc6 #404040 0;
#X text 148 352 (hard) sync;
#X text 151 370 with Osc 2;
#X obj 283 740 cnv 19 96 32 empty empty empty 20 12 0 12 #e3c6ff #404040 0;
#X obj 304 746 outlet~;
#X text 183 747 Osc 1 signal~;
#X obj 754 776 cnv 19 96 32 empty empty empty 20 12 0 12 #e3c6ff #404040 0;
#X obj 773 779 outlet~;
#X obj 134 19 inlet;
#X obj 251 73 cnv 19 64 24 empty empty empty 20 12 0 12 #feffc6 #404040 0;
#X obj 266 77 inlet;
#X obj 387 74 cnv 19 64 24 empty empty empty 20 12 0 12 #feffc6 #404040 0;
#X obj 400 76 inlet;
#X obj 491 74 cnv 19 64 24 empty empty empty 20 12 0 12 #feffc6 #404040 0;
#X obj 504 77 inlet;
#X obj 102 264 cnv 19 64 24 empty empty empty 20 12 0 12 #c6ffc7 #404040 0;
#X obj 101 266 r note_nr;
#X obj 232 346 cnv 19 64 24 empty empty empty 20 12 0 12 #c6ffc7 #404040 0;
#X obj 236 348 r~ osc2;
#X connect 1 0 5 0;
#X connect 3 0 18 0;
#X connect 3 0 17 0;
#X connect 5 0 58 0;
#X connect 6 0 24 0;
#X connect 9 0 8 0;
#X connect 10 0 7 0;
#X connect 11 0 8 0;
#X connect 12 0 7 0;
#X connect 13 0 51 0;
#X connect 14 0 50 0;
#X connect 16 0 27 0;
#X connect 16 0 69 0;
#X connect 17 0 14 0;
#X connect 17 0 20 0;
#X connect 18 0 13 0;
#X connect 18 0 19 0;
#X connect 19 0 9 0;
#X connect 19 0 12 0;
#X connect 20 0 10 0;
#X connect 20 0 11 0;
#X connect 22 0 25 0;
#X connect 24 0 76 0;
#X connect 25 0 76 0;
#X connect 27 0 24 1;
#X connect 27 0 26 0;
#X connect 33 0 70 0;
#X connect 35 0 56 0;
#X connect 41 0 6 2;
#X connect 41 0 22 2;
#X connect 43 0 44 0;
#X connect 44 0 45 0;
#X connect 44 0 64 0;
#X connect 45 0 46 0;
#X connect 46 0 6 0;
#X connect 46 0 22 0;
#X connect 50 0 16 0;
#X connect 51 0 15 0;
#X connect 51 0 6 1;
#X connect 52 0 50 1;
#X connect 53 0 51 1;
#X connect 54 0 70 1;
#X connect 55 0 22 1;
#X connect 56 0 55 0;
#X connect 58 0 44 0;
#X connect 58 1 44 1;
#X connect 59 0 60 1;
#X connect 60 0 1 0;
#X connect 62 0 41 1;
#X connect 63 0 79 0;
#X connect 64 0 65 0;
#X connect 65 0 63 0;
#X connect 69 0 25 1;
#X connect 70 0 35 0;
#X connect 80 0 60 0;
#X connect 82 0 62 0;
#X connect 84 0 3 0;
#X connect 86 0 33 0;
#X connect 88 0 43 0;
#X coords 0 -1 1 1 412 128 1 130 100;
