#N canvas 505 205 802 659 12;
#X obj 278 457 else/adsr~, f 21;
#X obj 180 225 cnv 19 64 24 empty empty empty 20 12 0 12 #feffc6 #404040 0;
#X obj 305 225 cnv 19 64 24 empty empty empty 20 12 0 12 #feffc6 #404040 0;
#X obj 428 227 cnv 19 64 24 empty empty empty 20 12 0 12 #feffc6 #404040 0;
#X obj 544 229 cnv 19 64 24 empty empty empty 20 12 0 12 #feffc6 #404040 0;
#X obj 191 226 inlet;
#X obj 315 228 inlet;
#X obj 553 231 inlet;
#X obj 438 229 inlet;
#X obj 274 519 cnv 19 64 24 empty empty empty 20 12 0 12 #e3c6ff #404040 0;
#X obj 278 521 outlet~;
#X obj 422 507 tgl 40 0 empty empty empty 17 7 0 10 #dcdcdc #000000 #000000 0 1;
#X obj 422 559 switch~;
#N canvas 1193 517 450 300 reference 0;
#X text 275 189 signal~ [0 \, 1];
#X text 39 61 Inlet 1: Attack (1-20 \, 0 ms);
#X text 39 81 Inlet 2: Decay (1-20 \, 0 ms);
#X text 40 102 Inlet 3: Sustain (0-1);
#X text 40 121 Inlet 4: Release (1-20 \, 0 ms);
#X text 31 189 Outlet 1: Filter Envelope output;
#X restore 660 59 pd reference;
#X obj 117 349 cnv 19 64 24 empty empty empty 20 12 0 12 #c6ffc7 #404040 0;
#X text 354 584 Turn off DSP when inactive;
#X obj 108 351 r note_gate;
#X obj 108 375 * 127;
#X text 306 74 ___ Filter Envelope ___;
#X text 187 193 ATTACK;
#X text 315 192 DECAY;
#X text 431 194 SUSTAIN;
#X text 547 192 RELEASE;
#X connect 0 0 10 0;
#X connect 0 1 11 0;
#X connect 5 0 0 2;
#X connect 6 0 0 3;
#X connect 7 0 0 5;
#X connect 8 0 0 4;
#X connect 11 0 12 0;
#X connect 16 0 17 0;
#X connect 17 0 0 0;
#X coords 0 659 1 658 512 128 0;
