#N canvas 63 88 450 533 12;
#X floatatom 274 279 5 0 0 0 - - - 0;
#X obj 92 183 ctlin 74;
#X floatatom 135 275 5 0 0 0 - - - 0;
#X obj 231 184 ctlin 106;
#X obj 92 274 * 127;
#X floatatom 61 314 5 0 0 0 - - - 0;
#X obj 163 408 +;
#X obj 231 278 t b f;
#X floatatom 163 432 6 0 0 0 - - - 0;
#X text 132 95 __ 14-bit CC __;
#X connect 1 0 2 0;
#X connect 1 0 4 0;
#X connect 3 0 0 0;
#X connect 3 0 7 0;
#X connect 4 0 5 0;
#X connect 4 0 6 0;
#X connect 6 0 8 0;
#X connect 7 0 6 0;
#X connect 7 1 6 1;
