#N canvas 4 206 1920 737 12;
#X obj 195 83 cnv 19 64 24 empty empty empty 20 12 0 12 #c6ffc7 #404040 0;
#X obj 166 88 r \$0-note_slide;
#X obj 442 87 cnv 19 64 24 empty empty empty 20 12 0 12 #c6ffc7 #404040 0;
#X obj 413 92 r \$0-note_glide;
#X obj 702 91 cnv 19 64 24 empty empty empty 20 12 0 12 #c6ffc7 #404040 0;
#X obj 673 96 r \$0-note_vel;
#X obj 979 98 cnv 19 64 24 empty empty empty 20 12 0 12 #c6ffc7 #404040 0;
#X obj 950 103 r \$0-note_press;
#X obj 1266 93 cnv 19 64 24 empty empty empty 20 12 0 12 #c6ffc7 #404040 0;
#X obj 1237 98 r \$0-note_vel_off;
#X obj 1477 94 cnv 19 64 24 empty empty empty 20 12 0 12 #c6ffc7 #404040 0;
#X obj 1448 99 r \$0-note_area;
#X obj 1706 95 cnv 19 64 24 empty empty empty 20 12 0 12 #c6ffc7 #404040 0;
#X obj 1677 100 r \$0-note_2dist;
#X obj 405 234 cnv 19 64 24 empty empty empty 20 12 0 12 #c6ffc7 #404040 0;
#X obj 387 238 r knob_rnd_1;
#X obj 680 226 cnv 19 64 24 empty empty empty 20 12 0 12 #c6ffc7 #404040 0;
#X obj 900 226 cnv 19 64 24 empty empty empty 20 12 0 12 #c6ffc7 #404040 0;
#X obj 1179 232 cnv 19 64 24 empty empty empty 20 12 0 12 #c6ffc7 #404040 0;
#X obj 1456 231 cnv 19 64 24 empty empty empty 20 12 0 12 #c6ffc7 #404040 0;
#X obj 662 230 r knob_rnd_2;
#X obj 882 230 r knob_rnd_3;
#X obj 1161 236 r knob_rnd_4;
#X obj 1438 235 r knob_rnd_5;
#X obj 124 582 s \$0-o1_pw_mod;
#X obj 124 559 *;
#X obj 908 633 *;
#X obj 15 636 *;
#X obj 15 659 s \$0-o1_shape_mod;
#X obj 279 561 *;
#X obj 191 634 *;
#X obj 191 657 s \$0-o2_shape_mod;
#X obj 279 584 s \$0-o2_pw_mod;
#X obj 428 557 *;
#X obj 366 637 *;
#X obj 603 555 *;
#X obj 545 638 *;
#X obj 603 578 s \$0-mix_noise_mod;
#X obj 366 660 s \$0-mix_osc1_mod;
#X obj 428 580 s \$0-mix_osc2_mod;
#X obj 545 661 s \$0-mix_suboct_mod;
#X obj 908 656 s \$0-lpf_cutoff_mod;
#X obj 986 559 *;
#X obj 986 582 s \$0-lpf_res_mod;
#X obj 705 636 *;
#X obj 788 562 *;
#X obj 705 659 s \$0-hpf_cutoff_mod;
#X obj 788 585 s \$0-hpf_res_mod;
#X obj 1264 629 *;
#X obj 1331 560 *;
#X obj 1085 632 *;
#X obj 1163 563 *;
#X obj 1085 655 s \$0-filt_env_A_mod;
#X obj 1163 586 s \$0-filt_env_D_mod;
#X obj 1264 652 s \$0-filt_env_S_mod;
#X obj 1331 583 s \$0-filt_env_R_mod;
#X obj 1677 633 *;
#X obj 1767 567 *;
#X obj 1464 630 *;
#X obj 1560 554 *;
#X obj 1464 653 s \$0-amp_env_A_mod;
#X obj 1560 577 s \$0-amp_env_D_mod;
#X obj 1677 656 s \$0-amp_env_S_mod;
#X obj 1767 590 s \$0-amp_env_R_mod;
#X text 859 24 ___ The Knob Mod Template ___;
#X obj 885 372 cnv 19 64 24 empty empty empty 20 12 0 12 #c6ffc7 #404040 0;
#X obj 867 376 r the_knob_O;
#X obj 867 400 t b f;
#X connect 25 0 24 0;
#X connect 26 0 41 0;
#X connect 27 0 28 0;
#X connect 29 0 32 0;
#X connect 30 0 31 0;
#X connect 33 0 39 0;
#X connect 34 0 38 0;
#X connect 35 0 37 0;
#X connect 36 0 40 0;
#X connect 42 0 43 0;
#X connect 44 0 46 0;
#X connect 45 0 47 0;
#X connect 48 0 54 0;
#X connect 49 0 55 0;
#X connect 50 0 52 0;
#X connect 51 0 53 0;
#X connect 56 0 62 0;
#X connect 57 0 63 0;
#X connect 58 0 60 0;
#X connect 59 0 61 0;
#X connect 66 0 67 0;
