#N canvas 120 176 928 821 12;
#X obj 159 152 cnv 19 512 128 empty empty Amplifier\ Envelope 168 16 0 18 #ffe3c6 #553512 0;
#X obj 340 194 knob 50 1 20000 1 1 empty empty #dfdfdf #7c7c7c black 0 0 0 0 1 320 0 0 1;
#X obj 339 255 note 0 12 Menlo empty 0 0 0 0 0 255 255 255 0 0 ATTACK;
#X obj 427 193 knob 50 1 20000 1 1 empty empty #dfdfdf #7c7c7c black 0 0 0 0 1 320 0 0 1;
#X obj 426 254 note 0 12 Menlo empty 0 0 0 0 0 255 255 255 0 0 DECAY;
#X obj 511 192 knob 50 0 1 0 1 empty empty #dfdfdf #7c7c7c black 0 0 0 0 1 320 0 0 0;
#X obj 510 253 note 0 12 Menlo empty 0 0 0 0 0 255 255 255 0 0 SUSTAIN;
#X obj 599 192 knob 50 1 20000 1 1 empty empty #dfdfdf #7c7c7c black 0 0 0 0 1 320 0 0 1;
#X obj 598 253 note 0 12 Menlo empty 0 0 0 0 0 255 255 255 0 0 RELEASE;
#X floatatom 338 351 9 0 0 0 - - - 0;
#X floatatom 444 429 9 0 0 0 - - - 0;
#X floatatom 649 578 9 0 0 0 - - - 0;
#X obj 182 194 knob 50 0 1 0 0 empty empty #dfdfdf #7c7c7c black 0 0 0 0 1 320 0 0 0;
#X obj 172 256 note 0 12 Menlo empty 0 0 0 0 0 255 255 255 0 0 ENV AMOUNT;
#X obj 248 237 note 0 12 Menlo empty 0 0 0 0 0 255 255 255 0 0 VELOCITY;
#X obj 263 195 tgl 36 0 empty empty empty 0 -10 0 12 #bbbbbb #c10100 #000000 0 1;
#X obj 159 152 cnv 4 16 4 empty empty empty 20 12 0 12 #000000 #404040 0;
#X obj 655 152 cnv 4 16 4 empty empty empty 20 12 0 12 #000000 #404040 0;
#X obj 463 152 cnv 4 16 4 empty empty empty 20 12 0 12 #000000 #404040 0;
#X obj 562 152 cnv 4 16 4 empty empty empty 20 12 0 12 #000000 #404040 0;
#X obj 261 152 cnv 4 16 4 empty empty empty 20 12 0 12 #000000 #404040 0;
#X obj 303 625 else/adsr~, f 21;
#N canvas 1293 547 450 300 lin2log_A 0;
#X obj 124 33 inlet;
#X obj 171 247 outlet;
#X obj 366 169 r bit;
#X obj 145 125 t b f;
#X obj 124 166 pow;
#X obj 296 74 r bit;
#X obj 145 98 expr ($f1 / ($f2 + 1));
#X obj 124 63 + 1;
#X text 40 166 Log-scale:;
#X text 54 193 Rescale:;
#X obj 124 193 expr (($f1 - 1) * 19999) / $f2 + 1;
#X connect 0 0 7 0;
#X connect 2 0 10 1;
#X connect 3 0 4 0;
#X connect 3 1 4 1;
#X connect 4 0 10 0;
#X connect 5 0 6 1;
#X connect 6 0 3 0;
#X connect 7 0 6 0;
#X connect 7 0 4 0;
#X connect 10 0 1 0;
#X restore 338 113 pd lin2log_A;
#N canvas 1293 547 450 300 lin2log_D 0;
#X obj 124 33 inlet;
#X obj 171 247 outlet;
#X obj 366 169 r bit;
#X obj 145 125 t b f;
#X obj 124 166 pow;
#X obj 296 74 r bit;
#X obj 145 98 expr ($f1 / ($f2 + 1));
#X obj 124 63 + 1;
#X text 40 166 Log-scale:;
#X text 54 193 Rescale:;
#X obj 124 193 expr (($f1 - 1) * 19999) / $f2 + 1;
#X connect 0 0 7 0;
#X connect 2 0 10 1;
#X connect 3 0 4 0;
#X connect 3 1 4 1;
#X connect 4 0 10 0;
#X connect 5 0 6 1;
#X connect 6 0 3 0;
#X connect 7 0 6 0;
#X connect 7 0 4 0;
#X connect 10 0 1 0;
#X restore 461 112 pd lin2log_D;
#X obj 360 152 cnv 4 16 4 empty empty empty 20 12 0 12 #000000 #404040 0;
#X obj 159 276 cnv 4 16 4 empty empty empty 20 12 0 12 #000000 #404040 0;
#X obj 129 51 cnv 19 64 24 empty empty empty 20 12 0 12 #feffc6 #404040 0;
#X obj 252 62 cnv 19 64 24 empty empty empty 20 12 0 12 #feffc6 #404040 0;
#X obj 327 82 cnv 19 64 24 empty empty empty 20 12 0 12 #feffc6 #404040 0;
#X obj 451 80 cnv 19 64 24 empty empty empty 20 12 0 12 #feffc6 #404040 0;
#X obj 537 23 cnv 19 64 24 empty empty empty 20 12 0 12 #feffc6 #404040 0;
#X obj 590 87 cnv 19 64 24 empty empty empty 20 12 0 12 #feffc6 #404040 0;
#X obj 140 54 inlet;
#X obj 261 64 inlet;
#X obj 338 83 inlet;
#X obj 461 83 inlet;
#X obj 599 89 inlet;
#X obj 547 25 inlet;
#N canvas 85 510 450 300 rescale_S 0;
#X floatatom 137 147 9 0 0 0 - - - 0;
#X text 146 103 Rescale: 0 to 1;
#X obj 136 53 inlet;
#X obj 137 211 outlet;
#X obj 137 123 expr ($f1 - $f2) / $f2 + 1;
#X obj 316 93 r bit;
#X connect 0 0 3 0;
#X connect 2 0 4 0;
#X connect 4 0 0 0;
#X connect 5 0 4 1;
#X restore 547 51 pd rescale_S;
#N canvas 1293 547 450 300 lin2log_R 0;
#X obj 124 33 inlet;
#X obj 171 247 outlet;
#X obj 366 169 r bit;
#X obj 145 125 t b f;
#X obj 124 166 pow;
#X obj 296 74 r bit;
#X obj 145 98 expr ($f1 / ($f2 + 1));
#X obj 124 63 + 1;
#X text 40 166 Log-scale:;
#X text 54 193 Rescale:;
#X obj 124 193 expr (($f1 - 1) * 19999) / $f2 + 1;
#X connect 0 0 7 0;
#X connect 2 0 10 1;
#X connect 3 0 4 0;
#X connect 3 1 4 1;
#X connect 4 0 10 0;
#X connect 5 0 6 1;
#X connect 6 0 3 0;
#X connect 7 0 6 0;
#X connect 7 0 4 0;
#X connect 10 0 1 0;
#X restore 599 118 pd lin2log_R;
#X floatatom 555 498 8 0 0 0 - - - 0;
#X text 429 52 Rescale: 0 to 1;
#N canvas 85 510 450 300 rescale_env 0;
#X floatatom 137 147 9 0 0 0 - - - 0;
#X text 146 103 Rescale: 0 to 1;
#X obj 136 53 inlet;
#X obj 137 211 outlet;
#X obj 137 123 expr ($f1 - $f2) / $f2 + 1;
#X obj 316 93 r bit;
#X connect 0 0 3 0;
#X connect 2 0 4 0;
#X connect 4 0 0 0;
#X connect 5 0 4 1;
#X restore 140 80 pd rescale_env;
#X text 26 81 Rescale: 0 to 1;
#X text 138 115 Rescaling: 1 to 20000 (log);
#X floatatom 263 444 5 0 0 0 - - - 0;
#X obj 280 748 cnv 19 64 24 empty empty empty 20 12 0 12 #e3c6ff #404040 0;
#X obj 284 750 outlet~;
#X obj 447 677 tgl 40 0 empty empty empty 17 7 0 10 #dcdcdc #000000 #000000 0 1;
#X obj 447 729 switch~;
#X obj 284 704 *~;
#X floatatom 194 333 5 0 0 0 - - - 0;
#N canvas 1193 517 450 300 reference 0;
#X text 41 25 Inlet 1: Envelope Amount control;
#X text 40 43 Inlet 2: Velocity modulation On/Off;
#X text 39 61 Inlet 3: Attack (1-20 \, 0 ms);
#X text 39 81 Inlet 4: Decay (1-20 \, 0 ms);
#X text 40 102 Inlet 5: Sustain (0-1);
#X text 40 121 Inlet 6: Release (1-20 \, 0 ms);
#X text 275 189 signal~ [0 \, 1];
#X text 31 189 Outlet 1: Amp Envelope output;
#X restore 782 47 pd reference;
#X obj 115 373 cnv 19 64 24 empty empty empty 20 12 0 12 #c6ffc7 #404040 0;
#X obj 98 375 r note_vel_off;
#N canvas 881 408 661 550 trigger 0;
#X obj 418 186 spigot;
#X obj 214 362 tgl 19 0 empty empty empty 0 -10 0 12 #fcfcfc #000000 #000000 0 1;
#X obj 197 177 select 0;
#X msg 197 204 1;
#X msg 250 204 0;
#X obj 184 264 spigot;
#X obj 184 293 select 0;
#X msg 237 327 127;
#X msg 184 326 0;
#X obj 357 66 inlet;
#X obj 312 457 outlet;
#X obj 126 64 inlet;
#X text 311 41 Velocity Mod On/Off;
#X text 382 187 On:;
#X text 143 263 Off:;
#X text 89 40 Velocity (w/Noteoff);
#X connect 0 0 10 0;
#X connect 1 0 10 0;
#X connect 2 0 3 0;
#X connect 2 1 4 0;
#X connect 3 0 5 1;
#X connect 4 0 5 1;
#X connect 5 0 6 0;
#X connect 6 0 8 0;
#X connect 6 1 7 0;
#X connect 7 0 1 0;
#X connect 8 0 1 0;
#X connect 9 0 2 0;
#X connect 9 0 0 1;
#X connect 11 0 0 0;
#X connect 11 0 5 0;
#X restore 263 420 pd trigger;
#X text 194 705 Env Amount:;
#X text 379 752 Turn off DSP when inactive;
#X text 93 419 Trigger w/Velocity mod:;
#X connect 1 0 9 0;
#X connect 3 0 10 0;
#X connect 5 0 40 0;
#X connect 7 0 11 0;
#X connect 9 0 21 2;
#X connect 10 0 21 3;
#X connect 11 0 21 5;
#X connect 12 0 51 0;
#X connect 15 0 55 1;
#X connect 21 0 50 0;
#X connect 21 1 48 0;
#X connect 22 0 1 0;
#X connect 23 0 3 0;
#X connect 32 0 42 0;
#X connect 33 0 15 0;
#X connect 34 0 22 0;
#X connect 35 0 23 0;
#X connect 36 0 39 0;
#X connect 37 0 38 0;
#X connect 38 0 5 0;
#X connect 39 0 7 0;
#X connect 40 0 21 4;
#X connect 42 0 12 0;
#X connect 45 0 21 0;
#X connect 48 0 49 0;
#X connect 50 0 47 0;
#X connect 51 0 50 1;
#X connect 54 0 55 0;
#X connect 55 0 45 0;
#X coords 0 -1 1 1 512 128 1 159 152;
