#N canvas 74 64 1846 968 12;
#X obj 114 205 ./GUI/oscillator_1;
#X obj 114 379 ./GUI/oscillator_2;
#X obj 1589 1 cnv 19 256 512 empty empty Global\ parameters 36 12 0 18 #c6ffc7 #9c00ff 0;
#N canvas 1237 406 450 300 bit_resolution 0;
#X msg 147 112 7;
#X msg 209 112 16;
#X msg 178 112 14;
#X msg 240 112 32;
#X floatatom 147 166 14 0 0 0 - - - 0;
#X obj 147 141 expr (pow(2 \, $i1)) - 1;
#X obj 147 86 loadbang;
#X obj 147 189 s bit;
#X connect 0 0 5 0;
#X connect 1 0 5 0;
#X connect 2 0 5 0;
#X connect 3 0 5 0;
#X connect 4 0 7 0;
#X connect 5 0 4 0;
#X connect 6 0 0 0;
#X restore 1646 59 pd bit_resolution;
#X obj 697 204 ./GUI/mixer;
#N canvas 678 509 506 443 init 0;
#X obj 135 61 loadbang;
#X obj 344 62 loadbang;
#X msg 344 124 12;
#X obj 364 88 inlet;
#X obj 344 148 s pb_range;
#X msg 135 85 \; o1_sync_I 0 \; o2_lf_I 0 \; o2_keyb_I 1 \; o1_lvl_I 127 \; o2_lvl_I 63 \; so_lvl_I 63 \; lpf_cut_I 64 \; lpf_res_I 42 \; lpf_env_I 76 \; lpf_vel_I 0 \; amp_env_I 100 \; amp_vel_I 0 \; master_vol 0.8 \; pd_out set 0.6 \; pb_init 12 \; glide2pb 1 \;;
#X connect 0 0 5 0;
#X connect 1 0 2 0;
#X connect 2 0 4 0;
#X connect 3 0 2 0;
#X restore 1718 157 pd init;
#X obj 959 204 ./GUI/low-pass_filter;
#X obj 959 555 ./GUI/amplifier_envelope;
#X obj 959 380 ./GUI/filter_envelope;
#X obj 114 554 ./GUI/master_vol;
#X obj 114 686 s~ master;
#X obj 1696 422 r~ master;
#X obj 114 532 r master_vol;
#X obj 1626 420 r pd_out;
#X floatatom 1718 119 5 1 48 0 PitchBend\ range pb_init - 0;
#X obj 1696 445 out~;
#X obj 114 336 s o1_freq_O;
#X obj 459 336 s o1_pw_O;
#X obj 114 182 r o1_freq_I;
#X obj 249 182 r o1_sync_I;
#X obj 359 182 r o1_shape_I;
#X obj 459 182 r o1_pw_I;
#X obj 249 336 s o1_sync_O;
#X obj 351 336 s o1_shape_O;
#X obj 114 357 r o2_freq_I;
#X obj 227 357 r o2_fine_I;
#X obj 341 357 r o2 shape_I;
#X obj 455 357 r o2_pw_I;
#X obj 533 356 r o2_lf_I;
#X obj 610 356 r o2_keyb_I;
#X obj 114 510 s o2_freq_O;
#X obj 227 510 s o2_fine_O;
#X obj 341 510 s o2_shape_O;
#X obj 532 510 s o2_lf_O;
#X obj 455 510 s o2_pw_O;
#X obj 609 510 s o2_keyb_O;
#X obj 697 181 r o1_lvl_I;
#X obj 780 181 r o2_lvl_I;
#X obj 856 160 r so_lvl_I;
#X obj 886 181 r n_lvl_I;
#X obj 697 510 s o1_lvl_O;
#X obj 780 510 s o2_lvl_O;
#X obj 854 532 s so_lvl_O;
#X obj 886 510 s n_lvl_O;
#X obj 959 181 r lpf_cut_I;
#X obj 1085 181 r lpf_res_I;
#X obj 1211 181 r lpf_env_I;
#X obj 1300 181 r lpf_vel_I;
#X obj 1390 181 r lpf_key_I;
#X obj 959 335 s lpf_cut_O;
#X obj 1085 335 s lpf_res_O;
#X obj 1211 335 s lpf_env_O;
#X obj 1301 335 s lpf_vel_O;
#X obj 1390 335 s lpf_key_O;
#X obj 959 511 s filter_A_O;
#X obj 959 357 r filter_A_I;
#X obj 1127 357 r filter_D_I;
#X obj 1289 357 r filter_S_I;
#X obj 1126 511 s filter_D_O;
#X obj 1289 511 s filter_S_O;
#X obj 1383 510 s filter_R_O;
#X obj 1383 357 r filter_R_I;
#X obj 1060 533 r amp_vel_I;
#X obj 1161 532 r amp_A_I;
#X obj 1262 532 r amp_D_I;
#X obj 1333 532 r amp_S_I;
#X obj 1404 532 r amp_R_I;
#X obj 959 533 r amp_env_I;
#X obj 959 687 s amp_env_O;
#X obj 1060 686 s amp_vel_O;
#X obj 1161 686 s amp_A_O;
#X obj 1262 686 s amp_D_O;
#X obj 1333 686 s amp_S_O;
#X obj 1404 686 s amp_R_O;
#X obj 477 602 cnv 19 256 96 empty empty Engine 96 12 0 16 #e3c6ff #606060 0;
#N canvas 266 317 878 439 synth_engine 0;
#X obj 108 85 mpe;
#X obj 108 109 route 1;
#X obj 108 133 route 1 2 3 4 5 6, f 93;
#X obj 108 158 logic/mpe_voice;
#X obj 216 158 logic/mpe_voice;
#X obj 324 158 logic/mpe_voice;
#X obj 432 158 logic/mpe_voice;
#X obj 540 158 logic/mpe_voice;
#X obj 648 158 logic/mpe_voice;
#X obj 108 267 p6_voicecard;
#X obj 108 291 throw~ voices;
#X obj 216 267 p6_voicecard;
#X obj 216 291 throw~ voices;
#X obj 324 268 p6_voicecard;
#X obj 324 292 throw~ voices;
#X obj 432 268 p6_voicecard;
#X obj 432 292 throw~ voices;
#X obj 540 268 p6_voicecard;
#X obj 540 292 throw~ voices;
#X obj 648 269 p6_voicecard;
#X obj 648 293 throw~ voices;
#X connect 0 0 1 0;
#X connect 1 0 2 0;
#X connect 2 0 3 0;
#X connect 2 0 9 0;
#X connect 2 1 4 0;
#X connect 2 1 11 0;
#X connect 2 2 5 0;
#X connect 2 2 13 0;
#X connect 2 3 6 0;
#X connect 2 3 15 0;
#X connect 2 4 7 0;
#X connect 2 4 17 0;
#X connect 2 5 8 0;
#X connect 2 5 19 0;
#X connect 9 0 10 0;
#X connect 11 0 12 0;
#X connect 13 0 14 0;
#X connect 15 0 16 0;
#X connect 17 0 18 0;
#X connect 19 0 20 0;
#X restore 551 664 pd synth_engine;
#X connect 0 0 16 0;
#X connect 0 1 22 0;
#X connect 0 2 23 0;
#X connect 0 3 17 0;
#X connect 1 0 30 0;
#X connect 1 1 31 0;
#X connect 1 2 32 0;
#X connect 1 3 34 0;
#X connect 1 4 33 0;
#X connect 1 5 35 0;
#X connect 4 0 40 0;
#X connect 4 1 41 0;
#X connect 4 2 42 0;
#X connect 4 3 43 0;
#X connect 6 0 49 0;
#X connect 6 1 50 0;
#X connect 6 2 51 0;
#X connect 6 3 52 0;
#X connect 6 4 53 0;
#X connect 7 0 68 0;
#X connect 7 1 69 0;
#X connect 7 2 70 0;
#X connect 7 3 71 0;
#X connect 7 4 72 0;
#X connect 7 5 73 0;
#X connect 8 0 54 0;
#X connect 8 1 58 0;
#X connect 8 2 59 0;
#X connect 8 3 60 0;
#X connect 9 0 10 0;
#X connect 11 0 15 0;
#X connect 11 0 15 1;
#X connect 12 0 9 0;
#X connect 13 0 15 0;
#X connect 14 0 5 0;
#X connect 18 0 0 0;
#X connect 19 0 0 1;
#X connect 20 0 0 2;
#X connect 21 0 0 3;
#X connect 24 0 1 0;
#X connect 25 0 1 1;
#X connect 26 0 1 2;
#X connect 27 0 1 3;
#X connect 28 0 1 4;
#X connect 29 0 1 5;
#X connect 36 0 4 0;
#X connect 37 0 4 1;
#X connect 38 0 4 2;
#X connect 39 0 4 3;
#X connect 44 0 6 0;
#X connect 45 0 6 1;
#X connect 46 0 6 2;
#X connect 47 0 6 3;
#X connect 48 0 6 4;
#X connect 55 0 8 0;
#X connect 56 0 8 1;
#X connect 57 0 8 2;
#X connect 61 0 8 3;
#X connect 62 0 7 1;
#X connect 63 0 7 2;
#X connect 64 0 7 3;
#X connect 65 0 7 4;
#X connect 66 0 7 5;
#X connect 67 0 7 0;
