#N canvas 360 319 1004 743 12;
#X obj 520 646 out~;
#X floatatom 606 114 5 0 0 0 - - - 0;
#X floatatom 709 106 5 0 0 0 - - - 0;
#X obj 167 250 ./p6_modules/oscillator_1;
#X obj 166 410 ./p6_modules/oscillator_2;
#X floatatom 168 123 5 0 0 0 - - - 0;
#X floatatom 252 121 5 0 0 0 - - - 0;
#X obj 166 543 s~ osc2;
#X obj 167 383 s~ osc1;
#X obj 329 218 r~ osc2;
#X obj 520 617 r~ osc1;
#X obj 607 618 r~ osc2;
#X connect 1 0 4 0;
#X connect 2 0 4 1;
#X connect 3 0 8 0;
#X connect 4 0 7 0;
#X connect 5 0 3 0;
#X connect 6 0 3 1;
#X connect 6 0 3 3;
#X connect 6 0 3 4;
#X connect 6 0 3 5;
#X connect 9 0 3 2;
#X connect 10 0 0 0;
#X connect 11 0 0 1;
