#N canvas 48 120 1846 968 12;
#X obj 488 796 out~;
#X obj 114 205 ./p6_modules/oscillator_1;
#X obj 114 379 ./p6_modules/oscillator_2;
#X obj 114 511 s~ osc2;
#X obj 114 336 s~ osc1;
#X obj 114 357 r o2_freq;
#X obj 227 357 r o2_fine;
#X obj 341 357 r o_2 shape;
#X obj 455 357 r o2_pw;
#X obj 567 357 r o2_lf;
#X obj 624 356 r o2_keyb;
#X obj 114 182 r o1_freq;
#X obj 249 182 r o1_sync;
#X obj 384 182 r o1_shape;
#X obj 472 182 r o1_pw;
#X obj 1589 1 cnv 19 256 512 empty empty Global\ parameters 36 12 0 18 #c6ffc7 #9c00ff 0;
#N canvas 1237 406 450 300 bit_resolution 0;
#X msg 147 112 7;
#X msg 209 112 16;
#X msg 178 112 14;
#X msg 240 112 32;
#X floatatom 147 166 14 0 0 0 - - - 0;
#X obj 147 141 expr (pow(2 \, $i1)) - 1;
#X obj 147 86 loadbang;
#X obj 147 189 s bit;
#X connect 0 0 5 0;
#X connect 1 0 5 0;
#X connect 2 0 5 0;
#X connect 3 0 5 0;
#X connect 4 0 7 0;
#X connect 5 0 4 0;
#X connect 6 0 0 0;
#X restore 1646 59 pd bit_resolution;
#X obj 697 204 p6_modules/mixer;
#X obj 697 181 r o1_lvl;
#X obj 780 181 r o2_lvl;
#X obj 838 158 r subosc_lvl;
#X obj 872 181 r noise_lvl;
#X obj 697 512 s~ mix;
#X floatatom 517 52 5 0 127 0 - - - 0;
#N canvas 121 146 450 443 init 0;
#X obj 135 61 loadbang;
#X msg 135 85 \; o1_sync 0 \; o2_lf 0 \; o2_keyb 1 \; o1_lvl 127 \; o2_lvl 63 \; subosc_lvl 63 \; lpf_cut 64 \; lpf_res 42 \; lpf_env 76 \; lpf_vel 0 \; amp_amount 100 \; amp_vel 0 \; master_out set 0.6 \;;
#X connect 0 0 1 0;
#X restore 1647 115 pd init;
#X obj 459 336 s~ subosc;
#X obj 959 204 p6_modules/low-pass_filter;
#X obj 959 336 s~ lpf;
#X obj 1308 181 r lpf_vel;
#X obj 959 181 r lpf_cut;
#X obj 1085 181 r lpf_res;
#X obj 1211 180 r lpf_env;
#X obj 353 31 tgl 19 0 empty empty empty 0 -10 0 12 #fcfcfc #000000 #000000 0 1;
#X obj 1403 181 r lpf_key;
#X obj 1681 390 notein;
#X obj 1641 448 stripnote;
#X obj 1599 482 s note_nr;
#X obj 1701 483 s note_vel;
#X obj 1717 449 s note_vel_off;
#X obj 959 555 p6_modules/amplifier_envelope;
#X obj 959 687 s~ amp_env;
#X obj 1650 689 r note_vel_off;
#X floatatom 1650 713 5 0 0 0 - - - 0;
#X obj 959 533 r amp_amount;
#X obj 1060 531 r amp_vel;
#X obj 1161 532 r amp_A;
#X obj 1262 532 r amp_D;
#X obj 1340 532 r amp_S;
#X obj 1418 532 r amp_R;
#X obj 959 380 p6_modules/filter_envelope;
#X obj 959 512 s~ filter_env;
#X obj 959 357 r filter_A;
#X obj 1127 357 r filter_D;
#X obj 1295 357 r filter_S;
#X obj 1404 357 r filer_R;
#X obj 113 535 p6_modules/master_vol;
#X obj 113 667 s~ master;
#X obj 1091 790 r~ lpf;
#X obj 1151 790 r~ amp_env;
#X obj 1115 834 *~;
#X obj 1115 878 s~ voices;
#X obj 488 773 r~ master;
#X connect 1 0 4 0;
#X connect 1 1 25 0;
#X connect 2 0 3 0;
#X connect 5 0 2 0;
#X connect 6 0 2 1;
#X connect 7 0 2 2;
#X connect 8 0 2 3;
#X connect 9 0 2 4;
#X connect 10 0 2 5;
#X connect 11 0 1 0;
#X connect 12 0 1 1;
#X connect 13 0 1 2;
#X connect 14 0 1 3;
#X connect 17 0 22 0;
#X connect 18 0 17 0;
#X connect 19 0 17 1;
#X connect 20 0 17 2;
#X connect 21 0 17 3;
#X connect 23 0 26 0;
#X connect 26 0 27 0;
#X connect 28 0 26 3;
#X connect 29 0 26 0;
#X connect 30 0 26 1;
#X connect 31 0 26 2;
#X connect 32 0 39 1;
#X connect 33 0 26 4;
#X connect 34 0 35 0;
#X connect 34 1 35 1;
#X connect 34 1 38 0;
#X connect 35 0 36 0;
#X connect 35 1 37 0;
#X connect 39 0 40 0;
#X connect 41 0 42 0;
#X connect 43 0 39 0;
#X connect 44 0 39 1;
#X connect 45 0 39 2;
#X connect 46 0 39 3;
#X connect 47 0 39 4;
#X connect 48 0 39 5;
#X connect 49 0 50 0;
#X connect 51 0 49 0;
#X connect 52 0 49 1;
#X connect 53 0 49 2;
#X connect 54 0 49 3;
#X connect 55 0 56 0;
#X connect 57 0 59 0;
#X connect 58 0 59 1;
#X connect 59 0 60 0;
#X connect 61 0 0 0;
