#N canvas 60 269 1374 743 12;
#X obj 520 646 out~;
#X obj 114 205 ./p6_modules/oscillator_1;
#X obj 114 379 ./p6_modules/oscillator_2;
#X obj 114 510 s~ osc2;
#X obj 114 336 s~ osc1;
#X obj 254 184 r~ osc2;
#X obj 204 358 r o2_freq;
#X obj 281 358 r o2_fine;
#X obj 379 358 r o_2 shape;
#X obj 475 358 r o2_pw;
#X obj 563 357 r o2_lf;
#X obj 623 357 r o2_keyb;
#X obj 184 184 r o1_freq;
#X obj 317 183 r o1_sync;
#X obj 390 183 r o1_shape;
#X obj 472 183 r o1_pw;
#X obj 150 50 notein;
#X obj 150 74 stripnote;
#X obj 150 98 s note_nr;
#X obj 114 184 r note_nr;
#X obj 114 358 r note_nr;
#X obj 1117 1 cnv 19 256 512 empty empty Global\ parameters 36 12 0 18 #c6ffc7 #9c00ff 0;
#N canvas 1237 406 450 300 bit_resolution 0;
#X msg 147 112 7;
#X msg 209 112 16;
#X msg 178 112 14;
#X msg 240 112 32;
#X floatatom 147 166 14 0 0 0 - - - 0;
#X obj 147 141 expr (pow(2 \, $i1)) - 1;
#X obj 147 86 loadbang;
#X obj 147 189 s bit;
#X connect 0 0 5 0;
#X connect 1 0 5 0;
#X connect 2 0 5 0;
#X connect 3 0 5 0;
#X connect 4 0 7 0;
#X connect 5 0 4 0;
#X connect 6 0 0 0;
#X restore 1174 59 pd bit_resolution;
#X obj 697 204 p6_modules/mixer;
#X obj 695 160 r~ osc1;
#X obj 701 182 r o1_lvl;
#X obj 750 160 r~ osc2;
#X obj 783 183 r o2_lvl;
#X obj 853 181 r subosc_lvl;
#X obj 805 160 r~ subosc;
#X obj 874 160 r noise_lvl;
#X obj 697 511 s~ mix;
#X obj 554 614 r~ mix;
#X floatatom 517 52 5 0 127 0 - - - 0;
#N canvas 121 146 450 300 init 0;
#X obj 135 61 loadbang;
#X msg 135 85 \; o1_sync 0 \; o2_lf 0 \; o2_keyb 1 \; o1_lvl 127 \; o2_lvl 63 \; subosc_lvl 63 \;;
#X connect 0 0 1 0;
#X restore 1175 115 pd init;
#X obj 459 336 s~ subosc;
#X connect 1 0 4 0;
#X connect 1 1 35 0;
#X connect 2 0 3 0;
#X connect 5 0 1 2;
#X connect 6 0 2 1;
#X connect 7 0 2 2;
#X connect 8 0 2 3;
#X connect 9 0 2 4;
#X connect 10 0 2 5;
#X connect 11 0 2 6;
#X connect 12 0 1 1;
#X connect 13 0 1 3;
#X connect 14 0 1 4;
#X connect 15 0 1 5;
#X connect 16 0 17 0;
#X connect 16 1 17 1;
#X connect 17 0 18 0;
#X connect 19 0 1 0;
#X connect 20 0 2 0;
#X connect 23 0 31 0;
#X connect 24 0 23 0;
#X connect 25 0 23 1;
#X connect 26 0 23 2;
#X connect 27 0 23 3;
#X connect 28 0 23 5;
#X connect 29 0 23 4;
#X connect 30 0 23 6;
#X connect 32 0 0 0;
#X connect 32 0 0 1;
