#N canvas 74 64 1846 968 12;
#X obj 114 205 ./p6_modules/_GUI/GUI_oscillator_1;
#X obj 114 379 ./p6_modules/_GUI/GUI_oscillator_2;
#X obj 1589 1 cnv 19 256 512 empty empty Global\ parameters 36 12 0 18 #c6ffc7 #9c00ff 0;
#N canvas 1237 406 450 300 bit_resolution 0;
#X msg 147 112 7;
#X msg 209 112 16;
#X msg 178 112 14;
#X msg 240 112 32;
#X floatatom 147 166 14 0 0 0 - - - 0;
#X obj 147 141 expr (pow(2 \, $i1)) - 1;
#X obj 147 86 loadbang;
#X obj 147 189 s bit;
#X connect 0 0 5 0;
#X connect 1 0 5 0;
#X connect 2 0 5 0;
#X connect 3 0 5 0;
#X connect 4 0 7 0;
#X connect 5 0 4 0;
#X connect 6 0 0 0;
#X restore 1646 59 pd bit_resolution;
#X obj 697 204 p6_modules/_GUI/GUI_mixer;
#X floatatom 517 52 5 0 127 0 - - - 0;
#N canvas 678 509 506 443 init 0;
#X obj 135 61 loadbang;
#X obj 344 62 loadbang;
#X msg 344 124 12;
#X obj 364 88 inlet;
#X obj 344 148 s pb_range;
#X msg 135 85 \; o1_sync_I 0 \; o2_lf_I 0 \; o2_keyb_I 1 \; o1_lvl_I 127 \; o2_lvl_I 63 \; so_lvl_I 63 \; lpf_cut_I 64 \; lpf_res_I 42 \; lpf_env_I 76 \; lpf_vel_I 0 \; amp_amount 100 \; amp_vel 0 \; master_vol 0.8 \; pd_out set 0.6 \; pb_init 12 \; glide2pb 1 \;;
#X connect 0 0 5 0;
#X connect 1 0 2 0;
#X connect 2 0 4 0;
#X connect 3 0 2 0;
#X restore 1718 157 pd init;
#X obj 959 204 p6_modules/_GUI/GUI_low-pass_filter;
#X obj 353 31 tgl 19 0 empty empty empty 0 -10 0 12 #fcfcfc #000000 #000000 0 1;
#X obj 959 555 p6_modules/_GUI/GUI_amplifier_envelope;
#X obj 959 687 s~ amp_env;
#X obj 959 533 r amp_amount;
#X obj 1060 531 r amp_vel;
#X obj 1161 532 r amp_A;
#X obj 1262 532 r amp_D;
#X obj 1340 532 r amp_S;
#X obj 1418 532 r amp_R;
#X obj 959 380 p6_modules/_GUI/GUI_filter_envelope;
#X obj 114 554 p6_modules/master_vol;
#X obj 114 686 s~ master;
#X obj 313 566 r~ lpf;
#X obj 373 566 r~ amp_env;
#X obj 337 610 *~;
#X obj 337 654 s~ voices;
#X obj 1696 422 r~ master;
#X obj 114 532 r master_vol;
#X obj 1626 420 r pd_out;
#X obj 245 734 mpe;
#X obj 245 758 route 1;
#X obj 245 782 route 1 2 3 4 5 6, f 93;
#X obj 245 807 mpe/mpe_voice;
#X obj 353 807 mpe/mpe_voice;
#X obj 461 807 mpe/mpe_voice;
#X obj 569 807 mpe/mpe_voice;
#X obj 677 807 mpe/mpe_voice;
#X obj 785 807 mpe/mpe_voice;
#X obj 208 931 s note_vel;
#X obj 396 931 s note_press;
#X obj 21 931 s note_gate;
#X obj 490 931 s note_slide;
#X obj 584 931 s note_glide;
#X obj 288 931 s note_vel_off;
#X obj 1110 809 r note_press;
#X obj 1207 810 r note_slide;
#X floatatom 1718 119 5 1 48 0 PitchBend\ range pb_init - 0;
#X obj 1696 445 out~;
#N canvas 452 275 640 360 voice_common 0;
#X obj 103 67 cnv 19 64 24 empty empty empty 20 12 0 12 #c6ffc7 #404040 0;
#X obj 256 66 cnv 19 64 24 empty empty empty 20 12 0 12 #c6ffc7 #404040 0;
#X obj 236 68 r note_glide;
#X obj 388 66 cnv 19 64 24 empty empty empty 20 12 0 12 #c6ffc7 #404040 0;
#X obj 254 272 cnv 19 64 24 empty empty empty 20 12 0 12 #c6feff #404040 0;
#N canvas 406 485 874 522 glide2pitchbend 0;
#X obj 463 182 - 8192;
#X text 419 87 PitchWheel Range:;
#X obj 528 252 *;
#X obj 443 318 / 8192;
#X obj 359 371 t b f;
#X obj 275 436 +;
#X obj 145 84 inlet;
#X obj 545 87 inlet;
#X text 82 85 Note nr:;
#X obj 341 87 inlet;
#X text 254 87 Note glide:;
#X obj 275 479 outlet;
#X text 109 479 Note Nr + Pitch Wheel:;
#X obj 463 206 + 64;
#X text 369 206 ROLI offset:;
#X obj 676 86 inlet;
#X text 621 58 glide2pitchbend On/Off;
#X obj 463 158 spigot;
#X obj 673 281 select 0;
#X msg 673 312 0;
#X text 558 281 Reset when Off:;
#X connect 0 0 13 0;
#X connect 2 0 3 0;
#X connect 3 0 4 0;
#X connect 4 0 5 0;
#X connect 4 1 5 1;
#X connect 5 0 11 0;
#X connect 6 0 5 0;
#X connect 7 0 2 1;
#X connect 9 0 17 0;
#X connect 13 0 2 0;
#X connect 15 0 17 1;
#X connect 15 0 18 0;
#X connect 17 0 0 0;
#X connect 18 0 19 0;
#X connect 19 0 4 0;
#X restore 245 185 pd glide2pitchbend;
#X obj 245 274 s note_nr;
#X obj 80 69 r note_nr_raw;
#X obj 506 102 tgl 19 0 empty empty empty 0 -10 0 12 #fcfcfc #000000 #000000 0 1;
#X obj 518 63 cnv 19 64 24 empty empty empty 20 12 0 12 #c6ffc7 #404040 0;
#X obj 506 66 r glide2pb;
#X obj 376 68 r pb_range;
#X connect 2 0 5 1;
#X connect 5 0 6 0;
#X connect 7 0 5 0;
#X connect 8 0 5 3;
#X connect 10 0 8 0;
#X connect 11 0 5 2;
#X restore 566 621 pd voice_common;
#X obj 1110 857 s cutoff_mod;
#X obj 1110 833 / 8;
#X obj 108 931 s note_nr_raw;
#X obj 114 336 s o1_freq_O;
#X obj 459 336 s o1_pw_O;
#X obj 114 182 r o1_freq_I;
#X obj 249 182 r o1_sync_I;
#X obj 359 182 r o1_shape_I;
#X obj 459 182 r o1_pw_I;
#X obj 249 336 s o1_sync_O;
#X obj 351 336 s o1_shape_O;
#N canvas 209 287 1294 803 voicecard 0;
#X obj 90 199 p6_modules/oscillator_1;
#X obj 90 107 r o1_freq_O;
#X obj 142 130 r o1_sync_O;
#X obj 195 153 r o1_shape_O;
#X obj 90 224 s~ osc1;
#X obj 248 224 s~ subosc;
#X obj 90 450 p6_modules/oscillator_2;
#X obj 90 475 s~ osc2;
#X obj 153 358 r o2_shape_O;
#X obj 121 335 r o2_fine_O;
#X obj 90 312 r o2_freq_O;
#X obj 216 404 r o2_lf_O;
#X obj 248 427 r o2_keyb_O;
#X obj 184 381 r o2_pw_O;
#X obj 248 176 r o1_pw_O;
#X obj 446 382 s~ mix;
#X obj 446 265 r o1_lvl_O;
#X obj 482 288 r o2_lvl_O;
#X obj 518 311 r so_lvl_O;
#X obj 555 334 r n_lvl_O;
#X obj 446 357 p6_modules/mixer;
#X obj 776 232 s~ lpf;
#X obj 776 206 p6_modules/low-pass_filter;
#X obj 776 91 r lpf_cut_O;
#X obj 820 114 r lpf_res_O;
#X obj 865 137 r lpf_env_O;
#X obj 910 160 r lpf_vel_O;
#X obj 955 183 r lpf_key_O;
#X obj 764 459 s~ filter_env;
#X obj 764 434 p6_modules/filter_envelope;
#X obj 764 342 r filter_A_O;
#X obj 823 365 r filter_D_O;
#X obj 883 388 r filter_S_O;
#X obj 943 411 r filter_R_O;
#X connect 0 0 4 0;
#X connect 0 1 5 0;
#X connect 1 0 0 0;
#X connect 2 0 0 1;
#X connect 3 0 0 2;
#X connect 6 0 7 0;
#X connect 8 0 6 2;
#X connect 9 0 6 1;
#X connect 10 0 6 0;
#X connect 11 0 6 4;
#X connect 12 0 6 5;
#X connect 13 0 6 3;
#X connect 14 0 0 3;
#X connect 16 0 20 0;
#X connect 17 0 20 1;
#X connect 18 0 20 2;
#X connect 19 0 20 3;
#X connect 20 0 15 0;
#X connect 22 0 21 0;
#X connect 23 0 22 0;
#X connect 24 0 22 1;
#X connect 25 0 22 2;
#X connect 26 0 22 3;
#X connect 27 0 22 4;
#X connect 29 0 28 0;
#X connect 30 0 29 0;
#X connect 31 0 29 1;
#X connect 32 0 29 2;
#X connect 33 0 29 3;
#X restore 565 674 pd voicecard;
#X obj 1207 858 s o1_pw_I;
#X obj 114 357 r o2_freq_I;
#X obj 227 357 r o2_fine_I;
#X obj 341 357 r o2 shape_I;
#X obj 455 357 r o2_pw_I;
#X obj 533 356 r o2_lf_I;
#X obj 610 356 r o2_keyb_I;
#X obj 114 510 s o2_freq_O;
#X obj 227 510 s o2_fine_O;
#X obj 341 510 s o2_shape_O;
#X obj 532 510 s o2_lf_O;
#X obj 455 510 s o2_pw_O;
#X obj 609 510 s o2_keyb_O;
#X obj 697 181 r o1_lvl_I;
#X obj 780 181 r o2_lvl_I;
#X obj 856 160 r so_lvl_I;
#X obj 886 181 r n_lvl_I;
#X obj 697 510 s o1_lvl_O;
#X obj 780 510 s o2_lvl_O;
#X obj 854 532 s so_lvl_O;
#X obj 886 510 s n_lvl_O;
#X obj 959 181 r lpf_cut_I;
#X obj 1085 181 r lpf_res_I;
#X obj 1211 181 r lpf_env_I;
#X obj 1300 181 r lpf_vel_I;
#X obj 1390 181 r lpf_key_I;
#X obj 959 335 s lpf_cut_O;
#X obj 1085 335 s lpf_res_O;
#X obj 1211 335 s lpf_env_O;
#X obj 1301 335 s lpf_vel_O;
#X obj 1390 335 s lpf_key_O;
#X obj 959 511 s filter_A_O;
#X obj 959 357 r filter_A_I;
#X obj 1127 357 r filter_D_I;
#X obj 1289 357 r filter_S_I;
#X obj 1126 511 s filter_D_O;
#X obj 1289 511 s filter_S_O;
#X obj 1383 510 s filter_R_O;
#X obj 1383 357 r filter_R_I;
#X connect 0 0 50 0;
#X connect 0 1 56 0;
#X connect 0 2 57 0;
#X connect 0 3 51 0;
#X connect 1 0 66 0;
#X connect 1 1 67 0;
#X connect 1 2 68 0;
#X connect 1 3 70 0;
#X connect 1 4 69 0;
#X connect 1 5 71 0;
#X connect 4 0 76 0;
#X connect 4 1 77 0;
#X connect 4 2 78 0;
#X connect 4 3 79 0;
#X connect 5 0 7 0;
#X connect 7 0 85 0;
#X connect 7 1 86 0;
#X connect 7 2 87 0;
#X connect 7 3 88 0;
#X connect 7 4 89 0;
#X connect 8 0 9 1;
#X connect 9 0 10 0;
#X connect 11 0 9 0;
#X connect 12 0 9 1;
#X connect 13 0 9 2;
#X connect 14 0 9 3;
#X connect 15 0 9 4;
#X connect 16 0 9 5;
#X connect 17 0 90 0;
#X connect 17 1 94 0;
#X connect 17 2 95 0;
#X connect 17 3 96 0;
#X connect 18 0 19 0;
#X connect 20 0 22 0;
#X connect 21 0 22 1;
#X connect 22 0 23 0;
#X connect 24 0 45 0;
#X connect 24 0 45 1;
#X connect 25 0 18 0;
#X connect 26 0 45 0;
#X connect 27 0 28 0;
#X connect 28 0 29 0;
#X connect 29 0 30 0;
#X connect 29 1 31 0;
#X connect 29 2 32 0;
#X connect 29 3 33 0;
#X connect 29 4 34 0;
#X connect 29 5 35 0;
#X connect 30 0 38 0;
#X connect 30 1 49 0;
#X connect 30 2 36 0;
#X connect 30 3 41 0;
#X connect 30 4 37 0;
#X connect 30 5 39 0;
#X connect 30 6 40 0;
#X connect 42 0 48 0;
#X connect 43 0 59 0;
#X connect 44 0 6 0;
#X connect 52 0 0 0;
#X connect 53 0 0 1;
#X connect 54 0 0 2;
#X connect 55 0 0 3;
#X connect 60 0 1 0;
#X connect 61 0 1 1;
#X connect 62 0 1 2;
#X connect 63 0 1 3;
#X connect 64 0 1 4;
#X connect 65 0 1 5;
#X connect 72 0 4 0;
#X connect 73 0 4 1;
#X connect 74 0 4 2;
#X connect 75 0 4 3;
#X connect 80 0 7 0;
#X connect 81 0 7 1;
#X connect 82 0 7 2;
#X connect 83 0 7 3;
#X connect 84 0 7 4;
#X connect 91 0 17 0;
#X connect 92 0 17 1;
#X connect 93 0 17 2;
#X connect 97 0 17 3;
