#N canvas 120 176 910 757 12;
#X obj 336 556 else/adsr~, f 21;
#X obj 161 225 cnv 19 64 24 empty empty empty 20 12 0 12 #feffc6 #404040 0;
#X obj 281 224 cnv 19 64 24 empty empty empty 20 12 0 12 #feffc6 #404040 0;
#X obj 382 225 cnv 19 64 24 empty empty empty 20 12 0 12 #feffc6 #404040 0;
#X obj 479 223 cnv 19 64 24 empty empty empty 20 12 0 12 #feffc6 #404040 0;
#X obj 589 222 cnv 19 64 24 empty empty empty 20 12 0 12 #feffc6 #404040 0;
#X obj 696 220 cnv 19 64 24 empty empty empty 20 12 0 12 #feffc6 #404040 0;
#X obj 172 228 inlet;
#X obj 290 226 inlet;
#X obj 393 226 inlet;
#X obj 489 226 inlet;
#X obj 705 222 inlet;
#X obj 599 224 inlet;
#X floatatom 316 452 5 0 0 0 - - - 0;
#X obj 313 679 cnv 19 64 24 empty empty empty 20 12 0 12 #e3c6ff #404040 0;
#X obj 317 681 outlet~;
#X obj 480 608 tgl 40 0 empty empty empty 17 7 0 10 #dcdcdc #000000 #000000 0 1;
#X obj 480 660 switch~;
#X obj 317 635 *~;
#N canvas 1193 517 450 300 reference 0;
#X text 41 25 Inlet 1: Envelope Amount control;
#X text 40 43 Inlet 2: Velocity modulation On/Off;
#X text 39 61 Inlet 3: Attack (1-20 \, 0 ms);
#X text 39 81 Inlet 4: Decay (1-20 \, 0 ms);
#X text 40 102 Inlet 5: Sustain (0-1);
#X text 40 121 Inlet 6: Release (1-20 \, 0 ms);
#X text 275 189 signal~ [0 \, 1];
#X text 31 189 Outlet 1: Amp Envelope output;
#X restore 769 49 pd reference;
#X obj 144 354 cnv 19 64 24 empty empty empty 20 12 0 12 #c6ffc7 #404040 0;
#X text 227 636 Env Amount:;
#X text 412 683 Turn off DSP when inactive;
#X obj 133 356 r note_gate;
#X obj 245 356 cnv 19 64 24 empty empty empty 20 12 0 12 #c6ffc7 #404040 0;
#X obj 238 357 r note_vel;
#X text 168 428 Gate w/Velocity mod:;
#N canvas 881 408 661 550 gate 0;
#X obj 408 258 spigot;
#X obj 192 164 select 0;
#X msg 192 191 1;
#X msg 245 191 0;
#X obj 184 264 spigot;
#X obj 463 68 inlet;
#X obj 312 457 outlet;
#X obj 266 71 inlet;
#X text 417 43 Velocity Mod On/Off;
#X text 372 259 On:;
#X text 143 263 Off:;
#X obj 78 65 inlet;
#X text 251 48 Velocity;
#X obj 78 89 * 127;
#X text 77 41 Gate;
#X obj 78 346 select 0;
#X msg 78 370 0;
#X text 9 346 Note off:;
#X connect 0 0 6 0;
#X connect 1 0 2 0;
#X connect 1 1 3 0;
#X connect 2 0 4 1;
#X connect 3 0 4 1;
#X connect 4 0 6 0;
#X connect 5 0 1 0;
#X connect 5 0 0 1;
#X connect 7 0 0 0;
#X connect 11 0 13 0;
#X connect 13 0 15 0;
#X connect 13 0 4 0;
#X connect 15 0 16 0;
#X connect 16 0 6 0;
#X restore 316 428 pd gate;
#X text 357 60 ___ Amplifier Envelope ___;
#X text 155 194 ENV AMOUNT;
#X text 280 193 VELOCITY;
#X text 391 193 ATTACK;
#X text 492 192 DECAY;
#X text 596 192 SUSTAIN;
#X text 699 192 RELEASE;
#X connect 0 0 18 0;
#X connect 0 1 16 0;
#X connect 7 0 18 1;
#X connect 8 0 27 2;
#X connect 9 0 0 2;
#X connect 10 0 0 3;
#X connect 11 0 0 5;
#X connect 12 0 0 4;
#X connect 13 0 0 0;
#X connect 16 0 17 0;
#X connect 18 0 15 0;
#X connect 23 0 27 0;
#X connect 25 0 27 1;
#X connect 27 0 13 0;
#X coords 0 757 1 756 512 128 0;
