#N canvas 566 187 869 757 12;
#X obj 145 103 cnv 19 512 128 empty empty Filter\ Envelope 168 12 0 18 #ffe3c6 #553512 0;
#X obj 182 149 knob 50 0 127 0 0 empty empty #dfdfdf #7c7c7c black 0 0 0 0 1 320 0 0 0;
#X obj 181 210 note 0 12 Menlo empty 0 0 0 0 0 255 255 255 0 0 ATTACK;
#X obj 290 148 knob 50 0 127 0 0 empty empty #dfdfdf #7c7c7c black 0 0 0 0 1 320 0 0 0;
#X obj 289 209 note 0 12 Menlo empty 0 0 0 0 0 255 255 255 0 0 DECAY;
#X obj 386 147 knob 50 0 127 0 127 empty empty #dfdfdf #7c7c7c black 0 0 0 0 1 320 0 0 0;
#X obj 385 208 note 0 12 Menlo empty 0 0 0 0 0 255 255 255 0 0 SUSTAIN;
#X obj 484 149 knob 50 0 127 0 0 empty empty #dfdfdf #7c7c7c black 0 0 0 0 1 320 0 0 0;
#X obj 483 210 note 0 12 Menlo empty 0 0 0 0 0 255 255 255 0 0 RELEASE;
#X obj 323 651 adsr~, f 21;
#X floatatom 182 276 9 0 0 0 - - - 0;
#X floatatom 288 354 9 0 0 0 - - - 0;
#X floatatom 390 428 9 0 0 0 - - - 0;
#X floatatom 493 503 9 0 0 0 - - - 0;
#X text 178 295 Rescale: 0 to 10000;
#X text 284 373 Rescale: 0 to 10000;
#X text 489 522 Rescale: 0 to 10000;
#X text 386 447 Rescale: 0 to 1;
#X obj 390 404 expr ($f1 - 127) / 127 + 1;
#X obj 493 479 expr ($f1 * 10000) / 127;
#X obj 288 330 expr ($f1 * 10000) / 127;
#X obj 182 252 expr ($f1 * 10000) / 127;
#X connect 1 0 21 0;
#X connect 3 0 20 0;
#X connect 5 0 18 0;
#X connect 7 0 19 0;
#X connect 10 0 9 2;
#X connect 11 0 9 3;
#X connect 12 0 9 4;
#X connect 13 0 9 5;
#X connect 18 0 12 0;
#X connect 19 0 13 0;
#X connect 20 0 11 0;
#X connect 21 0 10 0;
