#N canvas 602 188 975 889 12;
#X text 471 747 Four-pole resonant Low-Pass Filter;
#N canvas 1335 171 450 300 reference 0;
#X text 275 189 signal~ [-1 \, 1];
#X text 31 189 Outlet 1: Low-Pass Filter output;
#X text 40 43 Inlet 1: Cutoff control;
#X text 39 61 Inlet 2: Resonance control;
#X text 39 121 Inlet 5: Keyboard Tracking (Off/Half/Full);
#X text 39 82 Inlet 3: Envelope Amount control;
#X text 37 101 Inlet 4: Velocity modolation On/Off;
#X restore 830 62 pd reference;
#X obj 79 584 cnv 19 64 24 empty empty empty 20 12 0 12 #c6ffc7 #404040 0;
#X obj 89 586 r~ mix;
#X text 70 560 Mixer signal~;
#X obj 331 794 cnv 19 64 24 empty empty empty 20 12 0 12 #e3c6ff #404040 0;
#X obj 338 795 outlet~;
#X obj 186 182 cnv 19 64 24 empty empty empty 20 12 0 12 #feffc6 #404040 0;
#X obj 630 184 cnv 19 64 24 empty empty empty 20 12 0 12 #feffc6 #404040 0;
#X obj 492 182 cnv 19 64 24 empty empty empty 20 12 0 12 #feffc6 #404040 0;
#X obj 763 182 cnv 19 64 24 empty empty empty 20 12 0 12 #feffc6 #404040 0;
#X obj 193 184 inlet;
#X obj 504 185 inlet;
#X obj 641 186 inlet;
#X obj 775 185 inlet;
#X obj 343 184 cnv 19 64 24 empty empty empty 20 12 0 12 #feffc6 #404040 0;
#X obj 349 186 inlet;
#X text 146 796 Low-Pass filtered output:;
#X obj 258 720 else/svfilter~;
#X obj 338 757 else/svfilter~;
#X text 468 764 (2x else/svfilter~ (two-pole each) in series);
#X obj 589 479 cnv 19 64 24 empty empty empty 20 12 0 12 #c6ffc7 #404040 0;
#X obj 564 482 r~ filter_env;
#X text 545 456 Filter Envelope signal~;
#N canvas 365 362 1115 662 cutoff_freq 0;
#X obj 131 110 inlet;
#X obj 284 113 inlet;
#X obj 430 114 inlet;
#X obj 966 118 inlet~;
#X text 112 81 MIDI Note Nr;
#X text 262 83 Cutoff value;
#X text 402 84 Keyboard Track;
#X text 936 85 Filter Envelope;
#X text 568 83 Envelope Amount;
#X obj 598 118 inlet;
#X obj 430 171 select 0 1 2;
#X msg 430 199 0;
#X msg 460 199 0.5;
#X msg 490 199 1;
#X text 412 149 0% / 50& / 100%;
#X obj 460 242 t b f;
#X obj 131 216 mtof;
#X msg 631 204 8;
#X obj 599 245 * 8;
#X obj 631 181 loadbang;
#X text 629 158 Env depth;
#X obj 811 356 *~;
#X obj 486 451 *~;
#X obj 283 193 t b f;
#X obj 131 367 *;
#X obj 131 450 +;
#X obj 130 525 +~;
#X obj 130 580 outlet~;
#X obj 761 119 inlet;
#X text 723 83 Velocity modulation;
#N canvas 1217 319 611 523 velocity_mod 0;
#X obj 325 231 spigot;
#X msg 246 265 1;
#N canvas 991 97 450 300 rescale_vel 0;
#X obj 177 62 inlet;
#X obj 177 121 expr $f1 / $f2;
#X obj 272 97 r bit;
#X obj 177 187 outlet;
#X connect 0 0 1 0;
#X connect 1 0 3 0;
#X connect 2 0 1 1;
#X restore 325 136 pd rescale_vel;
#X text 323 87 Note velocity;
#X obj 245 114 inlet;
#X text 171 114 VELOCITY;
#X obj 329 109 cnv 19 64 24 empty empty empty 20 12 0 12 #c6ffc7 #404040 0;
#X obj 325 112 r note_vel;
#X obj 277 410 outlet;
#X obj 246 231 select 0;
#X connect 0 0 8 0;
#X connect 1 0 8 0;
#X connect 2 0 0 0;
#X connect 4 0 0 1;
#X connect 4 0 9 0;
#X connect 7 0 2 0;
#X connect 9 0 1 0;
#X restore 761 192 pd velocity_mod;
#X text 769 170 Velocity mod:;
#X obj 678 295 *;
#X obj 731 246 t b f;
#X connect 0 0 16 0;
#X connect 1 0 23 0;
#X connect 2 0 10 0;
#X connect 3 0 21 1;
#X connect 9 0 18 0;
#X connect 10 0 11 0;
#X connect 10 1 12 0;
#X connect 10 2 13 0;
#X connect 11 0 15 0;
#X connect 12 0 15 0;
#X connect 13 0 15 0;
#X connect 15 0 24 0;
#X connect 15 1 24 1;
#X connect 16 0 22 0;
#X connect 16 0 24 0;
#X connect 17 0 18 1;
#X connect 18 0 32 0;
#X connect 19 0 17 0;
#X connect 21 0 22 1;
#X connect 22 0 26 1;
#X connect 23 0 25 0;
#X connect 23 1 25 1;
#X connect 24 0 25 0;
#X connect 25 0 26 0;
#X connect 26 0 27 0;
#X connect 28 0 30 0;
#X connect 30 0 33 0;
#X connect 32 0 21 0;
#X connect 33 0 32 0;
#X connect 33 1 32 1;
#X restore 385 544 pd cutoff_freq;
#X obj 211 471 cnv 19 64 24 empty empty empty 20 12 0 12 #c6ffc7 #404040 0;
#X text 208 449 MIDI Note nr;
#N canvas 1076 632 450 300 clip 0;
#X obj 134 62 inlet~;
#X obj 134 200 outlet~;
#X obj 134 141 clip~ 20 22050;
#X obj 229 62 loadbang;
#X obj 229 86 samplerate~;
#X obj 229 110 / 2;
#X connect 0 0 2 0;
#X connect 2 0 1 0;
#X connect 3 0 4 0;
#X connect 4 0 5 0;
#X connect 5 0 2 2;
#X restore 385 638 pd clip;
#X obj 209 474 r note_nr;
#X text 386 58 ___ Low-Pass Filter ___;
#X text 189 151 CUTOFF;
#X text 336 150 RESONANCE;
#X text 490 148 ENV AMOUNT;
#X text 630 151 VELOCITY;
#X text 767 148 KEYBOARD;
#X connect 3 0 18 0;
#X connect 11 0 24 1;
#X connect 12 0 24 3;
#X connect 13 0 24 4;
#X connect 14 0 24 2;
#X connect 16 0 18 2;
#X connect 18 0 19 0;
#X connect 19 0 6 0;
#X connect 22 0 24 5;
#X connect 24 0 27 0;
#X connect 27 0 18 1;
#X connect 27 0 19 1;
#X connect 28 0 24 0;
#X coords 0 889 1 888 512 128 0;
