#N canvas 567 219 669 607 12;
#X obj 246 131 cnv 19 158 128 empty empty empty 32 16 0 18 #ffe3c6 #553512 0;
#X obj 301 158 knob 50 0 1 0 1 empty empty #dfdfdf #7c7c7c black 0 0 0 0 1 320 0 0 0;
#X obj 289 222 note 0 12 Menlo empty 0 0 0 0 0 255 255 255 0 0 MASTER VOL;
#X obj 246 255 cnv 4 16 4 empty empty empty 20 12 0 12 #000000 #404040 0;
#X obj 277 414 cnv 19 64 24 empty empty empty 20 12 0 12 #e3c6ff #404040 0;
#X obj 283 416 outlet~;
#X obj 238 303 cnv 19 64 24 empty empty empty 20 12 0 12 #c6ffc7 #404040 0;
#X obj 283 370 *~;
#X obj 228 306 r~ voices;
#X connect 1 0 7 1;
#X connect 7 0 5 0;
#X connect 8 0 7 0;
#X coords 0 -1 1 1 158 128 1 246 131;
