#N canvas 988 285 646 794 12;
#X obj 221 116 cnv 19 256 304 empty empty Mixer 96 16 0 18 #ffe3c6 #553512 0;
#X obj 258 164 knob 50 0 1 0 1 empty empty #dfdfdf #7c7c7c black 0 0 0 0 1 320 0 0 0;
#X obj 257 225 note 0 12 Menlo empty 0 0 0 0 0 255 255 255 0 0 OSC 1;
#X obj 381 164 knob 50 0 1 0 0.5 empty empty #dfdfdf #7c7c7c black 0 0 0 0 1 320 0 0 0;
#X obj 380 225 note 0 12 Menlo empty 0 0 0 0 0 255 255 255 0 0 OSC 2;
#X obj 257 317 knob 50 0 1 0 0 empty empty #dfdfdf #7c7c7c black 0 0 0 0 1 320 0 0 0;
#X obj 245 378 note 0 12 Menlo empty 0 0 0 0 0 255 255 255 0 0 SUB OCTAVE;
#X obj 386 315 knob 50 0 1 0 0 empty empty #dfdfdf #7c7c7c black 0 0 0 0 1 320 0 0 0;
#X obj 391 376 note 0 12 Menlo empty 0 0 0 0 0 255 255 255 0 0 NOISE;
#X obj 250 507 else/white~;
#N canvas 511 660 450 300 gainscale 0;
#X obj 140 128 expr ($f1 - $f2) / $f2 + 1;
#X obj 318 96 r bit;
#X text 32 127 Scale to 0-1:;
#X obj 139 39 inlet;
#X obj 140 214 outlet;
#X connect 0 0 4 0;
#X connect 1 0 0 1;
#X connect 3 0 0 0;
#X restore 50 73 pd gainscale;
#N canvas 511 660 450 300 gainscale 0;
#X obj 140 128 expr ($f1 - $f2) / $f2 + 1;
#X obj 318 96 r bit;
#X text 32 127 Scale to 0-1:;
#X obj 139 39 inlet;
#X obj 140 214 outlet;
#X connect 0 0 4 0;
#X connect 1 0 0 1;
#X connect 3 0 0 0;
#X restore 158 73 pd gainscale;
#N canvas 511 660 450 300 gainscale 0;
#X obj 140 128 expr ($f1 - $f2) / $f2 + 1;
#X obj 318 96 r bit;
#X text 32 127 Scale to 0-1:;
#X obj 139 39 inlet;
#X obj 140 214 outlet;
#X connect 0 0 4 0;
#X connect 1 0 0 1;
#X connect 3 0 0 0;
#X restore 262 73 pd gainscale;
#N canvas 511 660 450 300 gainscale 0;
#X obj 140 128 expr ($f1 - $f2) / $f2 + 1;
#X obj 318 96 r bit;
#X text 32 127 Scale to 0-1:;
#X obj 139 39 inlet;
#X obj 140 214 outlet;
#X connect 0 0 4 0;
#X connect 1 0 0 1;
#X connect 3 0 0 0;
#X restore 369 72 pd gainscale;
#X obj 222 116 cnv 4 16 4 empty empty empty 20 12 0 12 #000000 #404040 0;
#X obj 460 116 cnv 4 16 4 empty empty empty 20 12 0 12 #000000 #404040 0;
#X obj 300 116 cnv 4 16 4 empty empty empty 20 12 0 12 #000000 #404040 0;
#X obj 378 116 cnv 4 16 4 empty empty empty 20 12 0 12 #000000 #404040 0;
#X obj 222 415 cnv 4 16 4 empty empty empty 20 12 0 12 #000000 #404040 0;
#N canvas 1322 477 450 300 reference 0;
#X text 275 189 signal~ [-1 \, 1];
#X text 41 25 Inlet 1: Osc 1 signal~;
#X text 40 43 Inlet 2: Osc 1 level;
#X text 39 61 Inlet 3: Osc 2 signal~;
#X text 39 81 Inlet 4: Osc 2 level;
#X text 39 120 Inlet 6: Sub-Octave level;
#X text 40 102 Inlet 5: Sub-Octave signal~ (from Osc 1);
#X text 39 139 Inlet 7: White Noise level;
#X text 31 189 Outlet 1: Summed mixer output;
#X restore 532 28 pd reference;
#X text 32 495 Volume adjustment:;
#X obj 64 338 *~;
#X obj 121 395 *~;
#X text 12 339 Osc 1:;
#X text 68 396 Osc 2:;
#X obj 161 548 *~;
#X text 99 550 Sub-Oct:;
#X obj 316 593 *~;
#X text 260 594 Noise:;
#X text 249 487 White noise;
#X obj 250 535 *~ 1;
#X obj 168 495 *~ 1;
#X obj 37 45 cnv 19 64 24 empty empty empty 20 12 0 12 #feffc6 #404040 0;
#X obj 146 45 cnv 19 64 24 empty empty empty 20 12 0 12 #feffc6 #404040 0;
#X obj 251 44 cnv 19 64 24 empty empty empty 20 12 0 12 #feffc6 #404040 0;
#X obj 359 42 cnv 19 64 24 empty empty empty 20 12 0 12 #feffc6 #404040 0;
#X obj 50 49 inlet;
#X obj 158 49 inlet;
#X obj 262 49 inlet;
#X obj 369 48 inlet;
#X obj 27 193 cnv 19 64 24 empty empty empty 20 12 0 12 #c6ffc7 #404040 0;
#X obj 80 250 cnv 19 64 24 empty empty empty 20 12 0 12 #c6ffc7 #404040 0;
#X obj 143 431 cnv 19 64 24 empty empty empty 20 12 0 12 #c6ffc7 #404040 0;
#X obj 32 194 r~ osc1;
#X obj 84 251 r~ osc2;
#X obj 143 434 r~ subosc;
#X obj 46 727 cnv 19 64 24 empty empty empty 20 12 0 12 #e3c6ff #404040 0;
#X obj 56 728 outlet~;
#X connect 1 0 21 1;
#X connect 3 0 22 1;
#X connect 5 0 25 1;
#X connect 7 0 27 1;
#X connect 9 0 30 0;
#X connect 10 0 1 0;
#X connect 11 0 3 0;
#X connect 12 0 5 0;
#X connect 13 0 7 0;
#X connect 21 0 47 0;
#X connect 22 0 47 0;
#X connect 25 0 47 0;
#X connect 27 0 47 0;
#X connect 30 0 27 0;
#X connect 31 0 25 0;
#X connect 36 0 10 0;
#X connect 37 0 11 0;
#X connect 38 0 12 0;
#X connect 39 0 13 0;
#X connect 43 0 21 0;
#X connect 44 0 22 0;
#X connect 45 0 31 0;
#X coords 0 -1 1 1 256 304 1 221 116;
