#N canvas 602 272 1017 787 12;
#N canvas 1 83 450 300 reference 0;
#X text 275 189 signal~ [-1 \, 1];
#X text 39 189 Outlet 1: Oscillator 2 output;
#X text 40 45 Inlet 1: (Coarse) Frequency control;
#X text 39 64 Inlet 2: Fine (Frequency) control;
#X text 39 83 Inlet 3: Shape control;
#X text 38 102 Inlet 4: Pulse Width control;
#X text 37 121 Inlet 5: Low Freq On/Off;
#X text 38 141 Inlet 6: Keyboard On/Off;
#X restore 893 35 pd reference;
#X floatatom 305 275 7 0 0 0 - - - 0;
#X floatatom 213 275 4 0 0 0 - - - 0;
#X obj 710 441 r pre_freq;
#X obj 636 537 s post_freq;
#X obj 301 539 r post_freq;
#X obj 710 491 s low_update;
#X obj 281 397 r low_update;
#X obj 523 400 line;
#X msg 523 375 \$1 100;
#X text 442 380 Smoothing:;
#X floatatom 644 515 10 0 0 0 - - - 0;
#X obj 100 378 r post_note_nr;
#X obj 744 216 s post_note_nr;
#X obj 335 704 cnv 19 96 32 empty empty empty 20 12 0 12 #e3c6ff #404040 0;
#X obj 355 711 outlet~;
#X obj 274 112 cnv 19 64 24 empty empty empty 20 12 0 12 #feffc6 #404040 0;
#X obj 285 115 inlet;
#X obj 626 115 cnv 19 64 24 empty empty empty 20 12 0 12 #feffc6 #404040 0;
#X obj 732 118 cnv 19 64 24 empty empty empty 20 12 0 12 #feffc6 #404040 0;
#X obj 636 120 inlet;
#X obj 744 120 inlet;
#X obj 157 114 cnv 19 64 24 empty empty empty 20 12 0 12 #feffc6 #404040 0;
#X obj 169 117 inlet;
#N canvas 160 371 510 549 keyboard_control 0;
#X obj 203 101 inlet;
#X obj 211 449 outlet;
#X obj 203 150 select 0 1;
#X msg 251 225 1;
#X obj 250 262 tgl 19 0 empty empty empty 0 -10 0 12 #fcfcfc #000000 #000000 0 1;
#X msg 196 224 0;
#X obj 357 181 loadbang;
#X msg 283 225 0;
#X msg 165 224 1;
#X obj 184 260 tgl 19 0 empty empty empty 0 -10 0 12 #fcfcfc #000000 #000000 0 1;
#X obj 153 377 spigot;
#X msg 153 351 60;
#X obj 263 378 spigot;
#X obj 263 349 f;
#X obj 250 308 bng 19 250 50 0 empty empty empty 0 -10 0 12 #fcfcfc #000000 #000000;
#X text 347 160 (Default On);
#X obj 357 104 inlet;
#X text 165 77 Keyboard On/Off;
#X text 31 339 Keyboard Off \; default Note Nr:;
#X text 83 449 Post MIDI Note Nr;
#X text 332 75 (Pre) MIDI Note Nr;
#X connect 0 0 2 0;
#X connect 2 0 5 0;
#X connect 2 0 8 0;
#X connect 2 1 3 0;
#X connect 2 1 7 0;
#X connect 3 0 4 0;
#X connect 4 0 12 1;
#X connect 4 0 14 0;
#X connect 5 0 4 0;
#X connect 6 0 3 0;
#X connect 7 0 9 0;
#X connect 8 0 9 0;
#X connect 9 0 10 1;
#X connect 9 0 11 0;
#X connect 10 0 1 0;
#X connect 11 0 10 0;
#X connect 12 0 1 0;
#X connect 13 0 12 0;
#X connect 14 0 13 0;
#X connect 16 0 13 0;
#X restore 744 190 pd keyboard_control;
#N canvas 70 362 701 649 lfo_mode 0;
#X obj 250 108 inlet;
#X obj 509 104 inlet;
#X obj 170 574 outlet;
#X obj 550 581 outlet;
#X text 483 78 Pre Freqency:;
#X obj 250 170 select 0 1;
#X floatatom 366 458 9 0 0 0 - - - 0;
#X msg 296 229 1;
#X msg 328 230 0;
#X obj 296 263 tgl 19 0 empty empty empty 0 -10 0 12 #fcfcfc #000000 #000000 0 1;
#X obj 171 415 spigot;
#X msg 210 229 1;
#X msg 241 229 0;
#X obj 210 263 tgl 19 0 empty empty empty 0 -10 0 12 #fcfcfc #000000 #000000 0 1;
#X obj 366 392 spigot;
#X obj 366 417 expr (((50 - 0.1) / (17234.7 - 6.67928)) * ($f1 - 6.67928)) + 0.1, f 40;
#X floatatom 171 439 9 0 0 0 - - - 0;
#X obj 170 516 f;
#X obj 279 512 bng 19 250 50 0 empty empty empty 0 -10 0 12 #fcfcfc #000000 #000000;
#X text 86 423 No Change:;
#X text 296 425 Low Freq:;
#X text 455 580 Update Freq:;
#X obj 143 179 loadbang;
#X text 213 62 Low Freq On/Off:;
#X text 234 81 (LFO Mode);
#X text 123 157 (Default Off);
#X text 48 575 Post Frequency:;
#X text 519 395 (Needs rescaling!);
#X connect 0 0 5 0;
#X connect 1 0 10 0;
#X connect 1 0 14 0;
#X connect 5 0 11 0;
#X connect 5 0 12 0;
#X connect 5 1 7 0;
#X connect 5 1 8 0;
#X connect 6 0 17 0;
#X connect 7 0 9 0;
#X connect 8 0 13 0;
#X connect 9 0 14 1;
#X connect 9 0 18 0;
#X connect 10 0 16 0;
#X connect 11 0 13 0;
#X connect 12 0 9 0;
#X connect 13 0 10 1;
#X connect 13 0 18 0;
#X connect 14 0 15 0;
#X connect 15 0 6 0;
#X connect 16 0 17 0;
#X connect 17 0 2 0;
#X connect 18 0 3 0;
#X connect 22 0 11 0;
#X restore 636 466 pd lfo_mode;
#N canvas 929 172 927 588 midi2freq 0;
#X obj 327 73 inlet;
#X obj 526 77 inlet;
#X obj 132 80 inlet;
#X obj 762 85 inlet;
#X obj 532 520 outlet;
#X text 255 45 Frequency Control offset;
#X text 481 47 Fine Control offset;
#X text 740 49 Low Update;
#X obj 238 250 +;
#X floatatom 532 449 5 0 0 0 - - - 0;
#X obj 378 332 +;
#X obj 487 186 t b f;
#X obj 532 472 mtof;
#X obj 532 411 f;
#X text 436 409 Update Freq:;
#X obj 327 163 t b f;
#X text 80 47 Post MIDI Note Nr;
#X text 46 250 (Coarse) Frequency offset:;
#X text 197 329 Fine (Frequency)offset:;
#X text 423 520 Pre Frequency:;
#X connect 0 0 15 0;
#X connect 1 0 11 0;
#X connect 2 0 8 0;
#X connect 3 0 13 0;
#X connect 8 0 10 0;
#X connect 9 0 12 0;
#X connect 10 0 13 0;
#X connect 11 0 10 0;
#X connect 11 1 10 1;
#X connect 12 0 4 0;
#X connect 13 0 9 0;
#X connect 15 0 8 0;
#X connect 15 1 8 1;
#X restore 179 428 pd midi2freq;
#X f 15;
#X obj 179 452 s pre_freq;
#X obj 876 161 cnv 19 64 24 empty empty empty 20 12 0 12 #c6ffc7 #404040 0;
#X obj 874 163 r note_nr;
#X obj 511 117 cnv 19 64 24 empty empty empty 20 12 0 12 #feffc6 #404040 0;
#X obj 524 120 inlet;
#N canvas 63 123 886 832 oscillator2 0;
#X text 136 72 Note Frequency (post);
#X obj 192 108 inlet;
#X obj 410 112 inlet;
#X text 389 58 Shape control;
#X text 363 84 (Tri - Saw – Square);
#X obj 610 107 inlet;
#X text 562 68 Pulse Width modulation;
#X obj 426 764 outlet~;
#X text 271 765 Oscillator 2 Output:;
#X obj 274 419 bl.vsaw~;
#X floatatom 370 217 7 0 0 0 - - - 0;
#X floatatom 470 218 5 0 0 0 - - - 0;
#X floatatom 301 383 8 0 0 0 - - - 0;
#X floatatom 414 547 9 0 0 0 - - - 0;
#X text 150 354 Rescale: 0.5 to 1;
#X obj 589 416 bl.square~;
#X text 298 524 Rescale: 0 to 1;
#X obj 274 656 *~ 1;
#X obj 590 653 *~ 0;
#X floatatom 312 656 5 0 0 0 - - - 0;
#X obj 298 629 expr $f1 * -1 + 1;
#X text 174 420 OSC: Tri/Saw;
#X text 505 417 OSC: Square;
#X text 183 628 Rescale: 1 to 0;
#X obj 370 180 min 0.5;
#X obj 470 181 max 0.5;
#X obj 290 355 + 0.5;
#X obj 414 523 expr $f1 * 2 - 1;
#X text 284 501 For~[bl.vsaw~] <-> [bl.square~] crossfade;
#X text 152 334 Triangle <-> Sawtooth waveshape crossfade;
#X connect 1 0 9 0;
#X connect 1 0 15 0;
#X connect 2 0 24 0;
#X connect 2 0 25 0;
#X connect 5 0 15 1;
#X connect 9 0 17 0;
#X connect 10 0 26 0;
#X connect 11 0 27 0;
#X connect 13 0 20 0;
#X connect 13 0 18 1;
#X connect 15 0 18 0;
#X connect 17 0 7 0;
#X connect 18 0 7 0;
#X connect 20 0 17 1;
#X connect 20 0 19 0;
#X connect 24 0 10 0;
#X connect 25 0 11 0;
#X connect 26 0 12 0;
#X connect 26 0 9 1;
#X connect 27 0 13 0;
#X restore 354 576 pd oscillator2;
#X obj 388 118 cnv 19 64 24 empty empty empty 20 12 0 12 #feffc6 #404040 0;
#X obj 401 120 inlet;
#X text 408 16 ___ Oscillator 2 ___;
#X text 154 89 FREQUENCY;
#X text 286 87 FINE;
#X text 398 88 SHAPE;
#X text 499 88 PULSE WIDTH;
#X text 626 89 LOW FREQ;
#X text 735 87 KEYBOARD;
#X connect 1 0 26 2;
#X connect 2 0 26 1;
#X connect 3 0 25 1;
#X connect 5 0 32 0;
#X connect 7 0 26 3;
#X connect 8 0 32 2;
#X connect 9 0 8 0;
#X connect 12 0 26 0;
#X connect 17 0 26 2;
#X connect 20 0 25 0;
#X connect 21 0 24 0;
#X connect 23 0 26 1;
#X connect 24 0 13 0;
#X connect 25 0 11 0;
#X connect 25 0 4 0;
#X connect 25 1 6 0;
#X connect 26 0 27 0;
#X connect 29 0 24 1;
#X connect 31 0 9 0;
#X connect 32 0 15 0;
#X connect 34 0 32 1;
#X coords 0 787 1 786 576 128 0;
