#N canvas 461 193 985 889 12;
#X obj 218 221 cnv 19 512 128 empty empty Low-Pass\ Filter 192 16 0 18 #ffe3c6 #553512 0;
#X obj 251 267 knob 50 50 20000 1 880 empty empty #dfdfdf #7c7c7c black 0 0 0 0 1 320 0 0 50;
#X obj 254 325 note 0 12 Menlo empty 0 0 0 0 0 255 255 255 0 0 CUTOFF;
#X obj 349 267 knob 50 0 1 0 0.1 empty empty #dfdfdf #7c7c7c black 0 0 0 0 1 320 0 0 0;
#X obj 340 325 note 0 12 Menlo empty 0 0 0 0 0 255 255 255 0 0 RESONANCE;
#X obj 454 267 knob 50 -1 1 0 0 empty empty #dfdfdf #7c7c7c black 0 0 0 0 1 320 0 0 0;
#X obj 445 326 note 0 12 Menlo empty 0 0 0 0 0 255 255 255 0 0 ENV AMOUNT;
#X obj 642 318 note 0 12 Menlo empty 0 0 0 0 0 255 255 255 0 0 KEYBOARD;
#X obj 644 292 hradio 19 1 0 3 empty empty empty 0 -10 0 12 #bbbbbb #bb0300 #000000 0;
#X floatatom 349 371 9 0 0 0 - - - 0;
#X floatatom 251 369 9 0 0 0 - - - 0;
#X obj 548 320 note 0 12 Menlo empty 0 0 0 0 0 255 255 255 0 0 VELOCITY;
#X obj 559 274 tgl 36 0 empty empty empty 0 -10 0 12 #bbbbbb #c10100 #000000 0 1;
#X obj 635 260 else/button 30 15 186 186 186 186 32 32 1;
#X obj 682 260 else/button 30 15 186 186 186 186 32 32 1;
#X text 633 240 Half;
#X text 679 240 Full;
#X text 101 130 Rescale: 50 to 20000;
#N canvas 181 747 450 300 lin2log_C 0;
#X obj 124 33 inlet;
#X obj 171 247 outlet;
#X obj 366 169 r bit;
#X obj 145 125 t b f;
#X obj 124 166 pow;
#X obj 296 74 r bit;
#X obj 145 98 expr ($f1 / ($f2 + 1));
#X obj 124 193 expr (($f1 - 1) * 19950) / $f2 + 50;
#X obj 124 63 + 1;
#X text 40 166 Log-scale:;
#X text 54 193 Rescale:;
#X connect 0 0 8 0;
#X connect 2 0 7 1;
#X connect 3 0 4 0;
#X connect 3 1 4 1;
#X connect 4 0 7 0;
#X connect 5 0 6 1;
#X connect 6 0 3 0;
#X connect 7 0 1 0;
#X connect 8 0 6 0;
#X connect 8 0 4 0;
#X restore 159 151 pd lin2log_C;
#X floatatom 454 369 12 0 0 0 - - - 0;
#X obj 720 132 i;
#X obj 751 131 + 1;
#X obj 720 158 mod 3;
#X floatatom 720 182 5 0 0 0 - - - 0;
#N canvas 692 578 450 300 rescale_env 0;
#X obj 338 104 r bit;
#X obj 89 131 expr ($f1 - 1) / (($f2 - 1) / 2) - 1;
#X obj 89 66 inlet;
#X obj 89 203 outlet;
#X text 95 111 Rescale: -1 to 1;
#X connect 0 0 1 1;
#X connect 1 0 3 0;
#X connect 2 0 1 0;
#X restore 525 145 pd rescale_env;
#N canvas 1133 735 450 300 kb_track_state 0;
#X obj 169 100 select 0 1 2;
#X text 149 62 Keyboard tracking:;
#X text 165 83 Off/Half/Full;
#X msg 127 149 0;
#X msg 183 149 0;
#X msg 215 149 1;
#X msg 258 147 0;
#X msg 290 147 1;
#X obj 159 227 outlet;
#X obj 233 227 outlet;
#X obj 84 33 inlet;
#N canvas 701 726 465 222 button_init 0;
#X obj 22 69 loadbang;
#X msg 22 93 dim 30 15 \, toggle \, bgcolor 186 186 186 \, fgcolor 186 32 32 \, float 0;
#X text 18 49 Button design:;
#X obj 22 155 outlet;
#X connect 0 0 1 0;
#X connect 1 0 3 0;
#X restore 15 149 pd button_init;
#X connect 0 0 3 0;
#X connect 0 1 4 0;
#X connect 0 1 5 0;
#X connect 0 2 6 0;
#X connect 0 2 7 0;
#X connect 3 0 8 0;
#X connect 3 0 9 0;
#X connect 4 0 9 0;
#X connect 5 0 8 0;
#X connect 6 0 8 0;
#X connect 7 0 9 0;
#X connect 10 0 0 0;
#X connect 11 0 8 0;
#X connect 11 0 9 0;
#X restore 747 292 pd kb_track_state;
#X text 467 727 Four-pole resonant Low-Pass Filter;
#X obj 219 221 cnv 4 16 4 empty empty empty 20 12 0 12 #000000 #404040 0;
#X obj 345 221 cnv 4 16 4 empty empty empty 20 12 0 12 #000000 #404040 0;
#X text 467 128 Rescale: -1 to 1;
#X obj 714 221 cnv 4 16 4 empty empty empty 20 12 0 12 #000000 #404040 0;
#X obj 466 221 cnv 4 16 4 empty empty empty 20 12 0 12 #000000 #404040 0;
#X obj 587 221 cnv 4 16 4 empty empty empty 20 12 0 12 #000000 #404040 0;
#X obj 218 345 cnv 4 16 4 empty empty empty 20 12 0 12 #000000 #404040 0;
#N canvas 1335 171 450 300 reference 0;
#X text 275 189 signal~ [-1 \, 1];
#X text 31 189 Outlet 1: Low-Pass Filter output;
#X text 40 43 Inlet 1: Cutoff control;
#X text 39 61 Inlet 2: Resonance control;
#X text 39 121 Inlet 5: Keyboard Tracking (Off/Half/Full);
#X text 39 82 Inlet 3: Envelope Amount control;
#X text 37 101 Inlet 4: Velocity modolation On/Off;
#X restore 826 42 pd reference;
#X obj 75 564 cnv 19 64 24 empty empty empty 20 12 0 12 #c6ffc7 #404040 0;
#X obj 85 566 r~ mix;
#X text 66 540 Mixer signal~;
#X obj 327 774 cnv 19 64 24 empty empty empty 20 12 0 12 #e3c6ff #404040 0;
#X obj 334 775 outlet~;
#X obj 151 102 cnv 19 64 24 empty empty empty 20 12 0 12 #feffc6 #404040 0;
#X obj 616 172 cnv 19 64 24 empty empty empty 20 12 0 12 #feffc6 #404040 0;
#X obj 513 103 cnv 19 64 24 empty empty empty 20 12 0 12 #feffc6 #404040 0;
#X obj 708 103 cnv 19 64 24 empty empty empty 20 12 0 12 #feffc6 #404040 0;
#X obj 159 103 inlet;
#X obj 525 106 inlet;
#X obj 627 174 inlet;
#X obj 720 106 inlet;
#X obj 309 99 cnv 19 64 24 empty empty empty 20 12 0 12 #feffc6 #404040 0;
#X obj 315 101 inlet;
#X text 142 776 Low-Pass filtered output:;
#X obj 254 700 else/svfilter~;
#X obj 334 737 else/svfilter~;
#X text 464 744 (2x else/svfilter~ (two-pole each) in series);
#X text 256 129 Rescale: 0 to 1;
#N canvas 692 578 450 300 rescale_res 0;
#X obj 338 104 r bit;
#X obj 89 66 inlet;
#X obj 89 203 outlet;
#X text 95 111 Rescale: -1 to 1;
#X obj 89 131 expr $f1 / $f2;
#X connect 0 0 4 1;
#X connect 1 0 4 0;
#X connect 4 0 2 0;
#X restore 315 149 pd rescale_res;
#X obj 585 459 cnv 19 64 24 empty empty empty 20 12 0 12 #c6ffc7 #404040 0;
#X obj 560 462 r~ filter_env;
#X text 541 436 Filter Envelope signal~;
#N canvas 365 362 1115 662 cutoff_freq 0;
#X obj 131 110 inlet;
#X obj 284 113 inlet;
#X obj 430 114 inlet;
#X obj 966 118 inlet~;
#X text 112 81 MIDI Note Nr;
#X text 262 83 Cutoff value;
#X text 402 84 Keyboard Track;
#X text 936 85 Filter Envelope;
#X text 568 83 Envelope Amount;
#X obj 598 118 inlet;
#X obj 430 171 select 0 1 2;
#X msg 430 199 0;
#X msg 460 199 0.5;
#X msg 490 199 1;
#X text 412 149 0% / 50& / 100%;
#X obj 460 242 t b f;
#X obj 131 216 mtof;
#X msg 631 204 8;
#X obj 599 245 * 8;
#X obj 631 181 loadbang;
#X text 629 158 Env depth;
#X obj 811 356 *~;
#X obj 486 451 *~;
#X obj 283 193 t b f;
#X obj 131 367 *;
#X obj 131 450 +;
#X obj 130 525 +~;
#X obj 130 580 outlet~;
#X obj 761 119 inlet;
#X text 723 83 Velocity modulation;
#N canvas 1217 319 611 523 velocity_mod 0;
#X obj 325 231 spigot;
#X msg 246 265 1;
#N canvas 991 97 450 300 rescale_vel 0;
#X obj 177 62 inlet;
#X obj 177 121 expr $f1 / $f2;
#X obj 272 97 r bit;
#X obj 177 187 outlet;
#X connect 0 0 1 0;
#X connect 1 0 3 0;
#X connect 2 0 1 1;
#X restore 325 136 pd rescale_vel;
#X text 323 87 Note velocity;
#X obj 245 114 inlet;
#X text 171 114 VELOCITY;
#X obj 329 109 cnv 19 64 24 empty empty empty 20 12 0 12 #c6ffc7 #404040 0;
#X obj 325 112 r note_vel;
#X obj 277 410 outlet;
#X obj 246 231 select 0;
#X connect 0 0 8 0;
#X connect 1 0 8 0;
#X connect 2 0 0 0;
#X connect 4 0 0 1;
#X connect 4 0 9 0;
#X connect 7 0 2 0;
#X connect 9 0 1 0;
#X restore 761 192 pd velocity_mod;
#X text 769 170 Velocity mod:;
#X obj 678 295 *;
#X obj 731 246 t b f;
#X connect 0 0 16 0;
#X connect 1 0 23 0;
#X connect 2 0 10 0;
#X connect 3 0 21 1;
#X connect 9 0 18 0;
#X connect 10 0 11 0;
#X connect 10 1 12 0;
#X connect 10 2 13 0;
#X connect 11 0 15 0;
#X connect 12 0 15 0;
#X connect 13 0 15 0;
#X connect 15 0 24 0;
#X connect 15 1 24 1;
#X connect 16 0 22 0;
#X connect 16 0 24 0;
#X connect 17 0 18 1;
#X connect 18 0 32 0;
#X connect 19 0 17 0;
#X connect 21 0 22 1;
#X connect 22 0 26 1;
#X connect 23 0 25 0;
#X connect 23 1 25 1;
#X connect 24 0 25 0;
#X connect 25 0 26 0;
#X connect 26 0 27 0;
#X connect 28 0 30 0;
#X connect 30 0 33 0;
#X connect 32 0 21 0;
#X connect 33 0 32 0;
#X connect 33 1 32 1;
#X restore 381 524 pd cutoff_freq;
#X obj 255 450 cnv 19 64 24 empty empty empty 20 12 0 12 #c6ffc7 #404040 0;
#X obj 255 454 r note_nr;
#X text 246 428 MIDI Note nr;
#N canvas 1076 632 450 300 clip 0;
#X obj 134 62 inlet~;
#X obj 134 200 outlet~;
#X obj 134 141 clip~ 20 22050;
#X obj 229 62 loadbang;
#X obj 229 86 samplerate~;
#X obj 229 110 / 2;
#X connect 0 0 2 0;
#X connect 2 0 1 0;
#X connect 3 0 4 0;
#X connect 4 0 5 0;
#X connect 5 0 2 2;
#X restore 381 618 pd clip;
#X connect 1 0 10 0;
#X connect 3 0 9 0;
#X connect 5 0 19 0;
#X connect 8 0 25 0;
#X connect 8 0 59 2;
#X connect 9 0 51 2;
#X connect 10 0 59 1;
#X connect 12 0 59 4;
#X connect 18 0 1 0;
#X connect 19 0 59 3;
#X connect 20 0 21 0;
#X connect 20 0 22 0;
#X connect 21 0 20 1;
#X connect 22 0 23 0;
#X connect 23 0 8 0;
#X connect 24 0 5 0;
#X connect 25 0 13 0;
#X connect 25 1 14 0;
#X connect 36 0 51 0;
#X connect 44 0 18 0;
#X connect 45 0 24 0;
#X connect 46 0 12 0;
#X connect 47 0 20 0;
#X connect 49 0 55 0;
#X connect 51 0 52 0;
#X connect 52 0 39 0;
#X connect 55 0 3 0;
#X connect 57 0 59 5;
#X connect 59 0 63 0;
#X connect 61 0 59 0;
#X connect 63 0 51 1;
#X connect 63 0 52 1;
#X coords 0 -1 1 1 512 128 1 218 221;
