#N canvas 653 360 818 438 12;
#X obj 159 152 cnv 19 512 128 empty empty Filter\ Envelope 182 16 0 18 #ffe3c6 #553512 0;
#X obj 217 184 knob 50 1 20000 1 1 empty empty #dfdfdf #7c7c7c black 0 0 0 0 1 320 0 0 1;
#X obj 216 245 note 0 12 Menlo empty 0 0 0 0 0 255 255 255 0 0 ATTACK;
#X obj 339 185 knob 50 1 20000 1 1 empty empty #dfdfdf #7c7c7c black 0 0 0 0 1 320 0 0 1;
#X obj 338 246 note 0 12 Menlo empty 0 0 0 0 0 255 255 255 0 0 DECAY;
#X obj 462 185 knob 50 0 1 0 1 empty empty #dfdfdf #7c7c7c black 0 0 0 0 1 320 0 0 0;
#X obj 461 246 note 0 12 Menlo empty 0 0 0 0 0 255 255 255 0 0 SUSTAIN;
#X obj 577 184 knob 50 1 20000 1 1 empty empty #dfdfdf #7c7c7c black 0 0 0 0 1 320 0 0 1;
#X obj 576 245 note 0 12 Menlo empty 0 0 0 0 0 255 255 255 0 0 RELEASE;
#X obj 159 152 cnv 4 16 4 empty empty empty 20 12 0 12 #000000 #404040 0;
#X obj 655 152 cnv 4 16 4 empty empty empty 20 12 0 12 #000000 #404040 0;
#X obj 496 152 cnv 4 16 4 empty empty empty 20 12 0 12 #000000 #404040 0;
#X obj 319 152 cnv 4 16 4 empty empty empty 20 12 0 12 #000000 #404040 0;
#N canvas 1293 547 450 300 lin2log_A 0;
#X obj 124 33 inlet;
#X obj 171 247 outlet;
#X obj 366 169 r bit;
#X obj 145 125 t b f;
#X obj 124 166 pow;
#X obj 296 74 r bit;
#X obj 145 98 expr ($f1 / ($f2 + 1));
#X obj 124 63 + 1;
#X text 40 166 Log-scale:;
#X text 54 193 Rescale:;
#X obj 124 193 expr (($f1 - 1) * 19999) / $f2 + 1;
#X connect 0 0 7 0;
#X connect 2 0 10 1;
#X connect 3 0 4 0;
#X connect 3 1 4 1;
#X connect 4 0 10 0;
#X connect 5 0 6 1;
#X connect 6 0 3 0;
#X connect 7 0 6 0;
#X connect 7 0 4 0;
#X connect 10 0 1 0;
#X restore 215 106 pd lin2log_A;
#N canvas 1293 547 450 300 lin2log_D 0;
#X obj 124 33 inlet;
#X obj 171 247 outlet;
#X obj 366 169 r bit;
#X obj 145 125 t b f;
#X obj 124 166 pow;
#X obj 296 74 r bit;
#X obj 145 98 expr ($f1 / ($f2 + 1));
#X obj 124 63 + 1;
#X text 40 166 Log-scale:;
#X text 54 193 Rescale:;
#X obj 124 193 expr (($f1 - 1) * 19999) / $f2 + 1;
#X connect 0 0 7 0;
#X connect 2 0 10 1;
#X connect 3 0 4 0;
#X connect 3 1 4 1;
#X connect 4 0 10 0;
#X connect 5 0 6 1;
#X connect 6 0 3 0;
#X connect 7 0 6 0;
#X connect 7 0 4 0;
#X connect 10 0 1 0;
#X restore 339 107 pd lin2log_D;
#X obj 204 75 cnv 19 64 24 empty empty empty 20 12 0 12 #feffc6 #404040 0;
#X obj 329 75 cnv 19 64 24 empty empty empty 20 12 0 12 #feffc6 #404040 0;
#X obj 452 57 cnv 19 64 24 empty empty empty 20 12 0 12 #feffc6 #404040 0;
#X obj 568 79 cnv 19 64 24 empty empty empty 20 12 0 12 #feffc6 #404040 0;
#X obj 215 76 inlet;
#X obj 339 78 inlet;
#X obj 577 81 inlet;
#X obj 462 59 inlet;
#N canvas 85 510 450 300 rescale_S 0;
#X floatatom 137 147 9 0 0 0 - - - 0;
#X text 146 103 Rescale: 0 to 1;
#X obj 136 53 inlet;
#X obj 137 211 outlet;
#X obj 137 123 expr ($f1 - $f2) / $f2 + 1;
#X obj 316 93 r bit;
#X connect 0 0 3 0;
#X connect 2 0 4 0;
#X connect 4 0 0 0;
#X connect 5 0 4 1;
#X restore 462 106 pd rescale_S;
#N canvas 1293 547 450 300 lin2log_R 0;
#X obj 124 33 inlet;
#X obj 171 247 outlet;
#X obj 366 169 r bit;
#X obj 145 125 t b f;
#X obj 124 166 pow;
#X obj 296 74 r bit;
#X obj 145 98 expr ($f1 / ($f2 + 1));
#X obj 124 63 + 1;
#X text 40 166 Log-scale:;
#X text 54 193 Rescale:;
#X obj 124 193 expr (($f1 - 1) * 19999) / $f2 + 1;
#X connect 0 0 7 0;
#X connect 2 0 10 1;
#X connect 3 0 4 0;
#X connect 3 1 4 1;
#X connect 4 0 10 0;
#X connect 5 0 6 1;
#X connect 6 0 3 0;
#X connect 7 0 6 0;
#X connect 7 0 4 0;
#X connect 10 0 1 0;
#X restore 577 110 pd lin2log_R;
#X text 405 84 Rescale: 0 to 1;
#X obj 159 276 cnv 4 16 4 empty empty empty 20 12 0 12 #000000 #404040 0;
#X text 20 106 Rescaling: 1 to 20000 (log);
#X obj 213 314 cnv 19 64 24 empty empty empty 20 12 0 12 #e3c6ff #404040 0;
#X obj 217 316 outlet;
#X obj 335 312 cnv 19 64 24 empty empty empty 20 12 0 12 #e3c6ff #404040 0;
#X obj 339 314 outlet;
#X obj 458 314 cnv 19 64 24 empty empty empty 20 12 0 12 #e3c6ff #404040 0;
#X obj 462 316 outlet;
#X obj 573 315 cnv 19 64 24 empty empty empty 20 12 0 12 #e3c6ff #404040 0;
#X obj 577 317 outlet;
#X obj 655 276 cnv 4 16 4 empty empty empty 20 12 0 12 #000000 #404040 0;
#X obj 496 276 cnv 4 16 4 empty empty empty 20 12 0 12 #000000 #404040 0;
#X obj 319 276 cnv 4 16 4 empty empty empty 20 12 0 12 #000000 #404040 0;
#X connect 1 0 29 0;
#X connect 3 0 31 0;
#X connect 5 0 33 0;
#X connect 7 0 35 0;
#X connect 13 0 1 0;
#X connect 14 0 3 0;
#X connect 19 0 13 0;
#X connect 20 0 14 0;
#X connect 21 0 24 0;
#X connect 22 0 23 0;
#X connect 23 0 5 0;
#X connect 24 0 7 0;
#X coords 0 -1 1 1 512 128 1 159 152;
