#N canvas 809 238 1008 891 12;
#X obj 130 100 cnv 19 412 128 empty empty Oscillator\ 1 136 16 0 18 #ffe3c6 #553512 0;
#X obj 166 139 knob 50 -24 24 0 0 empty empty #dfdfdf #7c7c7c black 0 0 49 1 0 320 0 0 0;
#X obj 154 193 note 74 12 Menlo empty 0 85 53 18 0 255 255 255 0 0 FREQUENCY;
#X obj 340 138 knob 50 0 127 0 64 empty empty #dfdfdf #7c7c7c black 0 0 0 0 0 320 0 0 0;
#X obj 347 197 note 44 12 Menlo empty 0 85 53 18 0 255 255 255 0 0 SHAPE;
#X floatatom 187 268 5 0 0 0 - - - 0;
#X obj 210 563 bl.vsaw~;
#X obj 301 378 tgl 19 0 empty empty empty 0 -10 0 12 #fcfcfc #000000 #000000 0 1;
#X obj 401 378 tgl 19 0 empty empty empty 0 -10 0 12 #fcfcfc #000000 #000000 0 1;
#X msg 339 345 0;
#X msg 439 344 0;
#X msg 401 344 1;
#X msg 301 346 1;
#X floatatom 325 378 7 0 0 0 - - - 0;
#X floatatom 424 379 5 0 0 0 - - - 0;
#X floatatom 216 467 8 0 0 0 - - - 0;
#X floatatom 430 463 9 0 0 0 - - - 0;
#X obj 401 271 max 63.5;
#X obj 301 270 min 63.5;
#X obj 301 321 select 63.5;
#X obj 401 320 select 63.5;
#X text 210 485 Rescale: 0.5 to 1;
#X obj 440 559 bl.square~;
#X text 429 490 Rescale: 0 to 1;
#X obj 217 652 *~ 1;
#X obj 428 645 *~ 0;
#X floatatom 279 622 5 0 0 0 - - - 0;
#X obj 279 595 expr $f1 * -1 + 1;
#X text 210 503 For Tri <-> Saw crossfade;
#X text 430 508 For Saw <-> Square crossfade;
#X text 110 564 OSC: Tri/Saw;
#X text 354 557 OSC: Square;
#X text 275 641 Rescale: 1 to 0;
#X obj 444 139 knob 50 0 127 0 64 empty empty #dfdfdf #7c7c7c black 0 0 0 0 1 320 0 0 64;
#X obj 426 197 note 0 12 Menlo empty 0 0 0 0 0 255 255 255 0 0 PULSE WIDTH;
#X floatatom 518 303 9 0 0 0 - - - 0;
#X text 514 322 Rescale: 0.03 to 0.97;
#X obj 264 166 button 40 20 186 186 186 186 32 32 1;
#X obj 266 194 note 0 12 Menlo empty 0 0 0 0 0 255 255 255 0 0 SYNC;
#X obj 361 8 loadbang;
#X msg 361 32 dim 40 20 \, toggle \, bgcolor 186 186 186 \, fgcolor 186 32 32 \, float 0;
#X obj 209 13 inlet;
#X obj 364 77 inlet;
#X obj 441 78 inlet;
#X obj 503 81 inlet;
#X obj 304 746 outlet~;
#N canvas 63 88 450 300 reference 0;
#X text 275 189 signal~ [-1 \, 1];
#X text 31 189 Outlet 1: Oscillator 1 output;
#X text 41 25 Inlet 1: MIDI Note Number;
#X text 40 43 Inlet 2: Frequency;
#X text 39 61 Inlet 3: Sync Input (Osc 2);
#X text 39 81 Inlet 4: Sync Toggle;
#X text 40 102 Inlet 5: Shape;
#X text 38 121 Inlet 6: Pulse Width;
#X restore 826 42 pd reference;
#X obj 131 223 cnv 4 16 4 empty empty empty 20 12 0 12 #000000 #404040 0;
#X obj 131 101 cnv 4 16 4 empty empty empty 20 12 0 12 #000000 #404040 0;
#X obj 525 101 cnv 4 16 4 empty empty empty 20 12 0 12 #000000 #404040 0;
#X obj 447 101 cnv 4 16 4 empty empty empty 20 12 0 12 #000000 #404040 0;
#X obj 236 355 *~ 0;
#X obj 365 101 cnv 4 16 4 empty empty empty 20 12 0 12 #000000 #404040 0;
#X obj 206 101 cnv 4 16 4 empty empty empty 20 12 0 12 #000000 #404040 0;
#X floatatom 135 304 5 21 108 0 - - - 0;
#X obj 135 335 +;
#X floatatom 135 390 5 0 0 0 - - - 0;
#X obj 135 413 mtof;
#X text 5 335 Frequency offset:;
#X text 13 304 MID Note Number:;
#X obj 127 77 inlet;
#X obj 257 79 inlet~;
#X obj 556 598 * 0.67;
#X text 545 577 Volume normalization;
#N canvas 1237 406 450 300 bit_resolution 0;
#X msg 147 112 7;
#X msg 209 112 16;
#X msg 178 112 14;
#X msg 240 112 32;
#X floatatom 147 166 14 0 0 0 - - - 0;
#X obj 147 141 expr (pow(2 \, $i1)) - 1;
#X obj 147 86 loadbang;
#X obj 147 189 s bit;
#X connect 0 0 5 0;
#X connect 1 0 5 0;
#X connect 2 0 5 0;
#X connect 3 0 5 0;
#X connect 4 0 7 0;
#X connect 5 0 4 0;
#X connect 6 0 0 0;
#X restore 824 73 pd bit_resolution;
#X obj 518 279 expr (($f1 * 0.94) / $f2) + 0.03;
#X obj 430 439 expr ($f1 - $f2) / 63.5 + 1;
#X obj 216 439 expr $f1 / $f2 + 0.5;
#X obj 616 404 r bit;
#X obj 353 411 r bit;
#N canvas 1237 406 450 300 bit_resolution 0;
#X msg 147 112 7;
#X msg 209 112 16;
#X msg 178 112 14;
#X msg 240 112 32;
#X floatatom 147 166 14 0 0 0 - - - 0;
#X obj 147 141 expr (pow(2 \, $i1)) - 1;
#X obj 147 86 loadbang;
#X obj 147 189 s bit;
#X connect 0 0 5 0;
#X connect 1 0 5 0;
#X connect 2 0 5 0;
#X connect 3 0 5 0;
#X connect 4 0 7 0;
#X connect 5 0 4 0;
#X connect 6 0 0 0;
#X restore 1182 77 pd bit_resolution;
#N canvas 1237 406 450 300 bit_resolution 0;
#X msg 147 112 7;
#X msg 209 112 16;
#X msg 178 112 14;
#X msg 240 112 32;
#X floatatom 147 166 14 0 0 0 - - - 0;
#X obj 147 141 expr (pow(2 \, $i1)) - 1;
#X obj 147 86 loadbang;
#X obj 147 189 s bit;
#X connect 0 0 5 0;
#X connect 1 0 5 0;
#X connect 2 0 5 0;
#X connect 3 0 5 0;
#X connect 4 0 7 0;
#X connect 5 0 4 0;
#X connect 6 0 0 0;
#X restore 1192 87 pd bit_resolution;
#X obj 740 251 r bit;
#X obj 568 386 line;
#X msg 568 361 \$1 100;
#X text 490 361 Smoothing:;
#X obj 185 302 t b f;
#X obj 299 15 r bit;
#X obj 139 38 expr (($f1 / $f2) * 49) - 24;
#X obj 282 100 cnv 4 16 4 empty empty empty 20 12 0 12 #000000 #404040 0;
#X connect 1 0 5 0;
#X connect 3 0 18 0;
#X connect 3 0 17 0;
#X connect 5 0 76 0;
#X connect 6 0 24 0;
#X connect 9 0 8 0;
#X connect 10 0 7 0;
#X connect 11 0 8 0;
#X connect 12 0 7 0;
#X connect 13 0 67 0;
#X connect 14 0 66 0;
#X connect 16 0 27 0;
#X connect 16 0 62 0;
#X connect 17 0 14 0;
#X connect 17 0 20 0;
#X connect 18 0 13 0;
#X connect 18 0 19 0;
#X connect 19 0 9 0;
#X connect 19 0 12 0;
#X connect 20 0 10 0;
#X connect 20 0 11 0;
#X connect 22 0 25 0;
#X connect 24 0 45 0;
#X connect 25 0 45 0;
#X connect 27 0 24 1;
#X connect 27 0 26 0;
#X connect 33 0 65 0;
#X connect 35 0 74 0;
#X connect 37 0 51 1;
#X connect 39 0 40 0;
#X connect 40 0 37 0;
#X connect 41 0 78 0;
#X connect 42 0 37 0;
#X connect 43 0 3 0;
#X connect 44 0 33 0;
#X connect 51 0 6 2;
#X connect 51 0 22 2;
#X connect 54 0 55 0;
#X connect 55 0 56 0;
#X connect 56 0 57 0;
#X connect 57 0 6 0;
#X connect 57 0 22 0;
#X connect 60 0 54 0;
#X connect 61 0 51 0;
#X connect 62 0 25 1;
#X connect 65 0 35 0;
#X connect 66 0 16 0;
#X connect 67 0 15 0;
#X connect 67 0 6 1;
#X connect 68 0 66 1;
#X connect 69 0 67 1;
#X connect 72 0 65 1;
#X connect 73 0 22 1;
#X connect 74 0 73 0;
#X connect 76 0 55 0;
#X connect 76 1 55 1;
#X connect 77 0 78 1;
#X connect 78 0 1 0;
#X coords 0 -1 1 1 412 128 1 130 100;
