#N canvas 238 190 1008 891 12;
#X obj 145 103 cnv 19 512 128 empty empty Oscillator\ 1 192 12 0 18 #ffe3c6 #553512 0;
#X obj 181 158 knob 50 16 8000 1 440 empty empty #dfdfdf #7c7c7c black 0 0 0 0 1 320 0 0 440;
#X obj 169 212 note 74 12 Menlo empty 0 85 53 18 0 255 255 255 0 0 FREQUENCY;
#X obj 351 151 knob 50 0 127 0 64 empty empty #dfdfdf #7c7c7c black 0 0 0 0 0 320 0 0 0;
#X obj 358 210 note 44 12 Menlo empty 0 85 53 18 0 255 255 255 0 0 SHAPE;
#X floatatom 187 268 5 0 0 0 - - - 0;
#X obj 528 673 else/graph~;
#X obj 210 563 bl.vsaw~;
#X obj 301 402 tgl 19 0 empty empty empty 0 -10 0 12 #fcfcfc #000000 #000000 0 1;
#X obj 401 402 tgl 19 0 empty empty empty 0 -10 0 12 #fcfcfc #000000 #000000 0 1;
#X msg 339 369 0;
#X msg 439 368 0;
#X msg 401 368 1;
#X msg 301 370 1;
#X floatatom 325 402 7 0 0 0 - - - 0;
#X floatatom 424 403 5 0 0 0 - - - 0;
#X floatatom 216 467 8 0 0 0 - - - 0;
#X floatatom 430 463 9 0 0 0 - - - 0;
#X obj 401 284 max 63.5;
#X obj 216 439 expr $f1 / 127 + 0.5;
#X obj 301 283 min 63.5;
#X obj 301 345 select 63.5;
#X obj 401 344 select 63.5;
#X text 210 485 Rescale: 0.5 to 1;
#X obj 440 559 bl.square~;
#X text 429 490 Rescale: 0 to 1;
#X obj 217 652 *~ 1;
#X obj 428 645 *~ 0;
#X floatatom 279 622 5 0 0 0 - - - 0;
#X obj 430 439 expr ($f1 - 127) / 63.5 + 1;
#X obj 279 595 expr $f1 * -1 + 1;
#X text 210 503 For Tri <-> Saw crossfade;
#X text 430 508 For Saw <-> Square crossfade;
#X text 110 564 OSC: Tri/Saw;
#X text 354 557 OSC: Square;
#X text 275 641 Rescale: 1 to 0;
#X obj 455 152 knob 50 0 127 0 64 empty empty #dfdfdf #7c7c7c black 0 0 0 0 1 320 0 0 64;
#X obj 437 210 note 0 12 Menlo empty 0 0 0 0 0 255 255 255 0 0 PULSE WIDTH;
#X floatatom 518 303 9 0 0 0 - - - 0;
#X obj 307 813 out~;
#X obj 518 279 expr (($f1 * 0.94) / 127) + 0.03;
#X text 514 322 Rescale: 0.03 to 0.97;
#X obj 270 177 button 40 20 186 186 186 186 32 32 1;
#X obj 272 205 note 0 12 Menlo empty 0 0 0 0 0 255 255 255 0 0 SYNC;
#X obj 264 19 loadbang;
#X msg 264 43 dim 40 20 \, toggle \, bgcolor 186 186 186 \, fgcolor 186 32 32 \, float 0;
#X connect 1 0 5 0;
#X connect 3 0 20 0;
#X connect 3 0 18 0;
#X connect 5 0 7 0;
#X connect 5 0 24 0;
#X connect 6 0 39 0;
#X connect 7 0 26 0;
#X connect 10 0 9 0;
#X connect 11 0 8 0;
#X connect 12 0 9 0;
#X connect 13 0 8 0;
#X connect 14 0 19 0;
#X connect 15 0 29 0;
#X connect 17 0 27 1;
#X connect 17 0 30 0;
#X connect 18 0 15 0;
#X connect 18 0 22 0;
#X connect 19 0 16 0;
#X connect 19 0 7 1;
#X connect 20 0 14 0;
#X connect 20 0 21 0;
#X connect 21 0 10 0;
#X connect 21 0 13 0;
#X connect 22 0 11 0;
#X connect 22 0 12 0;
#X connect 24 0 27 0;
#X connect 26 0 6 0;
#X connect 27 0 6 0;
#X connect 29 0 17 0;
#X connect 30 0 26 1;
#X connect 30 0 28 0;
#X connect 36 0 40 0;
#X connect 38 0 24 1;
#X connect 40 0 38 0;
#X connect 44 0 45 0;
#X connect 45 0 42 0;
