#N canvas 208 233 800 704 12;
#X obj 145 103 cnv 19 512 128 empty empty Low-Pass\ Filter 192 12 0 18 #ffe3c6 #553512 0;
#X obj 178 149 knob 50 0 127 0 0 empty empty #dfdfdf #7c7c7c black 0 0 0 0 1 320 0 0 0;
#X obj 181 207 note 0 12 Menlo empty 0 0 0 0 0 255 255 255 0 0 CUTOFF;
#X obj 271 149 knob 50 0 127 0 0 empty empty #dfdfdf #7c7c7c black 0 0 0 0 1 320 0 0 0;
#X obj 262 207 note 0 12 Menlo empty 0 0 0 0 0 255 255 255 0 0 RESONANCE;
#X obj 368 149 knob 50 0 127 0 0 empty empty #dfdfdf #7c7c7c black 0 0 0 0 1 320 0 0 0;
#X obj 359 208 note 0 12 Menlo empty 0 0 0 0 0 255 255 255 0 0 ENV AMOUNT;
#X obj 500 167 tgl 19 0 empty empty empty 0 -10 0 12 #fcfcfc #000000 #000000 0 1;
#X obj 477 200 note 0 12 Menlo empty 0 0 0 0 0 255 255 255 0 0 VELOCITY;
#X obj 569 200 note 0 12 Menlo empty 0 0 0 0 0 255 255 255 0 0 KEYBOARD;
#X obj 573 166 hradio 19 1 0 3 empty empty empty 0 -10 0 12 #fcfcfc #000000 #000000 0;
#X obj 172 475 else/lowpass~;
#X floatatom 269 372 9 0 0 0 - - - 0;
#X text 265 391 Rescale: 0.001 to 100;
#X floatatom 177 282 9 0 0 0 - - - 0;
#X text 173 300 Rescale: 20 to 20000;
#X obj 177 258 expr ($f1 * 19980) / 127 + 20;
#X obj 269 348 expr ($f1 * 99.999) / 127 + 0.001;
#X connect 1 0 16 0;
#X connect 3 0 17 0;
#X connect 12 0 11 2;
#X connect 14 0 11 1;
#X connect 16 0 14 0;
#X connect 17 0 12 0;
