#N canvas 443 302 869 757 12;
#X obj 145 103 cnv 19 384 384 empty empty Mixer 168 12 0 18 #ffe3c6 #553512 0;
#X obj 192 132 knob 50 0 127 0 0 empty empty #dfdfdf #7c7c7c black 0 0 0 0 1 320 0 0 0;
#X obj 191 193 note 0 12 Menlo empty 0 0 0 0 0 255 255 255 0 0 OSC 1;
#X obj 408 135 knob 50 0 127 0 0 empty empty #dfdfdf #7c7c7c black 0 0 0 0 1 320 0 0 0;
#X obj 407 196 note 0 12 Menlo empty 0 0 0 0 0 255 255 255 0 0 OSC 2;
#X obj 188 328 knob 50 0 127 0 0 empty empty #dfdfdf #7c7c7c black 0 0 0 0 1 320 0 0 0;
#X obj 176 389 note 0 12 Menlo empty 0 0 0 0 0 255 255 255 0 0 SUB OCTAVE;
#X obj 408 326 knob 50 0 127 0 0 empty empty #dfdfdf #7c7c7c black 0 0 0 0 1 320 0 0 0;
#X obj 413 387 note 0 12 Menlo empty 0 0 0 0 0 255 255 255 0 0 NOISE;
#X obj 387 430 noise~;
#X obj 487 558 else/graph~;
#X floatatom 454 453 9 0 0 0 - - - 0;
#X obj 454 429 expr ($f1 - 127) / 127 + 1;
#X obj 213 544 else/mix4~;
#X floatatom 169 251 9 0 0 0 - - - 0;
#X obj 169 227 expr ($f1 - 127) / 127 + 1;
#X floatatom 409 252 9 0 0 0 - - - 0;
#X obj 409 228 expr ($f1 - 127) / 127 + 1;
#X floatatom 160 437 9 0 0 0 - - - 0;
#X obj 160 413 expr ($f1 - 127) / 127 + 1;
#X obj 160 460 list prepend gain3;
#X obj 160 484 list trim;
#X obj 454 499 list trim;
#X obj 454 475 list prepend gain4;
#X obj 169 297 list trim;
#X obj 169 273 list prepend gain1;
#X obj 409 298 list trim;
#X obj 409 274 list prepend gain2;
#X connect 1 0 15 0;
#X connect 3 0 17 0;
#X connect 5 0 19 0;
#X connect 7 0 12 0;
#X connect 9 0 13 3;
#X connect 11 0 23 0;
#X connect 12 0 11 0;
#X connect 13 0 10 0;
#X connect 13 1 10 0;
#X connect 14 0 25 0;
#X connect 15 0 14 0;
#X connect 16 0 27 0;
#X connect 17 0 16 0;
#X connect 18 0 20 0;
#X connect 19 0 18 0;
#X connect 20 0 21 0;
#X connect 21 0 13 0;
#X connect 22 0 13 0;
#X connect 23 0 22 0;
#X connect 24 0 13 0;
#X connect 25 0 24 0;
#X connect 26 0 13 0;
#X connect 27 0 26 0;
