#N canvas 443 302 869 757 12;
#X obj 145 103 cnv 19 384 384 empty empty Mixer 168 12 0 18 #ffe3c6 #553512 0;
#X obj 182 149 knob 50 0 127 0 0 empty empty #dfdfdf #7c7c7c black 0 0 0 0 1 320 0 0 0;
#X obj 181 210 note 0 12 Menlo empty 0 0 0 0 0 255 255 255 0 0 OSC 1;
#X obj 406 145 knob 50 0 127 0 0 empty empty #dfdfdf #7c7c7c black 0 0 0 0 1 320 0 0 0;
#X obj 405 206 note 0 12 Menlo empty 0 0 0 0 0 255 255 255 0 0 OSC 2;
#X obj 188 328 knob 50 0 127 0 0 empty empty #dfdfdf #7c7c7c black 0 0 0 0 1 320 0 0 0;
#X obj 176 389 note 0 12 Menlo empty 0 0 0 0 0 255 255 255 0 0 SUB OCTAVE;
#X obj 408 326 knob 50 0 127 0 0 empty empty #dfdfdf #7c7c7c black 0 0 0 0 1 320 0 0 0;
#X obj 413 387 note 0 12 Menlo empty 0 0 0 0 0 255 255 255 0 0 NOISE;
#X obj 387 430 noise~;
#X obj 487 558 else/graph~;
#X floatatom 454 453 9 0 0 0 - - - 0;
#X obj 454 429 expr ($f1 - 127) / 127 + 1;
#X obj 213 544 else/mix4~;
#X obj 159 291 prepend gain1;
#X floatatom 159 268 9 0 0 0 - - - 0;
#X obj 159 244 expr ($f1 - 127) / 127 + 1;
#X floatatom 407 262 9 0 0 0 - - - 0;
#X obj 407 238 expr ($f1 - 127) / 127 + 1;
#X obj 407 285 prepend gain2;
#X floatatom 160 437 9 0 0 0 - - - 0;
#X obj 160 413 expr ($f1 - 127) / 127 + 1;
#X obj 160 460 prepend gain3;
#X obj 454 477 prepend gain4;
#X connect 1 0 16 0;
#X connect 3 0 18 0;
#X connect 5 0 21 0;
#X connect 7 0 12 0;
#X connect 9 0 13 3;
#X connect 11 0 23 0;
#X connect 12 0 11 0;
#X connect 13 0 10 0;
#X connect 13 1 10 0;
#X connect 14 0 13 0;
#X connect 15 0 14 0;
#X connect 16 0 15 0;
#X connect 17 0 19 0;
#X connect 18 0 17 0;
#X connect 19 0 13 0;
#X connect 20 0 22 0;
#X connect 21 0 20 0;
#X connect 22 0 13 0;
#X connect 23 0 13 0;
