#N canvas 469 302 1004 743 12;
#X obj 520 646 out~;
#X obj 114 205 ./p6_modules/oscillator_1;
#X obj 114 379 ./p6_modules/oscillator_2;
#X obj 114 510 s~ osc2;
#X obj 114 336 s~ osc1;
#X obj 254 184 r~ osc2;
#X obj 520 617 r~ osc1;
#X obj 607 618 r~ osc2;
#X obj 204 358 r o2_freq;
#X obj 281 358 r o2_fine;
#X obj 379 358 r o_2 shape;
#X obj 475 358 r o2_pw;
#X obj 563 357 r o2_lf;
#X obj 623 357 r o2_keyb;
#X obj 184 184 r o1_freq;
#X obj 317 183 r o1_sync;
#X obj 390 183 r o1_shape;
#X obj 472 183 r o1_pw;
#X obj 150 50 notein;
#X obj 150 74 stripnote;
#X obj 150 98 s note_nr;
#X obj 114 184 r note_nr;
#X obj 114 358 r note_nr;
#X connect 1 0 4 0;
#X connect 2 0 3 0;
#X connect 5 0 1 2;
#X connect 6 0 0 0;
#X connect 7 0 0 1;
#X connect 8 0 2 1;
#X connect 9 0 2 2;
#X connect 10 0 2 3;
#X connect 11 0 2 4;
#X connect 12 0 2 5;
#X connect 13 0 2 6;
#X connect 14 0 1 1;
#X connect 15 0 1 3;
#X connect 16 0 1 4;
#X connect 17 0 1 5;
#X connect 18 0 19 0;
#X connect 18 1 19 1;
#X connect 19 0 20 0;
#X connect 21 0 1 0;
#X connect 22 0 2 0;
