#N canvas 466 189 878 891 12;
#X obj 130 100 cnv 19 412 128 empty empty Oscillator\ 1 136 16 0 18 #ffe3c6 #553512 0;
#X obj 166 139 knob 50 -24 24 0 0 empty empty #dfdfdf #7c7c7c black 0 0 49 1 0 320 0 0 0;
#X obj 154 193 note 74 12 Menlo empty 0 85 53 18 0 255 255 255 0 0 FREQUENCY;
#X obj 340 138 knob 50 0 1 0 0.5 empty empty #dfdfdf #7c7c7c black 0 0 0 0 0 320 0 0 0;
#X obj 347 197 note 44 12 Menlo empty 0 85 53 18 0 255 255 255 0 0 SHAPE;
#X obj 444 139 knob 50 0.02 0.98 0 0.5 empty empty #dfdfdf #7c7c7c black 0 0 0 0 1 320 0 0 0.5;
#X obj 426 197 note 0 12 Menlo empty 0 0 0 0 0 255 255 255 0 0 PULSE WIDTH;
#X obj 266 194 note 0 12 Menlo empty 0 0 0 0 0 255 255 255 0 0 SYNC;
#N canvas 63 88 450 300 reference 0;
#X text 275 189 signal~ [-1 \, 1];
#X text 31 189 Outlet 1: Oscillator 1 output;
#X text 40 43 Inlet 1: Frequency control;
#X text 40 64 Inlet 2: Sync On/Off;
#X text 40 85 Inlet 3: Shape control;
#X text 40 104 Inlet 4: Pulse Width control;
#X text 30 209 Outlet 2: Sub-Octave output;
#X text 276 207 signal~ [-1 \, 1];
#X restore 742 32 pd reference;
#X obj 130 224 cnv 4 16 4 empty empty empty 20 12 0 12 #000000 #404040 0;
#X obj 131 100 cnv 4 16 4 empty empty empty 20 12 0 12 #000000 #404040 0;
#X obj 525 100 cnv 4 16 4 empty empty empty 20 12 0 12 #000000 #404040 0;
#X obj 396 100 cnv 4 16 4 empty empty empty 20 12 0 12 #000000 #404040 0;
#X obj 581 350 line;
#X msg 581 325 \$1 100;
#X text 503 325 Smoothing:;
#X obj 264 100 cnv 4 16 4 empty empty empty 20 12 0 12 #000000 #404040 0;
#X obj 265 150 tgl 36 0 empty empty empty 0 -10 0 12 #bbbbbb #c10100 #000000 0 1;
#X obj 526 224 cnv 4 16 4 empty empty empty 20 12 0 12 #000000 #404040 0;
#X obj 122 16 cnv 19 64 24 empty empty empty 20 12 0 12 #feffc6 #404040 0;
#X obj 283 740 cnv 19 96 32 empty empty empty 20 12 0 12 #e3c6ff #404040 0;
#X obj 304 746 outlet~;
#X text 183 747 Osc 1 signal~;
#X obj 544 741 cnv 19 96 32 empty empty empty 20 12 0 12 #e3c6ff #404040 0;
#X obj 563 744 outlet~;
#X obj 134 19 inlet;
#X obj 251 73 cnv 19 64 24 empty empty empty 20 12 0 12 #feffc6 #404040 0;
#X obj 266 77 inlet;
#X obj 327 30 cnv 19 64 24 empty empty empty 20 12 0 12 #feffc6 #404040 0;
#X obj 340 32 inlet;
#X obj 462 24 cnv 19 64 24 empty empty empty 20 12 0 12 #feffc6 #404040 0;
#X obj 475 27 inlet;
#X obj 89 420 cnv 19 64 24 empty empty empty 20 12 0 12 #c6ffc7 #404040 0;
#X obj 255 421 cnv 19 64 24 empty empty empty 20 12 0 12 #c6ffc7 #404040 0;
#X obj 259 423 r~ osc2;
#X obj 87 421 r note_nr;
#N canvas 150 175 450 300 rescale_pw 0;
#X obj 128 67 inlet;
#X obj 128 207 outlet;
#X floatatom 128 150 9 0 0 0 - - - 0;
#X obj 349 99 r bit;
#X obj 128 126 expr (($f1 * 0.96) / $f2) + 0.02;
#X text 69 106 Rescale: 0.02 to 0.98;
#X connect 0 0 4 0;
#X connect 2 0 1 0;
#X connect 3 0 4 1;
#X connect 4 0 2 0;
#X restore 475 63 pd rescale_pw;
#N canvas 324 349 450 300 rescale_freq 0;
#X obj 129 48 inlet;
#X obj 129 196 outlet;
#X obj 322 99 r bit;
#X obj 129 121 expr (($f1 / $f2) * 49) - 24;
#X text 73 92 Rescale: -24 to 24;
#X text 215 92 (+/- 2 oct);
#X connect 0 0 3 0;
#X connect 2 0 3 1;
#X connect 3 0 1 0;
#X restore 134 53 pd rescale_freq;
#N canvas 353 378 450 468 midi2freq 0;
#X obj 87 48 inlet;
#X obj 300 52 inlet;
#X obj 196 373 outlet;
#X text 82 373 Note frequency:;
#X text 74 15 MIDI Note Nr;
#X text 237 23 Frequency Control offset;
#X floatatom 248 136 5 0 0 0 - - - 0;
#X floatatom 196 172 5 21 108 0 - - - 0;
#X obj 196 203 +;
#X floatatom 196 258 5 0 0 0 - - - 0;
#X obj 196 281 mtof;
#X text 66 203 Frequency offset:;
#X text 74 172 MID Note Number:;
#X obj 246 170 t b f;
#X connect 0 0 7 0;
#X connect 1 0 6 0;
#X connect 6 0 13 0;
#X connect 7 0 8 0;
#X connect 8 0 9 0;
#X connect 9 0 10 0;
#X connect 10 0 2 0;
#X connect 13 0 8 0;
#X connect 13 1 8 1;
#X restore 87 488 pd midi2freq;
#N canvas 382 407 450 459 sub_oct 0;
#X obj 198 32 inlet;
#X obj 198 359 outlet~;
#X obj 198 109 - 12;
#X obj 198 133 mtof;
#X text 101 109 Octave shift;
#X obj 198 265 else/bl.tri~;
#X text 36 264 Sub-Octave Oscillator:;
#X text 85 288 (Triangle);
#X connect 0 0 2 0;
#X connect 2 0 3 0;
#X connect 3 0 5 0;
#X connect 5 0 1 0;
#X restore 480 663 pd sub_oct;
#X text 365 664 Sub-Oscillator:;
#N canvas 469 494 450 300 rescale_shape 0;
#X obj 174 44 inlet;
#X obj 175 216 outlet;
#X obj 175 127 expr $f1 / $f2;
#X text 118 106 Rescale: 0 to 1;
#X obj 270 93 r bit;
#X connect 0 0 2 0;
#X connect 2 0 1 0;
#X connect 4 0 2 1;
#X restore 340 64 pd rescale_shape;
#N canvas 127 133 984 920 oscillator 0;
#X obj 112 83 inlet;
#X obj 298 89 inlet~;
#X obj 609 92 inlet;
#X obj 472 859 outlet~;
#X text 588 38 Shape control;
#X text 562 64 (Tri - Saw – Square);
#X obj 819 101 inlet;
#X text 771 62 Pulse Width modulation;
#X text 87 57 Note frequency;
#X obj 442 93 inlet;
#X text 424 57 Sync On/Off;
#X text 259 57 Oscillator 2 (Sync);
#X obj 331 503 bl.vsaw~;
#X floatatom 535 202 7 0 0 0 - - - 0;
#X floatatom 669 201 5 0 0 0 - - - 0;
#X floatatom 358 424 8 0 0 0 - - - 0;
#X floatatom 450 649 9 0 0 0 - - - 0;
#X text 219 396 Rescale: 0.5 to 1;
#X obj 612 481 bl.square~;
#X text 335 621 Rescale: 0 to 1;
#X obj 333 742 *~ 1;
#X obj 612 744 *~ 0;
#X obj 358 715 expr $f1 * -1 + 1;
#X text 521 481 OSC: Square;
#X obj 535 173 min 0.5;
#X obj 669 169 max 0.5;
#X obj 348 397 + 0.5;
#X obj 450 622 expr $f1 * 2 - 1;
#X obj 544 316 *~ 0;
#X text 445 304 (hard) sync;
#X text 448 322 with Osc 2;
#X text 227 502 OSC: Tri/Saw;
#X floatatom 371 742 5 0 0 0 - - - 0;
#X text 346 598 For~[bl.vsaw~] <-> [bl.square~] crossfade;
#X text 218 715 Rescale: 1 to 0;
#X text 214 375 Triangle <-> Sawtooth waveshape crossfade;
#X connect 0 0 12 0;
#X connect 0 0 18 0;
#X connect 1 0 28 0;
#X connect 2 0 24 0;
#X connect 2 0 25 0;
#X connect 6 0 18 1;
#X connect 9 0 28 1;
#X connect 12 0 20 0;
#X connect 13 0 26 0;
#X connect 14 0 27 0;
#X connect 16 0 22 0;
#X connect 16 0 21 1;
#X connect 18 0 21 0;
#X connect 20 0 3 0;
#X connect 21 0 3 0;
#X connect 22 0 20 1;
#X connect 22 0 32 0;
#X connect 24 0 13 0;
#X connect 25 0 14 0;
#X connect 26 0 12 1;
#X connect 26 0 15 0;
#X connect 27 0 16 0;
#X connect 28 0 12 2;
#X connect 28 0 18 2;
#X restore 304 532 pd oscillator;
#X text 433 748 Sub-Oct signal~;
#X connect 1 0 38 1;
#X connect 3 0 42 3;
#X connect 5 0 14 0;
#X connect 13 0 42 4;
#X connect 14 0 13 0;
#X connect 17 0 42 2;
#X connect 25 0 37 0;
#X connect 27 0 17 0;
#X connect 29 0 41 0;
#X connect 31 0 36 0;
#X connect 34 0 42 1;
#X connect 35 0 38 0;
#X connect 36 0 5 0;
#X connect 37 0 1 0;
#X connect 38 0 39 0;
#X connect 38 0 42 0;
#X connect 39 0 24 0;
#X connect 41 0 3 0;
#X connect 42 0 21 0;
#X coords 0 -1 1 1 412 128 1 130 100;
