#N canvas 611 231 501 376 10;
#X obj 125 10 inlet;
#X obj 13 16 tgl 25 0 empty \$0-onoff empty 17 7 0 10 #fcfcfc #000000 #000000 0 1;
#X obj 125 32 route noteon noteoff press slide glide;
#X obj 45 44 hsl 60 15 0 127 0 0 empty \$0-press empty -2 -8 0 10 #fcfcfc #000000 #000000 0 1;
#X obj 45 62 hsl 60 15 0 127 0 0 empty \$0-slide empty -2 -8 0 10 #fcfcfc #000000 #000000 0 1;
#X obj 45 80 hsl 60 15 0 16383 0 0 empty \$0-glide empty -2 -8 0 10 #fcfcfc #000000 #000000 0 1;
#X obj 305 54 s \$0-glide;
#X obj 260 73 s \$0-slide;
#X obj 215 92 s \$0-press;
#X text 8 44 press;
#X text 8 62 slide;
#X text 8 80 glide;
#X floatatom 49 26 4 0 0 0 - \$0-pitch - 0;
#X text 44 9 pitch;
#X text 83 9 vel;
#X floatatom 81 26 4 0 0 0 - \$0-velocity - 0;
#X obj 125 202 t b a;
#X msg 125 285 1;
#X obj 125 306 s \$0-onoff;
#X obj 152 223 unpack f f;
#X obj 152 265 s \$0-pitch;
#X obj 163 244 s \$0-velocity;
#X obj 170 95 t b a;
#X obj 170 199 s \$0-onoff;
#X obj 197 116 unpack f f;
#X obj 197 158 s \$0-pitch;
#X obj 205 136 s \$0-velocity;
#X msg 170 178 0;
#X obj 5 355 outlet;
#X obj 73 354 outlet;
#X obj 141 354 outlet;
#X obj 295 354 outlet;
#X obj 363 354 outlet;
#X obj 431 354 outlet;
#X obj 5 333 r \$0-onoff;
#X obj 73 333 r \$0-pitch;
#X obj 295 333 r \$0-press;
#X obj 363 333 r \$0-slide;
#X obj 431 333 r \$0-glide;
#X obj 252 244 s \$0-vel_on;
#X obj 141 333 r \$0-vel_on;
#X obj 215 354 outlet;
#X obj 215 333 r \$0-vel_off;
#X obj 349 168 cnv 16 96 24 empty empty empty 20 12 0 10 #ffe3c6 #404040 0;
#N canvas 655 429 640 474 license 1;
#X text 155 82 This abstraction is reworked from an example from the pd_mpe external by DanielRudrich \, under the GPL-3.0 license \; \; https://github.com/DanielRudrich/pd_mpe \; \; Copyright (C) <year> <name of author> \; \; This program is free software: you can redistribute it and/or modify \; it under the terms of the GNU General Public License as published by \; the Free Software Foundation \, either version 3 of the License \, or \; (at your option) any later version. \; \; This program is distributed in the hope that it will be useful \, \; but WITHOUT ANY WARRANTY \; without even the implied warranty of \; MERCHANTABILITY or FITNESS FOR A PARTICULAR PURPOSE. See the \; GNU General Public License for more details. \; \; You should have received a copy of the GNU General Public License \; along with this program. If not \, see <https://www.gnu.org/licenses/>. \;;
#X restore 366 172 pd license;
#X connect 0 0 2 0;
#X connect 2 0 16 0;
#X connect 2 1 22 0;
#X connect 2 2 8 0;
#X connect 2 3 7 0;
#X connect 2 4 6 0;
#X connect 16 0 17 0;
#X connect 16 1 19 0;
#X connect 17 0 18 0;
#X connect 19 0 20 0;
#X connect 19 1 21 0;
#X connect 19 1 39 0;
#X connect 22 0 27 0;
#X connect 22 1 24 0;
#X connect 24 0 25 0;
#X connect 24 1 26 0;
#X connect 27 0 23 0;
#X connect 34 0 28 0;
#X connect 35 0 29 0;
#X connect 36 0 31 0;
#X connect 37 0 32 0;
#X connect 38 0 33 0;
#X connect 40 0 30 0;
#X connect 42 0 41 0;
#X coords 0 -1 1 1 102 90 2 8 10;
