#N canvas 120 176 811 423 12;
#X obj 159 152 cnv 19 512 128 empty empty Amplifier\ Envelope 168 16 0 18 #ffe3c6 #553512 0;
#X obj 340 194 knob 50 1 20000 1 1 empty empty #dfdfdf #7c7c7c black 0 0 0 0 1 320 0 0 1;
#X obj 339 255 note 0 12 Menlo empty 0 0 0 0 0 255 255 255 0 0 ATTACK;
#X obj 427 193 knob 50 1 20000 1 1 empty empty #dfdfdf #7c7c7c black 0 0 0 0 1 320 0 0 1;
#X obj 426 254 note 0 12 Menlo empty 0 0 0 0 0 255 255 255 0 0 DECAY;
#X obj 511 192 knob 50 0 1 0 1 empty empty #dfdfdf #7c7c7c black 0 0 0 0 1 320 0 0 0;
#X obj 510 253 note 0 12 Menlo empty 0 0 0 0 0 255 255 255 0 0 SUSTAIN;
#X obj 599 192 knob 50 1 20000 1 1 empty empty #dfdfdf #7c7c7c black 0 0 0 0 1 320 0 0 1;
#X obj 598 253 note 0 12 Menlo empty 0 0 0 0 0 255 255 255 0 0 RELEASE;
#X obj 182 194 knob 50 0 1 0 0 empty empty #dfdfdf #7c7c7c black 0 0 0 0 1 320 0 0 0;
#X obj 172 256 note 0 12 Menlo empty 0 0 0 0 0 255 255 255 0 0 ENV AMOUNT;
#X obj 248 237 note 0 12 Menlo empty 0 0 0 0 0 255 255 255 0 0 VELOCITY;
#X obj 263 195 tgl 36 0 empty empty empty 0 -10 0 12 #bbbbbb #c10100 #000000 0 1;
#X obj 159 152 cnv 4 16 4 empty empty empty 20 12 0 12 #000000 #404040 0;
#X obj 655 152 cnv 4 16 4 empty empty empty 20 12 0 12 #000000 #404040 0;
#X obj 463 152 cnv 4 16 4 empty empty empty 20 12 0 12 #000000 #404040 0;
#X obj 562 152 cnv 4 16 4 empty empty empty 20 12 0 12 #000000 #404040 0;
#X obj 261 152 cnv 4 16 4 empty empty empty 20 12 0 12 #000000 #404040 0;
#N canvas 1293 547 450 300 lin2log_A 0;
#X obj 124 33 inlet;
#X obj 171 247 outlet;
#X obj 366 169 r bit;
#X obj 145 125 t b f;
#X obj 124 166 pow;
#X obj 296 74 r bit;
#X obj 145 98 expr ($f1 / ($f2 + 1));
#X obj 124 63 + 1;
#X text 40 166 Log-scale:;
#X text 54 193 Rescale:;
#X obj 124 193 expr (($f1 - 1) * 19999) / $f2 + 1;
#X connect 0 0 7 0;
#X connect 2 0 10 1;
#X connect 3 0 4 0;
#X connect 3 1 4 1;
#X connect 4 0 10 0;
#X connect 5 0 6 1;
#X connect 6 0 3 0;
#X connect 7 0 6 0;
#X connect 7 0 4 0;
#X connect 10 0 1 0;
#X restore 338 113 pd lin2log_A;
#N canvas 1293 547 450 300 lin2log_D 0;
#X obj 124 33 inlet;
#X obj 171 247 outlet;
#X obj 366 169 r bit;
#X obj 145 125 t b f;
#X obj 124 166 pow;
#X obj 296 74 r bit;
#X obj 145 98 expr ($f1 / ($f2 + 1));
#X obj 124 63 + 1;
#X text 40 166 Log-scale:;
#X text 54 193 Rescale:;
#X obj 124 193 expr (($f1 - 1) * 19999) / $f2 + 1;
#X connect 0 0 7 0;
#X connect 2 0 10 1;
#X connect 3 0 4 0;
#X connect 3 1 4 1;
#X connect 4 0 10 0;
#X connect 5 0 6 1;
#X connect 6 0 3 0;
#X connect 7 0 6 0;
#X connect 7 0 4 0;
#X connect 10 0 1 0;
#X restore 461 112 pd lin2log_D;
#X obj 360 152 cnv 4 16 4 empty empty empty 20 12 0 12 #000000 #404040 0;
#X obj 159 276 cnv 4 16 4 empty empty empty 20 12 0 12 #000000 #404040 0;
#X obj 129 51 cnv 19 64 24 empty empty empty 20 12 0 12 #feffc6 #404040 0;
#X obj 252 62 cnv 19 64 24 empty empty empty 20 12 0 12 #feffc6 #404040 0;
#X obj 327 82 cnv 19 64 24 empty empty empty 20 12 0 12 #feffc6 #404040 0;
#X obj 451 80 cnv 19 64 24 empty empty empty 20 12 0 12 #feffc6 #404040 0;
#X obj 537 23 cnv 19 64 24 empty empty empty 20 12 0 12 #feffc6 #404040 0;
#X obj 590 87 cnv 19 64 24 empty empty empty 20 12 0 12 #feffc6 #404040 0;
#X obj 140 54 inlet;
#X obj 261 64 inlet;
#X obj 338 83 inlet;
#X obj 461 83 inlet;
#X obj 599 89 inlet;
#X obj 547 25 inlet;
#N canvas 85 510 450 300 rescale_S 0;
#X floatatom 137 147 9 0 0 0 - - - 0;
#X text 146 103 Rescale: 0 to 1;
#X obj 136 53 inlet;
#X obj 137 211 outlet;
#X obj 316 93 r bit;
#X obj 137 123 expr $f1 / $f2;
#X connect 0 0 3 0;
#X connect 2 0 5 0;
#X connect 4 0 5 1;
#X connect 5 0 0 0;
#X restore 547 51 pd rescale_S;
#N canvas 1293 547 450 300 lin2log_R 0;
#X obj 124 33 inlet;
#X obj 171 247 outlet;
#X obj 366 169 r bit;
#X obj 145 125 t b f;
#X obj 124 166 pow;
#X obj 296 74 r bit;
#X obj 145 98 expr ($f1 / ($f2 + 1));
#X obj 124 63 + 1;
#X text 40 166 Log-scale:;
#X text 54 193 Rescale:;
#X obj 124 193 expr (($f1 - 1) * 19999) / $f2 + 1;
#X connect 0 0 7 0;
#X connect 2 0 10 1;
#X connect 3 0 4 0;
#X connect 3 1 4 1;
#X connect 4 0 10 0;
#X connect 5 0 6 1;
#X connect 6 0 3 0;
#X connect 7 0 6 0;
#X connect 7 0 4 0;
#X connect 10 0 1 0;
#X restore 599 118 pd lin2log_R;
#X text 429 52 Rescale: 0 to 1;
#N canvas 85 510 450 300 rescale_env 0;
#X floatatom 137 147 9 0 0 0 - - - 0;
#X text 146 103 Rescale: 0 to 1;
#X obj 136 53 inlet;
#X obj 137 211 outlet;
#X obj 137 123 expr ($f1 - $f2) / $f2 + 1;
#X obj 316 93 r bit;
#X connect 0 0 3 0;
#X connect 2 0 4 0;
#X connect 4 0 0 0;
#X connect 5 0 4 1;
#X restore 140 80 pd rescale_env;
#X text 26 81 Rescale: 0 to 1;
#X text 138 115 Rescaling: 1 to 20000 (log);
#X obj 178 317 cnv 19 64 24 empty empty empty 20 12 0 12 #e3c6ff #404040 0;
#X obj 182 319 outlet;
#X obj 259 318 cnv 19 64 24 empty empty empty 20 12 0 12 #e3c6ff #404040 0;
#X obj 263 320 outlet;
#X obj 336 318 cnv 19 64 24 empty empty empty 20 12 0 12 #e3c6ff #404040 0;
#X obj 340 320 outlet;
#X obj 423 317 cnv 19 64 24 empty empty empty 20 12 0 12 #e3c6ff #404040 0;
#X obj 427 319 outlet;
#X obj 507 317 cnv 19 64 24 empty empty empty 20 12 0 12 #e3c6ff #404040 0;
#X obj 511 319 outlet;
#X obj 595 318 cnv 19 64 24 empty empty empty 20 12 0 12 #e3c6ff #404040 0;
#X obj 599 320 outlet;
#X obj 655 276 cnv 4 16 4 empty empty empty 20 12 0 12 #000000 #404040 0;
#X obj 463 276 cnv 4 16 4 empty empty empty 20 12 0 12 #000000 #404040 0;
#X obj 562 276 cnv 4 16 4 empty empty empty 20 12 0 12 #000000 #404040 0;
#X obj 261 276 cnv 4 16 4 empty empty empty 20 12 0 12 #000000 #404040 0;
#X obj 360 276 cnv 4 16 4 empty empty empty 20 12 0 12 #000000 #404040 0;
#X connect 1 0 45 0;
#X connect 3 0 47 0;
#X connect 5 0 49 0;
#X connect 7 0 51 0;
#X connect 9 0 41 0;
#X connect 12 0 43 0;
#X connect 18 0 1 0;
#X connect 19 0 3 0;
#X connect 28 0 37 0;
#X connect 29 0 12 0;
#X connect 30 0 18 0;
#X connect 31 0 19 0;
#X connect 32 0 35 0;
#X connect 33 0 34 0;
#X connect 34 0 5 0;
#X connect 35 0 7 0;
#X connect 37 0 9 0;
#X coords 0 -1 1 1 512 128 1 159 152;
