#N canvas 173 269 867 374 12;
#X obj 145 103 cnv 19 576 128 empty empty Oscillator\ 2 222 16 0 18 #ffe3c6 #553512 0;
#X obj 176 147 knob 50 -24 24 0 0 empty empty #dfdfdf #7c7c7c black 0 0 49 1 0 320 0 0 0;
#X obj 164 201 note 74 12 Menlo empty 0 85 53 18 0 255 255 255 0 0 FREQUENCY;
#X obj 364 142 knob 50 0 1 0 0.5 empty empty #dfdfdf #7c7c7c black 0 0 0 0 0 320 0 0 0;
#X obj 370 201 note 44 12 Menlo empty 0 85 53 18 0 255 255 255 0 0 SHAPE;
#X obj 468 143 knob 50 0.02 0.98 0 0.5 empty empty #dfdfdf #7c7c7c black 0 0 0 0 1 320 0 0 0.5;
#X obj 450 201 note 0 12 Menlo empty 0 0 0 0 0 255 255 255 0 0 PULSE WIDTH;
#X obj 268 146 knob 50 -0.5 0.5 0 0 empty empty #dfdfdf #7c7c7c black 0 0 101 1 0 320 0 0 0;
#X obj 273 200 note 29 12 Menlo empty 0 85 53 18 0 255 255 255 0 0 FINE;
#X obj 562 199 note 0 12 Menlo empty 0 0 0 0 0 255 255 255 0 0 LOW FREQ;
#X obj 640 199 note 0 12 Menlo empty 0 0 0 0 0 255 255 255 0 0 KEYBOARD;
#X obj 146 103 cnv 4 16 4 empty empty empty 20 12 0 12 #000000 #404040 0;
#X obj 705 103 cnv 4 16 4 empty empty empty 20 12 0 12 #000000 #404040 0;
#X obj 256 103 cnv 4 16 4 empty empty empty 20 12 0 12 #000000 #404040 0;
#X obj 478 103 cnv 4 16 4 empty empty empty 20 12 0 12 #000000 #404040 0;
#X obj 595 103 cnv 4 16 4 empty empty empty 20 12 0 12 #000000 #404040 0;
#X obj 145 227 cnv 4 16 4 empty empty empty 20 12 0 12 #000000 #404040 0;
#X obj 364 103 cnv 4 16 4 empty empty empty 20 12 0 12 #000000 #404040 0;
#X obj 574 153 tgl 36 0 empty empty empty 0 -10 0 12 #bbbbbb #c10100 #000000 0 1;
#X obj 651 153 tgl 36 0 empty empty empty 0 -10 0 12 #bbbbbb #c10100 #000000 0 1;
#X obj 168 261 cnv 19 64 24 empty empty empty 20 12 0 12 #e3c6ff #404040 0;
#X obj 238 29 cnv 19 64 24 empty empty empty 20 12 0 12 #feffc6 #404040 0;
#X obj 249 32 inlet;
#X obj 589 75 cnv 19 64 24 empty empty empty 20 12 0 12 #feffc6 #404040 0;
#X obj 695 78 cnv 19 64 24 empty empty empty 20 12 0 12 #feffc6 #404040 0;
#X obj 599 80 inlet;
#X obj 707 80 inlet;
#X obj 121 31 cnv 19 64 24 empty empty empty 20 12 0 12 #feffc6 #404040 0;
#X obj 133 34 inlet;
#N canvas 324 349 450 300 rescale_freq 0;
#X obj 129 48 inlet;
#X obj 129 196 outlet;
#X obj 322 99 r bit;
#X obj 129 121 expr (($f1 / $f2) * 49) - 24;
#X text 73 92 Rescale: -24 to 24;
#X text 215 92 (+/- 2 oct);
#X connect 0 0 3 0;
#X connect 2 0 3 1;
#X connect 3 0 1 0;
#X restore 133 68 pd rescale_freq;
#N canvas 215 530 450 300 rescale_fine 0;
#X obj 122 69 inlet;
#X obj 122 218 outlet;
#X obj 336 107 r bit;
#X obj 122 131 expr (($f1 / $f2) * 1.01) - 0.5;
#X text 63 111 Rescale: -0.5 to 0.5 (with center '0');
#X connect 0 0 3 0;
#X connect 2 0 3 1;
#X connect 3 0 1 0;
#X restore 249 67 pd rescale_fine;
#X obj 475 34 cnv 19 64 24 empty empty empty 20 12 0 12 #feffc6 #404040 0;
#X obj 488 37 inlet;
#N canvas 150 175 450 300 rescale_pw 0;
#X obj 128 67 inlet;
#X obj 128 207 outlet;
#X floatatom 128 150 9 0 0 0 - - - 0;
#X obj 349 99 r bit;
#X obj 128 126 expr (($f1 * 0.96) / $f2) + 0.02;
#X text 69 106 Rescale: 0.02 to 0.98;
#X connect 0 0 4 0;
#X connect 2 0 1 0;
#X connect 3 0 4 1;
#X connect 4 0 2 0;
#X restore 488 67 pd rescale_pw;
#X obj 352 33 cnv 19 64 24 empty empty empty 20 12 0 12 #feffc6 #404040 0;
#X obj 365 35 inlet;
#N canvas 469 494 450 300 rescale_shape 0;
#X obj 174 44 inlet;
#X obj 175 216 outlet;
#X obj 175 127 expr $f1 / $f2;
#X text 118 106 Rescale: 0 to 1;
#X obj 270 93 r bit;
#X connect 0 0 2 0;
#X connect 2 0 1 0;
#X connect 4 0 2 1;
#X restore 365 67 pd rescale_shape;
#X obj 258 261 cnv 19 64 24 empty empty empty 20 12 0 12 #e3c6ff #404040 0;
#X obj 353 262 cnv 19 64 24 empty empty empty 20 12 0 12 #e3c6ff #404040 0;
#X obj 458 261 cnv 19 64 24 empty empty empty 20 12 0 12 #e3c6ff #404040 0;
#X obj 563 261 cnv 19 64 24 empty empty empty 20 12 0 12 #e3c6ff #404040 0;
#X obj 641 262 cnv 19 64 24 empty empty empty 20 12 0 12 #e3c6ff #404040 0;
#X obj 176 263 outlet;
#X obj 268 263 outlet;
#X obj 364 264 outlet;
#X obj 468 264 outlet;
#X obj 574 263 outlet;
#X obj 651 264 outlet;
#X obj 258 227 cnv 4 16 4 empty empty empty 20 12 0 12 #000000 #404040 0;
#X obj 480 227 cnv 4 16 4 empty empty empty 20 12 0 12 #000000 #404040 0;
#X obj 597 227 cnv 4 16 4 empty empty empty 20 12 0 12 #000000 #404040 0;
#X obj 366 227 cnv 4 16 4 empty empty empty 20 12 0 12 #000000 #404040 0;
#X obj 705 227 cnv 4 16 4 empty empty empty 20 12 0 12 #000000 #404040 0;
#X connect 1 0 42 0;
#X connect 3 0 44 0;
#X connect 5 0 45 0;
#X connect 7 0 43 0;
#X connect 18 0 46 0;
#X connect 19 0 47 0;
#X connect 22 0 30 0;
#X connect 25 0 18 0;
#X connect 26 0 19 0;
#X connect 28 0 29 0;
#X connect 29 0 1 0;
#X connect 30 0 7 0;
#X connect 32 0 33 0;
#X connect 33 0 5 0;
#X connect 35 0 36 0;
#X connect 36 0 3 0;
#X coords 0 -1 1 1 576 128 1 145 103;
