#N canvas 935 240 985 889 12;
#X obj 218 221 cnv 19 512 128 empty empty Low-Pass\ Filter 192 16 0 18 #ffe3c6 #553512 0;
#X obj 251 267 knob 50 50 20000 1 880 empty empty #dfdfdf #7c7c7c black 0 0 0 0 1 320 0 0 50;
#X obj 254 325 note 0 12 Menlo empty 0 0 0 0 0 255 255 255 0 0 CUTOFF;
#X obj 344 267 knob 50 0.01 10 3 1 empty empty #dfdfdf #7c7c7c black 0 0 0 0 1 320 0 0 1;
#X obj 335 325 note 0 12 Menlo empty 0 0 0 0 0 255 255 255 0 0 RESONANCE;
#X obj 441 267 knob 50 -1 1 0 0 empty empty #dfdfdf #7c7c7c black 0 0 0 0 1 320 0 0 0;
#X obj 432 326 note 0 12 Menlo empty 0 0 0 0 0 255 255 255 0 0 ENV AMOUNT;
#X obj 642 318 note 0 12 Menlo empty 0 0 0 0 0 255 255 255 0 0 KEYBOARD;
#X obj 644 292 hradio 19 1 0 3 empty empty empty 0 -10 0 12 #bbbbbb #bb0300 #000000 0;
#X obj 256 701 else/lowpass~;
#X floatatom 344 371 9 0 0 0 - - - 0;
#X floatatom 253 369 9 0 0 0 - - - 0;
#X obj 548 320 note 0 12 Menlo empty 0 0 0 0 0 255 255 255 0 0 VELOCITY;
#X obj 290 734 else/lowpass~;
#X text 420 739 (2x else/lowpass~ (two-pole each) in series);
#X obj 559 274 tgl 36 0 empty empty empty 0 -10 0 12 #bbbbbb #c10100 #000000 0 1;
#X obj 635 260 else/button 30 15 186 186 186 186 32 32 1;
#X obj 682 260 else/button 30 15 186 186 186 186 32 32 1;
#X text 633 240 Half;
#X text 679 240 Full;
#X text 101 130 Rescale: 50 to 20000;
#N canvas 181 747 450 300 lin2log_C 0;
#X obj 124 33 inlet;
#X obj 171 247 outlet;
#X obj 366 169 r bit;
#X obj 145 125 t b f;
#X obj 124 166 pow;
#X obj 296 74 r bit;
#X obj 145 98 expr ($f1 / ($f2 + 1));
#X obj 124 193 expr (($f1 - 1) * 19950) / $f2 + 50;
#X obj 124 63 + 1;
#X text 40 166 Log-scale:;
#X text 54 193 Rescale:;
#X connect 0 0 8 0;
#X connect 2 0 7 1;
#X connect 3 0 4 0;
#X connect 3 1 4 1;
#X connect 4 0 7 0;
#X connect 5 0 6 1;
#X connect 6 0 3 0;
#X connect 7 0 1 0;
#X connect 8 0 6 0;
#X connect 8 0 4 0;
#X restore 159 151 pd lin2log_C;
#N canvas 725 761 450 300 lin2log_R 0;
#X obj 124 33 inlet;
#X obj 171 247 outlet;
#X obj 373 173 r bit;
#X obj 145 125 t b f;
#X obj 124 166 pow;
#X obj 296 74 r bit;
#X obj 145 98 expr ($f1 / ($f2 + 1));
#X obj 124 63 + 1;
#X text 40 166 Log-scale:;
#X text 54 193 Rescale:;
#X obj 124 197 expr (($f1 - 1) * 9.99) / $f2 + 0.01;
#X connect 0 0 7 0;
#X connect 2 0 10 1;
#X connect 3 0 4 0;
#X connect 3 1 4 1;
#X connect 4 0 10 0;
#X connect 5 0 6 1;
#X connect 6 0 3 0;
#X connect 7 0 6 0;
#X connect 7 0 4 0;
#X connect 10 0 1 0;
#X restore 315 148 pd lin2log_R;
#X floatatom 441 369 12 0 0 0 - - - 0;
#X obj 720 132 i;
#X obj 751 131 + 1;
#X obj 720 158 mod 3;
#X floatatom 720 182 5 0 0 0 - - - 0;
#N canvas 692 578 450 300 rescale_env 0;
#X obj 338 104 r bit;
#X obj 89 131 expr ($f1 - 1) / (($f2 - 1) / 2) - 1;
#X obj 89 66 inlet;
#X obj 89 203 outlet;
#X text 95 111 Rescale: -1 to 1;
#X connect 0 0 1 1;
#X connect 1 0 3 0;
#X connect 2 0 1 0;
#X restore 525 145 pd rescale_env;
#N canvas 1108 311 554 520 keyboard_track 0;
#X obj 214 78 loadbang;
#X msg 214 102 60;
#X obj 214 126 mtof;
#X text 212 56 Note offset;
#X obj 375 150 select 0 1 2;
#X msg 375 178 0;
#X msg 405 178 0.5;
#X msg 435 178 1;
#X obj 265 275 *;
#X text 374 110 Keyboard track:;
#X text 376 128 0% / 50& / 100%;
#X obj 265 299 t b f;
#X obj 373 45 inlet;
#X text 245 101 C4 (Middle C);
#X obj 170 181 -;
#X obj 388 210 t b f;
#X text 129 63 Note nr;
#X obj 126 115 mtof;
#X obj 272 409 +;
#X obj 172 349 inlet;
#X obj 272 433 outlet;
#X text 71 347 Cutoff Freq:;
#X text 69 434 Cutoff + Keyboard Tracking:;
#X text 361 23 KEYBOARD;
#X obj 126 87 cnv 19 64 24 empty empty empty 20 12 0 12 #c6ffc7 #404040 0;
#X obj 126 91 r note_nr;
#X connect 0 0 1 0;
#X connect 1 0 2 0;
#X connect 2 0 14 1;
#X connect 4 0 5 0;
#X connect 4 1 6 0;
#X connect 4 2 7 0;
#X connect 5 0 15 0;
#X connect 6 0 15 0;
#X connect 7 0 15 0;
#X connect 8 0 11 0;
#X connect 11 0 18 0;
#X connect 11 1 18 1;
#X connect 12 0 4 0;
#X connect 14 0 8 0;
#X connect 15 0 8 0;
#X connect 15 1 8 1;
#X connect 17 0 14 0;
#X connect 18 0 20 0;
#X connect 19 0 18 0;
#X restore 255 501 pd keyboard_track;
#N canvas 1133 735 450 300 kb_track_state 0;
#X obj 169 100 select 0 1 2;
#X text 149 62 Keyboard tracking:;
#X text 165 83 Off/Half/Full;
#X msg 127 149 0;
#X msg 183 149 0;
#X msg 215 149 1;
#X msg 258 147 0;
#X msg 290 147 1;
#X obj 159 227 outlet;
#X obj 233 227 outlet;
#X obj 84 33 inlet;
#N canvas 701 726 465 222 button_init 0;
#X obj 22 69 loadbang;
#X msg 22 93 dim 30 15 \, toggle \, bgcolor 186 186 186 \, fgcolor 186 32 32 \, float 0;
#X text 18 49 Button design:;
#X obj 22 155 outlet;
#X connect 0 0 1 0;
#X connect 1 0 3 0;
#X restore 15 149 pd button_init;
#X connect 0 0 3 0;
#X connect 0 1 4 0;
#X connect 0 1 5 0;
#X connect 0 2 6 0;
#X connect 0 2 7 0;
#X connect 3 0 8 0;
#X connect 3 0 9 0;
#X connect 4 0 9 0;
#X connect 5 0 8 0;
#X connect 6 0 8 0;
#X connect 7 0 9 0;
#X connect 10 0 0 0;
#X connect 11 0 8 0;
#X connect 11 0 9 0;
#X restore 747 292 pd kb_track_state;
#X floatatom 255 527 9 0 0 0 - - - 0;
#N canvas 1309 354 611 523 velocity_mod 0;
#X obj 274 321 t b f;
#X obj 269 215 spigot;
#X msg 199 246 1;
#X obj 202 324 t b f;
#X obj 190 215 select 0 1;
#N canvas 991 97 450 300 rescale_vel 0;
#X obj 177 62 inlet;
#X obj 177 121 expr $f1 / $f2;
#X obj 272 97 r bit;
#X obj 177 187 outlet;
#X connect 0 0 1 0;
#X connect 1 0 3 0;
#X connect 2 0 1 1;
#X restore 269 120 pd rescale_vel;
#X text 267 71 Note velocity;
#X obj 189 98 inlet;
#X obj 158 413 outlet;
#X obj 271 411 outlet;
#X text 115 98 VELOCITY;
#X obj 273 93 cnv 19 64 24 empty empty empty 20 12 0 12 #c6ffc7 #404040 0;
#X obj 269 96 r note_vel;
#X connect 0 0 8 0;
#X connect 0 1 9 0;
#X connect 1 0 0 0;
#X connect 2 0 3 0;
#X connect 3 0 8 0;
#X connect 3 1 9 0;
#X connect 4 0 2 0;
#X connect 5 0 1 0;
#X connect 7 0 4 0;
#X connect 7 0 1 1;
#X connect 12 0 5 0;
#X restore 547 534 pd velocity_mod;
#N canvas 253 137 827 893 env_mod 0;
#X obj 639 98 inlet;
#X obj 209 86 inlet;
#X text 637 30 velocity mod;
#X text 186 57 envelope output;
#N canvas 1107 213 450 300 env_depth 0;
#X obj 128 72 inlet;
#X obj 181 135 *;
#X obj 199 74 loadbang;
#X text 263 74 Envelope depth;
#X obj 182 180 outlet;
#X msg 199 98 36;
#X text 260 94 (3 Octaves +/-);
#X connect 0 0 1 0;
#X connect 1 0 4 0;
#X connect 2 0 5 0;
#X connect 5 0 1 1;
#X restore 209 124 pd env_depth;
#X obj 496 105 inlet;
#X floatatom 497 211 5 0 0 0 - - - 0;
#X obj 497 187 *;
#X obj 475 282 *;
#X obj 497 234 t b f;
#X floatatom 475 306 11 0 0 0 - - - 0;
#X obj 475 329 t b f;
#X obj 689 97 inlet;
#X obj 368 804 outlet;
#X obj 481 482 +;
#X floatatom 481 506 5 0 0 0 - - - 0;
#X obj 481 529 mtof;
#X floatatom 481 553 11 0 0 0 - - - 0;
#X obj 643 490 mtof;
#X floatatom 643 514 8 0 0 0 - - - 0;
#X obj 466 615 -;
#X floatatom 466 639 10 0 0 0 - - - 0;
#X obj 643 537 t b f;
#X text 483 56 env amount;
#X text 481 75 (-1 to 1);
#X text 644 49 ON: 0 to 1;
#X text 637 68 OFF: 1;
#X text 517 281 envelope out * env amount;
#X text 539 184 env amount * velocity mod;
#X text 646 427 Note Nr;
#X text 374 306 mod amount:;
#X text 314 508 Note nr + mod amount;
#X text 294 616 Note offset - Note Nr;
#X obj 142 604 inlet;
#X obj 367 740 +;
#X obj 466 662 t b f;
#X obj 397 430 cnv 19 64 24 empty empty empty 20 12 0 12 #c6ffc7 #404040 0;
#X obj 394 432 r note_nr;
#X obj 646 459 cnv 19 64 24 empty empty empty 20 12 0 12 #c6ffc7 #404040 0;
#X obj 643 461 r note_nr;
#X text 302 124 (+/- 3 Oct range);
#X connect 0 0 7 0;
#X connect 1 0 4 0;
#X connect 4 0 8 0;
#X connect 5 0 7 0;
#X connect 6 0 9 0;
#X connect 7 0 6 0;
#X connect 8 0 10 0;
#X connect 9 0 8 0;
#X connect 9 1 8 1;
#X connect 10 0 11 0;
#X connect 11 0 14 0;
#X connect 11 1 14 1;
#X connect 12 0 7 1;
#X connect 14 0 15 0;
#X connect 15 0 16 0;
#X connect 16 0 17 0;
#X connect 17 0 20 0;
#X connect 18 0 19 0;
#X connect 19 0 22 0;
#X connect 20 0 21 0;
#X connect 21 0 35 0;
#X connect 22 0 20 0;
#X connect 22 1 20 1;
#X connect 33 0 34 0;
#X connect 34 0 13 0;
#X connect 35 0 34 0;
#X connect 35 1 34 1;
#X connect 37 0 14 0;
#X connect 39 0 18 0;
#X restore 409 615 pd env_mod;
#X floatatom 409 639 11 0 0 0 - - - 0;
#X text 555 512 Velocity mod:;
#X text 249 480 Keyboard Track mod:;
#X text 423 722 Four-pole resonant Low-Pass Filter;
#X obj 219 221 cnv 4 16 4 empty empty empty 20 12 0 12 #000000 #404040 0;
#X obj 319 221 cnv 4 16 4 empty empty empty 20 12 0 12 #000000 #404040 0;
#X text 467 128 Rescale: -1 to 1;
#X obj 714 221 cnv 4 16 4 empty empty empty 20 12 0 12 #000000 #404040 0;
#X obj 520 221 cnv 4 16 4 empty empty empty 20 12 0 12 #000000 #404040 0;
#X obj 620 221 cnv 4 16 4 empty empty empty 20 12 0 12 #000000 #404040 0;
#X obj 410 221 cnv 4 16 4 empty empty empty 20 12 0 12 #000000 #404040 0;
#X obj 218 345 cnv 4 16 4 empty empty empty 20 12 0 12 #000000 #404040 0;
#N canvas 63 88 450 300 reference 0;
#X text 275 189 signal~ [-1 \, 1];
#X text 41 25 Inlet 1: Mixer signal~;
#X text 40 43 Inlet 2: Cutoff control;
#X text 39 61 Inlet 3: Resonance control;
#X text 39 81 Inlet 4: Filter Envelope output;
#X text 38 121 Inlet 6: Velocity mod On/Off;
#X text 40 102 Inlet 5: Envelope Amount;
#X text 40 141 Inlet 7: Keyboard Tracking (Off/Half/Full);
#X text 31 189 Outlet 1: Low-Pass Filter output;
#X restore 826 42 pd reference;
#X text 256 129 Rescale: 0.01 to 10;
#X obj 75 564 cnv 19 64 24 empty empty empty 20 12 0 12 #c6ffc7 #404040 0;
#X obj 85 566 r~ mix;
#X text 66 540 Mixer signal~;
#X obj 283 769 cnv 19 64 24 empty empty empty 20 12 0 12 #e3c6ff #404040 0;
#X obj 290 770 outlet~;
#X obj 151 102 cnv 19 64 24 empty empty empty 20 12 0 12 #feffc6 #404040 0;
#X obj 413 176 cnv 19 64 24 empty empty empty 20 12 0 12 #feffc6 #404040 0;
#X obj 616 172 cnv 19 64 24 empty empty empty 20 12 0 12 #feffc6 #404040 0;
#X obj 513 103 cnv 19 64 24 empty empty empty 20 12 0 12 #feffc6 #404040 0;
#X obj 708 103 cnv 19 64 24 empty empty empty 20 12 0 12 #feffc6 #404040 0;
#X obj 159 103 inlet;
#X obj 422 177 inlet;
#X obj 525 106 inlet;
#X obj 627 174 inlet;
#X obj 720 106 inlet;
#X obj 309 99 cnv 19 64 24 empty empty empty 20 12 0 12 #feffc6 #404040 0;
#X obj 315 101 inlet;
#X text 98 771 Low-Pass filtered output:;
#X connect 1 0 11 0;
#X connect 3 0 10 0;
#X connect 5 0 23 0;
#X connect 8 0 30 0;
#X connect 8 0 29 1;
#X connect 9 0 13 0;
#X connect 10 0 9 2;
#X connect 11 0 29 0;
#X connect 13 0 52 0;
#X connect 15 0 32 0;
#X connect 21 0 1 0;
#X connect 22 0 3 0;
#X connect 23 0 33 2;
#X connect 24 0 25 0;
#X connect 24 0 26 0;
#X connect 25 0 24 1;
#X connect 26 0 27 0;
#X connect 27 0 8 0;
#X connect 28 0 5 0;
#X connect 29 0 31 0;
#X connect 30 0 16 0;
#X connect 30 1 17 0;
#X connect 31 0 33 0;
#X connect 32 0 33 3;
#X connect 32 1 33 4;
#X connect 33 0 34 0;
#X connect 34 0 9 1;
#X connect 34 0 13 1;
#X connect 49 0 9 0;
#X connect 58 0 21 0;
#X connect 59 0 33 1;
#X connect 60 0 28 0;
#X connect 61 0 15 0;
#X connect 62 0 24 0;
#X connect 64 0 22 0;
#X coords 0 -1 1 1 512 128 1 218 221;
