#N canvas 387 157 1152 816 12;
#X obj 60 394 r o1_freq_O;
#X obj 112 417 r o1_sync_O;
#X obj 165 440 r o1_shape_O;
#X obj 123 645 r o2_shape_O;
#X obj 91 622 r o2_fine_O;
#X obj 60 599 r o2_freq_O;
#X obj 186 691 r o2_lf_O;
#X obj 218 714 r o2_keyb_O;
#X obj 154 668 r o2_pw_O;
#X obj 218 463 r o1_pw_O;
#X obj 452 107 r o1_lvl_O;
#X obj 488 130 r o2_lvl_O;
#X obj 524 153 r so_lvl_O;
#X obj 561 176 r n_lvl_O;
#X obj 434 596 r lpf_cut_O;
#X obj 478 619 r lpf_res_O;
#X obj 523 642 r lpf_env_O;
#X obj 568 665 r lpf_vel_O;
#X obj 613 688 r lpf_key_O;
#X obj 784 382 r filter_A_O;
#X obj 843 405 r filter_D_O;
#X obj 903 428 r filter_S_O;
#X obj 963 451 r filter_R_O;
#X obj 786 586 r amp_env_O;
#X obj 826 609 r amp_vel_O;
#X obj 866 632 r amp_A_O;
#X obj 906 655 r amp_D_O;
#X obj 946 678 r amp_S_O;
#X obj 986 701 r amp_R_O;
#X obj 1 2 cnv 19 342 356 empty empty Voice\ Variables 96 12 0 16 #c6ffc7 #606060 0;
#N canvas 92 436 676 360 voice_common 0;
#X obj 103 67 cnv 19 64 24 empty empty empty 20 12 0 12 #c6ffc7 #404040 0;
#X obj 256 66 cnv 19 64 24 empty empty empty 20 12 0 12 #c6ffc7 #404040 0;
#X obj 388 66 cnv 19 64 24 empty empty empty 20 12 0 12 #c6ffc7 #404040 0;
#X obj 254 272 cnv 19 64 24 empty empty empty 20 12 0 12 #c6feff #404040 0;
#N canvas 406 485 874 522 glide2pitchbend 0;
#X obj 463 182 - 8192;
#X text 419 87 PitchWheel Range:;
#X obj 528 252 *;
#X obj 443 318 / 8192;
#X obj 359 371 t b f;
#X obj 275 436 +;
#X obj 145 84 inlet;
#X obj 545 87 inlet;
#X text 82 85 Note nr:;
#X obj 341 87 inlet;
#X text 254 87 Note glide:;
#X obj 275 479 outlet;
#X text 109 479 Note Nr + Pitch Wheel:;
#X obj 463 206 + 64;
#X text 369 206 ROLI offset:;
#X obj 676 86 inlet;
#X text 621 58 glide2pitchbend On/Off;
#X obj 463 158 spigot;
#X obj 673 281 select 0;
#X msg 673 312 0;
#X text 558 281 Reset when Off:;
#X connect 0 0 13 0;
#X connect 2 0 3 0;
#X connect 3 0 4 0;
#X connect 4 0 5 0;
#X connect 4 1 5 1;
#X connect 5 0 11 0;
#X connect 6 0 5 0;
#X connect 7 0 2 1;
#X connect 9 0 17 0;
#X connect 13 0 2 0;
#X connect 15 0 17 1;
#X connect 15 0 18 0;
#X connect 17 0 0 0;
#X connect 18 0 19 0;
#X connect 19 0 4 0;
#X restore 245 185 pd glide2pitchbend;
#X obj 506 102 tgl 19 0 empty empty empty 0 -10 0 12 #fcfcfc #000000 #000000 0 1;
#X obj 518 63 cnv 19 64 24 empty empty empty 20 12 0 12 #c6ffc7 #404040 0;
#X obj 376 68 r pb_range;
#X obj 80 69 r \$0-note_nr_raw;
#X obj 245 274 s \$0-note_nr;
#X obj 506 66 r glidevib_mod_dest;
#X obj 236 68 r \$0-note_glidevib;
#X connect 4 0 9 0;
#X connect 5 0 4 3;
#X connect 7 0 4 2;
#X connect 8 0 4 0;
#X connect 10 0 5 0;
#X connect 11 0 4 1;
#X restore 184 115 pd voice_common;
#X obj 17 58 inlet;
#X obj 96 206 s \$0-note_slide;
#X obj 80 229 s \$0-note_press;
#X obj 64 252 s \$0-note_vel_off;
#X obj 48 275 s \$0-note_vel;
#X obj 32 298 s \$0-note_nr_raw;
#X obj 17 322 s \$0-note_gate;
#X obj 60 762 s~ \$0-osc2;
#X obj 452 224 s~ \$0-mix;
#X obj 60 511 s~ \$0-osc1;
#X obj 218 511 s~ \$0-subosc;
#X obj 434 737 s~ \$0-lpf;
#X obj 784 499 s~ \$0-filter_env;
#X obj 786 749 s~ \$0-amp_env;
#N canvas 862 181 868 841 oscillator_1 0;
#N canvas 63 88 450 300 reference 0;
#X text 275 189 signal~ [-1 \, 1];
#X text 31 189 Outlet 1: Oscillator 1 output;
#X text 40 43 Inlet 1: Frequency control;
#X text 40 64 Inlet 2: Sync On/Off;
#X text 40 85 Inlet 3: Shape control;
#X text 40 104 Inlet 4: Pulse Width control;
#X text 30 209 Outlet 2: Sub-Octave output;
#X text 276 207 signal~ [-1 \, 1];
#X restore 742 32 pd reference;
#X obj 581 350 line;
#X msg 581 325 \$1 100;
#X text 503 325 Smoothing:;
#X obj 189 119 cnv 19 64 24 empty empty empty 20 12 0 12 #feffc6 #404040 0;
#X obj 283 740 cnv 19 96 32 empty empty empty 20 12 0 12 #e3c6ff #404040 0;
#X obj 304 746 outlet~;
#X text 183 747 Osc 1 signal~;
#X obj 626 744 cnv 19 96 32 empty empty empty 20 12 0 12 #e3c6ff #404040 0;
#X obj 645 747 outlet~;
#X obj 201 122 inlet;
#X obj 309 117 cnv 19 64 24 empty empty empty 20 12 0 12 #feffc6 #404040 0;
#X obj 324 121 inlet;
#X obj 423 119 cnv 19 64 24 empty empty empty 20 12 0 12 #feffc6 #404040 0;
#X obj 436 121 inlet;
#X obj 569 121 cnv 19 64 24 empty empty empty 20 12 0 12 #feffc6 #404040 0;
#X obj 582 124 inlet;
#X obj 142 335 cnv 19 64 24 empty empty empty 20 12 0 12 #c6ffc7 #404040 0;
#X obj 255 496 cnv 19 64 24 empty empty empty 20 12 0 12 #c6ffc7 #404040 0;
#N canvas 353 378 450 468 midi2freq 0;
#X obj 87 48 inlet;
#X obj 300 52 inlet;
#X obj 137 390 outlet;
#X text 23 390 Note frequency:;
#X text 74 15 MIDI Note Nr;
#X text 237 23 Frequency Control offset;
#X floatatom 248 136 5 0 0 0 - - - 0;
#X floatatom 196 172 5 21 108 0 - - - 0;
#X obj 196 203 +;
#X floatatom 137 275 5 0 0 0 - - - 0;
#X obj 137 298 mtof;
#X text 66 203 Frequency offset:;
#X text 74 172 MID Note Number:;
#X obj 246 170 t b f;
#X obj 333 391 outlet;
#X text 235 391 Sub-Oct Note:;
#X connect 0 0 7 0;
#X connect 1 0 6 0;
#X connect 6 0 13 0;
#X connect 7 0 8 0;
#X connect 8 0 9 0;
#X connect 8 0 14 0;
#X connect 9 0 10 0;
#X connect 10 0 2 0;
#X connect 13 0 8 0;
#X connect 13 1 8 1;
#X restore 120 372 pd midi2freq;
#N canvas 382 407 450 459 sub_oct 0;
#X obj 198 32 inlet;
#X obj 198 359 outlet~;
#X obj 198 109 - 12;
#X obj 198 133 mtof;
#X text 101 109 Octave shift;
#X obj 198 265 else/bl.tri~;
#X text 36 264 Sub-Octave Oscillator:;
#X text 85 288 (Triangle);
#X connect 0 0 2 0;
#X connect 2 0 3 0;
#X connect 3 0 5 0;
#X connect 5 0 1 0;
#X restore 645 609 pd sub_oct;
#X text 530 610 Sub-Oscillator:;
#N canvas 94 141 984 920 oscillator 0;
#X obj 112 83 inlet;
#X obj 298 89 inlet~;
#X obj 609 92 inlet;
#X obj 472 859 outlet~;
#X text 588 38 Shape control;
#X text 562 64 (Tri - Saw – Square);
#X obj 819 101 inlet;
#X text 771 62 Pulse Width modulation;
#X text 87 57 Note frequency;
#X obj 442 93 inlet;
#X text 424 57 Sync On/Off;
#X text 259 57 Oscillator 2 (Sync);
#X obj 331 503 bl.vsaw~;
#X floatatom 535 202 7 0 0 0 - - - 0;
#X floatatom 669 201 5 0 0 0 - - - 0;
#X floatatom 358 424 8 0 0 0 - - - 0;
#X floatatom 450 649 9 0 0 0 - - - 0;
#X text 219 396 Rescale: 0.5 to 1;
#X obj 612 481 bl.square~;
#X text 335 621 Rescale: 0 to 1;
#X obj 333 742 *~ 1;
#X obj 612 744 *~ 0;
#X obj 358 715 expr $f1 * -1 + 1;
#X text 521 481 OSC: Square;
#X obj 535 173 min 0.5;
#X obj 669 169 max 0.5;
#X obj 348 397 + 0.5;
#X obj 450 622 expr $f1 * 2 - 1;
#X obj 544 316 *~ 0;
#X text 445 304 (hard) sync;
#X text 448 322 with Osc 2;
#X text 227 502 OSC: Tri/Saw;
#X floatatom 371 742 5 0 0 0 - - - 0;
#X text 346 598 For~[bl.vsaw~] <-> [bl.square~] crossfade;
#X text 218 715 Rescale: 1 to 0;
#X text 214 375 Triangle <-> Sawtooth waveshape crossfade;
#X text 318 857 Oscillator 1 Output:;
#X connect 0 0 12 0;
#X connect 0 0 18 0;
#X connect 1 0 28 0;
#X connect 2 0 24 0;
#X connect 2 0 25 0;
#X connect 6 0 18 1;
#X connect 9 0 28 1;
#X connect 12 0 20 0;
#X connect 13 0 26 0;
#X connect 14 0 27 0;
#X connect 16 0 22 0;
#X connect 16 0 21 1;
#X connect 18 0 21 0;
#X connect 20 0 3 0;
#X connect 21 0 3 0;
#X connect 22 0 20 1;
#X connect 22 0 32 0;
#X connect 24 0 13 0;
#X connect 25 0 14 0;
#X connect 26 0 12 1;
#X connect 26 0 15 0;
#X connect 27 0 16 0;
#X connect 28 0 12 2;
#X connect 28 0 18 2;
#X restore 304 607 pd oscillator;
#X text 515 751 Sub-Oct signal~;
#X text 316 12 ___ OSCILLATOR 1 ___;
#X text 325 92 SYNC;
#X text 188 92 FREQUENCY;
#X text 436 94 SHAPE;
#X text 562 94 PULSE WIDTH;
#X obj 259 498 r~ \$0-osc2;
#X obj 120 336 r \$0-note_nr;
#N canvas 150 175 450 300 rescale_pw 0;
#X obj 128 67 inlet;
#X obj 128 207 outlet;
#X floatatom 128 150 9 0 0 0 - - - 0;
#X obj 349 99 r bit;
#X obj 128 126 expr (($f1 * 0.96) / $f2) + 0.02;
#X text 69 106 Rescale: 0.02 to 0.98;
#X connect 0 0 4 0;
#X connect 2 0 1 0;
#X connect 3 0 4 1;
#X connect 4 0 2 0;
#X restore 690 178 pd rescale_pw;
#X obj 711 151 cnv 19 64 24 empty empty empty 20 12 0 12 #c6ffc7 #404040 0;
#X obj 690 153 r \$0-o1_pw_mod;
#N canvas 970 679 450 300 pw_mod 0;
#X obj 148 163 +;
#X obj 148 94 inlet;
#X obj 218 95 inlet;
#X obj 218 119 t b f;
#X obj 148 232 outlet;
#X obj 148 187 clip 0.02 0.98;
#X connect 0 0 5 0;
#X connect 1 0 0 0;
#X connect 2 0 3 0;
#X connect 3 0 0 0;
#X connect 3 1 0 1;
#X connect 5 0 4 0;
#X restore 587 233 pd pw_mod;
#N canvas 469 494 450 300 rescale_shape 0;
#X obj 174 44 inlet;
#X obj 175 216 outlet;
#X obj 175 127 expr $f1 / $f2;
#X text 118 106 Rescale: 0 to 1;
#X obj 270 93 r bit;
#X connect 0 0 2 0;
#X connect 2 0 1 0;
#X connect 4 0 2 1;
#X restore 445 204 pd rescale_shape;
#N canvas 92 117 450 300 shape_mod 0;
#X obj 148 163 +;
#X obj 148 94 inlet;
#X obj 218 95 inlet;
#X obj 218 119 t b f;
#X obj 148 232 outlet;
#X obj 148 187 clip 0 1;
#X connect 0 0 5 0;
#X connect 1 0 0 0;
#X connect 2 0 3 0;
#X connect 3 0 0 0;
#X connect 3 1 0 1;
#X connect 5 0 4 0;
#X restore 391 259 pd shape_mod;
#X obj 474 174 cnv 19 64 24 empty empty empty 20 12 0 12 #c6ffc7 #404040 0;
#X obj 445 178 r \$0-o1_shape_mod;
#X connect 1 0 22 4;
#X connect 2 0 1 0;
#X connect 10 0 19 1;
#X connect 12 0 22 2;
#X connect 14 0 36 0;
#X connect 16 0 34 0;
#X connect 19 0 22 0;
#X connect 19 1 20 0;
#X connect 20 0 9 0;
#X connect 22 0 6 0;
#X connect 29 0 22 1;
#X connect 30 0 19 0;
#X connect 31 0 34 1;
#X connect 33 0 31 0;
#X connect 34 0 2 0;
#X connect 35 0 36 1;
#X connect 36 0 22 3;
#X connect 38 0 35 0;
#X restore 60 486 pd oscillator_1;
#X f 23;
#N canvas 92 117 1211 812 oscillator_2 0;
#N canvas 1 83 450 300 reference 0;
#X text 275 189 signal~ [-1 \, 1];
#X text 39 189 Outlet 1: Oscillator 2 output;
#X text 40 45 Inlet 1: (Coarse) Frequency control;
#X text 39 64 Inlet 2: Fine (Frequency) control;
#X text 39 83 Inlet 3: Shape control;
#X text 38 102 Inlet 4: Pulse Width control;
#X text 37 121 Inlet 5: Low Freq On/Off;
#X text 38 141 Inlet 6: Keyboard On/Off;
#X restore 1066 31 pd reference;
#X floatatom 305 275 7 0 0 0 - - - 0;
#X floatatom 213 275 4 0 0 0 - - - 0;
#X obj 612 425 line;
#X msg 612 400 \$1 100;
#X text 531 405 Smoothing:;
#X floatatom 803 511 10 0 0 0 - - - 0;
#X obj 335 704 cnv 19 96 32 empty empty empty 20 12 0 12 #e3c6ff #404040 0;
#X obj 355 711 outlet~;
#X obj 274 112 cnv 19 64 24 empty empty empty 20 12 0 12 #feffc6 #404040 0;
#X obj 285 115 inlet;
#X obj 785 111 cnv 19 64 24 empty empty empty 20 12 0 12 #feffc6 #404040 0;
#X obj 891 114 cnv 19 64 24 empty empty empty 20 12 0 12 #feffc6 #404040 0;
#X obj 795 116 inlet;
#X obj 903 116 inlet;
#X obj 157 114 cnv 19 64 24 empty empty empty 20 12 0 12 #feffc6 #404040 0;
#X obj 169 117 inlet;
#N canvas 160 371 510 549 keyboard_control 0;
#X obj 203 101 inlet;
#X obj 211 449 outlet;
#X obj 203 150 select 0 1;
#X msg 251 225 1;
#X obj 250 262 tgl 19 0 empty empty empty 0 -10 0 12 #fcfcfc #000000 #000000 0 1;
#X msg 196 224 0;
#X obj 357 181 loadbang;
#X msg 283 225 0;
#X msg 165 224 1;
#X obj 184 260 tgl 19 0 empty empty empty 0 -10 0 12 #fcfcfc #000000 #000000 0 1;
#X obj 153 377 spigot;
#X msg 153 351 60;
#X obj 263 378 spigot;
#X obj 263 349 f;
#X obj 250 308 bng 19 250 50 0 empty empty empty 0 -10 0 12 #fcfcfc #000000 #000000;
#X text 347 160 (Default On);
#X obj 357 104 inlet;
#X text 165 77 Keyboard On/Off;
#X text 31 339 Keyboard Off \; default Note Nr:;
#X text 83 449 Post MIDI Note Nr;
#X text 332 75 (Pre) MIDI Note Nr;
#X connect 0 0 2 0;
#X connect 2 0 5 0;
#X connect 2 0 8 0;
#X connect 2 1 3 0;
#X connect 2 1 7 0;
#X connect 3 0 4 0;
#X connect 4 0 12 1;
#X connect 4 0 14 0;
#X connect 5 0 4 0;
#X connect 6 0 3 0;
#X connect 7 0 9 0;
#X connect 8 0 9 0;
#X connect 9 0 10 1;
#X connect 9 0 11 0;
#X connect 10 0 1 0;
#X connect 11 0 10 0;
#X connect 12 0 1 0;
#X connect 13 0 12 0;
#X connect 14 0 13 0;
#X connect 16 0 13 0;
#X restore 903 186 pd keyboard_control;
#N canvas 70 362 701 649 lfo_mode 0;
#X obj 250 108 inlet;
#X obj 509 104 inlet;
#X obj 170 574 outlet;
#X obj 550 581 outlet;
#X text 483 78 Pre Freqency:;
#X obj 250 170 select 0 1;
#X floatatom 366 458 9 0 0 0 - - - 0;
#X msg 296 229 1;
#X msg 328 230 0;
#X obj 296 263 tgl 19 0 empty empty empty 0 -10 0 12 #fcfcfc #000000 #000000 0 1;
#X obj 171 415 spigot;
#X msg 210 229 1;
#X msg 241 229 0;
#X obj 210 263 tgl 19 0 empty empty empty 0 -10 0 12 #fcfcfc #000000 #000000 0 1;
#X obj 366 392 spigot;
#X obj 366 417 expr (((50 - 0.1) / (17234.7 - 6.67928)) * ($f1 - 6.67928)) + 0.1, f 40;
#X floatatom 171 439 9 0 0 0 - - - 0;
#X obj 170 516 f;
#X obj 279 512 bng 19 250 50 0 empty empty empty 0 -10 0 12 #fcfcfc #000000 #000000;
#X text 86 423 No Change:;
#X text 296 425 Low Freq:;
#X text 455 580 Update Freq:;
#X obj 143 179 loadbang;
#X text 213 62 Low Freq On/Off:;
#X text 234 81 (LFO Mode);
#X text 123 157 (Default Off);
#X text 48 575 Post Frequency:;
#X text 519 395 (Needs rescaling!);
#X connect 0 0 5 0;
#X connect 1 0 10 0;
#X connect 1 0 14 0;
#X connect 5 0 11 0;
#X connect 5 0 12 0;
#X connect 5 1 7 0;
#X connect 5 1 8 0;
#X connect 6 0 17 0;
#X connect 7 0 9 0;
#X connect 8 0 13 0;
#X connect 9 0 14 1;
#X connect 9 0 18 0;
#X connect 10 0 16 0;
#X connect 11 0 13 0;
#X connect 12 0 9 0;
#X connect 13 0 10 1;
#X connect 13 0 18 0;
#X connect 14 0 15 0;
#X connect 15 0 6 0;
#X connect 16 0 17 0;
#X connect 17 0 2 0;
#X connect 18 0 3 0;
#X connect 22 0 11 0;
#X restore 795 462 pd lfo_mode;
#N canvas 929 172 927 588 midi2freq 0;
#X obj 327 73 inlet;
#X obj 526 77 inlet;
#X obj 132 80 inlet;
#X obj 762 85 inlet;
#X obj 532 520 outlet;
#X text 255 45 Frequency Control offset;
#X text 481 47 Fine Control offset;
#X text 740 49 Low Update;
#X obj 238 250 +;
#X floatatom 532 449 5 0 0 0 - - - 0;
#X obj 378 332 +;
#X obj 487 186 t b f;
#X obj 532 472 mtof;
#X obj 532 411 f;
#X text 436 409 Update Freq:;
#X obj 327 163 t b f;
#X text 80 47 Post MIDI Note Nr;
#X text 46 250 (Coarse) Frequency offset:;
#X text 197 329 Fine (Frequency)offset:;
#X text 423 520 Pre Frequency:;
#X connect 0 0 15 0;
#X connect 1 0 11 0;
#X connect 2 0 8 0;
#X connect 3 0 13 0;
#X connect 8 0 10 0;
#X connect 9 0 12 0;
#X connect 10 0 13 0;
#X connect 11 0 10 0;
#X connect 11 1 10 1;
#X connect 12 0 4 0;
#X connect 13 0 9 0;
#X connect 15 0 8 0;
#X connect 15 1 8 1;
#X restore 179 428 pd midi2freq;
#X f 15;
#X obj 1054 157 cnv 19 64 24 empty empty empty 20 12 0 12 #c6ffc7 #404040 0;
#X obj 599 112 cnv 19 64 24 empty empty empty 20 12 0 12 #feffc6 #404040 0;
#X obj 612 115 inlet;
#N canvas 63 123 886 832 oscillator2 0;
#X text 136 72 Note Frequency (post);
#X obj 192 108 inlet;
#X obj 410 112 inlet;
#X text 389 58 Shape control;
#X text 363 84 (Tri - Saw – Square);
#X obj 610 107 inlet;
#X text 562 68 Pulse Width modulation;
#X obj 426 764 outlet~;
#X text 271 765 Oscillator 2 Output:;
#X obj 274 419 bl.vsaw~;
#X floatatom 370 217 7 0 0 0 - - - 0;
#X floatatom 470 218 5 0 0 0 - - - 0;
#X floatatom 301 383 8 0 0 0 - - - 0;
#X floatatom 414 547 9 0 0 0 - - - 0;
#X text 150 354 Rescale: 0.5 to 1;
#X obj 589 416 bl.square~;
#X text 298 524 Rescale: 0 to 1;
#X obj 274 656 *~ 1;
#X obj 590 653 *~ 0;
#X floatatom 312 656 5 0 0 0 - - - 0;
#X obj 298 629 expr $f1 * -1 + 1;
#X text 174 420 OSC: Tri/Saw;
#X text 505 417 OSC: Square;
#X text 183 628 Rescale: 1 to 0;
#X obj 370 180 min 0.5;
#X obj 470 181 max 0.5;
#X obj 290 355 + 0.5;
#X obj 414 523 expr $f1 * 2 - 1;
#X text 284 501 For~[bl.vsaw~] <-> [bl.square~] crossfade;
#X text 152 334 Triangle <-> Sawtooth waveshape crossfade;
#X connect 1 0 9 0;
#X connect 1 0 15 0;
#X connect 2 0 24 0;
#X connect 2 0 25 0;
#X connect 5 0 15 1;
#X connect 9 0 17 0;
#X connect 10 0 26 0;
#X connect 11 0 27 0;
#X connect 13 0 20 0;
#X connect 13 0 18 1;
#X connect 15 0 18 0;
#X connect 17 0 7 0;
#X connect 18 0 7 0;
#X connect 20 0 17 1;
#X connect 20 0 19 0;
#X connect 24 0 10 0;
#X connect 25 0 11 0;
#X connect 26 0 12 0;
#X connect 26 0 9 1;
#X connect 27 0 13 0;
#X restore 354 576 pd oscillator2;
#X obj 388 118 cnv 19 64 24 empty empty empty 20 12 0 12 #feffc6 #404040 0;
#X obj 401 120 inlet;
#X text 558 28 ___ Oscillator 2 ___;
#X text 154 89 FREQUENCY;
#X text 286 87 FINE;
#X text 398 88 SHAPE;
#X text 587 83 PULSE WIDTH;
#X text 785 85 LOW FREQ;
#X text 894 83 KEYBOARD;
#X obj 1033 159 r \$0-note_nr;
#X obj 931 210 cnv 19 64 24 empty empty empty 20 12 0 12 #dfdfdf #404040 0;
#X obj 903 212 s \$0-post_note_nr;
#X obj 895 486 cnv 19 64 24 empty empty empty 20 12 0 12 #dfdfdf #404040 0;
#X obj 819 534 cnv 19 64 24 empty empty empty 20 12 0 12 #dfdfdf #404040 0;
#X obj 187 451 cnv 19 64 24 empty empty empty 20 12 0 12 #dfdfdf #404040 0;
#X obj 884 436 cnv 19 64 24 empty empty empty 20 12 0 12 #c6feff #404040 0;
#X obj 322 536 cnv 19 64 24 empty empty empty 20 12 0 12 #c6feff #404040 0;
#X obj 108 375 cnv 19 64 24 empty empty empty 20 12 0 12 #c6feff #404040 0;
#X obj 869 487 s \$0-low_update;
#X obj 795 534 s \$0-post_freq;
#X obj 179 452 s \$0-pre_freq;
#X obj 79 378 r \$0-post_note_nr;
#X obj 299 539 r \$0-post_freq;
#X obj 869 437 r \$0-pre_freq;
#X obj 312 393 cnv 19 64 24 empty empty empty 20 12 0 12 #c6feff #404040 0;
#X obj 281 397 r \$0-low_update;
#N canvas 150 175 450 300 rescale_pw 0;
#X obj 128 67 inlet;
#X obj 128 207 outlet;
#X floatatom 128 150 9 0 0 0 - - - 0;
#X obj 349 99 r bit;
#X obj 128 126 expr (($f1 * 0.96) / $f2) + 0.02;
#X text 69 106 Rescale: 0.02 to 0.98;
#X connect 0 0 4 0;
#X connect 2 0 1 0;
#X connect 3 0 4 1;
#X connect 4 0 2 0;
#X restore 672 336 pd rescale_pw;
#X obj 693 309 cnv 19 64 24 empty empty empty 20 12 0 12 #c6ffc7 #404040 0;
#N canvas 970 679 450 300 pw_mod 0;
#X obj 148 163 +;
#X obj 148 94 inlet;
#X obj 218 95 inlet;
#X obj 218 119 t b f;
#X obj 148 232 outlet;
#X obj 148 187 clip 0.02 0.98;
#X connect 0 0 5 0;
#X connect 1 0 0 0;
#X connect 2 0 3 0;
#X connect 3 0 0 0;
#X connect 3 1 0 1;
#X connect 5 0 4 0;
#X restore 612 368 pd pw_mod;
#N canvas 469 494 450 300 rescale_shape 0;
#X obj 174 44 inlet;
#X obj 175 216 outlet;
#X obj 175 127 expr $f1 / $f2;
#X text 118 106 Rescale: 0 to 1;
#X obj 270 93 r bit;
#X connect 0 0 2 0;
#X connect 2 0 1 0;
#X connect 4 0 2 1;
#X restore 482 234 pd rescale_shape;
#N canvas 92 117 450 300 shape_mod 0;
#X obj 148 163 +;
#X obj 148 94 inlet;
#X obj 218 95 inlet;
#X obj 218 119 t b f;
#X obj 148 232 outlet;
#X obj 148 187 clip 0 1;
#X connect 0 0 5 0;
#X connect 1 0 0 0;
#X connect 2 0 3 0;
#X connect 3 0 0 0;
#X connect 3 1 0 1;
#X connect 5 0 4 0;
#X restore 401 269 pd shape_mod;
#X obj 511 204 cnv 19 64 24 empty empty empty 20 12 0 12 #c6ffc7 #404040 0;
#X obj 672 311 r \$0-o2_pw_mod;
#X obj 482 208 r \$0-o2_shape_mod;
#X connect 1 0 19 2;
#X connect 2 0 19 1;
#X connect 3 0 23 2;
#X connect 4 0 3 0;
#X connect 10 0 19 2;
#X connect 13 0 18 0;
#X connect 14 0 17 0;
#X connect 16 0 19 1;
#X connect 17 0 35 0;
#X connect 18 0 6 0;
#X connect 18 0 43 0;
#X connect 18 1 42 0;
#X connect 19 0 44 0;
#X connect 22 0 52 0;
#X connect 23 0 8 0;
#X connect 25 0 54 0;
#X connect 33 0 17 1;
#X connect 45 0 19 0;
#X connect 46 0 23 0;
#X connect 47 0 18 1;
#X connect 49 0 19 3;
#X connect 50 0 52 1;
#X connect 52 0 4 0;
#X connect 53 0 54 1;
#X connect 54 0 23 1;
#X connect 56 0 50 0;
#X connect 57 0 53 0;
#X restore 60 737 pd oscillator_2;
#X f 23;
#N canvas 295 206 773 874 mixer 0;
#X obj 401 551 else/white~;
#N canvas 1322 477 450 300 reference 0;
#X text 275 189 signal~ [-1 \, 1];
#X text 36 189 Outlet 1: (summed) Mixer output;
#X text 46 51 Inlet 1: Osc 1 level control;
#X text 44 71 Inlet 2: Osc 2 level control;
#X text 43 91 Inlet 3: Sub-Octave level control;
#X text 41 112 Inlet 4: (white) Noise level control;
#X restore 622 36 pd reference;
#X obj 145 328 *~;
#X obj 256 415 *~;
#X text 90 328 Osc 1:;
#X text 203 416 Osc 2:;
#X obj 360 505 *~;
#X text 298 507 Sub-Oct:;
#X obj 467 615 *~;
#X text 411 616 Noise:;
#X text 400 531 White noise;
#X obj 150 116 cnv 19 64 24 empty empty empty 20 12 0 12 #feffc6 #404040 0;
#X obj 262 113 cnv 19 64 24 empty empty empty 20 12 0 12 #feffc6 #404040 0;
#X obj 367 112 cnv 19 64 24 empty empty empty 20 12 0 12 #feffc6 #404040 0;
#X obj 475 113 cnv 19 64 24 empty empty empty 20 12 0 12 #feffc6 #404040 0;
#X obj 163 120 inlet;
#X obj 274 117 inlet;
#X obj 378 117 inlet;
#X obj 485 119 inlet;
#X obj 98 269 cnv 19 64 24 empty empty empty 20 12 0 12 #c6ffc7 #404040 0;
#X obj 210 359 cnv 19 64 24 empty empty empty 20 12 0 12 #c6ffc7 #404040 0;
#X obj 313 446 cnv 19 64 24 empty empty empty 20 12 0 12 #c6ffc7 #404040 0;
#X obj 244 774 cnv 19 64 24 empty empty empty 20 12 0 12 #e3c6ff #404040 0;
#X obj 254 775 outlet~;
#X text 161 89 OSC 1;
#X text 273 87 OSC 2;
#X text 359 85 SUB OCTAVE;
#X text 483 85 NOISE;
#X text 286 28 ___ Mixer ___;
#X obj 88 270 r~ \$0-osc1;
#X obj 196 360 r~ \$0-osc2;
#X obj 289 449 r~ \$0-subosc;
#N canvas 92 117 450 300 level_mod 0;
#X obj 148 163 +;
#X obj 148 94 inlet;
#X obj 218 95 inlet;
#X obj 218 119 t b f;
#X obj 148 232 outlet;
#X obj 148 187 clip 0 1;
#X connect 0 0 5 0;
#X connect 1 0 0 0;
#X connect 2 0 3 0;
#X connect 3 0 0 0;
#X connect 3 1 0 1;
#X connect 5 0 4 0;
#X restore 163 221 pd level_mod;
#X obj 279 160 cnv 19 64 24 empty empty empty 20 12 0 12 #c6ffc7 #404040 0;
#N canvas 511 660 450 300 gainscale 0;
#X obj 140 128 expr ($f1 - $f2) / $f2 + 1;
#X obj 318 96 r bit;
#X text 32 127 Scale to 0-1:;
#X obj 139 39 inlet;
#X obj 140 214 outlet;
#X connect 0 0 4 0;
#X connect 1 0 0 1;
#X connect 3 0 0 0;
#X restore 244 192 pd gainscale;
#X obj 244 162 r \$0-mix_osc1_mod;
#X obj 390 227 cnv 19 64 24 empty empty empty 20 12 0 12 #c6ffc7 #404040 0;
#N canvas 511 660 450 300 gainscale 0;
#X obj 140 128 expr ($f1 - $f2) / $f2 + 1;
#X obj 318 96 r bit;
#X text 32 127 Scale to 0-1:;
#X obj 139 39 inlet;
#X obj 140 214 outlet;
#X connect 0 0 4 0;
#X connect 1 0 0 1;
#X connect 3 0 0 0;
#X restore 355 259 pd gainscale;
#X obj 494 321 cnv 19 64 24 empty empty empty 20 12 0 12 #c6ffc7 #404040 0;
#N canvas 511 660 450 300 gainscale 0;
#X obj 140 128 expr ($f1 - $f2) / $f2 + 1;
#X obj 318 96 r bit;
#X text 32 127 Scale to 0-1:;
#X obj 139 39 inlet;
#X obj 140 214 outlet;
#X connect 0 0 4 0;
#X connect 1 0 0 1;
#X connect 3 0 0 0;
#X restore 459 353 pd gainscale;
#X obj 601 395 cnv 19 64 24 empty empty empty 20 12 0 12 #c6ffc7 #404040 0;
#N canvas 511 660 450 300 gainscale 0;
#X obj 140 128 expr ($f1 - $f2) / $f2 + 1;
#X obj 318 96 r bit;
#X text 32 127 Scale to 0-1:;
#X obj 139 39 inlet;
#X obj 140 214 outlet;
#X connect 0 0 4 0;
#X connect 1 0 0 1;
#X connect 3 0 0 0;
#X restore 566 427 pd gainscale;
#X obj 355 229 r \$0-mix_osc2_mod;
#X obj 566 397 r \$0-mix_noise_mod;
#X obj 459 323 r \$0-mix_suboct_mod;
#N canvas 92 117 450 300 level_mod 0;
#X obj 148 163 +;
#X obj 148 94 inlet;
#X obj 218 95 inlet;
#X obj 218 119 t b f;
#X obj 148 232 outlet;
#X obj 148 187 clip 0 1;
#X connect 0 0 5 0;
#X connect 1 0 0 0;
#X connect 2 0 3 0;
#X connect 3 0 0 0;
#X connect 3 1 0 1;
#X connect 5 0 4 0;
#X restore 274 288 pd level_mod;
#N canvas 92 117 450 300 level_mod 0;
#X obj 148 163 +;
#X obj 148 94 inlet;
#X obj 218 95 inlet;
#X obj 218 119 t b f;
#X obj 148 232 outlet;
#X obj 148 187 clip 0 1;
#X connect 0 0 5 0;
#X connect 1 0 0 0;
#X connect 2 0 3 0;
#X connect 3 0 0 0;
#X connect 3 1 0 1;
#X connect 5 0 4 0;
#X restore 378 382 pd level_mod;
#N canvas 92 117 450 300 level_mod 0;
#X obj 148 163 +;
#X obj 148 94 inlet;
#X obj 218 95 inlet;
#X obj 218 119 t b f;
#X obj 148 232 outlet;
#X obj 148 187 clip 0 1;
#X connect 0 0 5 0;
#X connect 1 0 0 0;
#X connect 2 0 3 0;
#X connect 3 0 0 0;
#X connect 3 1 0 1;
#X connect 5 0 4 0;
#X restore 485 457 pd level_mod;
#X obj 171 276 line;
#X text 93 251 Smoothing:;
#X obj 282 343 line;
#X text 204 318 Smoothing:;
#X obj 387 439 line;
#X text 309 414 Smoothing:;
#X obj 495 515 line;
#X text 417 490 Smoothing:;
#X msg 387 414 \$1 50;
#X msg 282 318 \$1 50;
#X msg 171 251 \$1 50;
#X msg 495 490 \$1 50;
#X connect 0 0 8 0;
#X connect 2 0 23 0;
#X connect 3 0 23 0;
#X connect 6 0 23 0;
#X connect 8 0 23 0;
#X connect 15 0 32 0;
#X connect 16 0 45 0;
#X connect 17 0 46 0;
#X connect 18 0 47 0;
#X connect 29 0 2 0;
#X connect 30 0 3 0;
#X connect 31 0 6 0;
#X connect 32 0 58 0;
#X connect 34 0 32 1;
#X connect 35 0 34 0;
#X connect 37 0 45 1;
#X connect 39 0 46 1;
#X connect 41 0 47 1;
#X connect 42 0 37 0;
#X connect 43 0 41 0;
#X connect 44 0 39 0;
#X connect 45 0 57 0;
#X connect 46 0 56 0;
#X connect 47 0 59 0;
#X connect 48 0 2 1;
#X connect 50 0 3 1;
#X connect 52 0 6 1;
#X connect 54 0 8 1;
#X connect 56 0 52 0;
#X connect 57 0 50 0;
#X connect 58 0 48 0;
#X connect 59 0 54 0;
#X restore 452 199 pd mixer;
#X f 16;
#N canvas 1108 173 1000 925 low-pass_filter 0;
#X text 471 747 Four-pole resonant Low-Pass Filter;
#N canvas 1335 171 450 300 reference 0;
#X text 299 190 signal~ [-1 \, 1];
#X text 40 43 Inlet 1: Cutoff control;
#X text 39 61 Inlet 2: Resonance control;
#X text 39 121 Inlet 5: Keyboard Tracking (Off/Half/Full);
#X text 39 82 Inlet 3: Envelope Amount control;
#X text 37 101 Inlet 4: Velocity modulation On/Off;
#X text 31 189 Outlet 1: Low-Pass Filtered output;
#X restore 830 62 pd reference;
#X obj 97 584 cnv 19 64 24 empty empty empty 20 12 0 12 #c6ffc7 #404040 0;
#X obj 331 794 cnv 19 64 24 empty empty empty 20 12 0 12 #e3c6ff #404040 0;
#X obj 338 795 outlet~;
#X obj 161 183 cnv 19 64 24 empty empty empty 20 12 0 12 #feffc6 #404040 0;
#X obj 630 184 cnv 19 64 24 empty empty empty 20 12 0 12 #feffc6 #404040 0;
#X obj 492 182 cnv 19 64 24 empty empty empty 20 12 0 12 #feffc6 #404040 0;
#X obj 763 182 cnv 19 64 24 empty empty empty 20 12 0 12 #feffc6 #404040 0;
#X obj 168 185 inlet;
#X obj 504 185 inlet;
#X obj 641 186 inlet;
#X obj 775 185 inlet;
#X obj 343 184 cnv 19 64 24 empty empty empty 20 12 0 12 #feffc6 #404040 0;
#X obj 349 186 inlet;
#X text 146 796 Low-Pass filtered output:;
#X obj 258 720 else/svfilter~;
#X obj 338 757 else/svfilter~;
#X text 468 764 (2x else/svfilter~ (two-pole each) in series);
#X obj 607 479 cnv 19 64 24 empty empty empty 20 12 0 12 #c6ffc7 #404040 0;
#X text 545 456 Filter Envelope signal~;
#N canvas 365 362 1115 662 cutoff_freq 0;
#X obj 131 110 inlet;
#X obj 284 113 inlet;
#X obj 430 114 inlet;
#X obj 966 118 inlet~;
#X text 112 81 MIDI Note Nr;
#X text 262 83 Cutoff value;
#X text 402 84 Keyboard Track;
#X text 936 85 Filter Envelope;
#X text 568 83 Envelope Amount;
#X obj 598 118 inlet;
#X obj 430 171 select 0 1 2;
#X msg 430 199 0;
#X msg 460 199 0.5;
#X msg 490 199 1;
#X text 412 149 0% / 50& / 100%;
#X obj 460 242 t b f;
#X obj 131 216 mtof;
#X msg 631 204 8;
#X obj 599 245 * 8;
#X obj 631 181 loadbang;
#X text 629 158 Env depth;
#X obj 811 356 *~;
#X obj 486 451 *~;
#X obj 283 193 t b f;
#X obj 131 367 *;
#X obj 131 450 +;
#X obj 130 525 +~;
#X obj 130 580 outlet~;
#X obj 761 119 inlet;
#X text 723 83 Velocity modulation;
#N canvas 1217 319 611 523 velocity_mod 0;
#X obj 325 231 spigot;
#X msg 246 265 1;
#N canvas 991 97 450 300 rescale_vel 0;
#X obj 177 62 inlet;
#X obj 177 121 expr $f1 / $f2;
#X obj 272 97 r bit;
#X obj 177 187 outlet;
#X connect 0 0 1 0;
#X connect 1 0 3 0;
#X connect 2 0 1 1;
#X restore 325 136 pd rescale_vel;
#X text 323 87 Note velocity;
#X obj 245 114 inlet;
#X text 171 114 VELOCITY;
#X obj 347 110 cnv 19 64 24 empty empty empty 20 12 0 12 #c6ffc7 #404040 0;
#X obj 277 410 outlet;
#X obj 246 231 select 0;
#X obj 325 112 r \$0-note_vel;
#X connect 0 0 7 0;
#X connect 1 0 7 0;
#X connect 2 0 0 0;
#X connect 4 0 0 1;
#X connect 4 0 8 0;
#X connect 8 0 1 0;
#X connect 9 0 2 0;
#X restore 761 192 pd velocity_mod;
#X text 769 170 Velocity mod:;
#X obj 678 295 *;
#X obj 731 246 t b f;
#X connect 0 0 16 0;
#X connect 1 0 23 0;
#X connect 2 0 10 0;
#X connect 3 0 21 1;
#X connect 9 0 18 0;
#X connect 10 0 11 0;
#X connect 10 1 12 0;
#X connect 10 2 13 0;
#X connect 11 0 15 0;
#X connect 12 0 15 0;
#X connect 13 0 15 0;
#X connect 15 0 24 0;
#X connect 15 1 24 1;
#X connect 16 0 22 0;
#X connect 16 0 24 0;
#X connect 17 0 18 1;
#X connect 18 0 32 0;
#X connect 19 0 17 0;
#X connect 21 0 22 1;
#X connect 22 0 26 1;
#X connect 23 0 25 0;
#X connect 23 1 25 1;
#X connect 24 0 25 0;
#X connect 25 0 26 0;
#X connect 26 0 27 0;
#X connect 28 0 30 0;
#X connect 30 0 33 0;
#X connect 32 0 21 0;
#X connect 33 0 32 0;
#X connect 33 1 32 1;
#X restore 385 544 pd cutoff_freq;
#X obj 227 471 cnv 19 64 24 empty empty empty 20 12 0 12 #c6ffc7 #404040 0;
#X text 208 449 MIDI Note nr;
#N canvas 1076 632 450 300 clip 0;
#X obj 134 62 inlet~;
#X obj 134 200 outlet~;
#X obj 134 141 clip~ 20 22050;
#X obj 229 62 loadbang;
#X obj 229 86 samplerate~;
#X obj 229 110 / 2;
#X connect 0 0 2 0;
#X connect 2 0 1 0;
#X connect 3 0 4 0;
#X connect 4 0 5 0;
#X connect 5 0 2 2;
#X restore 385 638 pd clip;
#X text 386 58 ___ Low-Pass Filter ___;
#X text 164 152 CUTOFF;
#X text 336 150 RESONANCE;
#X text 490 148 ENV AMOUNT;
#X text 630 151 VELOCITY;
#X text 767 148 KEYBOARD;
#X obj 564 482 r~ \$0-filter_env;
#X obj 209 474 r \$0-note_nr;
#N canvas 970 679 450 300 cutoff_mod 0;
#X obj 148 163 +;
#X obj 148 94 inlet;
#X obj 218 95 inlet;
#X obj 218 119 t b f;
#X obj 148 232 outlet;
#X obj 148 187 clip 50 20000;
#X connect 0 0 5 0;
#X connect 1 0 0 0;
#X connect 2 0 3 0;
#X connect 3 0 0 0;
#X connect 3 1 0 1;
#X connect 5 0 4 0;
#X restore 168 264 pd cutoff_mod;
#X obj 220 207 cnv 19 64 24 empty empty empty 20 12 0 12 #c6ffc7 #404040 0;
#X obj 281 354 line;
#X text 203 329 Smoothing:;
#X floatatom 184 373 12 0 0 0 - - - 0;
#X obj 201 211 r \$0-lpf_cutoff_mod;
#X msg 281 329 \$1 50;
#N canvas 692 578 450 300 rescale_res 0;
#X obj 338 104 r bit;
#X obj 89 66 inlet;
#X obj 89 203 outlet;
#X obj 89 131 expr $f1 / $f2;
#X text 95 111 Rescale: 0 to 1;
#X connect 0 0 3 1;
#X connect 1 0 3 0;
#X connect 3 0 2 0;
#X restore 359 268 pd rescale_res;
#X obj 378 239 cnv 19 64 24 empty empty empty 20 12 0 12 #c6ffc7 #404040 0;
#X obj 359 243 r \$0-lpf_res_mod;
#N canvas 725 436 450 300 resonance_mod 0;
#X obj 148 163 +;
#X obj 148 94 inlet;
#X obj 218 95 inlet;
#X obj 218 119 t b f;
#X obj 148 232 outlet;
#X obj 148 187 clip 0 1;
#X connect 0 0 5 0;
#X connect 1 0 0 0;
#X connect 2 0 3 0;
#X connect 3 0 0 0;
#X connect 3 1 0 1;
#X connect 5 0 4 0;
#X restore 349 302 pd resonance_mod;
#N canvas 181 747 450 300 rescale_cutoff 0;
#X obj 124 33 inlet;
#X obj 171 247 outlet;
#X obj 366 169 r bit;
#X text 54 193 Rescale:;
#X obj 124 193 expr ($f1 * 19950) / $f2 + 50;
#X text 139 111 (Linear modulation response);
#X connect 0 0 4 0;
#X connect 2 0 4 1;
#X connect 4 0 1 0;
#X restore 201 238 pd rescale_cutoff;
#X text 35 561 High-Pass Filtered signal~;
#X obj 89 586 r~ \$0-hpf;
#X connect 9 0 33 0;
#X connect 10 0 21 3;
#X connect 11 0 21 4;
#X connect 12 0 21 2;
#X connect 14 0 43 0;
#X connect 16 0 17 0;
#X connect 17 0 4 0;
#X connect 21 0 24 0;
#X connect 24 0 16 1;
#X connect 24 0 17 1;
#X connect 31 0 21 5;
#X connect 32 0 21 0;
#X connect 33 0 39 0;
#X connect 35 0 21 1;
#X connect 35 0 37 0;
#X connect 38 0 44 0;
#X connect 39 0 35 0;
#X connect 40 0 43 1;
#X connect 42 0 40 0;
#X connect 43 0 16 2;
#X connect 44 0 33 1;
#X connect 46 0 16 0;
#X restore 434 711 pd low-pass_filter;
#X f 26;
#N canvas 172 220 879 677 filter_envelope 0;
#X obj 328 480 else/adsr~, f 21;
#X obj 142 179 cnv 19 64 24 empty empty empty 20 12 0 12 #feffc6 #404040 0;
#X obj 283 173 cnv 19 64 24 empty empty empty 20 12 0 12 #feffc6 #404040 0;
#X obj 451 175 cnv 19 64 24 empty empty empty 20 12 0 12 #feffc6 #404040 0;
#X obj 605 183 cnv 19 64 24 empty empty empty 20 12 0 12 #feffc6 #404040 0;
#X obj 153 180 inlet;
#X obj 306 176 inlet;
#X obj 618 185 inlet;
#X obj 461 177 inlet;
#X obj 324 542 cnv 19 64 24 empty empty empty 20 12 0 12 #e3c6ff #404040 0;
#X obj 328 544 outlet~;
#X obj 472 530 tgl 40 0 empty empty empty 17 7 0 10 #dcdcdc #000000 #000000 0 1;
#X obj 472 582 switch~;
#N canvas 1193 517 450 300 reference 0;
#X text 275 189 signal~ [0 \, 1];
#X text 40 102 Inlet 3: Sustain (0-1);
#X text 31 189 Outlet 1: Filter Envelope output;
#X text 39 61 Inlet 1: Attack (1-20 \, 0 ms);
#X text 39 81 Inlet 2: Decay (1-20 \, 0 ms);
#X text 40 121 Inlet 4: Release (1-20 \, 0 ms);
#X restore 736 44 pd reference;
#X obj 106 369 cnv 19 64 24 empty empty empty 20 12 0 12 #c6ffc7 #404040 0;
#X text 404 607 Turn off DSP when inactive;
#X obj 71 397 * 127;
#X text 325 61 ___ Filter Envelope ___;
#X text 149 147 ATTACK;
#X text 306 140 DECAY;
#X text 454 142 SUSTAIN;
#X text 612 146 RELEASE;
#X obj 71 373 r \$0-note_gate;
#N canvas 85 510 450 300 rescale_S 0;
#X floatatom 137 147 9 0 0 0 - - - 0;
#X text 146 103 Rescale: 0 to 1;
#X obj 136 53 inlet;
#X obj 137 211 outlet;
#X obj 316 93 r bit;
#X obj 137 123 expr $f1 / $f2;
#X connect 0 0 3 0;
#X connect 2 0 5 0;
#X connect 4 0 5 1;
#X connect 5 0 0 0;
#X restore 473 253 pd rescale_S;
#X obj 184 224 cnv 19 64 24 empty empty empty 20 12 0 12 #c6ffc7 #404040 0;
#N canvas 970 679 450 300 attack_mod 0;
#X obj 148 163 +;
#X obj 148 94 inlet;
#X obj 218 95 inlet;
#X obj 218 119 t b f;
#X obj 148 232 outlet;
#X obj 148 187 clip 1 20000;
#X connect 0 0 5 0;
#X connect 1 0 0 0;
#X connect 2 0 3 0;
#X connect 3 0 0 0;
#X connect 3 1 0 1;
#X connect 5 0 4 0;
#X restore 154 284 pd attack_mod;
#X obj 336 224 cnv 19 64 24 empty empty empty 20 12 0 12 #c6ffc7 #404040 0;
#N canvas 970 679 450 300 decay_mod 0;
#X obj 148 163 +;
#X obj 148 94 inlet;
#X obj 218 95 inlet;
#X obj 218 119 t b f;
#X obj 148 232 outlet;
#X obj 148 187 clip 1 20000;
#X connect 0 0 5 0;
#X connect 1 0 0 0;
#X connect 2 0 3 0;
#X connect 3 0 0 0;
#X connect 3 1 0 1;
#X connect 5 0 4 0;
#X restore 306 285 pd decay_mod;
#X obj 492 224 cnv 19 64 24 empty empty empty 20 12 0 12 #c6ffc7 #404040 0;
#N canvas 725 436 450 300 sustain_mod 0;
#X obj 148 163 +;
#X obj 148 94 inlet;
#X obj 218 95 inlet;
#X obj 218 119 t b f;
#X obj 148 232 outlet;
#X obj 148 187 clip 0 1;
#X connect 0 0 5 0;
#X connect 1 0 0 0;
#X connect 2 0 3 0;
#X connect 3 0 0 0;
#X connect 3 1 0 1;
#X connect 5 0 4 0;
#X restore 461 284 pd sustain_mod;
#X obj 650 221 cnv 19 64 24 empty empty empty 20 12 0 12 #c6ffc7 #404040 0;
#N canvas 970 679 450 300 release_mod 0;
#X obj 148 163 +;
#X obj 148 94 inlet;
#X obj 218 95 inlet;
#X obj 218 119 t b f;
#X obj 148 232 outlet;
#X obj 148 187 clip 1 20000;
#X connect 0 0 5 0;
#X connect 1 0 0 0;
#X connect 2 0 3 0;
#X connect 3 0 0 0;
#X connect 3 1 0 1;
#X connect 5 0 4 0;
#X restore 618 284 pd release_mod;
#X obj 165 228 r \$0-filt_env_A_mod;
#X obj 317 228 r \$0-filt_env_D_mod;
#X obj 473 228 r \$0-filt_env_S_mod;
#X obj 631 225 r \$0-filt_env_R_mod;
#N canvas 1293 547 450 300 rescale_R 0;
#X obj 124 33 inlet;
#X obj 171 247 outlet;
#X obj 366 169 r bit;
#X text 54 193 Rescale:;
#X obj 124 193 expr ($f1 * 19999) / $f2 + 1;
#X text 166 112 (linear modulation);
#X connect 0 0 4 0;
#X connect 2 0 4 1;
#X connect 4 0 1 0;
#X restore 631 250 pd rescale_R;
#N canvas 1293 547 450 300 rescale_D 0;
#X obj 124 33 inlet;
#X obj 171 247 outlet;
#X obj 366 169 r bit;
#X text 54 193 Rescale:;
#X obj 124 193 expr ($f1 * 19999) / $f2 + 1;
#X text 166 112 (linear modulation);
#X connect 0 0 4 0;
#X connect 2 0 4 1;
#X connect 4 0 1 0;
#X restore 317 253 pd rescale_D;
#N canvas 1293 547 450 300 rescale_A 0;
#X obj 124 33 inlet;
#X obj 171 247 outlet;
#X obj 366 169 r bit;
#X text 54 193 Rescale:;
#X obj 124 193 expr ($f1 * 19999) / $f2 + 1;
#X text 166 112 (linear modulation);
#X connect 0 0 4 0;
#X connect 2 0 4 1;
#X connect 4 0 1 0;
#X restore 165 253 pd rescale_A;
#X connect 0 0 10 0;
#X connect 0 1 11 0;
#X connect 5 0 25 0;
#X connect 6 0 27 0;
#X connect 7 0 31 0;
#X connect 8 0 29 0;
#X connect 11 0 12 0;
#X connect 16 0 0 0;
#X connect 22 0 16 0;
#X connect 23 0 29 1;
#X connect 25 0 0 2;
#X connect 27 0 0 3;
#X connect 29 0 0 4;
#X connect 31 0 0 5;
#X connect 32 0 38 0;
#X connect 33 0 37 0;
#X connect 34 0 23 0;
#X connect 35 0 36 0;
#X connect 36 0 31 1;
#X connect 37 0 27 1;
#X connect 38 0 25 1;
#X restore 784 474 pd filter_envelope;
#X f 26;
#N canvas 506 167 1101 785 amplifier_envelope 0;
#X obj 336 556 else/adsr~, f 21;
#X obj 161 225 cnv 19 64 24 empty empty empty 20 12 0 12 #feffc6 #404040 0;
#X obj 281 224 cnv 19 64 24 empty empty empty 20 12 0 12 #feffc6 #404040 0;
#X obj 382 225 cnv 19 64 24 empty empty empty 20 12 0 12 #feffc6 #404040 0;
#X obj 535 224 cnv 19 64 24 empty empty empty 20 12 0 12 #feffc6 #404040 0;
#X obj 690 224 cnv 19 64 24 empty empty empty 20 12 0 12 #feffc6 #404040 0;
#X obj 848 222 cnv 19 64 24 empty empty empty 20 12 0 12 #feffc6 #404040 0;
#X obj 172 228 inlet;
#X obj 290 226 inlet;
#X obj 393 226 inlet;
#X obj 545 227 inlet;
#X obj 857 224 inlet;
#X obj 700 226 inlet;
#X floatatom 316 452 5 0 0 0 - - - 0;
#X obj 313 679 cnv 19 64 24 empty empty empty 20 12 0 12 #e3c6ff #404040 0;
#X obj 317 681 outlet~;
#X obj 480 608 tgl 40 0 empty empty empty 17 7 0 10 #dcdcdc #000000 #000000 0 1;
#X obj 480 660 switch~;
#X obj 317 635 *~;
#N canvas 1193 517 450 300 reference 0;
#X text 41 25 Inlet 1: Envelope Amount control;
#X text 40 43 Inlet 2: Velocity modulation On/Off;
#X text 40 102 Inlet 5: Sustain (0-1);
#X text 275 189 signal~ [0 \, 1];
#X text 31 189 Outlet 1: Amp Envelope output;
#X text 39 61 Inlet 3: Attack (1-20 \, 0 ms);
#X text 39 81 Inlet 4: Decay (1-20 \, 0 ms);
#X text 40 121 Inlet 6: Release (1-20 \, 0 ms);
#X restore 963 51 pd reference;
#X obj 146 354 cnv 19 64 24 empty empty empty 20 12 0 12 #c6ffc7 #404040 0;
#X text 227 636 Env Amount:;
#X text 412 683 Turn off DSP when inactive;
#X obj 262 356 cnv 19 64 24 empty empty empty 20 12 0 12 #c6ffc7 #404040 0;
#X text 168 428 Gate w/Velocity mod:;
#N canvas 881 408 661 550 gate 0;
#X obj 408 258 spigot;
#X obj 192 164 select 0;
#X msg 192 191 1;
#X msg 245 191 0;
#X obj 184 264 spigot;
#X obj 463 68 inlet;
#X obj 312 457 outlet;
#X obj 266 71 inlet;
#X text 417 43 Velocity Mod On/Off;
#X text 372 259 On:;
#X text 143 263 Off:;
#X obj 78 65 inlet;
#X text 251 48 Velocity;
#X obj 78 89 * 127;
#X text 77 41 Gate;
#X obj 78 346 select 0;
#X msg 78 370 0;
#X text 9 346 Note off:;
#X connect 0 0 6 0;
#X connect 1 0 2 0;
#X connect 1 1 3 0;
#X connect 2 0 4 1;
#X connect 3 0 4 1;
#X connect 4 0 6 0;
#X connect 5 0 1 0;
#X connect 5 0 0 1;
#X connect 7 0 0 0;
#X connect 11 0 13 0;
#X connect 13 0 15 0;
#X connect 13 0 4 0;
#X connect 15 0 16 0;
#X connect 16 0 6 0;
#X restore 316 428 pd gate;
#X text 449 72 ___ Amplifier Envelope ___;
#X text 155 194 ENV AMOUNT;
#X text 280 193 VELOCITY;
#X text 391 193 ATTACK;
#X text 548 193 DECAY;
#X text 697 194 SUSTAIN;
#X text 851 194 RELEASE;
#X obj 112 356 r \$0-note_gate;
#X obj 235 357 r \$0-note_vel;
#N canvas 85 510 450 300 rescale_S 0;
#X floatatom 137 147 9 0 0 0 - - - 0;
#X text 146 103 Rescale: 0 to 1;
#X obj 136 53 inlet;
#X obj 137 211 outlet;
#X obj 316 93 r bit;
#X obj 137 123 expr $f1 / $f2;
#X connect 0 0 3 0;
#X connect 2 0 5 0;
#X connect 4 0 5 1;
#X connect 5 0 0 0;
#X restore 712 344 pd rescale_S;
#X obj 423 315 cnv 19 64 24 empty empty empty 20 12 0 12 #c6ffc7 #404040 0;
#N canvas 970 679 450 300 attack_mod 0;
#X obj 148 163 +;
#X obj 148 94 inlet;
#X obj 218 95 inlet;
#X obj 218 119 t b f;
#X obj 148 232 outlet;
#X obj 148 187 clip 1 20000;
#X connect 0 0 5 0;
#X connect 1 0 0 0;
#X connect 2 0 3 0;
#X connect 3 0 0 0;
#X connect 3 1 0 1;
#X connect 5 0 4 0;
#X restore 393 375 pd attack_mod;
#X obj 575 315 cnv 19 64 24 empty empty empty 20 12 0 12 #c6ffc7 #404040 0;
#N canvas 970 679 450 300 decay_mod 0;
#X obj 148 163 +;
#X obj 148 94 inlet;
#X obj 218 95 inlet;
#X obj 218 119 t b f;
#X obj 148 232 outlet;
#X obj 148 187 clip 1 20000;
#X connect 0 0 5 0;
#X connect 1 0 0 0;
#X connect 2 0 3 0;
#X connect 3 0 0 0;
#X connect 3 1 0 1;
#X connect 5 0 4 0;
#X restore 545 376 pd decay_mod;
#X obj 731 315 cnv 19 64 24 empty empty empty 20 12 0 12 #c6ffc7 #404040 0;
#N canvas 725 436 450 300 sustain_mod 0;
#X obj 148 163 +;
#X obj 148 94 inlet;
#X obj 218 95 inlet;
#X obj 218 119 t b f;
#X obj 148 232 outlet;
#X obj 148 187 clip 0 1;
#X connect 0 0 5 0;
#X connect 1 0 0 0;
#X connect 2 0 3 0;
#X connect 3 0 0 0;
#X connect 3 1 0 1;
#X connect 5 0 4 0;
#X restore 700 375 pd sustain_mod;
#X obj 889 312 cnv 19 64 24 empty empty empty 20 12 0 12 #c6ffc7 #404040 0;
#N canvas 970 679 450 300 release_mod 0;
#X obj 148 163 +;
#X obj 148 94 inlet;
#X obj 218 95 inlet;
#X obj 218 119 t b f;
#X obj 148 232 outlet;
#X obj 148 187 clip 1 20000;
#X connect 0 0 5 0;
#X connect 1 0 0 0;
#X connect 2 0 3 0;
#X connect 3 0 0 0;
#X connect 3 1 0 1;
#X connect 5 0 4 0;
#X restore 857 375 pd release_mod;
#X obj 404 319 r \$0-amp_env_A_mod;
#X obj 556 319 r \$0-amp_env_D_mod;
#X obj 712 319 r \$0-amp_env_S_mod;
#X obj 870 316 r \$0-amp_env_R_mod;
#X obj 686 439 line;
#X text 608 414 Smoothing:;
#X msg 686 414 \$1 100;
#N canvas 1293 547 450 300 rescale_A 0;
#X obj 124 33 inlet;
#X obj 171 247 outlet;
#X obj 366 169 r bit;
#X text 54 193 Rescale:;
#X obj 124 193 expr ($f1 * 19999) / $f2 + 1;
#X text 166 112 (linear modulation);
#X connect 0 0 4 0;
#X connect 2 0 4 1;
#X connect 4 0 1 0;
#X restore 404 344 pd rescale_A;
#N canvas 1293 547 450 300 rescale_D 0;
#X obj 124 33 inlet;
#X obj 171 247 outlet;
#X obj 366 169 r bit;
#X text 54 193 Rescale:;
#X obj 124 193 expr ($f1 * 19999) / $f2 + 1;
#X text 166 112 (linear modulation);
#X connect 0 0 4 0;
#X connect 2 0 4 1;
#X connect 4 0 1 0;
#X restore 556 344 pd rescale_D;
#N canvas 1293 547 450 300 rescale_R 0;
#X obj 124 33 inlet;
#X obj 171 247 outlet;
#X obj 366 169 r bit;
#X text 54 193 Rescale:;
#X obj 124 193 expr ($f1 * 19999) / $f2 + 1;
#X text 166 112 (linear modulation);
#X connect 0 0 4 0;
#X connect 2 0 4 1;
#X connect 4 0 1 0;
#X restore 870 341 pd rescale_R;
#X connect 0 0 18 0;
#X connect 0 1 16 0;
#X connect 7 0 18 1;
#X connect 8 0 25 2;
#X connect 9 0 37 0;
#X connect 10 0 39 0;
#X connect 11 0 43 0;
#X connect 12 0 41 0;
#X connect 13 0 0 0;
#X connect 16 0 17 0;
#X connect 18 0 15 0;
#X connect 25 0 13 0;
#X connect 33 0 25 0;
#X connect 34 0 25 1;
#X connect 35 0 41 1;
#X connect 37 0 0 2;
#X connect 39 0 0 3;
#X connect 41 0 50 0;
#X connect 43 0 0 5;
#X connect 44 0 51 0;
#X connect 45 0 52 0;
#X connect 46 0 35 0;
#X connect 47 0 53 0;
#X connect 48 0 0 4;
#X connect 50 0 48 0;
#X connect 51 0 37 1;
#X connect 52 0 39 1;
#X connect 53 0 43 1;
#X restore 786 724 pd amplifier_envelope;
#X f 29;
#X obj 844 167 *~;
#X obj 906 115 r~ \$0-amp_env;
#X obj 785 116 r~ \$0-lpf;
#N canvas 767 387 845 565 modulation 0;
#X text 353 52 --- Modulation ---;
#N canvas 197 31 1414 1089 press_mod 0;
#X obj 698 1028 s \$0-o1_pw_mod;
#X obj 371 206 pack f f;
#X obj 371 141 t b f, f 8;
#X obj 698 1005 *;
#X obj 966 796 *;
#X obj 199 246 t b f;
#X msg 199 207 0;
#X obj 199 175 change;
#X obj 201 139 t f f;
#X obj 792 207 pack f f;
#X obj 792 140 t b f, f 8;
#X obj 830 277 t b f;
#X obj 1003 323 t b f;
#X obj 668 1028 *;
#X obj 668 1051 s \$0-o1_shape_mod;
#X obj 811 254 t b f;
#X obj 849 300 t b f;
#X obj 758 958 *;
#X obj 728 981 *;
#X obj 728 1004 s \$0-o2_shape_mod;
#X obj 758 981 s \$0-o2_pw_mod;
#X obj 868 323 t b f;
#X obj 818 912 *;
#X obj 788 935 *;
#X obj 878 865 *;
#X obj 848 888 *;
#X obj 878 888 s \$0-mix_noise_mod;
#X obj 788 958 s \$0-mix_osc1_mod;
#X obj 818 935 s \$0-mix_osc2_mod;
#X obj 848 911 s \$0-mix_suboct_mod;
#X obj 907 369 t b f;
#X obj 887 346 t b f;
#X obj 926 392 t b f;
#X obj 945 254 t b f;
#X obj 371 230 route 0 1 2 3 4 5 6 7 8 9 10 11 12 13 14 15 16 17 18 19 20;
#X obj 792 231 route 0 1 2 3 4 5 6 7 8 9 10 11 12 13 14 15 16 17 18 19 20;
#X obj 966 819 s \$0-lpf_cutoff_mod;
#X obj 996 773 *;
#X obj 996 796 s \$0-lpf_res_mod;
#X obj 1022 346 t b f;
#X obj 964 277 t b f;
#X obj 983 300 t b f;
#X obj 907 842 *;
#X obj 937 819 *;
#X obj 907 865 s \$0-hpf_cutoff_mod;
#X obj 937 842 s \$0-hpf_res_mod;
#X text 62 177 Reset modulation \; before changing \; mod destination:;
#X text 620 33 ___ Press ___;
#X obj 152 726 ctlin, f 15;
#X floatatom 153 787 5 0 0 0 - - - 0;
#X floatatom 204 822 5 0 0 0 - - - 0;
#X obj 1084 705 *;
#X obj 1114 682 *;
#X obj 1025 751 *;
#X obj 1055 728 *;
#X obj 1025 774 s \$0-filt_env_A_mod;
#X obj 1055 751 s \$0-filt_env_D_mod;
#X obj 1084 728 s \$0-filt_env_S_mod;
#X obj 1114 705 s \$0-filt_env_R_mod;
#X obj 1203 613 *;
#X obj 1233 590 *;
#X obj 1144 659 *;
#X obj 1174 636 *;
#X obj 1041 369 t b f;
#X obj 1060 392 t b f;
#X obj 1144 682 s \$0-amp_env_A_mod;
#X obj 1174 659 s \$0-amp_env_D_mod;
#X obj 1203 636 s \$0-amp_env_S_mod;
#X obj 1233 613 s \$0-amp_env_R_mod;
#X obj 1137 323 t b f;
#X obj 1079 254 t b f;
#X obj 1156 346 t b f;
#X obj 1099 277 t b f;
#X obj 1118 300 t b f;
#X obj 1175 369 t b f;
#X text 568 53 Channel Pressure (Aftertouch);
#X obj 222 110 cnv 19 64 24 empty empty empty 20 12 0 12 #c6ffc7 #404040 0;
#X obj 201 115 r press_mod_dest;
#X obj 400 110 cnv 19 64 24 empty empty empty 20 12 0 12 #c6ffc7 #404040 0;
#X obj 821 112 cnv 19 64 24 empty empty empty 20 12 0 12 #c6ffc7 #404040 0;
#X obj 371 115 r \$0-note_press;
#X obj 792 116 r press_mod_depth;
#X connect 1 0 34 0;
#X connect 2 0 1 0;
#X connect 2 1 1 1;
#X connect 3 0 0 0;
#X connect 4 0 36 0;
#X connect 5 0 4 0;
#X connect 5 0 3 0;
#X connect 5 0 13 0;
#X connect 5 0 18 0;
#X connect 5 0 17 0;
#X connect 5 0 23 0;
#X connect 5 0 22 0;
#X connect 5 0 25 0;
#X connect 5 0 24 0;
#X connect 5 0 42 0;
#X connect 5 0 43 0;
#X connect 5 0 37 0;
#X connect 5 0 53 0;
#X connect 5 0 54 0;
#X connect 5 0 51 0;
#X connect 5 0 52 0;
#X connect 5 0 61 0;
#X connect 5 0 62 0;
#X connect 5 0 59 0;
#X connect 5 0 60 0;
#X connect 5 1 4 1;
#X connect 5 1 3 1;
#X connect 5 1 13 1;
#X connect 5 1 18 1;
#X connect 5 1 17 1;
#X connect 5 1 23 1;
#X connect 5 1 22 1;
#X connect 5 1 25 1;
#X connect 5 1 24 1;
#X connect 5 1 42 1;
#X connect 5 1 43 1;
#X connect 5 1 37 1;
#X connect 5 1 53 1;
#X connect 5 1 54 1;
#X connect 5 1 51 1;
#X connect 5 1 52 1;
#X connect 5 1 61 1;
#X connect 5 1 62 1;
#X connect 5 1 59 1;
#X connect 5 1 60 1;
#X connect 6 0 5 0;
#X connect 7 0 6 0;
#X connect 8 0 1 0;
#X connect 8 0 9 0;
#X connect 8 1 7 0;
#X connect 9 0 35 0;
#X connect 10 0 9 0;
#X connect 10 1 9 1;
#X connect 11 0 3 0;
#X connect 11 1 3 1;
#X connect 12 0 4 0;
#X connect 12 1 4 1;
#X connect 13 0 14 0;
#X connect 15 0 13 0;
#X connect 15 1 13 1;
#X connect 16 0 18 0;
#X connect 16 1 18 1;
#X connect 17 0 20 0;
#X connect 18 0 19 0;
#X connect 21 0 17 0;
#X connect 21 1 17 1;
#X connect 22 0 28 0;
#X connect 23 0 27 0;
#X connect 24 0 26 0;
#X connect 25 0 29 0;
#X connect 30 0 22 0;
#X connect 30 1 22 1;
#X connect 31 0 23 0;
#X connect 31 1 23 1;
#X connect 32 0 25 0;
#X connect 32 1 25 1;
#X connect 33 0 24 0;
#X connect 33 1 24 1;
#X connect 34 1 13 0;
#X connect 34 2 3 0;
#X connect 34 3 18 0;
#X connect 34 4 17 0;
#X connect 34 5 23 0;
#X connect 34 6 22 0;
#X connect 34 7 25 0;
#X connect 34 8 24 0;
#X connect 34 9 42 0;
#X connect 34 10 43 0;
#X connect 34 11 4 0;
#X connect 34 12 37 0;
#X connect 34 13 53 0;
#X connect 34 14 54 0;
#X connect 34 15 51 0;
#X connect 34 16 52 0;
#X connect 34 17 61 0;
#X connect 34 18 62 0;
#X connect 34 19 59 0;
#X connect 34 20 60 0;
#X connect 35 1 15 0;
#X connect 35 2 11 0;
#X connect 35 3 16 0;
#X connect 35 4 21 0;
#X connect 35 5 31 0;
#X connect 35 6 30 0;
#X connect 35 7 32 0;
#X connect 35 8 33 0;
#X connect 35 9 40 0;
#X connect 35 10 41 0;
#X connect 35 11 12 0;
#X connect 35 12 39 0;
#X connect 35 13 63 0;
#X connect 35 14 64 0;
#X connect 35 15 70 0;
#X connect 35 16 72 0;
#X connect 35 17 73 0;
#X connect 35 18 69 0;
#X connect 35 19 71 0;
#X connect 35 20 74 0;
#X connect 37 0 38 0;
#X connect 39 0 37 0;
#X connect 39 1 37 1;
#X connect 40 0 42 0;
#X connect 40 1 42 1;
#X connect 41 0 43 0;
#X connect 41 1 43 1;
#X connect 42 0 44 0;
#X connect 43 0 45 0;
#X connect 48 0 49 0;
#X connect 48 1 50 0;
#X connect 51 0 57 0;
#X connect 52 0 58 0;
#X connect 53 0 55 0;
#X connect 54 0 56 0;
#X connect 59 0 67 0;
#X connect 60 0 68 0;
#X connect 61 0 65 0;
#X connect 62 0 66 0;
#X connect 63 0 53 0;
#X connect 63 1 53 1;
#X connect 64 0 54 0;
#X connect 64 1 54 1;
#X connect 69 0 62 0;
#X connect 69 1 62 1;
#X connect 70 0 51 0;
#X connect 70 1 51 1;
#X connect 71 0 59 0;
#X connect 71 1 59 1;
#X connect 72 0 52 0;
#X connect 72 1 52 1;
#X connect 73 0 61 0;
#X connect 73 1 61 1;
#X connect 74 0 60 0;
#X connect 74 1 60 1;
#X connect 77 0 8 0;
#X connect 80 0 2 0;
#X connect 81 0 10 0;
#X restore 570 304 pd press_mod;
#X text 170 302 Press;
#X text 158 145 __ Name __;
#X text 288 143 __ Source __;
#X text 265 301 Channel Pressure;
#X text 412 141 __ Description __;
#X text 433 303 Aftertouch;
#X text 174 190 Slide;
#X text 451 190 Y-Axis;
#X text 303 193 CC: 74;
#N canvas 219 39 1414 1089 slide_mod 0;
#X obj 698 1028 s \$0-o1_pw_mod;
#X obj 371 206 pack f f;
#X obj 371 141 t b f, f 8;
#X obj 698 1005 *;
#X obj 966 796 *;
#X obj 199 246 t b f;
#X msg 199 207 0;
#X obj 199 175 change;
#X obj 201 139 t f f;
#X obj 792 207 pack f f;
#X obj 792 140 t b f, f 8;
#X obj 830 277 t b f;
#X obj 1003 323 t b f;
#X obj 668 1028 *;
#X obj 668 1051 s \$0-o1_shape_mod;
#X obj 811 254 t b f;
#X obj 849 300 t b f;
#X obj 758 958 *;
#X obj 728 981 *;
#X obj 728 1004 s \$0-o2_shape_mod;
#X obj 758 981 s \$0-o2_pw_mod;
#X obj 868 323 t b f;
#X obj 818 912 *;
#X obj 788 935 *;
#X obj 878 865 *;
#X obj 848 888 *;
#X obj 878 888 s \$0-mix_noise_mod;
#X obj 788 958 s \$0-mix_osc1_mod;
#X obj 818 935 s \$0-mix_osc2_mod;
#X obj 848 911 s \$0-mix_suboct_mod;
#X obj 907 369 t b f;
#X obj 887 346 t b f;
#X obj 926 392 t b f;
#X obj 945 254 t b f;
#X obj 371 230 route 0 1 2 3 4 5 6 7 8 9 10 11 12 13 14 15 16 17 18 19 20;
#X obj 792 231 route 0 1 2 3 4 5 6 7 8 9 10 11 12 13 14 15 16 17 18 19 20;
#X obj 966 819 s \$0-lpf_cutoff_mod;
#X obj 996 773 *;
#X obj 996 796 s \$0-lpf_res_mod;
#X obj 1022 346 t b f;
#X obj 964 277 t b f;
#X obj 983 300 t b f;
#X obj 907 842 *;
#X obj 937 819 *;
#X obj 907 865 s \$0-hpf_cutoff_mod;
#X obj 937 842 s \$0-hpf_res_mod;
#X text 62 177 Reset modulation \; before changing \; mod destination:;
#X obj 1084 705 *;
#X obj 1114 682 *;
#X obj 1025 751 *;
#X obj 1055 728 *;
#X obj 1025 774 s \$0-filt_env_A_mod;
#X obj 1055 751 s \$0-filt_env_D_mod;
#X obj 1084 728 s \$0-filt_env_S_mod;
#X obj 1114 705 s \$0-filt_env_R_mod;
#X obj 1203 613 *;
#X obj 1233 590 *;
#X obj 1144 659 *;
#X obj 1174 636 *;
#X obj 1041 369 t b f;
#X obj 1060 392 t b f;
#X obj 1144 682 s \$0-amp_env_A_mod;
#X obj 1174 659 s \$0-amp_env_D_mod;
#X obj 1203 636 s \$0-amp_env_S_mod;
#X obj 1233 613 s \$0-amp_env_R_mod;
#X obj 1137 323 t b f;
#X obj 1079 254 t b f;
#X obj 1156 346 t b f;
#X obj 1099 277 t b f;
#X obj 1118 300 t b f;
#X obj 1175 369 t b f;
#X obj 222 110 cnv 19 64 24 empty empty empty 20 12 0 12 #c6ffc7 #404040 0;
#X obj 400 56 cnv 19 64 24 empty empty empty 20 12 0 12 #c6ffc7 #404040 0;
#X obj 821 112 cnv 19 64 24 empty empty empty 20 12 0 12 #c6ffc7 #404040 0;
#X obj 201 115 r slide_mod_dest;
#X obj 371 61 r \$0-note_slide;
#X obj 792 116 r slide_mod_depth;
#X obj 371 85 - 64;
#X text 145 85 Shift from unipolar to bipolar:;
#X text 620 33 ___ Slide ___;
#X text 611 56 CC: 74 (Y-Axis);
#X connect 1 0 34 0;
#X connect 2 0 1 0;
#X connect 2 1 1 1;
#X connect 3 0 0 0;
#X connect 4 0 36 0;
#X connect 5 0 4 0;
#X connect 5 0 3 0;
#X connect 5 0 13 0;
#X connect 5 0 18 0;
#X connect 5 0 17 0;
#X connect 5 0 23 0;
#X connect 5 0 22 0;
#X connect 5 0 25 0;
#X connect 5 0 24 0;
#X connect 5 0 42 0;
#X connect 5 0 43 0;
#X connect 5 0 37 0;
#X connect 5 0 49 0;
#X connect 5 0 50 0;
#X connect 5 0 47 0;
#X connect 5 0 48 0;
#X connect 5 0 57 0;
#X connect 5 0 58 0;
#X connect 5 0 55 0;
#X connect 5 0 56 0;
#X connect 5 1 4 1;
#X connect 5 1 3 1;
#X connect 5 1 13 1;
#X connect 5 1 18 1;
#X connect 5 1 17 1;
#X connect 5 1 23 1;
#X connect 5 1 22 1;
#X connect 5 1 25 1;
#X connect 5 1 24 1;
#X connect 5 1 42 1;
#X connect 5 1 43 1;
#X connect 5 1 37 1;
#X connect 5 1 49 1;
#X connect 5 1 50 1;
#X connect 5 1 47 1;
#X connect 5 1 48 1;
#X connect 5 1 57 1;
#X connect 5 1 58 1;
#X connect 5 1 55 1;
#X connect 5 1 56 1;
#X connect 6 0 5 0;
#X connect 7 0 6 0;
#X connect 8 0 1 0;
#X connect 8 0 9 0;
#X connect 8 1 7 0;
#X connect 9 0 35 0;
#X connect 10 0 9 0;
#X connect 10 1 9 1;
#X connect 11 0 3 0;
#X connect 11 1 3 1;
#X connect 12 0 4 0;
#X connect 12 1 4 1;
#X connect 13 0 14 0;
#X connect 15 0 13 0;
#X connect 15 1 13 1;
#X connect 16 0 18 0;
#X connect 16 1 18 1;
#X connect 17 0 20 0;
#X connect 18 0 19 0;
#X connect 21 0 17 0;
#X connect 21 1 17 1;
#X connect 22 0 28 0;
#X connect 23 0 27 0;
#X connect 24 0 26 0;
#X connect 25 0 29 0;
#X connect 30 0 22 0;
#X connect 30 1 22 1;
#X connect 31 0 23 0;
#X connect 31 1 23 1;
#X connect 32 0 25 0;
#X connect 32 1 25 1;
#X connect 33 0 24 0;
#X connect 33 1 24 1;
#X connect 34 1 13 0;
#X connect 34 2 3 0;
#X connect 34 3 18 0;
#X connect 34 4 17 0;
#X connect 34 5 23 0;
#X connect 34 6 22 0;
#X connect 34 7 25 0;
#X connect 34 8 24 0;
#X connect 34 9 42 0;
#X connect 34 10 43 0;
#X connect 34 11 4 0;
#X connect 34 12 37 0;
#X connect 34 13 49 0;
#X connect 34 14 50 0;
#X connect 34 15 47 0;
#X connect 34 16 48 0;
#X connect 34 17 57 0;
#X connect 34 18 58 0;
#X connect 34 19 55 0;
#X connect 34 20 56 0;
#X connect 35 1 15 0;
#X connect 35 2 11 0;
#X connect 35 3 16 0;
#X connect 35 4 21 0;
#X connect 35 5 31 0;
#X connect 35 6 30 0;
#X connect 35 7 32 0;
#X connect 35 8 33 0;
#X connect 35 9 40 0;
#X connect 35 10 41 0;
#X connect 35 11 12 0;
#X connect 35 12 39 0;
#X connect 35 13 59 0;
#X connect 35 14 60 0;
#X connect 35 15 66 0;
#X connect 35 16 68 0;
#X connect 35 17 69 0;
#X connect 35 18 65 0;
#X connect 35 19 67 0;
#X connect 35 20 70 0;
#X connect 37 0 38 0;
#X connect 39 0 37 0;
#X connect 39 1 37 1;
#X connect 40 0 42 0;
#X connect 40 1 42 1;
#X connect 41 0 43 0;
#X connect 41 1 43 1;
#X connect 42 0 44 0;
#X connect 43 0 45 0;
#X connect 47 0 53 0;
#X connect 48 0 54 0;
#X connect 49 0 51 0;
#X connect 50 0 52 0;
#X connect 55 0 63 0;
#X connect 56 0 64 0;
#X connect 57 0 61 0;
#X connect 58 0 62 0;
#X connect 59 0 49 0;
#X connect 59 1 49 1;
#X connect 60 0 50 0;
#X connect 60 1 50 1;
#X connect 65 0 58 0;
#X connect 65 1 58 1;
#X connect 66 0 47 0;
#X connect 66 1 47 1;
#X connect 67 0 55 0;
#X connect 67 1 55 1;
#X connect 68 0 48 0;
#X connect 68 1 48 1;
#X connect 69 0 57 0;
#X connect 69 1 57 1;
#X connect 70 0 56 0;
#X connect 70 1 56 1;
#X connect 74 0 8 0;
#X connect 75 0 77 0;
#X connect 76 0 10 0;
#X connect 77 0 2 0;
#X restore 574 190 pd slide_mod;
#X text 295 483 Pitch-Bend;
#X text 168 264 Strike;
#N canvas 197 31 1414 1089 strike_mod 0;
#X obj 698 1028 s \$0-o1_pw_mod;
#X obj 371 206 pack f f;
#X obj 371 141 t b f, f 8;
#X obj 698 1005 *;
#X obj 966 796 *;
#X obj 199 246 t b f;
#X msg 199 207 0;
#X obj 199 175 change;
#X obj 201 139 t f f;
#X obj 792 207 pack f f;
#X obj 792 140 t b f, f 8;
#X obj 830 277 t b f;
#X obj 1003 323 t b f;
#X obj 668 1028 *;
#X obj 668 1051 s \$0-o1_shape_mod;
#X obj 811 254 t b f;
#X obj 849 300 t b f;
#X obj 758 958 *;
#X obj 728 981 *;
#X obj 728 1004 s \$0-o2_shape_mod;
#X obj 758 981 s \$0-o2_pw_mod;
#X obj 868 323 t b f;
#X obj 818 912 *;
#X obj 788 935 *;
#X obj 878 865 *;
#X obj 848 888 *;
#X obj 878 888 s \$0-mix_noise_mod;
#X obj 788 958 s \$0-mix_osc1_mod;
#X obj 818 935 s \$0-mix_osc2_mod;
#X obj 848 911 s \$0-mix_suboct_mod;
#X obj 907 369 t b f;
#X obj 887 346 t b f;
#X obj 926 392 t b f;
#X obj 945 254 t b f;
#X obj 371 230 route 0 1 2 3 4 5 6 7 8 9 10 11 12 13 14 15 16 17 18 19 20;
#X obj 792 231 route 0 1 2 3 4 5 6 7 8 9 10 11 12 13 14 15 16 17 18 19 20;
#X obj 966 819 s \$0-lpf_cutoff_mod;
#X obj 996 773 *;
#X obj 996 796 s \$0-lpf_res_mod;
#X obj 1022 346 t b f;
#X obj 964 277 t b f;
#X obj 983 300 t b f;
#X obj 907 842 *;
#X obj 937 819 *;
#X obj 907 865 s \$0-hpf_cutoff_mod;
#X obj 937 842 s \$0-hpf_res_mod;
#X text 62 177 Reset modulation \; before changing \; mod destination:;
#X obj 1084 705 *;
#X obj 1114 682 *;
#X obj 1025 751 *;
#X obj 1055 728 *;
#X obj 1025 774 s \$0-filt_env_A_mod;
#X obj 1055 751 s \$0-filt_env_D_mod;
#X obj 1084 728 s \$0-filt_env_S_mod;
#X obj 1114 705 s \$0-filt_env_R_mod;
#X obj 1203 613 *;
#X obj 1233 590 *;
#X obj 1144 659 *;
#X obj 1174 636 *;
#X obj 1041 369 t b f;
#X obj 1060 392 t b f;
#X obj 1144 682 s \$0-amp_env_A_mod;
#X obj 1174 659 s \$0-amp_env_D_mod;
#X obj 1203 636 s \$0-amp_env_S_mod;
#X obj 1233 613 s \$0-amp_env_R_mod;
#X obj 1137 323 t b f;
#X obj 1079 254 t b f;
#X obj 1156 346 t b f;
#X obj 1099 277 t b f;
#X obj 1118 300 t b f;
#X obj 1175 369 t b f;
#X obj 222 110 cnv 19 64 24 empty empty empty 20 12 0 12 #c6ffc7 #404040 0;
#X obj 400 110 cnv 19 64 24 empty empty empty 20 12 0 12 #c6ffc7 #404040 0;
#X obj 821 112 cnv 19 64 24 empty empty empty 20 12 0 12 #c6ffc7 #404040 0;
#X obj 201 115 r strike_mod_dest;
#X obj 792 116 r strike_mod_depth;
#X obj 371 115 r \$0-note_vel;
#X text 620 33 ___ Strike ___;
#X text 612 57 Velocity (Note-On);
#X connect 1 0 34 0;
#X connect 2 0 1 0;
#X connect 2 1 1 1;
#X connect 3 0 0 0;
#X connect 4 0 36 0;
#X connect 5 0 4 0;
#X connect 5 0 3 0;
#X connect 5 0 13 0;
#X connect 5 0 18 0;
#X connect 5 0 17 0;
#X connect 5 0 23 0;
#X connect 5 0 22 0;
#X connect 5 0 25 0;
#X connect 5 0 24 0;
#X connect 5 0 42 0;
#X connect 5 0 43 0;
#X connect 5 0 37 0;
#X connect 5 0 49 0;
#X connect 5 0 50 0;
#X connect 5 0 47 0;
#X connect 5 0 48 0;
#X connect 5 0 57 0;
#X connect 5 0 58 0;
#X connect 5 0 55 0;
#X connect 5 0 56 0;
#X connect 5 1 4 1;
#X connect 5 1 3 1;
#X connect 5 1 13 1;
#X connect 5 1 18 1;
#X connect 5 1 17 1;
#X connect 5 1 23 1;
#X connect 5 1 22 1;
#X connect 5 1 25 1;
#X connect 5 1 24 1;
#X connect 5 1 42 1;
#X connect 5 1 43 1;
#X connect 5 1 37 1;
#X connect 5 1 49 1;
#X connect 5 1 50 1;
#X connect 5 1 47 1;
#X connect 5 1 48 1;
#X connect 5 1 57 1;
#X connect 5 1 58 1;
#X connect 5 1 55 1;
#X connect 5 1 56 1;
#X connect 6 0 5 0;
#X connect 7 0 6 0;
#X connect 8 0 1 0;
#X connect 8 0 9 0;
#X connect 8 1 7 0;
#X connect 9 0 35 0;
#X connect 10 0 9 0;
#X connect 10 1 9 1;
#X connect 11 0 3 0;
#X connect 11 1 3 1;
#X connect 12 0 4 0;
#X connect 12 1 4 1;
#X connect 13 0 14 0;
#X connect 15 0 13 0;
#X connect 15 1 13 1;
#X connect 16 0 18 0;
#X connect 16 1 18 1;
#X connect 17 0 20 0;
#X connect 18 0 19 0;
#X connect 21 0 17 0;
#X connect 21 1 17 1;
#X connect 22 0 28 0;
#X connect 23 0 27 0;
#X connect 24 0 26 0;
#X connect 25 0 29 0;
#X connect 30 0 22 0;
#X connect 30 1 22 1;
#X connect 31 0 23 0;
#X connect 31 1 23 1;
#X connect 32 0 25 0;
#X connect 32 1 25 1;
#X connect 33 0 24 0;
#X connect 33 1 24 1;
#X connect 34 1 13 0;
#X connect 34 2 3 0;
#X connect 34 3 18 0;
#X connect 34 4 17 0;
#X connect 34 5 23 0;
#X connect 34 6 22 0;
#X connect 34 7 25 0;
#X connect 34 8 24 0;
#X connect 34 9 42 0;
#X connect 34 10 43 0;
#X connect 34 11 4 0;
#X connect 34 12 37 0;
#X connect 34 13 49 0;
#X connect 34 14 50 0;
#X connect 34 15 47 0;
#X connect 34 16 48 0;
#X connect 34 17 57 0;
#X connect 34 18 58 0;
#X connect 34 19 55 0;
#X connect 34 20 56 0;
#X connect 35 1 15 0;
#X connect 35 2 11 0;
#X connect 35 3 16 0;
#X connect 35 4 21 0;
#X connect 35 5 31 0;
#X connect 35 6 30 0;
#X connect 35 7 32 0;
#X connect 35 8 33 0;
#X connect 35 9 40 0;
#X connect 35 10 41 0;
#X connect 35 11 12 0;
#X connect 35 12 39 0;
#X connect 35 13 59 0;
#X connect 35 14 60 0;
#X connect 35 15 66 0;
#X connect 35 16 68 0;
#X connect 35 17 69 0;
#X connect 35 18 65 0;
#X connect 35 19 67 0;
#X connect 35 20 70 0;
#X connect 37 0 38 0;
#X connect 39 0 37 0;
#X connect 39 1 37 1;
#X connect 40 0 42 0;
#X connect 40 1 42 1;
#X connect 41 0 43 0;
#X connect 41 1 43 1;
#X connect 42 0 44 0;
#X connect 43 0 45 0;
#X connect 47 0 53 0;
#X connect 48 0 54 0;
#X connect 49 0 51 0;
#X connect 50 0 52 0;
#X connect 55 0 63 0;
#X connect 56 0 64 0;
#X connect 57 0 61 0;
#X connect 58 0 62 0;
#X connect 59 0 49 0;
#X connect 59 1 49 1;
#X connect 60 0 50 0;
#X connect 60 1 50 1;
#X connect 65 0 58 0;
#X connect 65 1 58 1;
#X connect 66 0 47 0;
#X connect 66 1 47 1;
#X connect 67 0 55 0;
#X connect 67 1 55 1;
#X connect 68 0 48 0;
#X connect 68 1 48 1;
#X connect 69 0 57 0;
#X connect 69 1 57 1;
#X connect 70 0 56 0;
#X connect 70 1 56 1;
#X connect 74 0 8 0;
#X connect 75 0 10 0;
#X connect 76 0 2 0;
#X restore 571 263 pd strike_mod;
#X text 298 263 Velocity;
#X text 445 265 Note-On;
#X text 298 343 Velocity;
#X text 176 344 Lift;
#X text 445 345 Note-Off;
#N canvas 197 31 1414 1089 lift_mod 0;
#X obj 698 1028 s \$0-o1_pw_mod;
#X obj 371 206 pack f f;
#X obj 371 141 t b f, f 8;
#X obj 698 1005 *;
#X obj 966 796 *;
#X obj 199 246 t b f;
#X msg 199 207 0;
#X obj 199 175 change;
#X obj 201 139 t f f;
#X obj 792 207 pack f f;
#X obj 792 140 t b f, f 8;
#X obj 830 277 t b f;
#X obj 1003 323 t b f;
#X obj 668 1028 *;
#X obj 668 1051 s \$0-o1_shape_mod;
#X obj 811 254 t b f;
#X obj 849 300 t b f;
#X obj 758 958 *;
#X obj 728 981 *;
#X obj 728 1004 s \$0-o2_shape_mod;
#X obj 758 981 s \$0-o2_pw_mod;
#X obj 868 323 t b f;
#X obj 818 912 *;
#X obj 788 935 *;
#X obj 878 865 *;
#X obj 848 888 *;
#X obj 878 888 s \$0-mix_noise_mod;
#X obj 788 958 s \$0-mix_osc1_mod;
#X obj 818 935 s \$0-mix_osc2_mod;
#X obj 848 911 s \$0-mix_suboct_mod;
#X obj 907 369 t b f;
#X obj 887 346 t b f;
#X obj 926 392 t b f;
#X obj 945 254 t b f;
#X obj 371 230 route 0 1 2 3 4 5 6 7 8 9 10 11 12 13 14 15 16 17 18 19 20;
#X obj 792 231 route 0 1 2 3 4 5 6 7 8 9 10 11 12 13 14 15 16 17 18 19 20;
#X obj 966 819 s \$0-lpf_cutoff_mod;
#X obj 996 773 *;
#X obj 996 796 s \$0-lpf_res_mod;
#X obj 1022 346 t b f;
#X obj 964 277 t b f;
#X obj 983 300 t b f;
#X obj 907 842 *;
#X obj 937 819 *;
#X obj 907 865 s \$0-hpf_cutoff_mod;
#X obj 937 842 s \$0-hpf_res_mod;
#X text 62 177 Reset modulation \; before changing \; mod destination:;
#X obj 1084 705 *;
#X obj 1114 682 *;
#X obj 1025 751 *;
#X obj 1055 728 *;
#X obj 1025 774 s \$0-filt_env_A_mod;
#X obj 1055 751 s \$0-filt_env_D_mod;
#X obj 1084 728 s \$0-filt_env_S_mod;
#X obj 1114 705 s \$0-filt_env_R_mod;
#X obj 1203 613 *;
#X obj 1233 590 *;
#X obj 1144 659 *;
#X obj 1174 636 *;
#X obj 1041 369 t b f;
#X obj 1060 392 t b f;
#X obj 1144 682 s \$0-amp_env_A_mod;
#X obj 1174 659 s \$0-amp_env_D_mod;
#X obj 1203 636 s \$0-amp_env_S_mod;
#X obj 1233 613 s \$0-amp_env_R_mod;
#X obj 1137 323 t b f;
#X obj 1079 254 t b f;
#X obj 1156 346 t b f;
#X obj 1099 277 t b f;
#X obj 1118 300 t b f;
#X obj 1175 369 t b f;
#X obj 222 110 cnv 19 64 24 empty empty empty 20 12 0 12 #c6ffc7 #404040 0;
#X obj 400 110 cnv 19 64 24 empty empty empty 20 12 0 12 #c6ffc7 #404040 0;
#X obj 821 112 cnv 19 64 24 empty empty empty 20 12 0 12 #c6ffc7 #404040 0;
#X obj 371 115 r \$0-note_vel_off;
#X obj 201 115 r lift_mod_dest;
#X obj 792 116 r lift_mod_depth;
#X text 620 33 ___ Lift ___;
#X text 612 57 Velocity (Note-Off);
#X connect 1 0 34 0;
#X connect 2 0 1 0;
#X connect 2 1 1 1;
#X connect 3 0 0 0;
#X connect 4 0 36 0;
#X connect 5 0 4 0;
#X connect 5 0 3 0;
#X connect 5 0 13 0;
#X connect 5 0 18 0;
#X connect 5 0 17 0;
#X connect 5 0 23 0;
#X connect 5 0 22 0;
#X connect 5 0 25 0;
#X connect 5 0 24 0;
#X connect 5 0 42 0;
#X connect 5 0 43 0;
#X connect 5 0 37 0;
#X connect 5 0 49 0;
#X connect 5 0 50 0;
#X connect 5 0 47 0;
#X connect 5 0 48 0;
#X connect 5 0 57 0;
#X connect 5 0 58 0;
#X connect 5 0 55 0;
#X connect 5 0 56 0;
#X connect 5 1 4 1;
#X connect 5 1 3 1;
#X connect 5 1 13 1;
#X connect 5 1 18 1;
#X connect 5 1 17 1;
#X connect 5 1 23 1;
#X connect 5 1 22 1;
#X connect 5 1 25 1;
#X connect 5 1 24 1;
#X connect 5 1 42 1;
#X connect 5 1 43 1;
#X connect 5 1 37 1;
#X connect 5 1 49 1;
#X connect 5 1 50 1;
#X connect 5 1 47 1;
#X connect 5 1 48 1;
#X connect 5 1 57 1;
#X connect 5 1 58 1;
#X connect 5 1 55 1;
#X connect 5 1 56 1;
#X connect 6 0 5 0;
#X connect 7 0 6 0;
#X connect 8 0 1 0;
#X connect 8 0 9 0;
#X connect 8 1 7 0;
#X connect 9 0 35 0;
#X connect 10 0 9 0;
#X connect 10 1 9 1;
#X connect 11 0 3 0;
#X connect 11 1 3 1;
#X connect 12 0 4 0;
#X connect 12 1 4 1;
#X connect 13 0 14 0;
#X connect 15 0 13 0;
#X connect 15 1 13 1;
#X connect 16 0 18 0;
#X connect 16 1 18 1;
#X connect 17 0 20 0;
#X connect 18 0 19 0;
#X connect 21 0 17 0;
#X connect 21 1 17 1;
#X connect 22 0 28 0;
#X connect 23 0 27 0;
#X connect 24 0 26 0;
#X connect 25 0 29 0;
#X connect 30 0 22 0;
#X connect 30 1 22 1;
#X connect 31 0 23 0;
#X connect 31 1 23 1;
#X connect 32 0 25 0;
#X connect 32 1 25 1;
#X connect 33 0 24 0;
#X connect 33 1 24 1;
#X connect 34 1 13 0;
#X connect 34 2 3 0;
#X connect 34 3 18 0;
#X connect 34 4 17 0;
#X connect 34 5 23 0;
#X connect 34 6 22 0;
#X connect 34 7 25 0;
#X connect 34 8 24 0;
#X connect 34 9 42 0;
#X connect 34 10 43 0;
#X connect 34 11 4 0;
#X connect 34 12 37 0;
#X connect 34 13 49 0;
#X connect 34 14 50 0;
#X connect 34 15 47 0;
#X connect 34 16 48 0;
#X connect 34 17 57 0;
#X connect 34 18 58 0;
#X connect 34 19 55 0;
#X connect 34 20 56 0;
#X connect 35 1 15 0;
#X connect 35 2 11 0;
#X connect 35 3 16 0;
#X connect 35 4 21 0;
#X connect 35 5 31 0;
#X connect 35 6 30 0;
#X connect 35 7 32 0;
#X connect 35 8 33 0;
#X connect 35 9 40 0;
#X connect 35 10 41 0;
#X connect 35 11 12 0;
#X connect 35 12 39 0;
#X connect 35 13 59 0;
#X connect 35 14 60 0;
#X connect 35 15 66 0;
#X connect 35 16 68 0;
#X connect 35 17 69 0;
#X connect 35 18 65 0;
#X connect 35 19 67 0;
#X connect 35 20 70 0;
#X connect 37 0 38 0;
#X connect 39 0 37 0;
#X connect 39 1 37 1;
#X connect 40 0 42 0;
#X connect 40 1 42 1;
#X connect 41 0 43 0;
#X connect 41 1 43 1;
#X connect 42 0 44 0;
#X connect 43 0 45 0;
#X connect 47 0 53 0;
#X connect 48 0 54 0;
#X connect 49 0 51 0;
#X connect 50 0 52 0;
#X connect 55 0 63 0;
#X connect 56 0 64 0;
#X connect 57 0 61 0;
#X connect 58 0 62 0;
#X connect 59 0 49 0;
#X connect 59 1 49 1;
#X connect 60 0 50 0;
#X connect 60 1 50 1;
#X connect 65 0 58 0;
#X connect 65 1 58 1;
#X connect 66 0 47 0;
#X connect 66 1 47 1;
#X connect 67 0 55 0;
#X connect 67 1 55 1;
#X connect 68 0 48 0;
#X connect 68 1 48 1;
#X connect 69 0 57 0;
#X connect 69 1 57 1;
#X connect 70 0 56 0;
#X connect 70 1 56 1;
#X connect 74 0 2 0;
#X connect 75 0 8 0;
#X connect 76 0 10 0;
#X restore 571 343 pd lift_mod;
#X text 125 484 Pitch Glide/Vibrato;
#X text 449 482 X-Axis;
#X text 173 225 Glide;
#X text 302 228 CC: 75;
#X text 450 225 X-Axis;
#N canvas 219 39 1414 1089 glide_mod 0;
#X obj 698 1028 s \$0-o1_pw_mod;
#X obj 371 206 pack f f;
#X obj 371 141 t b f, f 8;
#X obj 698 1005 *;
#X obj 966 796 *;
#X obj 199 246 t b f;
#X msg 199 207 0;
#X obj 199 175 change;
#X obj 201 139 t f f;
#X obj 792 207 pack f f;
#X obj 792 140 t b f, f 8;
#X obj 830 277 t b f;
#X obj 1003 323 t b f;
#X obj 668 1028 *;
#X obj 668 1051 s \$0-o1_shape_mod;
#X obj 811 254 t b f;
#X obj 849 300 t b f;
#X obj 758 958 *;
#X obj 728 981 *;
#X obj 728 1004 s \$0-o2_shape_mod;
#X obj 758 981 s \$0-o2_pw_mod;
#X obj 868 323 t b f;
#X obj 818 912 *;
#X obj 788 935 *;
#X obj 878 865 *;
#X obj 848 888 *;
#X obj 878 888 s \$0-mix_noise_mod;
#X obj 788 958 s \$0-mix_osc1_mod;
#X obj 818 935 s \$0-mix_osc2_mod;
#X obj 848 911 s \$0-mix_suboct_mod;
#X obj 907 369 t b f;
#X obj 887 346 t b f;
#X obj 926 392 t b f;
#X obj 945 254 t b f;
#X obj 371 230 route 0 1 2 3 4 5 6 7 8 9 10 11 12 13 14 15 16 17 18 19 20;
#X obj 792 231 route 0 1 2 3 4 5 6 7 8 9 10 11 12 13 14 15 16 17 18 19 20;
#X obj 966 819 s \$0-lpf_cutoff_mod;
#X obj 996 773 *;
#X obj 996 796 s \$0-lpf_res_mod;
#X obj 1022 346 t b f;
#X obj 964 277 t b f;
#X obj 983 300 t b f;
#X obj 907 842 *;
#X obj 937 819 *;
#X obj 907 865 s \$0-hpf_cutoff_mod;
#X obj 937 842 s \$0-hpf_res_mod;
#X text 62 177 Reset modulation \; before changing \; mod destination:;
#X obj 1084 705 *;
#X obj 1114 682 *;
#X obj 1025 751 *;
#X obj 1055 728 *;
#X obj 1025 774 s \$0-filt_env_A_mod;
#X obj 1055 751 s \$0-filt_env_D_mod;
#X obj 1084 728 s \$0-filt_env_S_mod;
#X obj 1114 705 s \$0-filt_env_R_mod;
#X obj 1203 613 *;
#X obj 1233 590 *;
#X obj 1144 659 *;
#X obj 1174 636 *;
#X obj 1041 369 t b f;
#X obj 1060 392 t b f;
#X obj 1144 682 s \$0-amp_env_A_mod;
#X obj 1174 659 s \$0-amp_env_D_mod;
#X obj 1203 636 s \$0-amp_env_S_mod;
#X obj 1233 613 s \$0-amp_env_R_mod;
#X obj 1137 323 t b f;
#X obj 1079 254 t b f;
#X obj 1156 346 t b f;
#X obj 1099 277 t b f;
#X obj 1118 300 t b f;
#X obj 1175 369 t b f;
#X obj 222 110 cnv 19 64 24 empty empty empty 20 12 0 12 #c6ffc7 #404040 0;
#X obj 400 56 cnv 19 64 24 empty empty empty 20 12 0 12 #c6ffc7 #404040 0;
#X obj 821 112 cnv 19 64 24 empty empty empty 20 12 0 12 #c6ffc7 #404040 0;
#X obj 371 85 - 64;
#X text 145 85 Shift from unipolar to bipolar:;
#X text 620 33 ___ Slide ___;
#X text 611 56 CC: 74 (Y-Axis);
#X obj 201 115 r glide_mod_dest;
#X obj 371 61 r \$0-note_glide;
#X obj 792 116 r glide_mod_depth;
#X connect 1 0 34 0;
#X connect 2 0 1 0;
#X connect 2 1 1 1;
#X connect 3 0 0 0;
#X connect 4 0 36 0;
#X connect 5 0 4 0;
#X connect 5 0 3 0;
#X connect 5 0 13 0;
#X connect 5 0 18 0;
#X connect 5 0 17 0;
#X connect 5 0 23 0;
#X connect 5 0 22 0;
#X connect 5 0 25 0;
#X connect 5 0 24 0;
#X connect 5 0 42 0;
#X connect 5 0 43 0;
#X connect 5 0 37 0;
#X connect 5 0 49 0;
#X connect 5 0 50 0;
#X connect 5 0 47 0;
#X connect 5 0 48 0;
#X connect 5 0 57 0;
#X connect 5 0 58 0;
#X connect 5 0 55 0;
#X connect 5 0 56 0;
#X connect 5 1 4 1;
#X connect 5 1 3 1;
#X connect 5 1 13 1;
#X connect 5 1 18 1;
#X connect 5 1 17 1;
#X connect 5 1 23 1;
#X connect 5 1 22 1;
#X connect 5 1 25 1;
#X connect 5 1 24 1;
#X connect 5 1 42 1;
#X connect 5 1 43 1;
#X connect 5 1 37 1;
#X connect 5 1 49 1;
#X connect 5 1 50 1;
#X connect 5 1 47 1;
#X connect 5 1 48 1;
#X connect 5 1 57 1;
#X connect 5 1 58 1;
#X connect 5 1 55 1;
#X connect 5 1 56 1;
#X connect 6 0 5 0;
#X connect 7 0 6 0;
#X connect 8 0 1 0;
#X connect 8 0 9 0;
#X connect 8 1 7 0;
#X connect 9 0 35 0;
#X connect 10 0 9 0;
#X connect 10 1 9 1;
#X connect 11 0 3 0;
#X connect 11 1 3 1;
#X connect 12 0 4 0;
#X connect 12 1 4 1;
#X connect 13 0 14 0;
#X connect 15 0 13 0;
#X connect 15 1 13 1;
#X connect 16 0 18 0;
#X connect 16 1 18 1;
#X connect 17 0 20 0;
#X connect 18 0 19 0;
#X connect 21 0 17 0;
#X connect 21 1 17 1;
#X connect 22 0 28 0;
#X connect 23 0 27 0;
#X connect 24 0 26 0;
#X connect 25 0 29 0;
#X connect 30 0 22 0;
#X connect 30 1 22 1;
#X connect 31 0 23 0;
#X connect 31 1 23 1;
#X connect 32 0 25 0;
#X connect 32 1 25 1;
#X connect 33 0 24 0;
#X connect 33 1 24 1;
#X connect 34 1 13 0;
#X connect 34 2 3 0;
#X connect 34 3 18 0;
#X connect 34 4 17 0;
#X connect 34 5 23 0;
#X connect 34 6 22 0;
#X connect 34 7 25 0;
#X connect 34 8 24 0;
#X connect 34 9 42 0;
#X connect 34 10 43 0;
#X connect 34 11 4 0;
#X connect 34 12 37 0;
#X connect 34 13 49 0;
#X connect 34 14 50 0;
#X connect 34 15 47 0;
#X connect 34 16 48 0;
#X connect 34 17 57 0;
#X connect 34 18 58 0;
#X connect 34 19 55 0;
#X connect 34 20 56 0;
#X connect 35 1 15 0;
#X connect 35 2 11 0;
#X connect 35 3 16 0;
#X connect 35 4 21 0;
#X connect 35 5 31 0;
#X connect 35 6 30 0;
#X connect 35 7 32 0;
#X connect 35 8 33 0;
#X connect 35 9 40 0;
#X connect 35 10 41 0;
#X connect 35 11 12 0;
#X connect 35 12 39 0;
#X connect 35 13 59 0;
#X connect 35 14 60 0;
#X connect 35 15 66 0;
#X connect 35 16 68 0;
#X connect 35 17 69 0;
#X connect 35 18 65 0;
#X connect 35 19 67 0;
#X connect 35 20 70 0;
#X connect 37 0 38 0;
#X connect 39 0 37 0;
#X connect 39 1 37 1;
#X connect 40 0 42 0;
#X connect 40 1 42 1;
#X connect 41 0 43 0;
#X connect 41 1 43 1;
#X connect 42 0 44 0;
#X connect 43 0 45 0;
#X connect 47 0 53 0;
#X connect 48 0 54 0;
#X connect 49 0 51 0;
#X connect 50 0 52 0;
#X connect 55 0 63 0;
#X connect 56 0 64 0;
#X connect 57 0 61 0;
#X connect 58 0 62 0;
#X connect 59 0 49 0;
#X connect 59 1 49 1;
#X connect 60 0 50 0;
#X connect 60 1 50 1;
#X connect 65 0 58 0;
#X connect 65 1 58 1;
#X connect 66 0 47 0;
#X connect 66 1 47 1;
#X connect 67 0 55 0;
#X connect 67 1 55 1;
#X connect 68 0 48 0;
#X connect 68 1 48 1;
#X connect 69 0 57 0;
#X connect 69 1 57 1;
#X connect 70 0 56 0;
#X connect 70 1 56 1;
#X connect 74 0 2 0;
#X connect 78 0 8 0;
#X connect 79 0 74 0;
#X connect 80 0 10 0;
#X restore 573 225 pd glide_mod;
#X obj 1 2 cnv 19 192 96 empty empty empty 20 12 0 12 #feffc6 #404040 0;
#N canvas 121 294 694 393 modulation_input 0;
#X floatatom 98 260 5 0 0 0 - - - 0;
#X obj 98 165 list prepend;
#X msg 130 212 \$1;
#X obj 98 236 route;
#X obj 98 138 ctlin 75, f 12;
#X obj 130 189 r \$0-voice;
#X obj 98 283 s \$0-note_glide;
#X text 99 65 __ Glide __;
#X text 109 92 (X-Axis);
#X floatatom 278 255 5 0 0 0 - - - 0;
#X obj 278 160 list prepend;
#X msg 310 207 \$1;
#X obj 278 231 route;
#X obj 310 184 r \$0-voice;
#X text 279 60 __ Area __;
#X text 269 88 (Contact Area);
#X obj 278 133 ctlin 76, f 12;
#X obj 278 278 s \$0-note_area;
#X floatatom 472 255 5 0 0 0 - - - 0;
#X obj 472 160 list prepend;
#X msg 504 207 \$1;
#X obj 472 231 route;
#X obj 504 184 r \$0-voice;
#X text 473 60 __ Distance __;
#X text 451 88 (2-Finger Distance);
#X obj 472 133 ctlin 77, f 12;
#X obj 472 278 s \$0-note_2dist;
#X connect 0 0 6 0;
#X connect 1 0 3 0;
#X connect 2 0 3 1;
#X connect 3 0 0 0;
#X connect 4 0 1 0;
#X connect 4 1 1 1;
#X connect 5 0 2 0;
#X connect 9 0 17 0;
#X connect 10 0 12 0;
#X connect 11 0 12 1;
#X connect 12 0 9 0;
#X connect 13 0 11 0;
#X connect 16 0 10 0;
#X connect 16 1 10 1;
#X connect 18 0 26 0;
#X connect 19 0 21 0;
#X connect 20 0 21 1;
#X connect 21 0 18 0;
#X connect 22 0 20 0;
#X connect 25 0 19 0;
#X connect 25 1 19 1;
#X restore 27 41 pd modulation_input;
#X text 175 382 Area;
#X text 305 381 CC: 76;
#X text 431 383 Contact Area;
#N canvas 197 31 1414 1089 area_mod 0;
#X obj 698 1028 s \$0-o1_pw_mod;
#X obj 371 206 pack f f;
#X obj 371 141 t b f, f 8;
#X obj 698 1005 *;
#X obj 966 796 *;
#X obj 199 246 t b f;
#X msg 199 207 0;
#X obj 199 175 change;
#X obj 201 139 t f f;
#X obj 792 207 pack f f;
#X obj 792 140 t b f, f 8;
#X obj 830 277 t b f;
#X obj 1003 323 t b f;
#X obj 668 1028 *;
#X obj 668 1051 s \$0-o1_shape_mod;
#X obj 811 254 t b f;
#X obj 849 300 t b f;
#X obj 758 958 *;
#X obj 728 981 *;
#X obj 728 1004 s \$0-o2_shape_mod;
#X obj 758 981 s \$0-o2_pw_mod;
#X obj 868 323 t b f;
#X obj 818 912 *;
#X obj 788 935 *;
#X obj 878 865 *;
#X obj 848 888 *;
#X obj 878 888 s \$0-mix_noise_mod;
#X obj 788 958 s \$0-mix_osc1_mod;
#X obj 818 935 s \$0-mix_osc2_mod;
#X obj 848 911 s \$0-mix_suboct_mod;
#X obj 907 369 t b f;
#X obj 887 346 t b f;
#X obj 926 392 t b f;
#X obj 945 254 t b f;
#X obj 371 230 route 0 1 2 3 4 5 6 7 8 9 10 11 12 13 14 15 16 17 18 19 20;
#X obj 792 231 route 0 1 2 3 4 5 6 7 8 9 10 11 12 13 14 15 16 17 18 19 20;
#X obj 966 819 s \$0-lpf_cutoff_mod;
#X obj 996 773 *;
#X obj 996 796 s \$0-lpf_res_mod;
#X obj 1022 346 t b f;
#X obj 964 277 t b f;
#X obj 983 300 t b f;
#X obj 907 842 *;
#X obj 937 819 *;
#X obj 907 865 s \$0-hpf_cutoff_mod;
#X obj 937 842 s \$0-hpf_res_mod;
#X text 62 177 Reset modulation \; before changing \; mod destination:;
#X obj 1084 705 *;
#X obj 1114 682 *;
#X obj 1025 751 *;
#X obj 1055 728 *;
#X obj 1025 774 s \$0-filt_env_A_mod;
#X obj 1055 751 s \$0-filt_env_D_mod;
#X obj 1084 728 s \$0-filt_env_S_mod;
#X obj 1114 705 s \$0-filt_env_R_mod;
#X obj 1203 613 *;
#X obj 1233 590 *;
#X obj 1144 659 *;
#X obj 1174 636 *;
#X obj 1041 369 t b f;
#X obj 1060 392 t b f;
#X obj 1144 682 s \$0-amp_env_A_mod;
#X obj 1174 659 s \$0-amp_env_D_mod;
#X obj 1203 636 s \$0-amp_env_S_mod;
#X obj 1233 613 s \$0-amp_env_R_mod;
#X obj 1137 323 t b f;
#X obj 1079 254 t b f;
#X obj 1156 346 t b f;
#X obj 1099 277 t b f;
#X obj 1118 300 t b f;
#X obj 1175 369 t b f;
#X obj 222 110 cnv 19 64 24 empty empty empty 20 12 0 12 #c6ffc7 #404040 0;
#X obj 400 110 cnv 19 64 24 empty empty empty 20 12 0 12 #c6ffc7 #404040 0;
#X obj 821 112 cnv 19 64 24 empty empty empty 20 12 0 12 #c6ffc7 #404040 0;
#X text 620 33 ___ Lift ___;
#X text 612 57 Velocity (Note-Off);
#X obj 201 115 r area_mod_dest;
#X obj 371 115 r \$0-note_area;
#X obj 792 116 r area_mod_depth;
#X connect 1 0 34 0;
#X connect 2 0 1 0;
#X connect 2 1 1 1;
#X connect 3 0 0 0;
#X connect 4 0 36 0;
#X connect 5 0 4 0;
#X connect 5 0 3 0;
#X connect 5 0 13 0;
#X connect 5 0 18 0;
#X connect 5 0 17 0;
#X connect 5 0 23 0;
#X connect 5 0 22 0;
#X connect 5 0 25 0;
#X connect 5 0 24 0;
#X connect 5 0 42 0;
#X connect 5 0 43 0;
#X connect 5 0 37 0;
#X connect 5 0 49 0;
#X connect 5 0 50 0;
#X connect 5 0 47 0;
#X connect 5 0 48 0;
#X connect 5 0 57 0;
#X connect 5 0 58 0;
#X connect 5 0 55 0;
#X connect 5 0 56 0;
#X connect 5 1 4 1;
#X connect 5 1 3 1;
#X connect 5 1 13 1;
#X connect 5 1 18 1;
#X connect 5 1 17 1;
#X connect 5 1 23 1;
#X connect 5 1 22 1;
#X connect 5 1 25 1;
#X connect 5 1 24 1;
#X connect 5 1 42 1;
#X connect 5 1 43 1;
#X connect 5 1 37 1;
#X connect 5 1 49 1;
#X connect 5 1 50 1;
#X connect 5 1 47 1;
#X connect 5 1 48 1;
#X connect 5 1 57 1;
#X connect 5 1 58 1;
#X connect 5 1 55 1;
#X connect 5 1 56 1;
#X connect 6 0 5 0;
#X connect 7 0 6 0;
#X connect 8 0 1 0;
#X connect 8 0 9 0;
#X connect 8 1 7 0;
#X connect 9 0 35 0;
#X connect 10 0 9 0;
#X connect 10 1 9 1;
#X connect 11 0 3 0;
#X connect 11 1 3 1;
#X connect 12 0 4 0;
#X connect 12 1 4 1;
#X connect 13 0 14 0;
#X connect 15 0 13 0;
#X connect 15 1 13 1;
#X connect 16 0 18 0;
#X connect 16 1 18 1;
#X connect 17 0 20 0;
#X connect 18 0 19 0;
#X connect 21 0 17 0;
#X connect 21 1 17 1;
#X connect 22 0 28 0;
#X connect 23 0 27 0;
#X connect 24 0 26 0;
#X connect 25 0 29 0;
#X connect 30 0 22 0;
#X connect 30 1 22 1;
#X connect 31 0 23 0;
#X connect 31 1 23 1;
#X connect 32 0 25 0;
#X connect 32 1 25 1;
#X connect 33 0 24 0;
#X connect 33 1 24 1;
#X connect 34 1 13 0;
#X connect 34 2 3 0;
#X connect 34 3 18 0;
#X connect 34 4 17 0;
#X connect 34 5 23 0;
#X connect 34 6 22 0;
#X connect 34 7 25 0;
#X connect 34 8 24 0;
#X connect 34 9 42 0;
#X connect 34 10 43 0;
#X connect 34 11 4 0;
#X connect 34 12 37 0;
#X connect 34 13 49 0;
#X connect 34 14 50 0;
#X connect 34 15 47 0;
#X connect 34 16 48 0;
#X connect 34 17 57 0;
#X connect 34 18 58 0;
#X connect 34 19 55 0;
#X connect 34 20 56 0;
#X connect 35 1 15 0;
#X connect 35 2 11 0;
#X connect 35 3 16 0;
#X connect 35 4 21 0;
#X connect 35 5 31 0;
#X connect 35 6 30 0;
#X connect 35 7 32 0;
#X connect 35 8 33 0;
#X connect 35 9 40 0;
#X connect 35 10 41 0;
#X connect 35 11 12 0;
#X connect 35 12 39 0;
#X connect 35 13 59 0;
#X connect 35 14 60 0;
#X connect 35 15 66 0;
#X connect 35 16 68 0;
#X connect 35 17 69 0;
#X connect 35 18 65 0;
#X connect 35 19 67 0;
#X connect 35 20 70 0;
#X connect 37 0 38 0;
#X connect 39 0 37 0;
#X connect 39 1 37 1;
#X connect 40 0 42 0;
#X connect 40 1 42 1;
#X connect 41 0 43 0;
#X connect 41 1 43 1;
#X connect 42 0 44 0;
#X connect 43 0 45 0;
#X connect 47 0 53 0;
#X connect 48 0 54 0;
#X connect 49 0 51 0;
#X connect 50 0 52 0;
#X connect 55 0 63 0;
#X connect 56 0 64 0;
#X connect 57 0 61 0;
#X connect 58 0 62 0;
#X connect 59 0 49 0;
#X connect 59 1 49 1;
#X connect 60 0 50 0;
#X connect 60 1 50 1;
#X connect 65 0 58 0;
#X connect 65 1 58 1;
#X connect 66 0 47 0;
#X connect 66 1 47 1;
#X connect 67 0 55 0;
#X connect 67 1 55 1;
#X connect 68 0 48 0;
#X connect 68 1 48 1;
#X connect 69 0 57 0;
#X connect 69 1 57 1;
#X connect 70 0 56 0;
#X connect 70 1 56 1;
#X connect 76 0 8 0;
#X connect 77 0 2 0;
#X connect 78 0 10 0;
#X restore 570 381 pd area_mod;
#X text 161 423 Distance;
#X text 304 423 CC: 77;
#X text 413 424 2-Finger Distance;
#N canvas 197 31 1414 1089 2dist_mod 0;
#X obj 698 1028 s \$0-o1_pw_mod;
#X obj 371 206 pack f f;
#X obj 371 141 t b f, f 8;
#X obj 698 1005 *;
#X obj 966 796 *;
#X obj 199 246 t b f;
#X msg 199 207 0;
#X obj 199 175 change;
#X obj 201 139 t f f;
#X obj 792 207 pack f f;
#X obj 792 140 t b f, f 8;
#X obj 830 277 t b f;
#X obj 1003 323 t b f;
#X obj 668 1028 *;
#X obj 668 1051 s \$0-o1_shape_mod;
#X obj 811 254 t b f;
#X obj 849 300 t b f;
#X obj 758 958 *;
#X obj 728 981 *;
#X obj 728 1004 s \$0-o2_shape_mod;
#X obj 758 981 s \$0-o2_pw_mod;
#X obj 868 323 t b f;
#X obj 818 912 *;
#X obj 788 935 *;
#X obj 878 865 *;
#X obj 848 888 *;
#X obj 878 888 s \$0-mix_noise_mod;
#X obj 788 958 s \$0-mix_osc1_mod;
#X obj 818 935 s \$0-mix_osc2_mod;
#X obj 848 911 s \$0-mix_suboct_mod;
#X obj 907 369 t b f;
#X obj 887 346 t b f;
#X obj 926 392 t b f;
#X obj 945 254 t b f;
#X obj 371 230 route 0 1 2 3 4 5 6 7 8 9 10 11 12 13 14 15 16 17 18 19 20;
#X obj 792 231 route 0 1 2 3 4 5 6 7 8 9 10 11 12 13 14 15 16 17 18 19 20;
#X obj 966 819 s \$0-lpf_cutoff_mod;
#X obj 996 773 *;
#X obj 996 796 s \$0-lpf_res_mod;
#X obj 1022 346 t b f;
#X obj 964 277 t b f;
#X obj 983 300 t b f;
#X obj 907 842 *;
#X obj 937 819 *;
#X obj 907 865 s \$0-hpf_cutoff_mod;
#X obj 937 842 s \$0-hpf_res_mod;
#X text 62 177 Reset modulation \; before changing \; mod destination:;
#X obj 1084 705 *;
#X obj 1114 682 *;
#X obj 1025 751 *;
#X obj 1055 728 *;
#X obj 1025 774 s \$0-filt_env_A_mod;
#X obj 1055 751 s \$0-filt_env_D_mod;
#X obj 1084 728 s \$0-filt_env_S_mod;
#X obj 1114 705 s \$0-filt_env_R_mod;
#X obj 1203 613 *;
#X obj 1233 590 *;
#X obj 1144 659 *;
#X obj 1174 636 *;
#X obj 1041 369 t b f;
#X obj 1060 392 t b f;
#X obj 1144 682 s \$0-amp_env_A_mod;
#X obj 1174 659 s \$0-amp_env_D_mod;
#X obj 1203 636 s \$0-amp_env_S_mod;
#X obj 1233 613 s \$0-amp_env_R_mod;
#X obj 1137 323 t b f;
#X obj 1079 254 t b f;
#X obj 1156 346 t b f;
#X obj 1099 277 t b f;
#X obj 1118 300 t b f;
#X obj 1175 369 t b f;
#X obj 222 110 cnv 19 64 24 empty empty empty 20 12 0 12 #c6ffc7 #404040 0;
#X obj 400 110 cnv 19 64 24 empty empty empty 20 12 0 12 #c6ffc7 #404040 0;
#X obj 821 112 cnv 19 64 24 empty empty empty 20 12 0 12 #c6ffc7 #404040 0;
#X text 620 33 ___ Lift ___;
#X text 612 57 Velocity (Note-Off);
#X obj 201 115 r 2dist_mod_dest;
#X obj 371 115 r \$0-note_2dist;
#X obj 792 116 r 2dist_mod_depth;
#X connect 1 0 34 0;
#X connect 2 0 1 0;
#X connect 2 1 1 1;
#X connect 3 0 0 0;
#X connect 4 0 36 0;
#X connect 5 0 4 0;
#X connect 5 0 3 0;
#X connect 5 0 13 0;
#X connect 5 0 18 0;
#X connect 5 0 17 0;
#X connect 5 0 23 0;
#X connect 5 0 22 0;
#X connect 5 0 25 0;
#X connect 5 0 24 0;
#X connect 5 0 42 0;
#X connect 5 0 43 0;
#X connect 5 0 37 0;
#X connect 5 0 49 0;
#X connect 5 0 50 0;
#X connect 5 0 47 0;
#X connect 5 0 48 0;
#X connect 5 0 57 0;
#X connect 5 0 58 0;
#X connect 5 0 55 0;
#X connect 5 0 56 0;
#X connect 5 1 4 1;
#X connect 5 1 3 1;
#X connect 5 1 13 1;
#X connect 5 1 18 1;
#X connect 5 1 17 1;
#X connect 5 1 23 1;
#X connect 5 1 22 1;
#X connect 5 1 25 1;
#X connect 5 1 24 1;
#X connect 5 1 42 1;
#X connect 5 1 43 1;
#X connect 5 1 37 1;
#X connect 5 1 49 1;
#X connect 5 1 50 1;
#X connect 5 1 47 1;
#X connect 5 1 48 1;
#X connect 5 1 57 1;
#X connect 5 1 58 1;
#X connect 5 1 55 1;
#X connect 5 1 56 1;
#X connect 6 0 5 0;
#X connect 7 0 6 0;
#X connect 8 0 1 0;
#X connect 8 0 9 0;
#X connect 8 1 7 0;
#X connect 9 0 35 0;
#X connect 10 0 9 0;
#X connect 10 1 9 1;
#X connect 11 0 3 0;
#X connect 11 1 3 1;
#X connect 12 0 4 0;
#X connect 12 1 4 1;
#X connect 13 0 14 0;
#X connect 15 0 13 0;
#X connect 15 1 13 1;
#X connect 16 0 18 0;
#X connect 16 1 18 1;
#X connect 17 0 20 0;
#X connect 18 0 19 0;
#X connect 21 0 17 0;
#X connect 21 1 17 1;
#X connect 22 0 28 0;
#X connect 23 0 27 0;
#X connect 24 0 26 0;
#X connect 25 0 29 0;
#X connect 30 0 22 0;
#X connect 30 1 22 1;
#X connect 31 0 23 0;
#X connect 31 1 23 1;
#X connect 32 0 25 0;
#X connect 32 1 25 1;
#X connect 33 0 24 0;
#X connect 33 1 24 1;
#X connect 34 1 13 0;
#X connect 34 2 3 0;
#X connect 34 3 18 0;
#X connect 34 4 17 0;
#X connect 34 5 23 0;
#X connect 34 6 22 0;
#X connect 34 7 25 0;
#X connect 34 8 24 0;
#X connect 34 9 42 0;
#X connect 34 10 43 0;
#X connect 34 11 4 0;
#X connect 34 12 37 0;
#X connect 34 13 49 0;
#X connect 34 14 50 0;
#X connect 34 15 47 0;
#X connect 34 16 48 0;
#X connect 34 17 57 0;
#X connect 34 18 58 0;
#X connect 34 19 55 0;
#X connect 34 20 56 0;
#X connect 35 1 15 0;
#X connect 35 2 11 0;
#X connect 35 3 16 0;
#X connect 35 4 21 0;
#X connect 35 5 31 0;
#X connect 35 6 30 0;
#X connect 35 7 32 0;
#X connect 35 8 33 0;
#X connect 35 9 40 0;
#X connect 35 10 41 0;
#X connect 35 11 12 0;
#X connect 35 12 39 0;
#X connect 35 13 59 0;
#X connect 35 14 60 0;
#X connect 35 15 66 0;
#X connect 35 16 68 0;
#X connect 35 17 69 0;
#X connect 35 18 65 0;
#X connect 35 19 67 0;
#X connect 35 20 70 0;
#X connect 37 0 38 0;
#X connect 39 0 37 0;
#X connect 39 1 37 1;
#X connect 40 0 42 0;
#X connect 40 1 42 1;
#X connect 41 0 43 0;
#X connect 41 1 43 1;
#X connect 42 0 44 0;
#X connect 43 0 45 0;
#X connect 47 0 53 0;
#X connect 48 0 54 0;
#X connect 49 0 51 0;
#X connect 50 0 52 0;
#X connect 55 0 63 0;
#X connect 56 0 64 0;
#X connect 57 0 61 0;
#X connect 58 0 62 0;
#X connect 59 0 49 0;
#X connect 59 1 49 1;
#X connect 60 0 50 0;
#X connect 60 1 50 1;
#X connect 65 0 58 0;
#X connect 65 1 58 1;
#X connect 66 0 47 0;
#X connect 66 1 47 1;
#X connect 67 0 55 0;
#X connect 67 1 55 1;
#X connect 68 0 48 0;
#X connect 68 1 48 1;
#X connect 69 0 57 0;
#X connect 69 1 57 1;
#X connect 70 0 56 0;
#X connect 70 1 56 1;
#X connect 76 0 8 0;
#X connect 77 0 2 0;
#X connect 78 0 10 0;
#X restore 569 423 pd 2dist_mod;
#X restore 184 144 pd modulation;
#X obj 819 205 cnv 19 96 32 empty empty empty 20 12 0 12 #e3c6ff #404040 0;
#X obj 844 211 outlet~;
#N canvas 169 124 990 889 high-pass_filter 0;
#N canvas 1335 171 450 300 reference 0;
#X text 304 189 signal~ [-1 \, 1];
#X text 40 43 Inlet 1: Cutoff control;
#X text 39 61 Inlet 2: Resonance control;
#X text 39 121 Inlet 5: Keyboard Tracking (Off/Half/Full);
#X text 39 82 Inlet 3: Envelope Amount control;
#X text 31 189 Outlet 1: High-Pass Filtered output;
#X text 37 101 Inlet 4: Velocity modulation On/Off;
#X restore 830 62 pd reference;
#X obj 97 584 cnv 19 64 24 empty empty empty 20 12 0 12 #c6ffc7 #404040 0;
#X text 70 560 Mixer signal~;
#X obj 331 794 cnv 19 64 24 empty empty empty 20 12 0 12 #e3c6ff #404040 0;
#X obj 338 795 outlet~;
#X obj 161 183 cnv 19 64 24 empty empty empty 20 12 0 12 #feffc6 #404040 0;
#X obj 630 184 cnv 19 64 24 empty empty empty 20 12 0 12 #feffc6 #404040 0;
#X obj 492 182 cnv 19 64 24 empty empty empty 20 12 0 12 #feffc6 #404040 0;
#X obj 763 182 cnv 19 64 24 empty empty empty 20 12 0 12 #feffc6 #404040 0;
#X obj 168 185 inlet;
#X obj 504 185 inlet;
#X obj 641 186 inlet;
#X obj 775 185 inlet;
#X obj 343 184 cnv 19 64 24 empty empty empty 20 12 0 12 #feffc6 #404040 0;
#X obj 349 186 inlet;
#X obj 258 720 else/svfilter~;
#X obj 607 479 cnv 19 64 24 empty empty empty 20 12 0 12 #c6ffc7 #404040 0;
#X text 545 456 Filter Envelope signal~;
#N canvas 365 362 1115 662 cutoff_freq 0;
#X obj 131 110 inlet;
#X obj 284 113 inlet;
#X obj 430 114 inlet;
#X obj 966 118 inlet~;
#X text 112 81 MIDI Note Nr;
#X text 262 83 Cutoff value;
#X text 402 84 Keyboard Track;
#X text 936 85 Filter Envelope;
#X text 568 83 Envelope Amount;
#X obj 598 118 inlet;
#X obj 430 171 select 0 1 2;
#X msg 430 199 0;
#X msg 460 199 0.5;
#X msg 490 199 1;
#X text 412 149 0% / 50& / 100%;
#X obj 460 242 t b f;
#X obj 131 216 mtof;
#X msg 631 204 8;
#X obj 599 245 * 8;
#X obj 631 181 loadbang;
#X text 629 158 Env depth;
#X obj 811 356 *~;
#X obj 486 451 *~;
#X obj 283 193 t b f;
#X obj 131 367 *;
#X obj 131 450 +;
#X obj 130 525 +~;
#X obj 130 580 outlet~;
#X obj 761 119 inlet;
#X text 723 83 Velocity modulation;
#N canvas 1217 319 611 523 velocity_mod 0;
#X obj 325 231 spigot;
#X msg 246 265 1;
#N canvas 991 97 450 300 rescale_vel 0;
#X obj 177 62 inlet;
#X obj 177 121 expr $f1 / $f2;
#X obj 272 97 r bit;
#X obj 177 187 outlet;
#X connect 0 0 1 0;
#X connect 1 0 3 0;
#X connect 2 0 1 1;
#X restore 325 136 pd rescale_vel;
#X text 323 87 Note velocity;
#X obj 245 114 inlet;
#X text 171 114 VELOCITY;
#X obj 347 110 cnv 19 64 24 empty empty empty 20 12 0 12 #c6ffc7 #404040 0;
#X obj 277 410 outlet;
#X obj 246 231 select 0;
#X obj 325 112 r \$0-note_vel;
#X connect 0 0 7 0;
#X connect 1 0 7 0;
#X connect 2 0 0 0;
#X connect 4 0 0 1;
#X connect 4 0 8 0;
#X connect 8 0 1 0;
#X connect 9 0 2 0;
#X restore 761 192 pd velocity_mod;
#X text 769 170 Velocity mod:;
#X obj 678 295 *;
#X obj 731 246 t b f;
#X connect 0 0 16 0;
#X connect 1 0 23 0;
#X connect 2 0 10 0;
#X connect 3 0 21 1;
#X connect 9 0 18 0;
#X connect 10 0 11 0;
#X connect 10 1 12 0;
#X connect 10 2 13 0;
#X connect 11 0 15 0;
#X connect 12 0 15 0;
#X connect 13 0 15 0;
#X connect 15 0 24 0;
#X connect 15 1 24 1;
#X connect 16 0 22 0;
#X connect 16 0 24 0;
#X connect 17 0 18 1;
#X connect 18 0 32 0;
#X connect 19 0 17 0;
#X connect 21 0 22 1;
#X connect 22 0 26 1;
#X connect 23 0 25 0;
#X connect 23 1 25 1;
#X connect 24 0 25 0;
#X connect 25 0 26 0;
#X connect 26 0 27 0;
#X connect 28 0 30 0;
#X connect 30 0 33 0;
#X connect 32 0 21 0;
#X connect 33 0 32 0;
#X connect 33 1 32 1;
#X restore 385 544 pd cutoff_freq;
#X obj 227 471 cnv 19 64 24 empty empty empty 20 12 0 12 #c6ffc7 #404040 0;
#X text 208 449 MIDI Note nr;
#N canvas 1076 632 450 300 clip 0;
#X obj 134 62 inlet~;
#X obj 134 200 outlet~;
#X obj 134 141 clip~ 20 22050;
#X obj 229 62 loadbang;
#X obj 229 86 samplerate~;
#X obj 229 110 / 2;
#X connect 0 0 2 0;
#X connect 2 0 1 0;
#X connect 3 0 4 0;
#X connect 4 0 5 0;
#X connect 5 0 2 2;
#X restore 385 638 pd clip;
#X text 164 152 CUTOFF;
#X text 336 150 RESONANCE;
#X text 490 148 ENV AMOUNT;
#X text 630 151 VELOCITY;
#X text 767 148 KEYBOARD;
#X obj 89 586 r~ \$0-mix;
#X obj 564 482 r~ \$0-filter_env;
#X obj 209 474 r \$0-note_nr;
#N canvas 970 679 450 300 cutoff_mod 0;
#X obj 148 163 +;
#X obj 148 94 inlet;
#X obj 218 95 inlet;
#X obj 218 119 t b f;
#X obj 148 232 outlet;
#X obj 148 187 clip 50 20000;
#X connect 0 0 5 0;
#X connect 1 0 0 0;
#X connect 2 0 3 0;
#X connect 3 0 0 0;
#X connect 3 1 0 1;
#X connect 5 0 4 0;
#X restore 168 264 pd cutoff_mod;
#X obj 220 207 cnv 19 64 24 empty empty empty 20 12 0 12 #c6ffc7 #404040 0;
#X obj 281 354 line;
#X text 203 329 Smoothing:;
#X msg 281 329 \$1 50;
#N canvas 692 578 450 300 rescale_res 0;
#X obj 338 104 r bit;
#X obj 89 66 inlet;
#X obj 89 203 outlet;
#X obj 89 131 expr $f1 / $f2;
#X text 95 111 Rescale: 0 to 1;
#X connect 0 0 3 1;
#X connect 1 0 3 0;
#X connect 3 0 2 0;
#X restore 359 268 pd rescale_res;
#X obj 378 239 cnv 19 64 24 empty empty empty 20 12 0 12 #c6ffc7 #404040 0;
#N canvas 725 436 450 300 resonance_mod 0;
#X obj 148 163 +;
#X obj 148 94 inlet;
#X obj 218 95 inlet;
#X obj 218 119 t b f;
#X obj 148 232 outlet;
#X obj 148 187 clip 0 1;
#X connect 0 0 5 0;
#X connect 1 0 0 0;
#X connect 2 0 3 0;
#X connect 3 0 0 0;
#X connect 3 1 0 1;
#X connect 5 0 4 0;
#X restore 349 302 pd resonance_mod;
#N canvas 181 747 450 300 rescale_cutoff 0;
#X obj 124 33 inlet;
#X obj 171 247 outlet;
#X obj 366 169 r bit;
#X text 54 193 Rescale:;
#X obj 124 193 expr ($f1 * 19950) / $f2 + 50;
#X text 139 111 (Linear modulation response);
#X connect 0 0 4 0;
#X connect 2 0 4 1;
#X connect 4 0 1 0;
#X restore 201 238 pd rescale_cutoff;
#X text 386 58 ___ High-Pass Filter ___;
#X obj 201 211 r \$0-hpf_cutoff_mod;
#X obj 359 243 r \$0-hpf_res_mod;
#X text 374 719 Two-pole resonant High-Pass Filter;
#X text 140 795 High-Pass filtered output:;
#X connect 9 0 30 0;
#X connect 10 0 18 3;
#X connect 11 0 18 4;
#X connect 12 0 18 2;
#X connect 14 0 37 0;
#X connect 15 1 4 0;
#X connect 18 0 21 0;
#X connect 21 0 15 1;
#X connect 27 0 15 0;
#X connect 28 0 18 5;
#X connect 29 0 18 0;
#X connect 30 0 34 0;
#X connect 32 0 18 1;
#X connect 34 0 32 0;
#X connect 35 0 37 1;
#X connect 37 0 15 2;
#X connect 38 0 30 1;
#X connect 40 0 38 0;
#X connect 41 0 35 0;
#X restore 432 509 pd high-pass_filter;
#X f 26;
#X obj 432 535 s~ \$0-hpf;
#X obj 432 394 r hpf_cut_O;
#X obj 476 417 r hpf_res_O;
#X obj 521 440 r hpf_env_O;
#X obj 566 463 r hpf_vel_O;
#X obj 611 486 r hpf_key_O;
#X text 761 94 Filtered signal;
#X text 897 93 Amplitude envelope;
#X text 424 345 Filters applied in series \; (mixer -> hpf -> lpf);
#X obj 17 89 mpe_voice;
#X obj 112 183 s \$0-note_glidevib;
#X obj 185 57 inlet;
#X obj 185 87 s \$0-voice;
#X connect 0 0 45 0;
#X connect 1 0 45 1;
#X connect 2 0 45 2;
#X connect 3 0 46 2;
#X connect 4 0 46 1;
#X connect 5 0 46 0;
#X connect 6 0 46 4;
#X connect 7 0 46 5;
#X connect 8 0 46 3;
#X connect 9 0 45 3;
#X connect 10 0 47 0;
#X connect 11 0 47 1;
#X connect 12 0 47 2;
#X connect 13 0 47 3;
#X connect 14 0 48 0;
#X connect 15 0 48 1;
#X connect 16 0 48 2;
#X connect 17 0 48 3;
#X connect 18 0 48 4;
#X connect 19 0 49 0;
#X connect 20 0 49 1;
#X connect 21 0 49 2;
#X connect 22 0 49 3;
#X connect 23 0 50 0;
#X connect 24 0 50 1;
#X connect 25 0 50 2;
#X connect 26 0 50 3;
#X connect 27 0 50 4;
#X connect 28 0 50 5;
#X connect 31 0 67 0;
#X connect 45 0 40 0;
#X connect 45 1 41 0;
#X connect 46 0 38 0;
#X connect 47 0 39 0;
#X connect 48 0 42 0;
#X connect 49 0 43 0;
#X connect 50 0 44 0;
#X connect 51 0 56 0;
#X connect 52 0 51 1;
#X connect 53 0 51 0;
#X connect 57 0 58 0;
#X connect 59 0 57 0;
#X connect 60 0 57 1;
#X connect 61 0 57 2;
#X connect 62 0 57 3;
#X connect 63 0 57 4;
#X connect 67 0 37 0;
#X connect 67 1 36 0;
#X connect 67 2 35 0;
#X connect 67 3 34 0;
#X connect 67 4 33 0;
#X connect 67 5 32 0;
#X connect 67 6 68 0;
#X connect 69 0 70 0;
