#N canvas 906 167 878 891 12;
#N canvas 63 88 450 300 reference 0;
#X text 275 189 signal~ [-1 \, 1];
#X text 31 189 Outlet 1: Oscillator 1 output;
#X text 40 43 Inlet 1: Frequency control;
#X text 40 64 Inlet 2: Sync On/Off;
#X text 40 85 Inlet 3: Shape control;
#X text 40 104 Inlet 4: Pulse Width control;
#X text 30 209 Outlet 2: Sub-Octave output;
#X text 276 207 signal~ [-1 \, 1];
#X restore 742 32 pd reference;
#X obj 581 350 line;
#X msg 581 325 \$1 100;
#X text 503 325 Smoothing:;
#X obj 189 119 cnv 19 64 24 empty empty empty 20 12 0 12 #feffc6 #404040 0;
#X obj 283 740 cnv 19 96 32 empty empty empty 20 12 0 12 #e3c6ff #404040 0;
#X obj 304 746 outlet~;
#X text 183 747 Osc 1 signal~;
#X obj 626 744 cnv 19 96 32 empty empty empty 20 12 0 12 #e3c6ff #404040 0;
#X obj 645 747 outlet~;
#X obj 201 122 inlet;
#X obj 309 117 cnv 19 64 24 empty empty empty 20 12 0 12 #feffc6 #404040 0;
#X obj 324 121 inlet;
#X obj 423 119 cnv 19 64 24 empty empty empty 20 12 0 12 #feffc6 #404040 0;
#X obj 436 121 inlet;
#X obj 569 121 cnv 19 64 24 empty empty empty 20 12 0 12 #feffc6 #404040 0;
#X obj 582 124 inlet;
#X obj 122 335 cnv 19 64 24 empty empty empty 20 12 0 12 #c6ffc7 #404040 0;
#X obj 255 496 cnv 19 64 24 empty empty empty 20 12 0 12 #c6ffc7 #404040 0;
#X obj 259 498 r~ osc2;
#X obj 120 336 r note_nr;
#N canvas 353 378 450 468 midi2freq 0;
#X obj 87 48 inlet;
#X obj 300 52 inlet;
#X obj 137 390 outlet;
#X text 23 390 Note frequency:;
#X text 74 15 MIDI Note Nr;
#X text 237 23 Frequency Control offset;
#X floatatom 248 136 5 0 0 0 - - - 0;
#X floatatom 196 172 5 21 108 0 - - - 0;
#X obj 196 203 +;
#X floatatom 137 275 5 0 0 0 - - - 0;
#X obj 137 298 mtof;
#X text 66 203 Frequency offset:;
#X text 74 172 MID Note Number:;
#X obj 246 170 t b f;
#X obj 333 391 outlet;
#X text 235 391 Sub-Oct Note:;
#X connect 0 0 7 0;
#X connect 1 0 6 0;
#X connect 6 0 13 0;
#X connect 7 0 8 0;
#X connect 8 0 9 0;
#X connect 8 0 14 0;
#X connect 9 0 10 0;
#X connect 10 0 2 0;
#X connect 13 0 8 0;
#X connect 13 1 8 1;
#X restore 120 372 pd midi2freq;
#N canvas 382 407 450 459 sub_oct 0;
#X obj 198 32 inlet;
#X obj 198 359 outlet~;
#X obj 198 109 - 12;
#X obj 198 133 mtof;
#X text 101 109 Octave shift;
#X obj 198 265 else/bl.tri~;
#X text 36 264 Sub-Octave Oscillator:;
#X text 85 288 (Triangle);
#X connect 0 0 2 0;
#X connect 2 0 3 0;
#X connect 3 0 5 0;
#X connect 5 0 1 0;
#X restore 645 609 pd sub_oct;
#X text 530 610 Sub-Oscillator:;
#N canvas 94 141 984 920 oscillator 0;
#X obj 112 83 inlet;
#X obj 298 89 inlet~;
#X obj 609 92 inlet;
#X obj 472 859 outlet~;
#X text 588 38 Shape control;
#X text 562 64 (Tri - Saw – Square);
#X obj 819 101 inlet;
#X text 771 62 Pulse Width modulation;
#X text 87 57 Note frequency;
#X obj 442 93 inlet;
#X text 424 57 Sync On/Off;
#X text 259 57 Oscillator 2 (Sync);
#X obj 331 503 bl.vsaw~;
#X floatatom 535 202 7 0 0 0 - - - 0;
#X floatatom 669 201 5 0 0 0 - - - 0;
#X floatatom 358 424 8 0 0 0 - - - 0;
#X floatatom 450 649 9 0 0 0 - - - 0;
#X text 219 396 Rescale: 0.5 to 1;
#X obj 612 481 bl.square~;
#X text 335 621 Rescale: 0 to 1;
#X obj 333 742 *~ 1;
#X obj 612 744 *~ 0;
#X obj 358 715 expr $f1 * -1 + 1;
#X text 521 481 OSC: Square;
#X obj 535 173 min 0.5;
#X obj 669 169 max 0.5;
#X obj 348 397 + 0.5;
#X obj 450 622 expr $f1 * 2 - 1;
#X obj 544 316 *~ 0;
#X text 445 304 (hard) sync;
#X text 448 322 with Osc 2;
#X text 227 502 OSC: Tri/Saw;
#X floatatom 371 742 5 0 0 0 - - - 0;
#X text 346 598 For~[bl.vsaw~] <-> [bl.square~] crossfade;
#X text 218 715 Rescale: 1 to 0;
#X text 214 375 Triangle <-> Sawtooth waveshape crossfade;
#X text 318 857 Oscillator 1 Output:;
#X connect 0 0 12 0;
#X connect 0 0 18 0;
#X connect 1 0 28 0;
#X connect 2 0 24 0;
#X connect 2 0 25 0;
#X connect 6 0 18 1;
#X connect 9 0 28 1;
#X connect 12 0 20 0;
#X connect 13 0 26 0;
#X connect 14 0 27 0;
#X connect 16 0 22 0;
#X connect 16 0 21 1;
#X connect 18 0 21 0;
#X connect 20 0 3 0;
#X connect 21 0 3 0;
#X connect 22 0 20 1;
#X connect 22 0 32 0;
#X connect 24 0 13 0;
#X connect 25 0 14 0;
#X connect 26 0 12 1;
#X connect 26 0 15 0;
#X connect 27 0 16 0;
#X connect 28 0 12 2;
#X connect 28 0 18 2;
#X restore 304 607 pd oscillator;
#X text 515 751 Sub-Oct signal~;
#X text 316 12 ___ OSCILLATOR 1 ___;
#X text 325 92 SYNC;
#X text 188 92 FREQUENCY;
#X text 436 94 SHAPE;
#X text 562 94 PULSE WIDTH;
#X connect 1 0 24 4;
#X connect 2 0 1 0;
#X connect 10 0 21 1;
#X connect 12 0 24 2;
#X connect 14 0 24 3;
#X connect 16 0 2 0;
#X connect 19 0 24 1;
#X connect 20 0 21 0;
#X connect 21 0 24 0;
#X connect 21 1 22 0;
#X connect 22 0 9 0;
#X connect 24 0 6 0;
#X coords 0 891 1 890 412 128 0;
