#N canvas 242 233 976 704 12;
#X obj 145 103 cnv 19 512 128 empty empty High-Pass\ Filter 192 12 0 18 #ffe3c6 #553512 0;
#X obj 178 149 knob 50 0 127 0 0 empty empty #dfdfdf #7c7c7c black 0 0 0 0 1 320 0 0 0;
#X obj 181 207 note 0 12 Menlo empty 0 0 0 0 0 255 255 255 0 0 CUTOFF;
#X obj 271 149 knob 50 0 127 0 0 empty empty #dfdfdf #7c7c7c black 0 0 0 0 1 320 0 0 0;
#X obj 262 207 note 0 12 Menlo empty 0 0 0 0 0 255 255 255 0 0 RESONANCE;
#X obj 368 149 knob 50 0 127 0 64 empty empty #dfdfdf #7c7c7c black 0 0 0 0 1 320 0 0 64;
#X obj 359 208 note 0 12 Menlo empty 0 0 0 0 0 255 255 255 0 0 ENV AMOUNT;
#X obj 569 200 note 0 12 Menlo empty 0 0 0 0 0 255 255 255 0 0 KEYBOARD;
#X obj 573 166 hradio 19 1 0 3 empty empty empty 0 -10 0 12 #fcfcfc #000000 #000000 0;
#X floatatom 269 372 9 0 0 0 - - - 0;
#X text 265 391 Rescale: 0.001 to 100;
#X floatatom 177 282 9 0 0 0 - - - 0;
#X text 173 300 Rescale: 20 to 20000;
#X obj 177 258 expr ($f1 * 19980) / 127 + 20;
#X obj 269 348 expr ($f1 * 99.999) / 127 + 0.001;
#X obj 172 475 else/highpass~;
#X obj 483 174 button 40 20 186 186 186 186 32 32 1;
#X obj 475 202 note 0 12 Menlo empty 0 0 0 0 0 255 255 255 0 0 VELOCITY;
#X obj 511 19 loadbang;
#X msg 511 43 dim 40 20 \, toggle \, bgcolor 186 186 186 \, fgcolor 186 32 32 \, float 0;
#X text 107 516 Two-pole resonant High-Pass Filter:;
#X obj 579 294 select 0 1 2;
#X obj 568 347 bng 19 250 50 0 empty empty empty 0 -10 0 12 #fcfcfc #000000 #000000;
#X obj 614 348 bng 19 250 50 0 empty empty empty 0 -10 0 12 #fcfcfc #000000 #000000;
#X obj 660 350 bng 19 250 50 0 empty empty empty 0 -10 0 12 #fcfcfc #000000 #000000;
#X text 569 268 Keyboard tracking:;
#X text 679 295 Off/Half/Full;
#X connect 1 0 13 0;
#X connect 3 0 14 0;
#X connect 8 0 21 0;
#X connect 9 0 15 2;
#X connect 11 0 15 1;
#X connect 13 0 11 0;
#X connect 14 0 9 0;
#X connect 18 0 19 0;
#X connect 19 0 16 0;
#X connect 21 0 22 0;
#X connect 21 1 23 0;
#X connect 21 2 24 0;
