#N canvas 646 219 1017 787 12;
#X obj 145 103 cnv 19 576 128 empty empty Oscillator\ 2 222 16 0 18 #ffe3c6 #553512 0;
#X obj 176 147 knob 50 -24 24 0 0 empty empty #dfdfdf #7c7c7c black 0 0 49 1 0 320 0 0 0;
#X obj 164 201 note 74 12 Menlo empty 0 85 53 18 0 255 255 255 0 0 FREQUENCY;
#X obj 364 142 knob 50 0 1 0 0.5 empty empty #dfdfdf #7c7c7c black 0 0 0 0 0 320 0 0 0;
#X obj 370 201 note 44 12 Menlo empty 0 85 53 18 0 255 255 255 0 0 SHAPE;
#X obj 468 143 knob 50 0.02 0.98 0 0.5 empty empty #dfdfdf #7c7c7c black 0 0 0 0 1 320 0 0 0.5;
#X obj 450 201 note 0 12 Menlo empty 0 0 0 0 0 255 255 255 0 0 PULSE WIDTH;
#X obj 268 146 knob 50 -0.5 0.5 0 0 empty empty #dfdfdf #7c7c7c black 0 0 101 1 0 320 0 0 0;
#X obj 273 200 note 29 12 Menlo empty 0 85 53 18 0 255 255 255 0 0 FINE;
#X obj 562 199 note 0 12 Menlo empty 0 0 0 0 0 255 255 255 0 0 LOW FREQ;
#X obj 640 199 note 0 12 Menlo empty 0 0 0 0 0 255 255 255 0 0 KEYBOARD;
#N canvas 1 83 450 300 reference 0;
#X text 275 189 signal~ [-1 \, 1];
#X text 39 189 Outlet 1: Oscillator 2 output;
#X text 40 45 Inlet 1: (Coarse) Frequency control;
#X text 39 64 Inlet 2: Fine (Frequency) control;
#X text 39 83 Inlet 3: Shape control;
#X text 38 102 Inlet 4: Pulse Width control;
#X text 37 121 Inlet 5: Low Freq On/Off;
#X text 38 141 Inlet 6: Keyboard On/Off;
#X restore 893 35 pd reference;
#X obj 146 103 cnv 4 16 4 empty empty empty 20 12 0 12 #000000 #404040 0;
#X obj 705 103 cnv 4 16 4 empty empty empty 20 12 0 12 #000000 #404040 0;
#X obj 256 103 cnv 4 16 4 empty empty empty 20 12 0 12 #000000 #404040 0;
#X obj 478 103 cnv 4 16 4 empty empty empty 20 12 0 12 #000000 #404040 0;
#X obj 595 103 cnv 4 16 4 empty empty empty 20 12 0 12 #000000 #404040 0;
#X obj 145 227 cnv 4 16 4 empty empty empty 20 12 0 12 #000000 #404040 0;
#X floatatom 268 235 7 0 0 0 - - - 0;
#X floatatom 176 235 4 0 0 0 - - - 0;
#X obj 364 103 cnv 4 16 4 empty empty empty 20 12 0 12 #000000 #404040 0;
#X obj 648 424 r pre_freq;
#X obj 574 520 s post_freq;
#X obj 264 499 r post_freq;
#X obj 648 474 s low_update;
#X obj 244 357 r low_update;
#X obj 469 389 line;
#X msg 469 364 \$1 100;
#X text 388 369 Smoothing:;
#X floatatom 582 498 10 0 0 0 - - - 0;
#X obj 63 338 r post_note_nr;
#X obj 651 338 s post_note_nr;
#X obj 574 153 tgl 36 0 empty empty empty 0 -10 0 12 #bbbbbb #c10100 #000000 0 1;
#X obj 651 153 tgl 36 0 empty empty empty 0 -10 0 12 #bbbbbb #c10100 #000000 0 1;
#X obj 298 664 cnv 19 96 32 empty empty empty 20 12 0 12 #e3c6ff #404040 0;
#X obj 318 671 outlet~;
#X obj 238 29 cnv 19 64 24 empty empty empty 20 12 0 12 #feffc6 #404040 0;
#X obj 249 32 inlet;
#X obj 589 75 cnv 19 64 24 empty empty empty 20 12 0 12 #feffc6 #404040 0;
#X obj 695 78 cnv 19 64 24 empty empty empty 20 12 0 12 #feffc6 #404040 0;
#X obj 599 80 inlet;
#X obj 707 80 inlet;
#X obj 121 31 cnv 19 64 24 empty empty empty 20 12 0 12 #feffc6 #404040 0;
#X obj 133 34 inlet;
#N canvas 324 349 450 300 rescale_freq 0;
#X obj 129 48 inlet;
#X obj 129 196 outlet;
#X obj 322 99 r bit;
#X obj 129 121 expr (($f1 / $f2) * 49) - 24;
#X text 73 92 Rescale: -24 to 24;
#X text 215 92 (+/- 2 oct);
#X connect 0 0 3 0;
#X connect 2 0 3 1;
#X connect 3 0 1 0;
#X restore 133 68 pd rescale_freq;
#N canvas 215 530 450 300 rescale_fine 0;
#X obj 122 69 inlet;
#X obj 122 218 outlet;
#X obj 336 107 r bit;
#X obj 122 131 expr (($f1 / $f2) * 1.01) - 0.5;
#X text 63 111 Rescale: -0.5 to 0.5 (with center '0');
#X connect 0 0 3 0;
#X connect 2 0 3 1;
#X connect 3 0 1 0;
#X restore 249 67 pd rescale_fine;
#N canvas 160 371 510 549 keyboard_control 0;
#X obj 203 101 inlet;
#X obj 211 449 outlet;
#X obj 203 150 select 0 1;
#X msg 251 225 1;
#X obj 250 262 tgl 19 0 empty empty empty 0 -10 0 12 #fcfcfc #000000 #000000 0 1;
#X msg 196 224 0;
#X obj 357 181 loadbang;
#X msg 283 225 0;
#X msg 165 224 1;
#X obj 184 260 tgl 19 0 empty empty empty 0 -10 0 12 #fcfcfc #000000 #000000 0 1;
#X obj 153 377 spigot;
#X msg 153 351 60;
#X obj 263 378 spigot;
#X obj 263 349 f;
#X obj 250 308 bng 19 250 50 0 empty empty empty 0 -10 0 12 #fcfcfc #000000 #000000;
#X text 347 160 (Default On);
#X obj 357 104 inlet;
#X text 165 77 Keyboard On/Off;
#X text 31 339 Keyboard Off \; default Note Nr:;
#X text 83 449 Post MIDI Note Nr;
#X text 332 75 (Pre) MIDI Note Nr;
#X connect 0 0 2 0;
#X connect 2 0 5 0;
#X connect 2 0 8 0;
#X connect 2 1 3 0;
#X connect 2 1 7 0;
#X connect 3 0 4 0;
#X connect 4 0 12 1;
#X connect 4 0 14 0;
#X connect 5 0 4 0;
#X connect 6 0 3 0;
#X connect 7 0 9 0;
#X connect 8 0 9 0;
#X connect 9 0 10 1;
#X connect 9 0 11 0;
#X connect 10 0 1 0;
#X connect 11 0 10 0;
#X connect 12 0 1 0;
#X connect 13 0 12 0;
#X connect 14 0 13 0;
#X connect 16 0 13 0;
#X restore 651 312 pd keyboard_control;
#N canvas 70 362 701 649 lfo_mode 0;
#X obj 250 108 inlet;
#X obj 509 104 inlet;
#X obj 170 574 outlet;
#X obj 550 581 outlet;
#X text 483 78 Pre Freqency:;
#X obj 250 170 select 0 1;
#X floatatom 366 458 9 0 0 0 - - - 0;
#X msg 296 229 1;
#X msg 328 230 0;
#X obj 296 263 tgl 19 0 empty empty empty 0 -10 0 12 #fcfcfc #000000 #000000 0 1;
#X obj 171 415 spigot;
#X msg 210 229 1;
#X msg 241 229 0;
#X obj 210 263 tgl 19 0 empty empty empty 0 -10 0 12 #fcfcfc #000000 #000000 0 1;
#X obj 366 392 spigot;
#X obj 366 417 expr (((50 - 0.1) / (17234.7 - 6.67928)) * ($f1 - 6.67928)) + 0.1, f 40;
#X floatatom 171 439 9 0 0 0 - - - 0;
#X obj 170 516 f;
#X obj 279 512 bng 19 250 50 0 empty empty empty 0 -10 0 12 #fcfcfc #000000 #000000;
#X text 86 423 No Change:;
#X text 296 425 Low Freq:;
#X text 455 580 Update Freq:;
#X obj 143 179 loadbang;
#X text 213 62 Low Freq On/Off:;
#X text 234 81 (LFO Mode);
#X text 123 157 (Default Off);
#X text 48 575 Post Frequency:;
#X text 519 395 (Needs rescaling!);
#X connect 0 0 5 0;
#X connect 1 0 10 0;
#X connect 1 0 14 0;
#X connect 5 0 11 0;
#X connect 5 0 12 0;
#X connect 5 1 7 0;
#X connect 5 1 8 0;
#X connect 6 0 17 0;
#X connect 7 0 9 0;
#X connect 8 0 13 0;
#X connect 9 0 14 1;
#X connect 9 0 18 0;
#X connect 10 0 16 0;
#X connect 11 0 13 0;
#X connect 12 0 9 0;
#X connect 13 0 10 1;
#X connect 13 0 18 0;
#X connect 14 0 15 0;
#X connect 15 0 6 0;
#X connect 16 0 17 0;
#X connect 17 0 2 0;
#X connect 18 0 3 0;
#X connect 22 0 11 0;
#X restore 574 449 pd lfo_mode;
#N canvas 929 172 927 588 midi2freq 0;
#X obj 327 73 inlet;
#X obj 526 77 inlet;
#X obj 132 80 inlet;
#X obj 762 85 inlet;
#X obj 532 520 outlet;
#X text 255 45 Frequency Control offset;
#X text 481 47 Fine Control offset;
#X text 740 49 Low Update;
#X obj 238 250 +;
#X floatatom 532 449 5 0 0 0 - - - 0;
#X obj 378 332 +;
#X obj 487 186 t b f;
#X obj 532 472 mtof;
#X obj 532 411 f;
#X text 436 409 Update Freq:;
#X obj 327 163 t b f;
#X text 80 47 Post MIDI Note Nr;
#X text 46 250 (Coarse) Frequency offset:;
#X text 197 329 Fine (Frequency)offset:;
#X text 423 520 Pre Frequency:;
#X connect 0 0 15 0;
#X connect 1 0 11 0;
#X connect 2 0 8 0;
#X connect 3 0 13 0;
#X connect 8 0 10 0;
#X connect 9 0 12 0;
#X connect 10 0 13 0;
#X connect 11 0 10 0;
#X connect 11 1 10 1;
#X connect 12 0 4 0;
#X connect 13 0 9 0;
#X connect 15 0 8 0;
#X connect 15 1 8 1;
#X restore 142 388 pd midi2freq;
#X f 15;
#X obj 142 412 s pre_freq;
#X obj 783 283 cnv 19 64 24 empty empty empty 20 12 0 12 #c6ffc7 #404040 0;
#X obj 781 285 r note_nr;
#X obj 475 34 cnv 19 64 24 empty empty empty 20 12 0 12 #feffc6 #404040 0;
#X obj 488 37 inlet;
#N canvas 150 175 450 300 rescale_pw 0;
#X obj 128 67 inlet;
#X obj 128 207 outlet;
#X floatatom 128 150 9 0 0 0 - - - 0;
#X obj 349 99 r bit;
#X obj 128 126 expr (($f1 * 0.96) / $f2) + 0.02;
#X text 69 106 Rescale: 0.02 to 0.98;
#X connect 0 0 4 0;
#X connect 2 0 1 0;
#X connect 3 0 4 1;
#X connect 4 0 2 0;
#X restore 488 67 pd rescale_pw;
#N canvas 63 123 886 832 oscillator2 0;
#X text 136 72 Note Frequency (post);
#X obj 192 108 inlet;
#X obj 410 112 inlet;
#X text 389 58 Shape control;
#X text 363 84 (Tri - Saw – Square);
#X obj 610 107 inlet;
#X text 562 68 Pulse Width modulation;
#X obj 426 764 outlet~;
#X text 271 765 Oscillator 2 Output:;
#X obj 274 419 bl.vsaw~;
#X floatatom 370 217 7 0 0 0 - - - 0;
#X floatatom 470 218 5 0 0 0 - - - 0;
#X floatatom 301 383 8 0 0 0 - - - 0;
#X floatatom 414 547 9 0 0 0 - - - 0;
#X text 150 354 Rescale: 0.5 to 1;
#X obj 589 416 bl.square~;
#X text 298 524 Rescale: 0 to 1;
#X obj 274 656 *~ 1;
#X obj 590 653 *~ 0;
#X floatatom 312 656 5 0 0 0 - - - 0;
#X obj 298 629 expr $f1 * -1 + 1;
#X text 174 420 OSC: Tri/Saw;
#X text 505 417 OSC: Square;
#X text 183 628 Rescale: 1 to 0;
#X obj 370 180 min 0.5;
#X obj 470 181 max 0.5;
#X obj 290 355 + 0.5;
#X obj 414 523 expr $f1 * 2 - 1;
#X text 284 501 For~[bl.vsaw~] <-> [bl.square~] crossfade;
#X text 152 334 Triangle <-> Sawtooth waveshape crossfade;
#X connect 1 0 9 0;
#X connect 1 0 15 0;
#X connect 2 0 24 0;
#X connect 2 0 25 0;
#X connect 5 0 15 1;
#X connect 9 0 17 0;
#X connect 10 0 26 0;
#X connect 11 0 27 0;
#X connect 13 0 20 0;
#X connect 13 0 18 1;
#X connect 15 0 18 0;
#X connect 17 0 7 0;
#X connect 18 0 7 0;
#X connect 20 0 17 1;
#X connect 20 0 19 0;
#X connect 24 0 10 0;
#X connect 25 0 11 0;
#X connect 26 0 12 0;
#X connect 26 0 9 1;
#X connect 27 0 13 0;
#X restore 317 536 pd oscillator2;
#X obj 352 33 cnv 19 64 24 empty empty empty 20 12 0 12 #feffc6 #404040 0;
#X obj 365 35 inlet;
#N canvas 469 494 450 300 rescale_shape 0;
#X obj 174 44 inlet;
#X obj 175 216 outlet;
#X obj 175 127 expr $f1 / $f2;
#X text 118 106 Rescale: 0 to 1;
#X obj 270 93 r bit;
#X connect 0 0 2 0;
#X connect 2 0 1 0;
#X connect 4 0 2 1;
#X restore 365 67 pd rescale_shape;
#X connect 1 0 19 0;
#X connect 3 0 55 1;
#X connect 5 0 27 0;
#X connect 7 0 18 0;
#X connect 18 0 48 2;
#X connect 19 0 48 1;
#X connect 21 0 47 1;
#X connect 23 0 55 0;
#X connect 25 0 48 3;
#X connect 26 0 55 2;
#X connect 27 0 26 0;
#X connect 30 0 48 0;
#X connect 32 0 47 0;
#X connect 33 0 46 0;
#X connect 37 0 45 0;
#X connect 40 0 32 0;
#X connect 41 0 33 0;
#X connect 43 0 44 0;
#X connect 44 0 1 0;
#X connect 45 0 7 0;
#X connect 46 0 31 0;
#X connect 47 0 29 0;
#X connect 47 0 22 0;
#X connect 47 1 24 0;
#X connect 48 0 49 0;
#X connect 51 0 46 1;
#X connect 53 0 54 0;
#X connect 54 0 5 0;
#X connect 55 0 35 0;
#X connect 57 0 58 0;
#X connect 58 0 3 0;
#X coords 0 -1 1 1 576 128 1 145 103;
