#N canvas 828 155 905 824 12;
#X obj 159 152 cnv 19 512 128 empty empty Filter\ Envelope 182 16 0 18 #ffe3c6 #553512 0;
#X obj 217 184 knob 50 1 20000 1 1 empty empty #dfdfdf #7c7c7c black 0 0 0 0 1 320 0 0 1;
#X obj 216 245 note 0 12 Menlo empty 0 0 0 0 0 255 255 255 0 0 ATTACK;
#X obj 339 185 knob 50 1 20000 1 1 empty empty #dfdfdf #7c7c7c black 0 0 0 0 1 320 0 0 1;
#X obj 338 246 note 0 12 Menlo empty 0 0 0 0 0 255 255 255 0 0 DECAY;
#X obj 462 185 knob 50 0 1 0 1 empty empty #dfdfdf #7c7c7c black 0 0 0 0 1 320 0 0 0;
#X obj 461 246 note 0 12 Menlo empty 0 0 0 0 0 255 255 255 0 0 SUSTAIN;
#X obj 577 184 knob 50 1 20000 1 1 empty empty #dfdfdf #7c7c7c black 0 0 0 0 1 320 0 0 1;
#X obj 576 245 note 0 12 Menlo empty 0 0 0 0 0 255 255 255 0 0 RELEASE;
#X floatatom 215 338 9 0 0 0 - - - 0;
#X floatatom 339 419 9 0 0 0 - - - 0;
#X floatatom 578 528 9 0 0 0 - - - 0;
#X obj 159 152 cnv 4 16 4 empty empty empty 20 12 0 12 #000000 #404040 0;
#X obj 655 152 cnv 4 16 4 empty empty empty 20 12 0 12 #000000 #404040 0;
#X obj 496 152 cnv 4 16 4 empty empty empty 20 12 0 12 #000000 #404040 0;
#X obj 319 152 cnv 4 16 4 empty empty empty 20 12 0 12 #000000 #404040 0;
#X obj 303 625 else/adsr~, f 21;
#N canvas 1293 547 450 300 lin2log_A 0;
#X obj 124 33 inlet;
#X obj 171 247 outlet;
#X obj 366 169 r bit;
#X obj 145 125 t b f;
#X obj 124 166 pow;
#X obj 296 74 r bit;
#X obj 145 98 expr ($f1 / ($f2 + 1));
#X obj 124 63 + 1;
#X text 40 166 Log-scale:;
#X text 54 193 Rescale:;
#X obj 124 193 expr (($f1 - 1) * 19999) / $f2 + 1;
#X connect 0 0 7 0;
#X connect 2 0 10 1;
#X connect 3 0 4 0;
#X connect 3 1 4 1;
#X connect 4 0 10 0;
#X connect 5 0 6 1;
#X connect 6 0 3 0;
#X connect 7 0 6 0;
#X connect 7 0 4 0;
#X connect 10 0 1 0;
#X restore 215 106 pd lin2log_A;
#N canvas 1293 547 450 300 lin2log_D 0;
#X obj 124 33 inlet;
#X obj 171 247 outlet;
#X obj 366 169 r bit;
#X obj 145 125 t b f;
#X obj 124 166 pow;
#X obj 296 74 r bit;
#X obj 145 98 expr ($f1 / ($f2 + 1));
#X obj 124 63 + 1;
#X text 40 166 Log-scale:;
#X text 54 193 Rescale:;
#X obj 124 193 expr (($f1 - 1) * 19999) / $f2 + 1;
#X connect 0 0 7 0;
#X connect 2 0 10 1;
#X connect 3 0 4 0;
#X connect 3 1 4 1;
#X connect 4 0 10 0;
#X connect 5 0 6 1;
#X connect 6 0 3 0;
#X connect 7 0 6 0;
#X connect 7 0 4 0;
#X connect 10 0 1 0;
#X restore 339 107 pd lin2log_D;
#X obj 204 75 cnv 19 64 24 empty empty empty 20 12 0 12 #feffc6 #404040 0;
#X obj 329 75 cnv 19 64 24 empty empty empty 20 12 0 12 #feffc6 #404040 0;
#X obj 452 57 cnv 19 64 24 empty empty empty 20 12 0 12 #feffc6 #404040 0;
#X obj 568 79 cnv 19 64 24 empty empty empty 20 12 0 12 #feffc6 #404040 0;
#X obj 215 76 inlet;
#X obj 339 78 inlet;
#X obj 577 81 inlet;
#X obj 462 59 inlet;
#N canvas 85 510 450 300 rescale_S 0;
#X floatatom 137 147 9 0 0 0 - - - 0;
#X text 146 103 Rescale: 0 to 1;
#X obj 136 53 inlet;
#X obj 137 211 outlet;
#X obj 137 123 expr ($f1 - $f2) / $f2 + 1;
#X obj 316 93 r bit;
#X connect 0 0 3 0;
#X connect 2 0 4 0;
#X connect 4 0 0 0;
#X connect 5 0 4 1;
#X restore 462 106 pd rescale_S;
#N canvas 1293 547 450 300 lin2log_R 0;
#X obj 124 33 inlet;
#X obj 171 247 outlet;
#X obj 366 169 r bit;
#X obj 145 125 t b f;
#X obj 124 166 pow;
#X obj 296 74 r bit;
#X obj 145 98 expr ($f1 / ($f2 + 1));
#X obj 124 63 + 1;
#X text 40 166 Log-scale:;
#X text 54 193 Rescale:;
#X obj 124 193 expr (($f1 - 1) * 19999) / $f2 + 1;
#X connect 0 0 7 0;
#X connect 2 0 10 1;
#X connect 3 0 4 0;
#X connect 3 1 4 1;
#X connect 4 0 10 0;
#X connect 5 0 6 1;
#X connect 6 0 3 0;
#X connect 7 0 6 0;
#X connect 7 0 4 0;
#X connect 10 0 1 0;
#X restore 577 110 pd lin2log_R;
#X floatatom 462 474 8 0 0 0 - - - 0;
#X text 405 84 Rescale: 0 to 1;
#X floatatom 167 502 5 0 0 0 - - - 0;
#X obj 299 687 cnv 19 64 24 empty empty empty 20 12 0 12 #e3c6ff #404040 0;
#X obj 303 689 outlet~;
#X obj 447 675 tgl 40 0 empty empty empty 17 7 0 10 #dcdcdc #000000 #000000 0 1;
#X obj 447 727 switch~;
#N canvas 1193 517 450 300 reference 0;
#X text 275 189 signal~ [0 \, 1];
#X text 39 61 Inlet 1: Attack (1-20 \, 0 ms);
#X text 39 81 Inlet 2: Decay (1-20 \, 0 ms);
#X text 40 102 Inlet 3: Sustain (0-1);
#X text 40 121 Inlet 4: Release (1-20 \, 0 ms);
#X text 31 189 Outlet 1: Filter Envelope output;
#X restore 782 47 pd reference;
#X obj 115 373 cnv 19 64 24 empty empty empty 20 12 0 12 #c6ffc7 #404040 0;
#X obj 159 276 cnv 4 16 4 empty empty empty 20 12 0 12 #000000 #404040 0;
#X text 20 106 Rescaling: 1 to 20000 (log);
#X text 379 752 Turn off DSP when inactive;
#X obj 106 375 r note_gate;
#X obj 106 399 * 127;
#X connect 1 0 9 0;
#X connect 3 0 10 0;
#X connect 5 0 29 0;
#X connect 7 0 11 0;
#X connect 9 0 16 2;
#X connect 10 0 16 3;
#X connect 11 0 16 5;
#X connect 16 0 33 0;
#X connect 16 1 34 0;
#X connect 17 0 1 0;
#X connect 18 0 3 0;
#X connect 23 0 17 0;
#X connect 24 0 18 0;
#X connect 25 0 28 0;
#X connect 26 0 27 0;
#X connect 27 0 5 0;
#X connect 28 0 7 0;
#X connect 29 0 16 4;
#X connect 31 0 16 0;
#X connect 34 0 35 0;
#X connect 41 0 42 0;
#X connect 42 0 31 0;
#X coords 0 -1 1 1 512 128 1 159 152;
