#N canvas 326 173 1348 913 12;
#X obj 145 103 cnv 19 576 128 empty empty Oscillator\ 2 222 16 0 18 #ffe3c6 #553512 0;
#X obj 176 147 knob 50 -24 24 0 0 empty empty #dfdfdf #7c7c7c black 0 0 49 1 0 320 0 0 0;
#X obj 164 201 note 74 12 Menlo empty 0 85 53 18 0 255 255 255 0 0 FREQUENCY;
#X obj 364 142 knob 50 0 127 0 64 empty empty #dfdfdf #7c7c7c black 0 0 0 0 0 320 0 0 0;
#X obj 370 201 note 44 12 Menlo empty 0 85 53 18 0 255 255 255 0 0 SHAPE;
#X obj 210 603 bl.vsaw~;
#X obj 301 385 tgl 19 0 empty empty empty 0 -10 0 12 #fcfcfc #000000 #000000 0 1;
#X obj 401 385 tgl 19 0 empty empty empty 0 -10 0 12 #fcfcfc #000000 #000000 0 1;
#X msg 339 352 0;
#X msg 439 351 0;
#X msg 401 351 1;
#X msg 301 353 1;
#X floatatom 325 385 7 0 0 0 - - - 0;
#X floatatom 424 386 5 0 0 0 - - - 0;
#X floatatom 216 467 8 0 0 0 - - - 0;
#X floatatom 430 463 9 0 0 0 - - - 0;
#X obj 401 284 max 63.5;
#X obj 301 283 min 63.5;
#X obj 301 328 select 63.5;
#X obj 401 327 select 63.5;
#X text 210 485 Rescale: 0.5 to 1;
#X obj 438 596 bl.square~;
#X text 429 490 Rescale: 0 to 1;
#X obj 217 692 *~ 1;
#X obj 428 685 *~ 0;
#X floatatom 279 662 5 0 0 0 - - - 0;
#X obj 279 635 expr $f1 * -1 + 1;
#X text 210 503 For Tri <-> Saw crossfade;
#X text 430 508 For Saw <-> Square crossfade;
#X text 110 604 OSC: Tri/Saw;
#X text 354 597 OSC: Square;
#X text 275 681 Rescale: 1 to 0;
#X obj 468 143 knob 50 0 127 0 64 empty empty #dfdfdf #7c7c7c black 0 0 0 0 1 320 0 0 64;
#X obj 450 201 note 0 12 Menlo empty 0 0 0 0 0 255 255 255 0 0 PULSE WIDTH;
#X floatatom 518 303 9 0 0 0 - - - 0;
#X obj 268 146 knob 50 -0.5 0.5 0 0 empty empty #dfdfdf #7c7c7c black 0 0 101 1 0 320 0 0 0;
#X obj 273 200 note 29 12 Menlo empty 0 85 53 18 0 255 255 255 0 0 FINE;
#X obj 562 199 note 0 12 Menlo empty 0 0 0 0 0 255 255 255 0 0 LOW FREQ;
#X obj 640 199 note 0 12 Menlo empty 0 0 0 0 0 255 255 255 0 0 KEYBOARD;
#X obj 841 445 select 0 1;
#X floatatom 994 734 9 0 0 0 - - - 0;
#X msg 893 503 1;
#X msg 925 503 0;
#X obj 893 537 tgl 19 0 empty empty empty 0 -10 0 12 #fcfcfc #000000 #000000 0 1;
#X obj 762 690 spigot;
#X msg 806 502 1;
#X msg 838 502 0;
#X obj 821 537 tgl 19 0 empty empty empty 0 -10 0 12 #fcfcfc #000000 #000000 0 1;
#X obj 994 668 spigot;
#N canvas 1 83 450 300 reference 0;
#X text 275 189 signal~ [-1 \, 1];
#X text 39 189 Outlet 1: Oscillator 2 output;
#X text 40 45 Inlet 1: (Coarse) Frequency control;
#X text 39 64 Inlet 2: Fine (Frequency) control;
#X text 39 83 Inlet 3: Shape control;
#X text 38 102 Inlet 4: Pulse Width control;
#X text 37 121 Inlet 5: Low Freq On/Off;
#X text 38 141 Inlet 6: Keyboard On/Off;
#X restore 1181 39 pd reference;
#X obj 146 103 cnv 4 16 4 empty empty empty 20 12 0 12 #000000 #404040 0;
#X obj 705 103 cnv 4 16 4 empty empty empty 20 12 0 12 #000000 #404040 0;
#X obj 256 103 cnv 4 16 4 empty empty empty 20 12 0 12 #000000 #404040 0;
#X obj 478 103 cnv 4 16 4 empty empty empty 20 12 0 12 #000000 #404040 0;
#X obj 595 103 cnv 4 16 4 empty empty empty 20 12 0 12 #000000 #404040 0;
#X obj 145 227 cnv 4 16 4 empty empty empty 20 12 0 12 #000000 #404040 0;
#X floatatom 269 233 7 0 0 0 - - - 0;
#X obj 424 7 r bit;
#X obj 306 56 r bit;
#X floatatom 180 235 4 0 0 0 - - - 0;
#X obj 243 31 expr (($f1 / $f2) * 1.01) - 0.5;
#X obj 216 439 expr $f1 / $f2 + 0.5;
#X obj 353 414 r bit;
#X obj 430 439 expr ($f1 - $f2) / 63.5 + 1;
#X obj 616 410 r bit;
#X obj 739 254 r bit;
#X obj 364 103 cnv 4 16 4 empty empty empty 20 12 0 12 #000000 #404040 0;
#X floatatom 128 270 5 21 108 0 - - - 0;
#X obj 139 359 +;
#X floatatom 138 487 5 0 0 0 - - - 0;
#X obj 139 410 +;
#X obj 269 256 t b f;
#X obj 138 510 mtof;
#X text 9 359 Frequency offset:;
#X text 38 410 Fine offset:;
#X text 7 271 MID Note Number:;
#X obj 146 79 expr (($f1 / $f2) * 49) - 24;
#X obj 994 693 expr (((50 - 0.1) / (17234.7 - 6.67928)) * ($f1 - 6.67928)) + 0.1, f 40;
#X obj 110 535 s pre_freq;
#X obj 867 627 r pre_freq;
#X floatatom 762 714 9 0 0 0 - - - 0;
#X obj 881 803 s post_freq;
#X obj 288 523 r post_freq;
#X obj 880 770 f;
#X obj 857 564 bng 19 250 50 0 empty empty empty 0 -10 0 12 #fcfcfc #000000 #000000;
#X obj 138 449 f;
#X text 677 698 No Change:;
#X text 919 701 Low Freq:;
#X obj 857 588 s low_update;
#X obj 36 430 r low_update;
#X text 756 587 Update Freq:;
#X text 40 449 Update Freq:;
#X obj 568 386 line;
#X msg 568 361 \$1 100;
#X text 487 366 Smoothing:;
#X obj 749 452 loadbang;
#X obj 178 270 t b f;
#X obj 1012 144 select 0 1;
#X msg 1060 219 1;
#X obj 1059 256 tgl 19 0 empty empty empty 0 -10 0 12 #fcfcfc #000000 #000000 0 1;
#X msg 1005 218 0;
#X obj 1070 181 loadbang;
#X text 468 631 Volume normalization;
#X floatatom 843 856 5 0 0 0 - - - 0;
#X text 1019 119 Keyboard:;
#X text 835 411 Low Freq:;
#X msg 1092 219 0;
#X msg 974 218 1;
#X obj 993 254 tgl 19 0 empty empty empty 0 -10 0 12 #fcfcfc #000000 #000000 0 1;
#X obj 128 293 s pre_note_nr;
#X obj 127 322 r post_note_nr;
#X obj 1081 295 r pre_note_nr;
#X obj 963 376 spigot;
#X msg 962 346 60;
#X obj 1063 371 spigot;
#X obj 1019 415 s post_note_nr;
#X obj 1063 342 f;
#X obj 1050 299 bng 19 250 50 0 empty empty empty 0 -10 0 12 #fcfcfc #000000 #000000;
#X obj 574 153 tgl 36 0 empty empty empty 0 -10 0 12 #bbbbbb #c10100 #000000 0 1;
#X obj 651 153 tgl 36 0 empty empty empty 0 -10 0 12 #bbbbbb #c10100 #000000 0 1;
#X obj 550 652 * 1;
#X obj 518 279 expr (($f1 * 0.96) / $f2) + 0.02;
#X text 514 322 Rescale: 0.02 to 0.98;
#X obj 137 52 cnv 19 64 24 empty empty empty 20 12 0 12 #feffc6 #404040 0;
#X obj 313 770 cnv 19 96 32 empty empty empty 20 12 0 12 #e3c6ff #404040 0;
#X obj 333 777 outlet~;
#X obj 146 56 inlet;
#X obj 232 4 cnv 19 64 24 empty empty empty 20 12 0 12 #feffc6 #404040 0;
#X obj 243 7 inlet;
#X obj 357 74 cnv 19 64 24 empty empty empty 20 12 0 12 #feffc6 #404040 0;
#X obj 471 75 cnv 19 64 24 empty empty empty 20 12 0 12 #feffc6 #404040 0;
#X obj 589 75 cnv 19 64 24 empty empty empty 20 12 0 12 #feffc6 #404040 0;
#X obj 695 78 cnv 19 64 24 empty empty empty 20 12 0 12 #feffc6 #404040 0;
#X obj 367 78 inlet;
#X obj 482 81 inlet;
#X obj 599 80 inlet;
#X obj 707 80 inlet;
#X obj 45 213 cnv 19 64 24 empty empty empty 20 12 0 12 #c6ffc7 #404040 0;
#X obj 43 215 r note_nr;
#X connect 1 0 59 0;
#X connect 3 0 17 0;
#X connect 3 0 16 0;
#X connect 5 0 23 0;
#X connect 8 0 7 0;
#X connect 9 0 6 0;
#X connect 10 0 7 0;
#X connect 11 0 6 0;
#X connect 12 0 61 0;
#X connect 13 0 63 0;
#X connect 15 0 26 0;
#X connect 15 0 120 0;
#X connect 16 0 13 0;
#X connect 16 0 19 0;
#X connect 17 0 12 0;
#X connect 17 0 18 0;
#X connect 18 0 8 0;
#X connect 18 0 11 0;
#X connect 19 0 9 0;
#X connect 19 0 10 0;
#X connect 21 0 24 0;
#X connect 23 0 125 0;
#X connect 24 0 125 0;
#X connect 26 0 23 1;
#X connect 26 0 25 0;
#X connect 32 0 121 0;
#X connect 34 0 93 0;
#X connect 35 0 56 0;
#X connect 39 0 45 0;
#X connect 39 0 46 0;
#X connect 39 1 41 0;
#X connect 39 1 42 0;
#X connect 40 0 83 0;
#X connect 41 0 43 0;
#X connect 42 0 47 0;
#X connect 43 0 48 1;
#X connect 43 0 84 0;
#X connect 44 0 80 0;
#X connect 45 0 47 0;
#X connect 46 0 43 0;
#X connect 47 0 44 1;
#X connect 47 0 84 0;
#X connect 48 0 77 0;
#X connect 56 0 71 0;
#X connect 57 0 60 1;
#X connect 58 0 76 1;
#X connect 59 0 96 0;
#X connect 60 0 35 0;
#X connect 61 0 14 0;
#X connect 61 0 5 1;
#X connect 62 0 61 1;
#X connect 63 0 15 0;
#X connect 64 0 63 1;
#X connect 65 0 121 1;
#X connect 67 0 109 0;
#X connect 68 0 70 0;
#X connect 69 0 72 0;
#X connect 70 0 85 0;
#X connect 71 0 70 0;
#X connect 71 1 70 1;
#X connect 72 0 78 0;
#X connect 76 0 1 0;
#X connect 77 0 40 0;
#X connect 79 0 44 0;
#X connect 79 0 48 0;
#X connect 80 0 83 0;
#X connect 82 0 5 0;
#X connect 82 0 21 0;
#X connect 83 0 81 0;
#X connect 83 0 103 0;
#X connect 84 0 88 0;
#X connect 85 0 69 0;
#X connect 89 0 85 0;
#X connect 92 0 21 1;
#X connect 93 0 92 0;
#X connect 95 0 45 0;
#X connect 96 0 68 0;
#X connect 96 1 68 1;
#X connect 97 0 100 0;
#X connect 97 0 107 0;
#X connect 97 1 98 0;
#X connect 97 1 106 0;
#X connect 98 0 99 0;
#X connect 99 0 114 1;
#X connect 99 0 117 0;
#X connect 100 0 99 0;
#X connect 101 0 98 0;
#X connect 106 0 108 0;
#X connect 107 0 108 0;
#X connect 108 0 112 1;
#X connect 108 0 113 0;
#X connect 110 0 68 0;
#X connect 111 0 116 0;
#X connect 112 0 115 0;
#X connect 113 0 112 0;
#X connect 114 0 115 0;
#X connect 116 0 114 0;
#X connect 117 0 116 0;
#X connect 118 0 39 0;
#X connect 119 0 97 0;
#X connect 120 0 24 1;
#X connect 121 0 34 0;
#X connect 126 0 76 0;
#X connect 128 0 60 0;
#X connect 133 0 3 0;
#X connect 134 0 32 0;
#X connect 135 0 118 0;
#X connect 136 0 119 0;
#X connect 138 0 67 0;
#X coords 0 -1 1 1 576 128 1 145 103;
