#N canvas 30 195 1468 913 12;
#X obj 145 103 cnv 19 576 128 empty empty Oscillator\ 2 222 16 0 18 #ffe3c6 #553512 0;
#X obj 176 147 knob 50 -24 24 0 0 empty empty #dfdfdf #7c7c7c black 0 0 49 1 0 320 0 0 0;
#X obj 164 201 note 74 12 Menlo empty 0 85 53 18 0 255 255 255 0 0 FREQUENCY;
#X obj 364 142 knob 50 0 127 0 64 empty empty #dfdfdf #7c7c7c black 0 0 0 0 0 320 0 0 0;
#X obj 370 201 note 44 12 Menlo empty 0 85 53 18 0 255 255 255 0 0 SHAPE;
#X obj 210 603 bl.vsaw~;
#X obj 301 385 tgl 19 0 empty empty empty 0 -10 0 12 #fcfcfc #000000 #000000 0 1;
#X obj 401 385 tgl 19 0 empty empty empty 0 -10 0 12 #fcfcfc #000000 #000000 0 1;
#X msg 339 352 0;
#X msg 439 351 0;
#X msg 401 351 1;
#X msg 301 353 1;
#X floatatom 325 385 7 0 0 0 - - - 0;
#X floatatom 424 386 5 0 0 0 - - - 0;
#X floatatom 216 467 8 0 0 0 - - - 0;
#X floatatom 430 463 9 0 0 0 - - - 0;
#X obj 401 284 max 63.5;
#X obj 301 283 min 63.5;
#X obj 301 328 select 63.5;
#X obj 401 327 select 63.5;
#X text 210 485 Rescale: 0.5 to 1;
#X obj 438 596 bl.square~;
#X text 429 490 Rescale: 0 to 1;
#X obj 217 692 *~ 1;
#X obj 428 685 *~ 0;
#X floatatom 279 662 5 0 0 0 - - - 0;
#X obj 279 635 expr $f1 * -1 + 1;
#X text 210 503 For Tri <-> Saw crossfade;
#X text 430 508 For Saw <-> Square crossfade;
#X text 110 604 OSC: Tri/Saw;
#X text 354 597 OSC: Square;
#X text 275 681 Rescale: 1 to 0;
#X obj 468 143 knob 50 0 127 0 64 empty empty #dfdfdf #7c7c7c black 0 0 0 0 1 320 0 0 64;
#X obj 450 201 note 0 12 Menlo empty 0 0 0 0 0 255 255 255 0 0 PULSE WIDTH;
#X floatatom 518 303 9 0 0 0 - - - 0;
#X text 514 322 Rescale: 0.03 to 0.97;
#X obj 268 146 knob 50 -0.5 0.5 0 0 empty empty #dfdfdf #7c7c7c black 0 0 101 1 0 320 0 0 0;
#X obj 273 200 note 29 12 Menlo empty 0 85 53 18 0 255 255 255 0 0 FINE;
#X obj 572 169 button 40 20 186 186 186 186 32 32 1;
#X obj 562 199 note 0 12 Menlo empty 0 0 0 0 0 255 255 255 0 0 LOW FREQ;
#X obj 649 169 button 40 20 186 186 186 186 32 32 1;
#X obj 640 199 note 0 12 Menlo empty 0 0 0 0 0 255 255 255 0 0 KEYBOARD;
#X obj 841 445 select 0 1;
#X floatatom 994 734 9 0 0 0 - - - 0;
#X msg 893 503 1;
#X msg 925 503 0;
#X obj 893 537 tgl 19 0 empty empty empty 0 -10 0 12 #fcfcfc #000000 #000000 0 1;
#X obj 762 690 spigot;
#X msg 806 502 1;
#X msg 838 502 0;
#X obj 821 537 tgl 19 0 empty empty empty 0 -10 0 12 #fcfcfc #000000 #000000 0 1;
#X obj 994 668 spigot;
#N canvas 63 88 450 300 reference 0;
#X text 275 189 signal~ [-1 \, 1];
#X text 31 189 Outlet 1: Oscillator 2 output;
#X text 41 26 Inlet 1: MIDI Note Number;
#X text 40 45 Inlet 2: (Coarse) Frequency;
#X text 39 64 Inlet 3: Fine (Frequency);
#X text 39 83 Inlet 4: Shape;
#X text 38 102 Inlet 5: Pulse Width;
#X text 37 121 Inlet 6: Low Freq Toggle;
#X text 38 141 Inlet 7: Keyboard Toggle;
#X restore 1181 39 pd reference;
#X obj 146 104 cnv 4 16 4 empty empty empty 20 12 0 12 #000000 #404040 0;
#X obj 705 104 cnv 4 16 4 empty empty empty 20 12 0 12 #000000 #404040 0;
#X obj 235 104 cnv 4 16 4 empty empty empty 20 12 0 12 #000000 #404040 0;
#X obj 419 104 cnv 4 16 4 empty empty empty 20 12 0 12 #000000 #404040 0;
#X obj 514 103 cnv 4 16 4 empty empty empty 20 12 0 12 #000000 #404040 0;
#X obj 608 104 cnv 4 16 4 empty empty empty 20 12 0 12 #000000 #404040 0;
#X obj 146 226 cnv 4 16 4 empty empty empty 20 12 0 12 #000000 #404040 0;
#X obj 228 30 inlet;
#X floatatom 269 233 7 0 0 0 - - - 0;
#N canvas 1237 406 450 300 bit_resolution 0;
#X msg 147 112 7;
#X msg 209 112 16;
#X msg 178 112 14;
#X msg 240 112 32;
#X floatatom 147 166 14 0 0 0 - - - 0;
#X obj 147 141 expr (pow(2 \, $i1)) - 1;
#X obj 147 86 loadbang;
#X obj 147 189 s bit;
#X connect 0 0 5 0;
#X connect 1 0 5 0;
#X connect 2 0 5 0;
#X connect 3 0 5 0;
#X connect 4 0 7 0;
#X connect 5 0 4 0;
#X connect 6 0 0 0;
#X restore 1182 77 pd bit_resolution;
#X obj 404 32 r bit;
#X obj 327 31 inlet;
#X obj 275 31 r bit;
#X obj 419 82 inlet;
#X obj 515 82 inlet;
#X floatatom 180 235 4 0 0 0 - - - 0;
#X obj 327 55 expr (($f1 / $f2) * 1.01) - 0.5;
#X obj 216 439 expr $f1 / $f2 + 0.5;
#X obj 353 414 r bit;
#X obj 430 439 expr ($f1 - $f2) / 63.5 + 1;
#X obj 616 410 r bit;
#X obj 518 279 expr (($f1 * 0.94) / $f2) + 0.03;
#X obj 739 254 r bit;
#X obj 608 84 inlet;
#X obj 707 80 inlet;
#X obj 333 777 outlet~;
#X obj 326 104 cnv 4 16 4 empty empty empty 20 12 0 12 #000000 #404040 0;
#X obj 130 78 inlet;
#X floatatom 128 270 5 21 108 0 - - - 0;
#X obj 139 359 +;
#X floatatom 138 487 5 0 0 0 - - - 0;
#X obj 139 410 +;
#X obj 269 256 t b f;
#X obj 138 510 mtof;
#X text 9 359 Frequency offset:;
#X text 38 410 Fine offset:;
#X text 7 271 MID Note Number:;
#X obj 115 54 expr (($f1 / $f2) * 49) - 24;
#X obj 994 693 expr (((50 - 0.1) / (17234.7 - 6.67928)) * ($f1 - 6.67928)) + 0.1, f 40;
#X obj 110 535 s pre_freq;
#X obj 867 627 r pre_freq;
#X floatatom 762 714 9 0 0 0 - - - 0;
#X obj 881 803 s post_freq;
#X obj 288 523 r post_freq;
#X obj 880 770 f;
#X obj 857 564 bng 19 250 50 0 empty empty empty 0 -10 0 12 #fcfcfc #000000 #000000;
#X obj 138 449 f;
#X text 677 698 No Change:;
#X text 919 701 Low Freq:;
#X obj 857 588 s low_update;
#X obj 36 430 r low_update;
#X text 756 587 Update Freq:;
#X text 40 449 Update Freq:;
#X obj 550 652 * 0.67;
#X obj 568 386 line;
#X msg 568 361 \$1 100;
#X text 487 366 Smoothing:;
#X obj 749 452 loadbang;
#X obj 178 270 t b f;
#X obj 736 12 loadbang;
#X msg 736 34 dim 40 20 \, toggle \, bgcolor 186 186 186 \, fgcolor 186 32 32 \, set 1;
#X obj 649 14 loadbang;
#X obj 649 38 delay 500;
#X obj 1150 271 select 0 1;
#X msg 1198 346 1;
#X obj 1197 383 tgl 19 0 empty empty empty 0 -10 0 12 #fcfcfc #000000 #000000 0 1;
#X msg 1143 345 0;
#X obj 1208 308 loadbang;
#X text 468 631 Volume normalization;
#X floatatom 843 856 5 0 0 0 - - - 0;
#X text 1157 246 Keyboard:;
#X text 835 411 Low Freq:;
#X msg 1230 346 0;
#X msg 1112 345 1;
#X obj 1131 381 tgl 19 0 empty empty empty 0 -10 0 12 #fcfcfc #000000 #000000 0 1;
#X obj 128 293 s pre_note_nr;
#X obj 127 322 r post_note_nr;
#X obj 1219 422 r pre_note_nr;
#X obj 1101 503 spigot;
#X msg 1100 473 60;
#X obj 1201 498 spigot;
#X obj 1157 542 s post_note_nr;
#X obj 1201 469 f;
#X obj 1188 426 bng 19 250 50 0 empty empty empty 0 -10 0 12 #fcfcfc #000000 #000000;
#X connect 1 0 68 0;
#X connect 3 0 17 0;
#X connect 3 0 16 0;
#X connect 5 0 23 0;
#X connect 8 0 7 0;
#X connect 9 0 6 0;
#X connect 10 0 7 0;
#X connect 11 0 6 0;
#X connect 12 0 70 0;
#X connect 13 0 72 0;
#X connect 15 0 26 0;
#X connect 15 0 106 0;
#X connect 16 0 13 0;
#X connect 16 0 19 0;
#X connect 17 0 12 0;
#X connect 17 0 18 0;
#X connect 18 0 8 0;
#X connect 18 0 11 0;
#X connect 19 0 9 0;
#X connect 19 0 10 0;
#X connect 21 0 24 0;
#X connect 23 0 78 0;
#X connect 24 0 78 0;
#X connect 26 0 23 1;
#X connect 26 0 25 0;
#X connect 32 0 74 0;
#X connect 34 0 108 0;
#X connect 36 0 61 0;
#X connect 38 0 42 0;
#X connect 40 0 116 0;
#X connect 42 0 48 0;
#X connect 42 0 49 0;
#X connect 42 1 44 0;
#X connect 42 1 45 0;
#X connect 43 0 97 0;
#X connect 44 0 46 0;
#X connect 45 0 50 0;
#X connect 46 0 51 1;
#X connect 46 0 98 0;
#X connect 47 0 94 0;
#X connect 48 0 50 0;
#X connect 49 0 46 0;
#X connect 50 0 47 1;
#X connect 50 0 98 0;
#X connect 51 0 91 0;
#X connect 60 0 90 0;
#X connect 61 0 85 0;
#X connect 63 0 69 1;
#X connect 64 0 69 0;
#X connect 65 0 90 1;
#X connect 66 0 3 0;
#X connect 67 0 32 0;
#X connect 68 0 111 0;
#X connect 69 0 36 0;
#X connect 70 0 14 0;
#X connect 70 0 5 1;
#X connect 71 0 70 1;
#X connect 72 0 15 0;
#X connect 73 0 72 1;
#X connect 74 0 34 0;
#X connect 75 0 74 1;
#X connect 76 0 38 0;
#X connect 77 0 40 0;
#X connect 80 0 81 0;
#X connect 81 0 128 0;
#X connect 82 0 84 0;
#X connect 83 0 86 0;
#X connect 84 0 99 0;
#X connect 85 0 84 0;
#X connect 85 1 84 1;
#X connect 86 0 92 0;
#X connect 90 0 1 0;
#X connect 91 0 43 0;
#X connect 93 0 47 0;
#X connect 93 0 51 0;
#X connect 94 0 97 0;
#X connect 96 0 5 0;
#X connect 96 0 21 0;
#X connect 97 0 95 0;
#X connect 97 0 122 0;
#X connect 98 0 102 0;
#X connect 99 0 83 0;
#X connect 103 0 99 0;
#X connect 106 0 24 1;
#X connect 107 0 21 1;
#X connect 108 0 107 0;
#X connect 110 0 48 0;
#X connect 111 0 82 0;
#X connect 111 1 82 1;
#X connect 112 0 113 0;
#X connect 113 0 38 0;
#X connect 113 0 40 0;
#X connect 114 0 115 0;
#X connect 115 0 113 0;
#X connect 116 0 119 0;
#X connect 116 0 126 0;
#X connect 116 1 117 0;
#X connect 116 1 125 0;
#X connect 117 0 118 0;
#X connect 118 0 133 1;
#X connect 118 0 136 0;
#X connect 119 0 118 0;
#X connect 120 0 117 0;
#X connect 125 0 127 0;
#X connect 126 0 127 0;
#X connect 127 0 131 1;
#X connect 127 0 132 0;
#X connect 129 0 82 0;
#X connect 130 0 135 0;
#X connect 131 0 134 0;
#X connect 132 0 131 0;
#X connect 133 0 134 0;
#X connect 135 0 133 0;
#X connect 136 0 135 0;
#X coords 0 -1 1 1 576 128 1 145 103;
