#N canvas 842 174 948 475 12;
#X obj 218 221 cnv 19 512 128 empty empty Low-Pass\ Filter 192 16 0 18 #ffe3c6 #553512 0;
#X obj 251 267 knob 50 50 20000 1 880 empty empty #dfdfdf #7c7c7c black 0 0 0 0 1 320 0 0 50;
#X obj 254 325 note 0 12 Menlo empty 0 0 0 0 0 255 255 255 0 0 CUTOFF;
#X obj 349 267 knob 50 0 1 0 0.1 empty empty #dfdfdf #7c7c7c black 0 0 0 0 1 320 0 0 0;
#X obj 340 325 note 0 12 Menlo empty 0 0 0 0 0 255 255 255 0 0 RESONANCE;
#X obj 454 267 knob 50 -1 1 0 0 empty empty #dfdfdf #7c7c7c black 0 0 0 0 1 320 0 0 0;
#X obj 445 326 note 0 12 Menlo empty 0 0 0 0 0 255 255 255 0 0 ENV AMOUNT;
#X obj 642 318 note 0 12 Menlo empty 0 0 0 0 0 255 255 255 0 0 KEYBOARD;
#X obj 644 292 hradio 19 1 0 3 empty empty empty 0 -10 0 12 #bbbbbb #bb0300 #000000 0;
#X obj 548 320 note 0 12 Menlo empty 0 0 0 0 0 255 255 255 0 0 VELOCITY;
#X obj 559 274 tgl 36 0 empty empty empty 0 -10 0 12 #bbbbbb #c10100 #000000 0 1;
#X obj 635 260 else/button 30 15 186 186 186 186 32 32 1;
#X obj 682 260 else/button 30 15 186 186 186 186 32 32 1;
#X text 633 240 Half;
#X text 679 240 Full;
#X text 101 130 Rescale: 50 to 20000;
#N canvas 181 747 450 300 lin2log_C 0;
#X obj 124 33 inlet;
#X obj 171 247 outlet;
#X obj 366 169 r bit;
#X obj 145 125 t b f;
#X obj 124 166 pow;
#X obj 296 74 r bit;
#X obj 145 98 expr ($f1 / ($f2 + 1));
#X obj 124 193 expr (($f1 - 1) * 19950) / $f2 + 50;
#X obj 124 63 + 1;
#X text 40 166 Log-scale:;
#X text 54 193 Rescale:;
#X connect 0 0 8 0;
#X connect 2 0 7 1;
#X connect 3 0 4 0;
#X connect 3 1 4 1;
#X connect 4 0 7 0;
#X connect 5 0 6 1;
#X connect 6 0 3 0;
#X connect 7 0 1 0;
#X connect 8 0 6 0;
#X connect 8 0 4 0;
#X restore 159 151 pd lin2log_C;
#X obj 720 132 i;
#X obj 751 131 + 1;
#X obj 720 158 mod 3;
#N canvas 692 578 450 300 rescale_env 0;
#X obj 338 104 r bit;
#X obj 89 131 expr ($f1 - 1) / (($f2 - 1) / 2) - 1;
#X obj 89 66 inlet;
#X obj 89 203 outlet;
#X text 95 111 Rescale: -1 to 1;
#X connect 0 0 1 1;
#X connect 1 0 3 0;
#X connect 2 0 1 0;
#X restore 525 145 pd rescale_env;
#N canvas 1133 735 450 300 kb_track_state 0;
#X obj 169 100 select 0 1 2;
#X text 149 62 Keyboard tracking:;
#X text 165 83 Off/Half/Full;
#X msg 127 149 0;
#X msg 183 149 0;
#X msg 215 149 1;
#X msg 258 147 0;
#X msg 290 147 1;
#X obj 159 227 outlet;
#X obj 233 227 outlet;
#X obj 84 33 inlet;
#N canvas 701 726 465 222 button_init 0;
#X obj 22 69 loadbang;
#X msg 22 93 dim 30 15 \, toggle \, bgcolor 186 186 186 \, fgcolor 186 32 32 \, float 0;
#X text 18 49 Button design:;
#X obj 22 155 outlet;
#X connect 0 0 1 0;
#X connect 1 0 3 0;
#X restore 15 149 pd button_init;
#X connect 0 0 3 0;
#X connect 0 1 4 0;
#X connect 0 1 5 0;
#X connect 0 2 6 0;
#X connect 0 2 7 0;
#X connect 3 0 8 0;
#X connect 3 0 9 0;
#X connect 4 0 9 0;
#X connect 5 0 8 0;
#X connect 6 0 8 0;
#X connect 7 0 9 0;
#X connect 10 0 0 0;
#X connect 11 0 8 0;
#X connect 11 0 9 0;
#X restore 747 292 pd kb_track_state;
#X obj 219 221 cnv 4 16 4 empty empty empty 20 12 0 12 #000000 #404040 0;
#X obj 345 221 cnv 4 16 4 empty empty empty 20 12 0 12 #000000 #404040 0;
#X text 467 128 Rescale: -1 to 1;
#X obj 714 221 cnv 4 16 4 empty empty empty 20 12 0 12 #000000 #404040 0;
#X obj 466 221 cnv 4 16 4 empty empty empty 20 12 0 12 #000000 #404040 0;
#X obj 587 221 cnv 4 16 4 empty empty empty 20 12 0 12 #000000 #404040 0;
#X obj 218 345 cnv 4 16 4 empty empty empty 20 12 0 12 #000000 #404040 0;
#X obj 152 99 cnv 19 64 24 empty empty empty 20 12 0 12 #feffc6 #404040 0;
#X obj 616 172 cnv 19 64 24 empty empty empty 20 12 0 12 #feffc6 #404040 0;
#X obj 513 103 cnv 19 64 24 empty empty empty 20 12 0 12 #feffc6 #404040 0;
#X obj 708 103 cnv 19 64 24 empty empty empty 20 12 0 12 #feffc6 #404040 0;
#X obj 159 101 inlet;
#X obj 525 106 inlet;
#X obj 627 174 inlet;
#X obj 720 106 inlet;
#X obj 309 99 cnv 19 64 24 empty empty empty 20 12 0 12 #feffc6 #404040 0;
#X obj 315 101 inlet;
#X text 256 129 Rescale: 0 to 1;
#N canvas 692 578 395 300 rescale_res 1;
#X obj 235 112 r bit;
#X obj 89 66 inlet;
#X obj 89 203 outlet;
#X obj 89 131 expr $f1 / $f2;
#X text 95 111 Rescale: 0 to 1;
#X connect 0 0 3 1;
#X connect 1 0 3 0;
#X connect 3 0 2 0;
#X restore 315 149 pd rescale_res;
#X obj 244 375 cnv 19 64 24 empty empty empty 20 12 0 12 #e3c6ff #404040 0;
#X obj 251 376 outlet;
#X obj 342 376 cnv 19 64 24 empty empty empty 20 12 0 12 #e3c6ff #404040 0;
#X obj 349 377 outlet;
#X obj 447 377 cnv 19 64 24 empty empty empty 20 12 0 12 #e3c6ff #404040 0;
#X obj 454 378 outlet;
#X obj 552 378 cnv 19 64 24 empty empty empty 20 12 0 12 #e3c6ff #404040 0;
#X obj 559 379 outlet;
#X obj 637 378 cnv 19 64 24 empty empty empty 20 12 0 12 #e3c6ff #404040 0;
#X obj 644 379 outlet;
#X obj 345 345 cnv 4 16 4 empty empty empty 20 12 0 12 #000000 #404040 0;
#X obj 714 345 cnv 4 16 4 empty empty empty 20 12 0 12 #000000 #404040 0;
#X obj 466 345 cnv 4 16 4 empty empty empty 20 12 0 12 #000000 #404040 0;
#X obj 587 345 cnv 4 16 4 empty empty empty 20 12 0 12 #000000 #404040 0;
#X connect 1 0 42 0;
#X connect 3 0 44 0;
#X connect 5 0 46 0;
#X connect 8 0 21 0;
#X connect 8 0 50 0;
#X connect 10 0 48 0;
#X connect 16 0 1 0;
#X connect 17 0 18 0;
#X connect 17 0 19 0;
#X connect 18 0 17 1;
#X connect 19 0 8 0;
#X connect 20 0 5 0;
#X connect 21 0 11 0;
#X connect 21 1 12 0;
#X connect 33 0 16 0;
#X connect 34 0 20 0;
#X connect 35 0 10 0;
#X connect 36 0 17 0;
#X connect 38 0 40 0;
#X connect 40 0 3 0;
#X coords 0 -1 1 1 512 128 1 218 221;
