#N canvas 988 285 688 572 12;
#X obj 221 116 cnv 19 256 303 empty empty Mixer 96 16 0 18 #ffe3c6 #553512 0;
#X obj 258 164 knob 50 0 1 0 1 empty empty #dfdfdf #7c7c7c black 0 0 0 0 1 320 0 0 0;
#X obj 257 225 note 0 12 Menlo empty 0 0 0 0 0 255 255 255 0 0 OSC 1;
#X obj 381 164 knob 50 0 1 0 0.5 empty empty #dfdfdf #7c7c7c black 0 0 0 0 1 320 0 0 0;
#X obj 380 225 note 0 12 Menlo empty 0 0 0 0 0 255 255 255 0 0 OSC 2;
#X obj 257 317 knob 50 0 1 0 0 empty empty #dfdfdf #7c7c7c black 0 0 0 0 1 320 0 0 0;
#X obj 245 378 note 0 12 Menlo empty 0 0 0 0 0 255 255 255 0 0 SUB OCTAVE;
#X obj 386 315 knob 50 0 1 0 0 empty empty #dfdfdf #7c7c7c black 0 0 0 0 1 320 0 0 0;
#X obj 391 376 note 0 12 Menlo empty 0 0 0 0 0 255 255 255 0 0 NOISE;
#N canvas 511 660 450 300 gainscale 0;
#X obj 140 128 expr ($f1 - $f2) / $f2 + 1;
#X obj 318 96 r bit;
#X text 32 127 Scale to 0-1:;
#X obj 139 39 inlet;
#X obj 140 214 outlet;
#X connect 0 0 4 0;
#X connect 1 0 0 1;
#X connect 3 0 0 0;
#X restore 144 80 pd gainscale;
#N canvas 511 660 450 300 gainscale 0;
#X obj 140 128 expr ($f1 - $f2) / $f2 + 1;
#X obj 318 96 r bit;
#X text 32 127 Scale to 0-1:;
#X obj 139 39 inlet;
#X obj 140 214 outlet;
#X connect 0 0 4 0;
#X connect 1 0 0 1;
#X connect 3 0 0 0;
#X restore 265 79 pd gainscale;
#N canvas 511 660 450 300 gainscale 0;
#X obj 140 128 expr ($f1 - $f2) / $f2 + 1;
#X obj 318 96 r bit;
#X text 32 127 Scale to 0-1:;
#X obj 139 39 inlet;
#X obj 140 214 outlet;
#X connect 0 0 4 0;
#X connect 1 0 0 1;
#X connect 3 0 0 0;
#X restore 382 80 pd gainscale;
#N canvas 511 660 450 300 gainscale 0;
#X obj 140 128 expr ($f1 - $f2) / $f2 + 1;
#X obj 318 96 r bit;
#X text 32 127 Scale to 0-1:;
#X obj 139 39 inlet;
#X obj 140 214 outlet;
#X connect 0 0 4 0;
#X connect 1 0 0 1;
#X connect 3 0 0 0;
#X restore 508 83 pd gainscale;
#X obj 222 116 cnv 4 16 4 empty empty empty 20 12 0 12 #000000 #404040 0;
#X obj 460 116 cnv 4 16 4 empty empty empty 20 12 0 12 #000000 #404040 0;
#X obj 300 116 cnv 4 16 4 empty empty empty 20 12 0 12 #000000 #404040 0;
#X obj 378 116 cnv 4 16 4 empty empty empty 20 12 0 12 #000000 #404040 0;
#X obj 221 415 cnv 4 16 4 empty empty empty 20 12 0 12 #000000 #404040 0;
#X obj 131 52 cnv 19 64 24 empty empty empty 20 12 0 12 #feffc6 #404040 0;
#X obj 253 51 cnv 19 64 24 empty empty empty 20 12 0 12 #feffc6 #404040 0;
#X obj 371 51 cnv 19 64 24 empty empty empty 20 12 0 12 #feffc6 #404040 0;
#X obj 498 53 cnv 19 64 24 empty empty empty 20 12 0 12 #feffc6 #404040 0;
#X obj 144 56 inlet;
#X obj 265 55 inlet;
#X obj 382 56 inlet;
#X obj 508 59 inlet;
#X obj 151 451 cnv 19 64 24 empty empty empty 20 12 0 12 #e3c6ff #404040 0;
#X obj 161 452 outlet;
#X obj 271 450 cnv 19 64 24 empty empty empty 20 12 0 12 #e3c6ff #404040 0;
#X obj 281 451 outlet;
#X obj 388 450 cnv 19 64 24 empty empty empty 20 12 0 12 #e3c6ff #404040 0;
#X obj 398 451 outlet;
#X obj 511 453 cnv 19 64 24 empty empty empty 20 12 0 12 #e3c6ff #404040 0;
#X obj 521 454 outlet;
#X obj 461 415 cnv 4 16 4 empty empty empty 20 12 0 12 #000000 #404040 0;
#X obj 301 415 cnv 4 16 4 empty empty empty 20 12 0 12 #000000 #404040 0;
#X obj 379 415 cnv 4 16 4 empty empty empty 20 12 0 12 #000000 #404040 0;
#X connect 1 0 27 0;
#X connect 3 0 29 0;
#X connect 5 0 31 0;
#X connect 7 0 33 0;
#X connect 9 0 1 0;
#X connect 10 0 3 0;
#X connect 11 0 5 0;
#X connect 12 0 7 0;
#X connect 22 0 9 0;
#X connect 23 0 10 0;
#X connect 24 0 11 0;
#X connect 25 0 12 0;
#X coords 0 -1 1 1 256 303 1 221 116;
