#N canvas 232 174 1468 891 12;
#X obj 145 103 cnv 19 576 128 empty empty Oscillator\ 2 222 16 0 18 #ffe3c6 #553512 0;
#X obj 176 147 knob 50 16 8000 1 50 empty empty #dfdfdf #7c7c7c black 0 0 0 0 1 320 0 0 440;
#X obj 164 201 note 74 12 Menlo empty 0 85 53 18 0 255 255 255 0 0 FREQUENCY;
#X obj 364 141 knob 50 0 127 0 64 empty empty #dfdfdf #7c7c7c black 0 0 0 0 0 320 0 0 0;
#X obj 370 200 note 44 12 Menlo empty 0 85 53 18 0 255 255 255 0 0 SHAPE;
#X floatatom 187 268 5 0 0 0 - - - 0;
#X obj 528 673 else/graph~;
#X obj 210 563 bl.vsaw~;
#X obj 301 402 tgl 19 0 empty empty empty 0 -10 0 12 #fcfcfc #000000 #000000 0 1;
#X obj 401 402 tgl 19 0 empty empty empty 0 -10 0 12 #fcfcfc #000000 #000000 0 1;
#X msg 339 369 0;
#X msg 439 368 0;
#X msg 401 368 1;
#X msg 301 370 1;
#X floatatom 325 402 7 0 0 0 - - - 0;
#X floatatom 424 403 5 0 0 0 - - - 0;
#X floatatom 216 467 8 0 0 0 - - - 0;
#X floatatom 430 463 9 0 0 0 - - - 0;
#X obj 401 284 max 63.5;
#X obj 216 439 expr $f1 / 127 + 0.5;
#X obj 301 283 min 63.5;
#X obj 301 345 select 63.5;
#X obj 401 344 select 63.5;
#X text 210 485 Rescale: 0.5 to 1;
#X obj 440 559 bl.square~;
#X text 429 490 Rescale: 0 to 1;
#X obj 217 652 *~ 1;
#X obj 428 645 *~ 0;
#X floatatom 279 622 5 0 0 0 - - - 0;
#X obj 430 439 expr ($f1 - 127) / 63.5 + 1;
#X obj 279 595 expr $f1 * -1 + 1;
#X text 210 503 For Tri <-> Saw crossfade;
#X text 430 508 For Saw <-> Square crossfade;
#X text 110 564 OSC: Tri/Saw;
#X text 354 557 OSC: Square;
#X text 275 641 Rescale: 1 to 0;
#X obj 468 142 knob 50 0 127 0 64 empty empty #dfdfdf #7c7c7c black 0 0 0 0 1 320 0 0 64;
#X obj 450 200 note 0 12 Menlo empty 0 0 0 0 0 255 255 255 0 0 PULSE WIDTH;
#X floatatom 518 303 9 0 0 0 - - - 0;
#X obj 307 813 out~;
#X obj 518 279 expr (($f1 * 0.94) / 127) + 0.03;
#X text 514 322 Rescale: 0.03 to 0.97;
#X obj 268 145 knob 50 -50 50 0 0 empty empty #dfdfdf #7c7c7c black 0 0 0 0 1 320 0 0 0;
#X obj 273 199 note 29 12 Menlo empty 0 85 53 18 0 255 255 255 0 0 FINE;
#X obj 572 169 button 40 20 186 186 186 186 32 32 1;
#X obj 569 8 loadbang;
#X obj 562 199 note 0 12 Menlo empty 0 0 0 0 0 255 255 255 0 0 LOW FREQ;
#X obj 649 169 button 40 20 186 186 186 186 32 32 1;
#X obj 640 199 note 0 12 Menlo empty 0 0 0 0 0 255 255 255 0 0 KEYBOARD;
#X obj 171 8 loadbang;
#X obj 193 112 r low_freq;
#X obj 972 287 select 0 1;
#X obj 1318 373 s low_freq;
#X obj 86 334 s frequency;
#X obj 969 477 r frequency;
#X obj 852 581 expr ($f1 / 8000) * 50;
#X floatatom 852 607 13 0 0 0 - - - 0;
#X floatatom 1077 613 9 0 0 0 - - - 0;
#X msg 1023 399 1;
#X msg 1055 399 0;
#X obj 1023 433 tgl 19 0 empty empty empty 0 -10 0 12 #fcfcfc #000000 #000000 0 1;
#X obj 852 552 spigot;
#X msg 936 398 1;
#X msg 968 398 0;
#X obj 951 433 tgl 19 0 empty empty empty 0 -10 0 12 #fcfcfc #000000 #000000 0 1;
#X msg 569 32 dim 40 20 \, toggle \, bgcolor 186 186 186 \, fgcolor 186 32 32 \, float 0;
#X obj 1077 583 expr ($f1 / 50) * 8000;
#X obj 1077 555 spigot;
#X obj 1002 703 f;
#X msg 1002 727 float \$1;
#X obj 1002 671 bng 19 250 50 0 empty empty empty 0 -10 0 12 #fcfcfc #000000 #000000;
#X msg 171 32 range 16 8000 \, arc 440 \, start 440;
#X msg 1143 329 range 16 8000 \, arc 440 \, start 440;
#X msg 1148 405 range 0.1 50 \, arc 2.75 \, start 2.75;
#X text 1147 383 LFO Range adjust:;
#X text 1142 307 OSC Range adjust:;
#X obj 1002 751 s low_freq;
#X text 941 773 Keep relative knob position;
#X text 1072 527 LFO to OSC position:;
#X text 849 525 OSC to LFO position:;
#N canvas 63 88 450 300 reference 0;
#X text 275 189 signal~ [-1 \, 1];
#X text 39 61 Inlet 2: Fine (Frequency);
#X text 40 43 Inlet 1: (Coarse) Frequency;
#X text 39 82 Inlet 3: Shape;
#X text 38 101 Inlet 4: Pulse Width;
#X text 38 121 Inlet 5: Low Freq Toggle;
#X text 39 138 Inlet 6: Keyboard Toggle;
#X text 31 189 Outlet 1: Oscillator 2 output;
#X restore 1181 39 pd reference;
#X obj 146 104 cnv 4 16 4 empty empty empty 20 12 0 12 #000000 #404040 0;
#X obj 705 104 cnv 4 16 4 empty empty empty 20 12 0 12 #000000 #404040 0;
#X obj 263 104 cnv 4 16 4 empty empty empty 20 12 0 12 #000000 #404040 0;
#X obj 361 104 cnv 4 16 4 empty empty empty 20 12 0 12 #000000 #404040 0;
#X obj 490 104 cnv 4 16 4 empty empty empty 20 12 0 12 #000000 #404040 0;
#X obj 600 104 cnv 4 16 4 empty empty empty 20 12 0 12 #000000 #404040 0;
#X obj 146 226 cnv 4 16 4 empty empty empty 20 12 0 12 #000000 #404040 0;
#X obj 144 65 inlet;
#X obj 33 76 mtof;
#X floatatom 33 34 5 0 0 0 - - - 0;
#X floatatom 36 162 5 0 0 0 - - - 0;
#X floatatom 25 389 5 0 0 0 - - - 0;
#X obj 44 449 mtof;
#X floatatom 44 473 5 0 0 0 - - - 0;
#X obj 116 390 vsl 19 162 0 127 0 0 empty empty empty 0 -9 0 12 #fcfcfc #000000 #000000 0 1;
#X floatatom 41 674 5 0 0 0 - - - 0;
#X obj 27 621 expr (($f1 + 1) / 128) + 0.5;
#X connect 1 0 5 0;
#X connect 3 0 20 0;
#X connect 3 0 18 0;
#X connect 5 0 7 0;
#X connect 5 0 24 0;
#X connect 5 0 53 0;
#X connect 6 0 39 0;
#X connect 7 0 26 0;
#X connect 10 0 9 0;
#X connect 11 0 8 0;
#X connect 12 0 9 0;
#X connect 13 0 8 0;
#X connect 14 0 19 0;
#X connect 15 0 29 0;
#X connect 17 0 27 1;
#X connect 17 0 30 0;
#X connect 18 0 15 0;
#X connect 18 0 22 0;
#X connect 19 0 16 0;
#X connect 19 0 7 1;
#X connect 20 0 14 0;
#X connect 20 0 21 0;
#X connect 21 0 10 0;
#X connect 21 0 13 0;
#X connect 22 0 11 0;
#X connect 22 0 12 0;
#X connect 24 0 27 0;
#X connect 26 0 6 0;
#X connect 27 0 6 0;
#X connect 29 0 17 0;
#X connect 30 0 26 1;
#X connect 30 0 28 0;
#X connect 36 0 40 0;
#X connect 38 0 24 1;
#X connect 40 0 38 0;
#X connect 44 0 51 0;
#X connect 44 0 70 0;
#X connect 45 0 65 0;
#X connect 49 0 71 0;
#X connect 50 0 1 0;
#X connect 51 0 62 0;
#X connect 51 0 63 0;
#X connect 51 0 72 0;
#X connect 51 1 58 0;
#X connect 51 1 59 0;
#X connect 51 1 73 0;
#X connect 54 0 61 0;
#X connect 54 0 67 0;
#X connect 55 0 56 0;
#X connect 55 0 68 1;
#X connect 58 0 60 0;
#X connect 59 0 64 0;
#X connect 60 0 67 1;
#X connect 61 0 55 0;
#X connect 62 0 64 0;
#X connect 63 0 60 0;
#X connect 64 0 61 1;
#X connect 65 0 44 0;
#X connect 65 0 47 0;
#X connect 66 0 57 0;
#X connect 66 0 68 1;
#X connect 67 0 66 0;
#X connect 68 0 69 0;
#X connect 69 0 76 0;
#X connect 70 0 68 0;
#X connect 71 0 1 0;
#X connect 72 0 52 0;
#X connect 73 0 52 0;
#X connect 88 0 1 0;
#X connect 89 0 1 0;
#X connect 89 0 91 0;
#X connect 90 0 89 0;
#X connect 92 0 93 0;
#X connect 93 0 94 0;
#X connect 95 0 97 0;
#X connect 96 0 93 0;
#X connect 97 0 96 0;
#X coords 0 -1 1 1 576 128 1 145 103;
