#N canvas 958 285 692 718 12;
#X obj 401 446 else/white~;
#N canvas 1322 477 450 300 reference 0;
#X text 275 189 signal~ [-1 \, 1];
#X text 36 189 Outlet 1: (summed) Mixer output;
#X text 46 51 Inlet 1: Osc 1 level control;
#X text 44 71 Inlet 2: Osc 2 level control;
#X text 43 91 Inlet 3: Sub-Octave level control;
#X text 41 112 Inlet 4: (white) Noise level control;
#X restore 577 37 pd reference;
#X obj 148 223 *~;
#X obj 256 310 *~;
#X text 93 223 Osc 1:;
#X text 203 311 Osc 2:;
#X obj 360 400 *~;
#X text 298 402 Sub-Oct:;
#X obj 467 510 *~;
#X text 411 511 Noise:;
#X text 400 426 White noise;
#X obj 153 116 cnv 19 64 24 empty empty empty 20 12 0 12 #feffc6 #404040 0;
#X obj 262 113 cnv 19 64 24 empty empty empty 20 12 0 12 #feffc6 #404040 0;
#X obj 367 112 cnv 19 64 24 empty empty empty 20 12 0 12 #feffc6 #404040 0;
#X obj 475 113 cnv 19 64 24 empty empty empty 20 12 0 12 #feffc6 #404040 0;
#X obj 166 120 inlet;
#X obj 274 117 inlet;
#X obj 378 117 inlet;
#X obj 485 119 inlet;
#X obj 86 164 cnv 19 64 24 empty empty empty 20 12 0 12 #c6ffc7 #404040 0;
#X obj 198 254 cnv 19 64 24 empty empty empty 20 12 0 12 #c6ffc7 #404040 0;
#X obj 315 341 cnv 19 64 24 empty empty empty 20 12 0 12 #c6ffc7 #404040 0;
#X obj 91 165 r~ osc1;
#X obj 202 255 r~ osc2;
#X obj 315 344 r~ subosc;
#X obj 247 669 cnv 19 64 24 empty empty empty 20 12 0 12 #e3c6ff #404040 0;
#X obj 257 670 outlet~;
#X text 164 89 OSC 1;
#X text 273 87 OSC 2;
#X text 359 85 SUB OCTAVE;
#X text 483 85 NOISE;
#X text 286 28 ___ Mixer ___;
#X connect 0 0 8 0;
#X connect 2 0 26 0;
#X connect 3 0 26 0;
#X connect 6 0 26 0;
#X connect 8 0 26 0;
#X connect 15 0 2 1;
#X connect 16 0 3 1;
#X connect 17 0 6 1;
#X connect 18 0 8 1;
#X connect 22 0 2 0;
#X connect 23 0 3 0;
#X connect 24 0 6 0;
#X coords 0 718 1 717 256 304 0;
